<?xml version="1.0" encoding="UTF-8" standalone="no"?>
<svg
   xmlns:dc="http://purl.org/dc/elements/1.1/"
   xmlns:cc="http://creativecommons.org/ns#"
   xmlns:rdf="http://www.w3.org/1999/02/22-rdf-syntax-ns#"
   xmlns:svg="http://www.w3.org/2000/svg"
   xmlns="http://www.w3.org/2000/svg"
   xmlns:sodipodi="http://sodipodi.sourceforge.net/DTD/sodipodi-0.dtd"
   xmlns:inkscape="http://www.inkscape.org/namespaces/inkscape"
   sodipodi:docname="rome.svg"
   inkscape:version="1.0 (4035a4fb49, 2020-05-01)"
   id="svg7101"
   version="1.1"
   viewBox="0 0 454.18021 107.8462"
   height="107.84621mm"
   width="454.18021mm">
  <defs
     id="defs7095" />
  <sodipodi:namedview
     inkscape:window-maximized="0"
     inkscape:window-y="0"
     inkscape:window-x="234"
     inkscape:window-height="1041"
     inkscape:window-width="1545"
     scale-x="1"
     showgrid="false"
     inkscape:document-rotation="0"
     inkscape:current-layer="layer1"
     inkscape:document-units="mm"
     inkscape:cy="86.661531"
     inkscape:cx="672.57906"
     inkscape:zoom="0.35"
     inkscape:pageshadow="2"
     inkscape:pageopacity="0.0"
     borderopacity="1.0"
     bordercolor="#666666"
     pagecolor="#ffffff"
     id="base" />
  <metadata
     id="metadata7098">
    <rdf:RDF>
      <cc:Work
         rdf:about="">
        <dc:format>image/svg+xml</dc:format>
        <dc:type
           rdf:resource="http://purl.org/dc/dcmitype/StillImage" />
        <dc:title></dc:title>
      </cc:Work>
    </rdf:RDF>
  </metadata>
  <g
     transform="translate(72.119876,-125.23747)"
     id="layer1"
     inkscape:groupmode="layer"
     inkscape:label="Livello 1">
    <path
       d="m 377.41426,226.0717 -0.56443,-0.39758 v -20.09387 l 0.22576,-0.68262 v -0.83961 h -0.8396 v -0.53235 l -0.29633,-0.29703 v -4.86305 h 0.39865 v -0.38876 h -0.44805 v -1.10596 h -0.71612 c 0,0 0.32454,-0.1845 0.0177,-0.38911 -0.30692,-0.20461 0.0212,-1.22837 0.0423,-1.43298 0.0212,-0.20461 0.20463,-0.67593 -0.06,-0.9525 -0.26813,-0.27623 -0.39159,-0.29669 -0.39159,-0.29669 0,0 0.17637,-0.44027 -0.10231,-0.51223 -0.27517,-0.0716 -0.4304,0.12312 -0.41982,0.21519 0.0106,0.0921 -0.0106,0.33796 -0.0106,0.33796 0,0 -0.15169,0.27658 -0.23283,0.37853 -0.0847,0.10266 -0.24694,0.46108 -0.22577,0.63536 0.0212,0.17356 0.0812,0.56268 0.0917,0.71649 0.0106,0.15346 0.0599,0.86007 0.0317,0.91087 -0.0317,0.0511 -0.41982,0.19473 -0.41982,0.19473 0,0 0.11994,-0.57361 -0.0212,-0.74718 -0.14465,-0.17427 -0.3175,-0.24624 -0.22577,-0.29704 0.0917,-0.0512 0.5221,-0.16404 0.4092,-0.43039 -0.11287,-0.26599 -0.46212,-0.21484 -0.74787,-0.12241 -0.28575,0.0917 -0.23638,0.21449 -0.66323,0.11253 -0.4304,-0.10265 -0.52565,-0.3376 -0.77965,-0.77822 -0.25752,-0.44027 -0.97366,-0.3683 -0.97366,-0.3683 0,0 0.58563,-0.10266 0.26813,-0.61454 -0.3175,-0.51188 -0.46215,-0.66569 -0.381,-0.70626 0.0847,-0.0406 0.4092,-0.16404 0.2046,-0.31715 -0.2046,-0.15381 -0.43744,-0.11289 -0.46919,-0.11289 -0.0317,0 0.0317,-0.46108 -0.22579,-0.38947 -0.25752,0.072 -0.29634,-0.3683 -0.64559,-0.32737 -0.34925,0.0409 -0.49035,0.4198 -0.49035,0.4198 0,0 -0.25752,0.0406 -0.3175,0.10231 -0.0635,0.0617 -0.0106,0.20426 -0.0106,0.20426 0,0 -0.16227,0.0519 -0.39865,0.10336 -0.23635,0.0508 0.1623,0.54222 0.1623,0.54222 0,0 -0.29634,0.16369 -0.49038,0.38876 -0.19402,0.22578 -0.0423,0.70697 0.3175,0.8703 0,0 -0.41979,-0.19438 -0.74787,0.0921 -0.32809,0.28681 -0.56092,0.71685 -0.77965,0.89112 -0.21167,0.17427 -0.6844,-0.14323 -0.94192,-0.31715 -0.254,-0.17427 -0.2046,0.266 -0.2046,0.266 0,0 -0.23283,-0.33832 -0.43746,-0.35807 -0.20461,-0.0208 -0.35984,0.18379 -0.35984,0.18379 v -0.41945 c 0,0 0.57505,0.21484 0.635,0.0508 0.06,-0.16333 0.06,-0.74753 -0.0212,-0.81915 -0.0811,-0.0716 -0.32809,-0.18415 -0.28575,-0.0102 0.0423,0.17428 0.16229,0.35878 0.17288,0.46073 0.0106,0.10266 0.0212,0.22543 -0.0706,0.18451 -0.0917,-0.0409 -0.3669,-0.4505 -0.50093,-0.49143 0,0 0.0917,-0.6858 -0.35984,-0.62441 -0.45156,0.0614 0.0423,0.67557 0.0423,0.67557 0,0 -0.41982,0.1023 -0.52213,0.19473 -0.10229,0.0921 -0.34925,0.49142 -0.29634,0.69603 0.0494,0.20461 0.27517,0.50201 0.27517,0.50201 0,0 -0.23635,0.12276 -0.21519,0.3376 0.0212,0.21485 -0.21518,0.32738 -0.21518,0.32738 0,0 0.0705,-0.47061 -0.0317,-0.50165 -0.10232,-0.0307 -0.23283,0.031 -0.23283,0.13335 0,0.10231 -0.14465,0.29704 -0.23638,0.29704 -0.0917,0 -0.45154,-0.0102 -0.45154,-0.0102 l -0.0388,-2.97956 0.06,-0.133 0.0423,-0.64487 0.15168,-0.15417 v -0.42968 h -1.12545 v -0.70626 l 0.0917,-0.0614 v -0.17428 h -0.30692 c 0,0 0.0212,-2.98979 -2.80458,-4.23897 l -0.18695,-0.28611 -0.0988,-0.65581 h -0.14462 v -0.84949 l 0.0882,-0.0868 v -0.18944 h -0.20109 v -0.76764 l -0.75848,-0.74754 v -0.94192 h -0.17285 v 0.901 l -0.80785,0.80856 v 0.68616 h -0.18698 v 0.28645 h 0.11289 v 0.88089 h -0.21521 l -0.16227,0.67557 -0.19402,0.34819 c 0,0 -2.61056,1.26929 -2.73404,4.0954 h -0.28575 v 0.17356 l 0.0494,0.10266 v 0.80857 h -0.97015 v 0.28645 l 0.29633,0.2974 0.0882,0.67204 0.0811,0.12312 v 1.06468 h -1.03716 l -0.24694,-0.24589 v -1.61008 l 0.29282,-0.29386 v -0.29386 h -0.35984 v -0.31398 l -0.1905,-0.19085 v -5.82895 h 0.27162 v -0.30021 h -0.23283 v -0.23213 l 0.16582,-0.16404 -0.2399,-0.23848 v -0.34854 l 0.3034,-0.30339 v -0.37923 h -1.38994 v -0.24554 h -0.61383 v -1.99284 l 0.2681,-0.26635 c 0,0 0.73025,-9.18068 -10.04007,-15.48729 l -0.0953,-1.01001 c 0,0 -0.17991,-0.35489 -0.34218,-0.3683 -0.16227,-0.0138 -0.1764,0.13653 -0.24694,0.0815 -0.067,-0.0543 -0.40923,-0.3817 -0.40923,-0.3817 v -2.62114 c 0,0 0.2046,-0.0134 0.1764,-0.19121 -0.0246,-0.17709 -0.1905,-0.20461 -0.1905,-0.20461 0,0 -0.25755,-0.51893 -0.39513,-0.62794 -0.13758,-0.10936 -0.0953,-0.83291 -0.0953,-0.83291 0,0 0.0812,-0.0138 0.067,-0.16369 -0.014,-0.15063 -0.1764,-0.27305 -0.1623,-0.38241 0.014,-0.10901 0.10938,-0.31397 0.10938,-0.43674 0,-0.12312 -0.0811,-0.19121 -0.0811,-0.2727 0,-0.0822 0.0952,-0.38241 0.0246,-0.46425 -0.067,-0.0818 -0.21871,-0.0956 -0.33867,-0.0956 -0.12345,0 -0.29985,0.0543 -0.34218,0.12276 -0.0423,0.0684 -0.014,0.0684 -0.15169,0.17745 -0.13406,0.10936 -0.20463,0.19121 -0.20463,0.19121 0,0 0.0706,-0.47766 -0.0388,-0.58738 -0.10937,-0.109 -1.02306,-1.97908 -1.0795,-2.38865 0,0 0.0811,-0.1771 0.0811,-0.24554 0,-0.0681 -0.25752,-0.13652 -0.25752,-0.13652 l 0.0106,-0.58703 c 0,0 0.35631,-0.10936 0.35631,-0.70979 0,-0.60042 -0.50448,-0.84666 -0.50448,-0.84666 v -1.2693 h 0.45157 v -0.20461 h -0.43746 v -0.49177 h -0.14111 -0.0494 -0.14111 v 0.49177 h -0.43743 v 0.20461 h 0.45154 v 1.2693 c 0,0 -0.508,0.24624 -0.508,0.84666 0,0.60043 0.35631,0.70979 0.35631,0.70979 l 0.014,0.58703 c 0,0 -0.26104,0.0684 -0.26104,0.13652 0,0.0684 0.0847,0.24554 0.0847,0.24554 -0.0565,0.40957 -0.97015,2.27965 -1.0795,2.38865 -0.10938,0.10972 -0.0423,0.58738 -0.0423,0.58738 0,0 -0.067,-0.0819 -0.20463,-0.19121 -0.13404,-0.10901 -0.10935,-0.10901 -0.14817,-0.17745 -0.0423,-0.0684 -0.2187,-0.12276 -0.34218,-0.12276 -0.12348,0 -0.27517,0.0138 -0.34219,0.0956 -0.067,0.0818 0.0282,0.38206 0.0282,0.46425 0,0.0815 -0.0811,0.14958 -0.0811,0.2727 0,0.12277 0.0952,0.32773 0.10936,0.43674 0.0106,0.10936 -0.15169,0.23178 -0.16582,0.38241 -0.014,0.14993 0.0706,0.16369 0.0706,0.16369 0,0 0.0388,0.72355 -0.0988,0.83291 -0.13407,0.10901 -0.39513,0.62794 -0.39513,0.62794 0,0 -0.16227,0.0275 -0.1905,0.20461 -0.0282,0.1778 0.1764,0.19121 0.1764,0.19121 v 2.62114 c 0,0 -0.33867,0.32738 -0.40923,0.3817 -0.067,0.055 -0.0811,-0.0952 -0.24342,-0.0815 -0.16579,0.0134 -0.34219,0.3683 -0.34219,0.3683 l -0.0952,1.01001 c -10.77031,6.30661 -10.04006,15.48729 -10.04006,15.48729 l 0.26458,0.26635 v 1.99284 h -0.61383 v 0.24554 h -1.38994 v 0.37923 l 0.30692,0.30339 v 0.34854 l -0.2399,0.23848 0.1623,0.16404 v 0.23213 h -0.23284 v 0.30021 h 0.27517 v 5.82895 l -0.1905,0.19085 v 0.31398 h -0.36338 v 0.29386 l 0.29282,0.29386 v 1.61008 l -0.24342,0.24589 h -1.04069 v -1.0647 l 0.0847,-0.12311 0.0882,-0.67205 0.29633,-0.29739 v -0.28645 h -0.97367 v -0.80857 l 0.0529,-0.10266 v -0.17357 h -0.28575 c -0.12332,-2.82608 -2.73386,-4.09538 -2.73386,-4.09538 l -0.19405,-0.34819 -0.16578,-0.67557 h -0.21522 v -0.88088 h 0.1129 v -0.28646 h -0.18343 v -0.68615 l -0.80788,-0.80857 v -0.90099 h -0.17637 v 0.94191 l -0.75497,0.74754 v 0.76764 h -0.20108 v 0.18944 l 0.0882,0.0868 v 0.84949 h -0.14464 l -0.10232,0.65582 -0.18343,0.2861 c -2.82575,1.24919 -2.80459,4.23898 -2.80459,4.23898 h -0.31043 v 0.17427 l 0.0952,0.0614 v 0.70626 h -1.1289 v 0.43039 l 0.15523,0.15346 0.0388,0.64488 0.0635,0.13299 -0.0423,2.97956 c 0,0 -0.35628,0.0102 -0.45153,0.0102 -0.0917,0 -0.23284,-0.19473 -0.23284,-0.29704 0,-0.1023 -0.13406,-0.16404 -0.23638,-0.13335 -0.10228,0.031 -0.0318,0.50165 -0.0318,0.50165 0,0 -0.23283,-0.11253 -0.21518,-0.32737 0.0212,-0.21484 -0.21167,-0.33761 -0.21167,-0.33761 0,0 0.22225,-0.29739 0.27517,-0.50201 0.0494,-0.20461 -0.19402,-0.60395 -0.29633,-0.69602 -0.10232,-0.0924 -0.52211,-0.19474 -0.52211,-0.19474 0,0 0.49036,-0.61419 0.0388,-0.67557 -0.45154,-0.0614 -0.35629,0.62442 -0.35629,0.62442 -0.13406,0.0409 -0.40923,0.4505 -0.50448,0.49142 -0.0917,0.0409 -0.0811,-0.0819 -0.0706,-0.18451 0.0106,-0.10195 0.13406,-0.28645 0.1764,-0.46072 0.0388,-0.17392 -0.20461,-0.0614 -0.28927,0.0102 -0.0811,0.0716 -0.0811,0.65581 -0.0212,0.81915 0.0635,0.16404 0.635,-0.0508 0.635,-0.0508 v 0.41945 c 0,0 -0.15171,-0.20461 -0.35631,-0.1838 -0.20461,0.0198 -0.44099,0.35807 -0.44099,0.35807 0,0 0.0494,-0.44026 -0.2046,-0.26599 -0.25752,0.17392 -0.72673,0.49142 -0.94191,0.31714 -0.21519,-0.17427 -0.45157,-0.6043 -0.77965,-0.89111 -0.32809,-0.28646 -0.74435,-0.0921 -0.74435,-0.0921 0.35631,-0.16334 0.51151,-0.64453 0.31398,-0.8703 -0.19405,-0.22508 -0.49038,-0.38877 -0.49038,-0.38877 0,0 0.39865,-0.49142 0.16581,-0.54222 -0.23635,-0.0515 -0.39865,-0.10336 -0.39865,-0.10336 0,0 0.0494,-0.14252 -0.0106,-0.20426 -0.0635,-0.061 -0.3175,-0.1023 -0.3175,-0.1023 0,0 -0.14462,-0.37889 -0.49387,-0.41981 -0.34925,-0.0409 -0.38806,0.39935 -0.64558,0.32738 -0.254,-0.0716 -0.19405,0.38947 -0.22225,0.38947 -0.0317,0 -0.26813,-0.0409 -0.47273,0.11288 -0.20461,0.15311 0.12348,0.27658 0.2046,0.31715 0.0811,0.0406 -0.06,0.19438 -0.37746,0.70626 -0.3175,0.51188 0.26459,0.61454 0.26459,0.61454 0,0 -0.71615,-0.072 -0.97015,0.3683 -0.25752,0.44062 -0.34925,0.67557 -0.77965,0.77823 -0.43037,0.10195 -0.37745,-0.0208 -0.66675,-0.11254 -0.28575,-0.0924 -0.635,-0.14358 -0.74787,0.12242 -0.1129,0.26634 0.3175,0.37923 0.4092,0.43039 0.0953,0.0508 -0.0811,0.12276 -0.22225,0.29704 -0.14462,0.17356 -0.0212,0.74718 -0.0212,0.74718 0,0 -0.38804,-0.14358 -0.41979,-0.19473 -0.0317,-0.0508 0.0212,-0.75742 0.0317,-0.91088 0.0106,-0.15381 0.0705,-0.54292 0.0917,-0.71649 0.0177,-0.17427 -0.14462,-0.53269 -0.22576,-0.63535 -0.0812,-0.10195 -0.23636,-0.37853 -0.23636,-0.37853 0,0 -0.0212,-0.24589 -0.0106,-0.33796 0.0106,-0.0921 -0.14113,-0.28681 -0.41981,-0.2152 -0.27517,0.072 -0.10232,0.51224 -0.10232,0.51224 0,0 -0.12345,0.0205 -0.38804,0.29668 -0.26813,0.27658 -0.0811,0.74789 -0.0635,0.9525 0.0212,0.20461 0.34925,1.22837 0.0423,1.43299 -0.30692,0.20461 0.0212,0.38911 0.0212,0.38911 h -0.71614 v 1.10596 h -0.45157 v 0.38876 h 0.39865 v 4.86304 l -0.29633,0.29704 v 0.53234 h -0.83961 v 0.83961 l 0.22577,0.68263 v 20.09386 l -0.56091,0.39758 h -4.00757 l -2.30362,-66.24991 -3.5278,-7.64681 -4.31445,9.01947 -4.01815,64.87724 h -7.67291 c -0.0353,-1.31057 -0.0953,-3.78001 -0.0212,-4.40619 0.0988,-0.86325 -0.0529,-3.09916 -0.0529,-3.09916 l -1.016,-0.508 c 0.9666,-4.77625 0.2046,-43.49009 0.2046,-43.49009 0,0 0.65972,-1.21955 0.61032,-1.6764 -0.0529,-0.45755 -0.2046,-1.93075 -0.2046,-1.93075 0,0 1.11828,-1.21955 1.16768,-1.3716 0.0529,-0.15275 -0.70908,-0.96555 -0.70908,-0.96555 l 1.16768,-1.0668 c -0.13051,-0.48683 -2.2507,-1.13877 -3.76412,-1.54693 l 0.0917,-0.39511 -0.56444,-0.65934 0.1411,-0.51824 -1.36876,-1.78893 v -0.70591 l -0.51507,-0.80081 0.0459,-1.78858 -2.54355,-2.11878 h -0.65616 V 155.822 l -4.24037,-3.01307 -13.3209,2.63666 0.9384,2.02424 -0.42334,0.75353 1.60161,1.93005 -2.63525,0.75353 0.61031,0.94157 -0.42333,4.70817 -2.21192,0.37641 0.32808,0.70626 -0.65971,0.47061 -0.0459,0.51823 0.70556,0.37677 0.0953,0.51752 -0.49389,0.67734 -1.71802,0.35912 c 0,0 -0.23638,0.47061 -0.23638,0.65864 0,0.18838 1.27,0.94192 1.27,0.94192 l -0.0458,3.57787 c 0,0 -0.28224,0.0469 -0.70557,0.61207 -0.42333,0.5648 0.39158,1.61643 0.39158,1.61643 l -1.12887,40.36412 c -2.19781,1.1931 -1.06891,3.45264 -1.06891,3.45264 l -0.80082,0.35701 c -4.45558,-1.23049 -12.92931,-3.72533 -12.92931,-3.72533 0,-11.67801 0,-23.35495 0,-35.03225 -0.55737,-0.76799 -1.59102,-1.11372 -1.86619,-2.14771 -0.0388,-0.15205 -0.38452,-0.22648 -0.59266,-0.33055 -0.22577,-0.11254 -0.52917,-0.15981 -0.66675,-0.3369 -0.40569,-0.51788 -0.92782,-0.6918 -1.54869,-0.82268 -0.43746,-0.0921 -0.96308,-0.35278 -1.18888,-0.7052 -0.27517,-0.4371 -0.59618,-0.6985 -1.04068,-0.68051 -0.81492,0.0332 -1.59102,-0.084 -2.35302,-0.33761 0.0529,0.0208 0.10583,0.0434 0.15875,0.0656 -0.0529,-0.0222 -0.10584,-0.0448 -0.15875,-0.0649 l 0.014,0.0116 c -0.18344,-0.11924 -0.34925,-0.30092 -0.55033,-0.34643 -0.55034,-0.12559 -1.15007,-0.109 -1.67217,-0.30409 -1.05127,-0.39335 -2.06375,-0.89217 -3.0974,-1.34056 -0.16579,-0.0723 -0.34925,-0.10689 -0.51858,-0.16721 -0.5856,-0.20532 -1.16062,-0.4318 -1.75329,-0.61313 -0.21167,-0.0653 -0.47625,-0.0907 -0.68088,-0.0226 -0.91016,0.30727 -1.79916,0.46108 -2.78341,0.24483 -1.35819,-0.30021 -2.75519,-0.44662 -4.13454,-0.66499 -0.1764,-0.0279 -0.40923,-0.0367 -0.51155,-0.15028 -0.5856,-0.67028 -1.39345,-0.5341 -2.13783,-0.64417 -0.81137,-0.1203 -1.61571,-0.30586 -2.43063,-0.40817 -0.62794,-0.079 -1.26647,-0.0984 -1.905,-0.0998 -0.57503,-0.001 -1.16416,0.14147 -1.72861,0.0691 -0.83255,-0.10548 -1.64747,-0.34043 -2.46944,-0.53269 -0.13053,-0.031 -0.26459,-0.1076 -0.37042,-0.19403 -0.56797,-0.45508 -1.16417,-0.49389 -1.80975,-0.17039 -0.52917,0.2667 -1.05128,0.21202 -1.56281,-0.0808 -0.11994,-0.0695 -0.26458,-0.16792 -0.38452,-0.15381 -1.27,0.15028 -2.48709,-0.56339 -3.7712,-0.20849 -0.20814,0.0582 -0.50447,-8e-4 -0.6985,-0.1136 -0.65264,-0.37923 -1.3088,-0.31997 -1.99319,-0.13088 -0.40922,0.11324 -0.8255,0.26035 -1.24178,0.26846 -0.34925,0.007 -0.70908,-0.14252 -1.04775,-0.26458 -0.27869,-0.0998 -0.53622,-0.3817 -0.79375,-0.37394 -0.90311,0.0275 -1.80269,0.17709 -2.70581,0.21978 -0.80433,0.0377 -1.64041,0.11924 -2.413,-0.0462 -0.79375,-0.17004 -1.53458,-0.34996 -2.36713,-0.23848 -0.7867,0.10584 -1.63337,0.10901 -2.39889,-0.0677 -0.77964,-0.17921 -1.50284,-0.42545 -2.29306,-0.11218 -0.14111,0.0571 -0.3175,0.0416 -0.47625,0.0409 -0.762,-0.004 -0.84667,0.0515 -0.81492,0.8248 0.0282,0.76411 -0.0388,1.46685 -0.53269,2.11384 -0.19756,0.26176 -0.26106,0.67098 -0.27517,1.01812 -0.0388,0.89076 -0.0177,1.78329 -0.0106,2.67546 0.004,0.3489 -0.1023,0.54504 -0.49742,0.47907 -0.17638,-0.03 -0.36336,-0.0289 -0.54327,-0.0247 -0.47978,0.0106 -0.70556,-0.22189 -0.71967,-0.69603 -0.0141,-0.42298 -0.0353,-0.84737 -0.0847,-1.26717 -0.17991,-1.50284 -0.18697,-1.5166 -1.73214,-1.44851 -0.2293,0.01 -0.4445,0.24412 -0.67733,0.34819 -0.18697,0.0829 -0.42686,0.22507 -0.58208,0.17004 -0.80786,-0.28575 -1.64747,-0.17286 -2.25778,0.27199 -0.84667,0.61631 -1.50636,1.48379 -2.26483,2.22321 -0.17639,0.17392 -0.43039,0.37465 -0.65617,0.381 -1.74272,0.0462 -3.48544,0.0624 -5.22464,0.0469 -0.26458,-0.002 -0.59267,-0.15593 -0.77258,-0.3489 -0.73731,-0.77858 -1.42875,-1.60125 -2.14136,-2.40418 -0.52211,-0.59231 -1.7145,-0.81844 -2.46239,-0.51858 -0.32456,0.13053 -0.68792,0.2092 -1.03717,0.22895 -0.64558,0.0363 -1.29822,-0.007 -1.9438,0.0215 -0.25048,0.0113 -0.51859,0.0871 -0.74084,0.2039 -0.69497,0.36337 -1.27353,0.12771 -1.49225,-0.64664 -0.254,-0.89499 -0.49741,-1.79281 -0.75494,-2.6864 -1.22767,-4.21393 -2.4765,-8.42151 -3.66536,-12.64638 -0.16581,-0.58843 -0.0635,-1.26118 -0.0317,-1.89265 0.0141,-0.35913 0.20108,-0.71367 0.19755,-1.06927 -0.0106,-1.41605 -0.0564,-2.8321 -0.11994,-4.24709 -0.007,-0.21767 -0.11995,-0.47272 -0.26459,-0.63641 -0.58208,-0.64806 -1.18886,-1.27282 -1.80269,-1.8923 -0.13406,-0.13582 -0.34219,-0.3235 -0.49036,-0.30198 -1.04422,0.15593 -1.42875,-0.75777 -1.85208,-1.31516 -0.51859,-0.67556 -0.69498,-1.61783 -0.98425,-2.45639 -0.43392,-1.25483 -0.83609,-2.5213 -1.26295,-3.77931 -0.52564,-1.54834 -1.07244,-3.08892 -1.5875,-4.63973 -0.24694,-0.74365 -0.42333,-1.5113 -0.6738,-2.2539 -0.22225,-0.6611 -0.65264,-1.28587 -0.72673,-1.9565 -0.11994,-1.09397 -0.83255,-1.68416 -1.57691,-2.25954 -1.14653,-0.88406 -1.76036,-1.99461 -1.71803,-3.44946 0.0177,-0.61278 -0.20814,-0.97402 -0.84667,-1.20015 -0.82837,-0.29458 -1.59742,-0.76483 -2.3947,-1.15924 -0.28222,0 -0.56797,0 -0.8502,0 -1.524,0.40288 -3.048,0.80434 -4.56847,1.20897 -4.699,1.24778 -9.369782,2.59045 -13.899442,4.35928 -3.25967,1.27282 -6.49464,2.62502 -9.66258,4.11198 -2.92453,1.37407 -5.71148,3.02577 -8.36789,4.89373 -2.5647,1.80093 -4.90009,3.83575 -6.985,6.16444 -0.5962,0.6664 -0.58914,1.38924 -0.0247,2.08456 0.0494,0.0621 0.127,0.13582 0.12347,0.2025 -0.0212,1.22907 0.4057,2.52236 -0.45508,3.63466 -0.127,0.16228 -0.38453,0.25259 -0.59619,0.30939 -0.27164,0.0713 -0.56092,0.0653 -0.83961,0.10901 -0.43392,0.0691 -0.635,0.31715 -0.70203,0.77258 -0.0565,0.38277 -0.29986,0.73449 -0.39511,1.11619 -0.14111,0.5775 -0.1905,1.17475 0.25047,1.66194 0.38453,0.43003 0.51153,0.89112 0.50447,1.48025 -0.0317,3.36444 -0.007,6.72959 -0.007,10.09403 0,0.60572 0.007,1.21109 -0.0141,1.8154 -0.0106,0.19156 -0.0529,0.42086 -0.16933,0.56303 -1.23825,1.53353 -1.17122,3.19017 -0.52564,4.92407 0.127,0.33373 0.21167,0.7038 0.21167,1.05693 0.0141,3.64878 0.004,7.2972 0.0141,10.94598 0,0.3937 -0.0706,0.66499 -0.4445,0.89853 -0.31044,0.19226 -0.51506,0.55739 -0.76553,0.84561 0,0.5274 0,1.0541 0,1.5815 0,5.27121 0,10.54206 0,15.81326 0,0.28364 0,0.56762 0,0.8509 0.51153,0.73308 0.55034,1.5554 0.53975,2.41865 -0.0317,2.56046 -0.0141,5.12198 -0.0106,7.68315 -3.90172,0.8001 -10.43164,8.66598 -10.89731,9.2336 h -3.16441 v -4.3568 -9.79065 h 0.40922 v -0.36406 l -0.24342,-0.24236 v -1.81892 l 0.13759,-0.13653 v -0.3182 h -0.25753 v -5.78944 l 0.40922,-0.40957 v -0.74225 h -0.56092 v -1.12183 l 1.86267,-1.86443 v -0.56092 h -1.34761 l 0.69497,-0.69674 v -0.45473 h -0.84666 v -0.5154 h 0.27163 v -1.03047 l -0.57502,-0.33337 v -6.27486 l 1.21002,-2.0006 h -2.24013 l 0.17991,-0.18168 h -3.33375 l -0.30339,0.21201 h -9.27452 l 0.11994,-0.21201 h -3.39372 v 0.15134 h -8.300863 -0.03528 -8.30086 v -0.15134 h -3.393723 l 0.119944,0.21201 H 2.8489791 l -0.30339,-0.21201 h -3.33375 l 0.179917,0.18168 h -2.240137 l 1.210026,2.0006 v 6.2745 l -0.575026,0.33373 v 1.03047 h 0.271637 v 0.5154 h -0.846667 v 0.45473 l 0.694973,0.69674 h -1.34761 v 0.56092 l 1.862667,1.86443 v 1.12183 h -0.560917 v 0.74225 l 0.40922,0.40957 v 5.78944 h -0.257564 v 0.3182 l 0.137584,0.13653 v 1.81892 l -0.243417,0.24236 v 0.36406 h 0.409223 v 9.79065 4.3568 h -3.27025 v -6.75252 l 0.381,-0.26105 c 0,0 0.1905,-1.04387 0.1905,-1.28165 0,-0.23671 -0.215196,-0.64064 -0.215196,-0.64064 v -5.38621 c 0,0 0.381,-0.23777 0.405696,-0.49883 0.02117,-0.26105 -0.451556,-0.45085 -0.451556,-0.45085 v -4.93571 c 0,0 0.472723,-0.16616 0.546806,-0.40393 0.07055,-0.23707 -0.28575,-0.52176 -1.305279,-1.30493 -1.023054,-0.78281 -2.113137,-1.18639 -3.633611,-2.49167 -1.5169431,-1.30492 -4.7448601,-3.77366 -4.7448601,-3.77366 0,0 0,-0.16545 0,-0.28434 0,-0.0716 -0.991306,-0.66569 -1.774473,-1.12324 -0.02822,-0.46214 -0.07408,-1.28623 -0.0635,-1.46333 0.01058,-0.24906 -0.119943,-0.5341 -0.119943,-0.5341 l 0.05997,-3.77296 c 0,0 0.17639,-0.30833 0.201083,-0.36795 0.02469,-0.0593 0.1905,-0.012 0.1905,-0.012 0,0 0.17639,-0.37959 0.17639,-0.41522 0,-0.0353 -0.994833,-1.03223 -1.326443,-1.42346 -0.331613,-0.39158 -0.948974,-1.00894 -1.03364,-1.63759 -0.08114,-0.62865 -0.783167,-1.04422 -0.853723,-1.16311 -0.07055,-0.11889 -0.165804,-0.56938 -0.165804,-0.56938 0,0 0.08114,0 0.08114,-0.1778 0,-0.17816 -0.23636,-0.16616 -0.23636,-0.16616 l 0.0141,-0.14252 c 0,0 0.127,-0.11854 0.127,-0.24942 0,-0.13017 -0.151693,-0.24871 -0.151693,-0.24871 l 0.04586,-0.23741 -0.05997,-0.61701 c 0,0 0.0141,-0.36795 -0.03528,-0.40393 -0.04586,-0.0349 -0.105834,0.1905 -0.105834,0.1905 0,0 -0.01058,0.35595 -0.15522,0.39123 -0.141113,0.0356 -0.36689,0.42721 -0.36689,0.37958 0,-0.0476 -0.546804,0.22578 -0.642054,0.2727 -0.09525,0.0476 0.416277,0 0.416277,0.036 0,0.0356 -0.261056,0.39194 -0.261056,0.39194 0,0 0.627943,-0.26141 0.687917,-0.27305 0.05997,-0.012 0,-0.23777 0.119943,-0.33232 0.116417,-0.0952 0.261057,0.0233 0.261057,0.0233 l -0.0141,0.11924 c 0,0 -0.201083,0.13017 -0.201083,0.21343 0,0.0829 0.03528,0.26141 0.03528,0.3556 0,0.0952 -0.306917,0.13088 -0.306917,0.21378 0,0.0832 0.1905,0.16581 0.1905,0.16581 0,0 -0.130527,0.21414 -0.130527,0.33267 0,0.11888 -0.14464,0.2607 -0.14464,0.2607 0,0 -0.532693,0.0713 -0.779637,0.75953 -0.377473,1.04034 -1.449916,1.23437 -1.806223,1.47144 -0.356306,0.23742 -1.495777,0.61665 -1.495777,0.61665 v 0.30868 l 0.261054,0.28505 -0.04586,0.21378 0.52211,0.37924 v 1.54658 c -1.830917,-1.07492 -3.862917,-2.0627 -5.91961,-2.78025 -5.104694,-1.77976 -8.473723,-0.49882 -11.41589,0.42651 -1.42522,0.44838 -3.277304,1.53599 -4.80836,2.53929 l 0.02822,-1.79105 c 0,0 0.176387,-0.30833 0.201083,-0.36795 0.02117,-0.0596 0.1905,-0.0124 0.1905,-0.0124 0,0 0.176387,-0.37959 0.176387,-0.41451 0,-0.036 -0.994833,-1.03258 -1.32997,-1.42452 -0.331612,-0.39123 -0.948973,-1.00824 -1.030112,-1.63689 -0.08467,-0.629 -0.783166,-1.04457 -0.85725,-1.16311 -0.07055,-0.11853 -0.165805,-0.56938 -0.165805,-0.56938 0,0 0.08467,0 0.08467,-0.1778 0,-0.17815 -0.236361,-0.16651 -0.236361,-0.16651 l 0.01058,-0.14217 c 0,0 0.130527,-0.11889 0.130527,-0.24906 0,-0.13053 -0.155222,-0.24942 -0.155222,-0.24942 l 0.04939,-0.23742 -0.05997,-0.617 c 0,0 0.01058,-0.36795 -0.03528,-0.40323 -0.04586,-0.0356 -0.105833,0.19015 -0.105833,0.19015 0,0 -0.01411,0.3556 -0.155223,0.39123 -0.141111,0.036 -0.366888,0.42686 -0.366888,0.37994 0,-0.0476 -0.546806,0.22543 -0.642056,0.2727 -0.09525,0.0473 0.416278,0 0.416278,0.0353 0,0.036 -0.261056,0.39193 -0.261056,0.39193 0,0 0.627945,-0.26105 0.687917,-0.27305 0.05997,-0.0116 0,-0.23742 0.116417,-0.33196 0.119944,-0.0949 0.264583,0.0236 0.264583,0.0236 l -0.01411,0.11853 c 0,0 -0.201084,0.13053 -0.201084,0.21344 0,0.0833 0.03528,0.26105 0.03528,0.35595 0,0.0952 -0.306917,0.13052 -0.306917,0.21378 0,0.0833 0.186973,0.16616 0.186973,0.16616 0,0 -0.130528,0.21343 -0.130528,0.33232 0,0.11853 -0.141111,0.2607 -0.141111,0.2607 0,0 -0.532695,0.0713 -0.783167,0.75953 -0.377472,1.04034 -1.446389,1.23402 -1.802694,1.47108 -0.356306,0.23778 -1.495778,0.61701 -1.495778,0.61701 v 0.30868 l 0.261056,0.28505 -0.04586,0.21343 0.522112,0.37958 v 4.43724 h -2.398889 v 1.38007 h -1.474611 l 1.42875,1.42699 v 1.15852 l -1.118306,0.6029 c -2.76225,0.61701 -4.684889,3.99873 -4.684889,3.99873 -1.520472,0.56939 -1.922638,1.47144 -1.922638,1.47144 0,0 -4.561417,2.17523 -4.593167,2.30187 -0.03175,0.12594 0.22225,0.14182 0.22225,0.14182 -0.02469,0.127 0.246944,0.27693 0.246944,0.27693 -0.01058,0.13441 -0.102305,0.20602 0.250473,0.21378 0.356305,0.008 0.388055,0.26882 0.388055,0.26882 0.458611,0.0632 0.564445,0.46708 0.564445,0.46708 0,0 -0.07408,0.18168 0.109361,0.22119 0.183444,0.0395 0.356305,0.42721 0.356305,0.42721 l -0.137583,0.96097 -0.338667,0.3362 v 0.11112 l 0.278695,0.055 v 0.40358 l 0.134055,0.13441 -0.03881,0.44309 c 0,0 -0.127,-0.11077 -0.239888,-0.11077 -0.109362,0 -0.07056,0.12664 -0.07056,0.2607 0,0.13476 -0.0071,0.33267 0.08819,0.4512 0.09525,0.11854 0.09525,0.19756 0.07056,0.36372 -0.02469,0.16615 0.215194,0.14252 0.215194,0.14252 0,0 0.109361,0.3877 0.05997,0.48225 -0.04586,0.0952 0.09525,0.25329 0.09525,0.25329 0,0 0.04939,0.18979 -0.03881,0.3242 -0.08467,0.13476 0.197555,0.30868 0.197555,0.30868 l -0.370424,13.8162 h -7.627056 v 7.01216 H 382.06034 v -7.01214 z m -436.4249,-13.86381 -0.109361,10.28382 -0.553861,-0.0318 -0.176389,-9.65059 c 0,0 0.15875,-0.0159 0.112889,-0.19014 -0.04939,-0.17392 0,-0.44239 0,-0.44239 0,0 -0.01764,-0.14287 0.03175,-0.39617 0.04586,-0.25258 0.141111,-0.22119 0.141111,-0.28433 0,-0.0635 -0.172861,-0.23778 -0.172861,-0.23778 l 0.264583,-0.44661 c 0,0 0.211667,0.19014 0.342194,0.2487 0.130528,0.0596 0,0.32068 0.07056,0.47484 0.07408,0.15452 0.08467,0.24942 -0.02117,0.42722 -0.109361,0.1785 0.07056,0.24518 0.07056,0.24518 z m 2.215444,0.44309 c 0,0.18944 -0.144639,0.41134 -0.15875,0.52211 -0.01764,0.11042 -0.03175,0.30056 0,0.39546 0.03175,0.0945 0.15875,0.20602 0.15875,0.20602 v 8.79581 l -0.426861,-0.0635 -0.08114,-10.25137 c 0,0 0.204611,0.079 0.204611,-0.0952 0,-0.17356 -0.236361,-0.20531 -0.236361,-0.20531 l 0.112889,-0.1584 0.05997,-0.25294 0.398639,0.22119 c 0,0 -0.22225,0.23742 -0.208139,0.36407 0.01764,0.12664 0.176389,0.33231 0.176389,0.52211 z m 8.89,-19.57776 -0.853722,-0.0236 v -2.05281 c 0,0 0.155222,-0.35596 0.486833,-0.35596 0.331611,0 0.366889,0.41522 0.366889,0.41522 z m 29.277028,-0.0476 -0.853724,-0.0233 v -2.05281 c 0,0 0.155224,-0.35596 0.486834,-0.35596 0.33161,0 0.36689,0.41522 0.36689,0.41522 z m 29.640387,23.59695 -0.282221,0.28258 v 0.74753 l 0.151694,0.0914 v 8.32767 H 7.1951651 l -0.123473,-0.17357 c 0,0 -0.05997,-4.26402 -0.02117,-7.15397 0.04233,-2.88996 1.576917,-3.81953 2.829277,-3.61738 1.2558899,0.20214 1.1324169,1.49577 1.1324169,1.49577 z m 18.506719,9.21455 -0.23636,0.2346 H 18.148912 l -0.23636,-0.2346 v -11.18516 c 0.0035,0 0.910167,-0.75741 0.818444,-1.09114 -0.08819,-0.33373 -0.66675,-1.00048 -0.66675,-1.00048 1.234723,-4.191 5.214056,-4.16807 5.633862,-4.15431 v 0.002 c 0,0 0.0071,-0.001 0.01765,-0.001 0.01058,2.7e-4 0.01765,0.001 0.01765,0.001 v -0.002 c 0.419806,-0.0138 4.39914,-0.0367 5.63386,4.15431 0,0 -0.57856,0.66675 -0.66675,1.00048 -0.0917,0.33373 0.81844,1.09114 0.81844,1.09114 z m 10.84086,0.061 -0.12347,0.17357 h -3.68653 v -8.32768 l 0.1517,-0.0914 v -0.74718 l -0.28222,-0.28293 c 0,0 -0.11995,-1.29363 1.13241,-1.49542 1.25236,-0.20249 2.78695,0.72707 2.82928,3.61703 0.0388,2.89031 -0.0212,7.15398 -0.0212,7.15398 z m 25.5517,-28.51079 c 0,1.13523 -0.0212,2.27083 0,3.40571 -0.0212,-1.13488 0,-2.27048 0,-3.40571 0,-1.19627 0.0177,-2.39254 -0.007,-3.58811 0.0247,1.19557 0.007,2.39184 0.007,3.58811 z m 1.53458,-38.86236 c 0,-0.49636 0,-0.98601 0,-1.56598 0.40922,0.48754 0.37042,1.24425 0,1.56598 z m 5.33753,61.65145 c -0.0529,-0.001 -0.10584,-0.003 -0.15522,-0.005 0,-2.44334 0,-4.88739 0,-7.33178 0.0529,0 0.1023,0 0.15522,-2.7e-4 0,2.44581 0,4.89162 0,7.33707 z m 0.0106,-18.90677 c -0.0494,-0.001 -0.0952,-0.002 -0.14464,-0.002 0,-2.76825 0,-5.5365 0,-8.30475 0.0494,0.005 0.0952,0.0102 0.14464,0.0152 0,2.76366 0,5.52768 0,8.29205 z m 0.22931,-19.81094 c -0.0177,0.15734 -0.18345,0.29986 -0.28223,0.44944 -0.0917,-0.15028 -0.254,-0.2988 -0.25752,-0.44979 -0.0177,-1.51589 -0.0353,-3.03248 -0.007,-4.54801 0.0247,-1.31198 0.10231,-2.62325 0.16581,-3.93418 0.007,-0.14852 0.0847,-0.29386 0.13053,-0.44062 0.0529,0.01 0.10936,0.0201 0.16228,0.0296 0.0212,0.31539 0.06,0.63042 0.0635,0.94615 0.004,2.30682 0,4.61398 0.004,6.92044 0,0.3429 0.0529,0.68863 0.0212,1.02694 z m 4.84011,14.82796 c 0.0423,-1.47038 0.15169,-2.93864 0.24341,-4.40761 0.0106,-0.14534 0.0917,-0.28575 0.14112,-0.42862 0.0705,0.008 0.13758,0.0166 0.20461,0.0251 0.0776,0.75777 0.20814,1.51589 0.21872,2.27506 0.0318,2.30541 0.0177,4.61151 0.004,6.91762 0,0.18557 -0.10583,0.48578 -0.23636,0.53482 -0.39864,0.14816 -0.58914,-0.0568 -0.58561,-0.48719 0.0106,-1.47602 -0.0318,-2.95381 0.0106,-4.42913 z m 0.81139,23.91198 c -0.007,0.23883 -0.0388,0.47802 -0.0811,0.72143 -0.26106,-0.043 -0.508,-0.0857 -0.74084,-0.12841 0.007,-2.34385 0,-4.68736 0.0247,-7.03086 0.004,-0.41451 0.13758,-0.82797 0.23636,-1.38254 0.53975,0.76518 0.53622,1.52788 0.55386,2.23767 0.0529,1.8595 0.0353,3.72146 0.007,5.58271 z m 0.15169,-40.68868 c 0,0.78705 -0.18344,0.94439 -1.08303,0.89359 -0.0141,-0.21026 -0.0353,-0.42722 -0.0353,-0.64453 -0.004,-2.38725 -0.0141,-4.77414 0.004,-7.16068 0.007,-0.91123 0.17286,-1.79211 0.89958,-2.54812 0.0741,0.50236 0.20461,1.00401 0.20814,1.50707 0.0212,2.65042 0.0106,5.30155 0.007,7.95267 z m 7.43656,42.66953 c -0.8502,-0.17145 -1.65806,-0.3295 -2.30011,-0.44873 0,-2.37843 -0.0423,-4.75898 0.0353,-7.13529 0.0247,-0.68509 0.37395,-1.37618 0.6597,-2.02917 0.1658,-0.38665 0.47625,-0.37219 0.73025,0.007 0.53269,0.79057 0.87841,1.63547 0.87489,2.60597 -0.004,2.33291 0,4.66619 0,6.99981 z m -0.54683,-21.03258 c -1.74978,0.16122 -1.7533,0.16828 -1.74978,-1.57974 0.007,-2.08738 0.0177,-4.17406 0.0317,-6.2611 0.007,-0.90416 0.28928,-1.74448 0.67734,-2.54776 0.11641,-0.24377 0.3175,-0.44591 0.52564,-0.72566 0.73025,0.83926 1.00541,1.78294 1.02658,2.7432 0.06,2.60491 0.0247,5.21159 0.0388,7.8172 0,0.39441 -0.18344,0.51964 -0.55033,0.55386 z m 0.9137,-30.96119 c 0,-0.002 0,-0.005 0,-0.007 0,0.001 0,0.0159 0,0.0159 0,-0.002 0,-0.005 -0.004,-0.007 -0.0529,0.2025 -0.1517,0.4057 -0.15522,0.60855 -0.0106,2.3876 -0.0212,4.77555 0,7.1628 0.007,0.58102 -0.10584,0.91828 -0.76906,0.93274 -0.4198,0.009 -0.84667,0.11112 -1.24883,0.23319 -0.47272,0.14287 -0.62089,-0.004 -0.61736,-0.4752 0.0177,-1.5374 0,-3.07516 0.0141,-4.61327 0.0141,-1.27106 -0.007,-2.54741 0.0952,-3.81176 0.0917,-1.09573 0.59267,-2.03165 1.65806,-2.8448 0.27516,0.67804 0.51858,1.25624 0.74083,1.84361 0.11642,0.31256 0.1905,0.6417 0.28222,0.96414 0.004,-0.003 0.004,-0.006 0.004,-0.008 0,-2.6e-4 0,-2.6e-4 0,-2.6e-4 0,0.002 0,0.004 0,0.005 0,7.9e-4 0,0.001 0,0.002 z m 7.04497,-26.64636 c 0.43039,0.64876 0.34572,2.29941 -0.17992,2.58445 0.0706,-0.89323 -0.15875,-1.70991 0.17992,-2.58445 z m 1.89441,80.34161 c -0.889,-0.10407 -1.74625,-0.21061 -2.46944,-0.31115 -0.0106,-2.63031 -0.0353,-5.26097 0.0282,-7.88917 0.0212,-1.0287 0.13406,-2.11949 1.08303,-2.88149 0.94897,0.82903 1.29822,1.95757 1.32997,3.09845 0.0706,2.63631 0.0388,5.27509 0.0282,7.98336 z m -0.60677,-22.83918 c -0.59973,-0.0261 -1.20298,-0.006 -1.8662,-0.006 0,-2.79118 -0.0212,-5.54567 0.0106,-8.29945 0.0106,-0.99272 0.14464,-1.9865 0.72673,-2.84622 0.15169,-0.2286 0.33514,-0.43744 0.59619,-0.76658 0.25047,0.38135 0.52211,0.6484 0.62089,0.96802 0.22225,0.70767 0.49036,1.43863 0.508,2.165 0.06,2.71462 0.0212,5.43031 0.0388,8.14599 0.004,0.47131 -0.15875,0.6604 -0.635,0.63959 z m 0.17638,-23.39905 c -0.54327,0.007 -1.09008,0.0684 -1.62983,0.14711 -0.41628,0.0607 -0.53622,-0.10583 -0.53269,-0.49318 0.0106,-1.09397 0.004,-2.18793 0.004,-3.28154 0,-1.66123 -0.0141,-3.32211 0,-4.98299 0.0141,-1.41922 0.45861,-2.64936 1.66864,-3.58528 0.86783,0.80575 1.0548,1.80728 1.06539,2.82187 0.0353,2.91642 0.007,5.83389 0.0212,8.7503 0,0.43568 -0.14111,0.61772 -0.59619,0.62371 z m 11.652252,47.39605 c -1.40405,-0.13617 -2.80105,-0.28222 -3.86997,-0.39264 0.0212,-1.33245 0.004,-2.66665 0.004,-3.9998 0.004,0 0.007,0 0.0141,0 0,-1.51871 -0.0141,-3.03706 0.004,-4.55506 0.0106,-1.08868 0.47978,-1.98791 1.24884,-2.73897 0.34572,-0.33761 0.65263,-0.33761 1.03716,0.0251 1.04775,0.97896 1.50989,2.22144 1.53811,3.58352 0.0565,2.69204 0.0177,5.3855 0.0247,8.0779 z m 0.004,-24.60484 c 0,0.41945 -0.15169,0.57503 -0.56797,0.57044 -0.87136,-0.009 -1.74272,0.004 -2.61408,0.0332 -0.4692,0.0159 -0.70909,-0.10689 -0.6985,-0.64029 0.0247,-1.59632 0.007,-3.19334 0.007,-4.79037 -0.0212,-0.001 -0.0423,-0.002 -0.067,-0.003 0.0741,-1.53458 0.0811,-3.07552 0.23989,-4.60057 0.0988,-0.96273 0.63853,-1.77377 1.38995,-2.41935 0.28222,-0.2413 0.4833,-0.26317 0.77258,0.006 1.01247,0.94085 1.48519,2.14171 1.50989,3.46745 0.06,2.79082 0.0141,5.58377 0.0282,8.37635 z m -0.53621,-23.70843 c -0.97014,0.005 -1.93675,0.10548 -2.90336,0.18062 -0.39864,0.0303 -0.59267,-0.0762 -0.58914,-0.52564 0.0141,-2.85326 -0.004,-5.70653 0.0141,-8.55944 0.0106,-1.56599 0.49389,-2.93406 1.76742,-3.95429 0.43745,-0.34925 0.76906,-0.31115 1.14653,0.0762 0.85372,0.87842 1.19944,1.95333 1.22061,3.14184 0.0212,1.47602 0.004,2.9531 0.004,4.42948 0,1.49754 -0.0177,2.99543 0.007,4.49192 0.0106,0.50165 -0.10583,0.71649 -0.66675,0.71931 z m 7.86694,48.76376 c -0.004,-0.24588 -0.004,-0.44414 -0.004,-0.50411 -0.004,-2.85257 -0.0529,-5.70724 0.0388,-8.55663 0.0459,-1.34267 0.67028,-2.47685 1.95086,-3.14713 0.35278,-0.18556 0.63853,-0.16087 0.95956,0.0311 0.92428,0.55386 1.52753,1.35537 1.8803,2.36925 0.55739,1.61643 0.31398,3.28613 0.32103,4.93607 0,0.20038 0.0106,1.7526 0.0177,1.95827 0.0318,1.04034 0.0353,2.08174 0.0494,3.12278 -1.83092,-0.0811 -3.76061,-0.16122 -5.21406,-0.20955 z m -0.0106,-29.48481 c 0,-1.19556 -0.0106,-2.39042 0,-3.58563 0.0141,-1.27494 0.2152,-2.5213 1.04422,-3.53095 0.37042,-0.4505 0.90664,-0.79305 1.42875,-1.07386 0.16581,-0.09 0.56445,0.12383 0.79023,0.28857 0.96661,0.70556 1.44638,1.73002 1.6898,2.86103 0.13758,0.62759 0.22225,1.27882 0.22578,1.92017 0.0247,2.45075 -0.0106,4.90291 0.0247,7.3533 0.007,0.63429 -0.20461,0.7941 -0.80081,0.77435 -1.25589,-0.0406 -2.51178,-0.0279 -3.76767,-0.006 -0.46919,0.008 -0.64911,-0.14358 -0.64205,-0.62618 0.0212,-1.45838 0.007,-2.91677 0.007,-4.37515 z m 4.73781,-19.68323 c -1.41817,0.003 -2.83634,0.0236 -4.2545,0.0653 -0.47273,0.0141 -0.63853,-0.15275 -0.63148,-0.62936 0.0212,-1.47884 0.007,-2.9591 0.007,-4.43865 0.0318,-2.6e-4 0.06,-2.6e-4 0.0917,-2.6e-4 0,-1.78188 -0.0988,-3.57046 0.0282,-5.34317 0.11289,-1.5868 0.86078,-2.91324 2.36714,-3.64702 0.25048,-0.12347 0.69145,-0.10371 0.93486,0.0381 1.33703,0.78105 1.87325,2.11067 1.92264,3.53378 0.11642,3.27942 0.0741,6.56378 0.10231,9.84602 0.007,0.4117 -0.14464,0.57397 -0.56797,0.57539 z m 14.31925,49.75048 h -4.19453 c -1.12536,-0.0261 -2.13784,-0.0515 -2.91747,-0.0744 0,-0.27905 0,-0.55492 0.004,-0.83008 0.0247,-2.40841 0.0317,-4.81648 0.0882,-7.22348 0.0247,-1.06962 0.1517,-2.13113 0.73731,-3.08469 0.5468,-0.89817 1.34055,-1.49331 2.33186,-1.71732 1.1818,-0.26599 2.07786,0.38382 2.80458,1.22061 0.80081,0.92287 1.13242,2.06163 1.13947,3.26073 0.0247,2.81587 0.0141,5.63245 0.007,8.44867 z m -0.004,-25.3298 c 0,0.0759 -0.0282,0.1524 -0.0494,0.26141 -2.30011,0 -4.58258,0 -6.93208,0 -0.0141,-0.18979 -0.0423,-0.38311 -0.0423,-0.57679 -0.004,-2.61479 -0.0388,-5.23028 0.0106,-7.84472 0.0353,-1.65453 0.43744,-3.22721 1.74978,-4.37762 1.51341,-1.32679 2.58233,-1.1049 3.96522,0.38559 0.92075,0.99201 1.26647,2.26624 1.28764,3.58352 0.0459,2.85538 0.0141,5.71217 0.0106,8.56861 z m 14.71789,21.9964 c 0,0 0,0 -0.004,0 0,1.11055 -0.004,2.22215 0,3.3334 h -7.48947 c 0.007,-2.86632 -0.0106,-5.73299 0.0353,-8.59896 0.0212,-1.29469 0.381,-2.54176 1.31939,-3.50449 1.80975,-1.85879 3.85939,-1.49437 5.22817,0.59972 0.70908,1.08585 0.889,2.33927 0.90664,3.60892 0.0212,1.52012 0.004,3.04059 0.004,4.56141 z m 0.74789,-21.9202 c 0.004,0.40499 -0.15522,0.53235 -0.53975,0.52106 -0.79022,-0.024 -1.58045,-0.0399 -2.37067,-0.0169 -0.43039,0.012 -0.57503,-0.18345 -0.71261,-0.56198 -0.508,-1.41146 -0.70555,-2.85185 -0.63147,-4.3501 0.06,-1.19274 -0.007,-2.39113 0.0317,-3.58493 0.0318,-0.95567 0.78669,-1.77835 1.66158,-1.91417 1.03717,-0.16157 2.00378,0.31962 2.3107,1.24636 0.16933,0.50871 0.21519,1.07068 0.23283,1.61185 0.0353,1.13417 0.0106,2.26871 0.0106,3.4036 0,1.21531 -0.0141,2.43063 0.007,3.64525 z m 8.8653,-24.96431 c 0,0.29245 0.007,0.5849 0.007,0.87665 0,0.34925 -0.0106,0.6985 -0.004,1.0474 -0.007,-0.3489 0.004,-0.69815 0.004,-1.0474 0,-0.29175 -0.007,-0.5842 -0.007,-0.87665 z m -4.32858,23.46536 c 0.0282,-0.91087 0.007,-1.82315 0.007,-2.73473 0,-0.68898 0.0564,-1.38289 -0.0106,-2.06481 -0.16228,-1.66829 0.86783,-2.52554 1.85208,-2.93934 1.3335,-0.55951 2.88925,-0.24483 3.82411,0.72248 0.7232,0.74648 1.11478,1.63972 1.12889,2.67618 0.0212,1.2961 0,2.59291 0.0141,3.88902 0.004,0.34749 -0.0917,0.54045 -0.47625,0.51647 -0.69498,-0.0423 -1.37231,-0.024 -1.95792,0.44732 -0.10583,0.0861 -0.31044,0.0709 -0.46919,0.0716 -1.11478,0.006 -2.22956,-0.019 -3.34081,0.0138 -0.47625,0.0138 -0.58561,-0.15946 -0.5715,-0.59796 z m 7.366,21.93678 c -0.004,1.37584 -0.0177,2.75167 0.007,4.12679 -0.99836,-0.084 -1.97203,-0.19861 -2.78694,-0.357 -1.10067,-2.34104 -2.35656,-4.60728 -3.4925,-6.93244 -0.18697,-0.38206 -0.15522,-0.91758 -0.0952,-1.36384 0.13405,-0.98778 0.42686,-1.93146 1.03364,-2.75449 0.71261,-0.96167 2.0708,-1.46332 3.24202,-1.20685 0.65617,0.14393 1.12537,0.52811 1.30881,1.13488 0.30692,1.01742 0.57503,2.05458 0.74436,3.10198 0.11289,0.69144 0.0353,1.41464 0.0353,2.12337 0.004,0.70979 0.004,1.41852 0.004,2.1276 z m 3.30553,-39.08672 -0.007,-0.004 c 0.004,0.002 0.007,0.004 0.007,0.004 z m 6.31119,11.37038 c 0.0141,0.11995 0.004,0.24271 0.004,0.36407 0,1.3529 0,2.70686 -0.067,4.08199 -0.85725,-2.41194 -2.16605,-4.6609 -2.59644,-7.3032 1.67922,0.10054 2.4765,1.32291 2.65994,2.85714 z m 2.10961,32.09643 c -1.36877,0.0148 -4.14514,0.0395 -6.0325,0.0166 -0.0212,-0.7747 -0.0459,-1.5494 -0.0388,-2.32374 0.0141,-2.00096 0.06,-4.00192 0.0952,-6.00287 0.0176,-1.07351 0.25753,-2.07751 0.89253,-2.97145 0.69144,-0.96873 1.67569,-1.39841 2.80458,-1.46014 0.31397,-0.0173 0.6985,0.27975 0.96661,0.52563 0.97719,0.89535 1.27353,2.10997 1.29469,3.35457 0.0459,2.95345 0.0247,5.90726 0.0176,8.86142 z m 3.48896,-50.77001 c 0.93839,0.0191 0.82198,0.0296 1.00189,0.98002 0.16934,0.9084 -0.1658,1.76494 -0.0353,2.64618 0.0635,0.44697 -0.1905,0.56621 -0.58561,0.53023 -0.38452,-0.0356 -0.86783,0.096 -0.86077,-0.55245 0.004,-0.52705 0,-1.0541 0,-1.58045 0.004,-0.52705 0.0106,-1.0541 0,-1.5808 -0.0106,-0.34925 0.14463,-0.44979 0.47977,-0.44273 z m 3.15736,26.80617 c 0,0.0949 -0.0282,0.18944 -0.067,0.46108 -0.44098,-0.63182 -0.83609,-0.62653 -1.31234,-0.27658 -0.17286,0.127 -0.46566,0.11854 -0.70202,0.12383 -0.81139,0.019 -1.62278,-0.0127 -2.43064,0.0342 -0.46214,0.0268 -0.59973,-0.11678 -0.59267,-0.57115 0.0176,-1.84327 -0.0247,-3.68794 0.0176,-5.53015 0.0247,-0.94191 0.0847,-1.90464 0.31045,-2.81375 0.21519,-0.8756 0.84666,-1.53494 1.77094,-1.73532 0.83961,-0.18132 1.55928,0.14888 2.09903,0.80293 0.58561,0.71014 0.87841,1.56527 0.89253,2.46909 0.0353,2.34491 0.0141,4.69053 0.0141,7.0358 z m 5.42925,-23.76699 c 0.1905,0.28046 0.44803,0.53869 0.54328,0.84808 0.0741,0.22683 -0.0353,0.53163 -0.13405,0.77364 -0.0212,0.0554 -0.42334,0.0632 -0.48684,-0.0254 -0.15875,-0.21943 -0.22225,-0.50694 -0.3563,-0.84244 0.15169,-0.2614 0.2928,-0.50799 0.43391,-0.75388 z m -2.07786,6.42055 c 0.16934,-0.70026 0.43392,-0.76235 1.04775,-0.39652 0.79375,0.47519 1.21356,1.17334 1.23825,2.0948 0.0177,0.58702 0.0317,1.17792 -0.0212,1.76177 -0.0106,0.14746 -0.27164,0.27622 -0.42334,0.4064 -0.0212,0.0183 -0.0776,-0.007 -0.11994,-0.008 -1.88383,-0.0649 -1.88383,-0.0646 -1.94733,-1.94028 0.0705,-0.64064 0.0776,-1.2961 0.22577,-1.91805 z m 4.66373,39.56509 c -1.905,0.0699 -3.57364,0.12382 -4.68489,0.14499 0.004,-2.77319 -0.004,-5.54672 0.0106,-8.31991 0.007,-0.93874 0.33161,-1.75754 1.15358,-2.28459 0.73731,-0.47378 1.53459,-0.50623 2.30717,-0.0942 0.86078,0.45685 1.17122,1.27882 1.19944,2.17452 0.0494,1.47603 0.0141,2.95452 0.0141,4.43195 0,0 0,0 0,0 -0.004,1.31586 -0.0106,2.63137 0,3.94723 z m 0,-24.88777 c -0.004,1.31551 -0.0177,2.63208 0.004,3.94653 0.0106,0.4639 -0.14111,0.57044 -0.60325,0.54927 -1.12536,-0.0522 -2.25778,-0.0483 -3.38666,-0.0251 -0.52564,0.0113 -0.71262,-0.1658 -0.70556,-0.6992 0.0177,-2.56717 -0.0141,-5.13468 0.0177,-7.7022 0.0141,-0.95109 0.15875,-1.88842 0.81139,-2.67406 0.71966,-0.86783 1.79916,-0.98319 2.67053,-0.23671 0.92427,0.79516 1.12888,1.89477 1.17827,3.0166 0.0564,1.27247 0.0141,2.54988 0.0141,3.82482 z m 4.9918,-19.20522 c 0.0317,-0.48295 0.007,-0.96873 0.007,-1.45309 0.004,0 0.004,0 0.004,0 0,-0.50518 -0.0212,-1.01141 0.0177,-1.51271 0.0106,-0.13229 0.20814,-0.31609 0.34925,-0.34819 0.0917,-0.0215 0.32808,0.1718 0.3457,0.29069 0.14465,1.0234 0.27165,2.05034 0.3528,3.07975 0.014,0.18203 -0.19756,0.54151 -0.31398,0.54363 -0.36335,0.008 -0.79727,-0.0138 -0.76199,-0.60008 z m 2.667,43.78643 c -1.51694,0.0642 -3.13619,0.13158 -4.71664,0.19402 0,-0.0748 0,-0.14887 0,-0.22295 0.004,-2.673 -0.007,-5.34564 0.0106,-8.01829 0.007,-1.53211 0.98072,-2.57457 2.38125,-2.60773 1.27353,-0.0303 2.28598,0.78634 2.3107,2.06586 0.06,2.86209 0.0388,5.72594 0.014,8.58909 z m 0.0246,-20.56095 c 0,0.32808 -0.067,0.54786 -0.45861,0.54504 -1.397,-0.008 -2.79047,-0.004 -4.28624,-0.004 0,-0.97367 -0.004,-1.85808 0,-2.74214 0,-1.82033 -0.0388,-3.64278 0.0282,-5.46065 0.0282,-0.68474 0.24694,-1.3843 0.49389,-2.03447 0.56797,-1.51871 2.66347,-1.61113 3.5313,-0.11536 0.35983,0.62478 0.62794,1.39665 0.6491,2.11032 0.0811,2.56505 0.0353,5.13398 0.0423,7.70079 z m 5.98312,20.29989 c -0.70204,0.0311 -1.70746,0.0759 -2.89279,0.12735 0.0106,-2.71109 -0.0106,-5.42254 0.0246,-8.13294 0.0106,-0.59372 0.17286,-1.20367 0.37042,-1.77024 0.17992,-0.5214 0.58912,-0.87241 1.20296,-0.85231 0.61031,0.0201 0.91371,0.42933 1.03716,0.94686 0.13055,0.54469 0.22225,1.11054 0.23638,1.66934 0.0353,1.276 0.0106,2.5527 0.0106,3.82976 0,1.3776 -0.0212,2.7559 0.0106,4.13314 0,0.0166 0,0.0325 0,0.049 z m -0.007,-24.24112 c -0.003,0 -0.003,0 -0.003,0 0,1.01282 0.003,2.02494 0,3.03812 -0.003,0.25682 0.0458,0.55986 -0.3669,0.55739 -0.41627,-0.002 -0.35277,-0.31221 -0.35631,-0.56515 -0.003,-0.74895 0.007,-1.4986 -0.003,-2.24755 -0.014,-0.77717 -0.3175,-1.06927 -1.07244,-1.0661 -1.07598,0.004 -1.11479,0.003 -1.06188,-1.10913 0.0529,-1.22731 0.14817,-2.45568 0.31399,-3.67242 0.0776,-0.58913 0.39158,-1.18145 1.08301,-1.22237 0.74438,-0.0437 0.97367,0.62759 1.12184,1.17052 0.19756,0.73201 0.28929,1.50283 0.33163,2.26201 0.0529,0.94897 0.014,1.90323 0.014,2.85468 z m 3.83839,-19.93089 c 0.003,-0.13123 0.21167,-0.25929 0.32454,-0.38911 0.10583,0.13899 0.29633,0.27446 0.3034,0.41698 0.0317,0.76835 0.014,1.53846 0.014,2.30752 0,0.70873 0.0177,1.41816 -0.0106,2.12513 -0.007,0.16722 -0.17638,0.32773 -0.27163,0.49107 -0.12348,-0.15205 -0.35631,-0.30304 -0.35983,-0.45826 -0.0246,-1.49719 -0.0212,-2.99579 0,-4.49333 z m -1.01955,43.8718 c 0.0106,-1.43546 0.003,-2.87056 0.003,-4.30601 0,0 0.003,0 0.003,0 0,-1.35749 -0.0564,-2.71745 0.0246,-4.07 0.0353,-0.59796 0.24342,-1.2393 0.55033,-1.75542 0.45863,-0.77188 1.4323,-0.63218 1.73922,0.21484 0.16933,0.46391 0.29633,0.97155 0.30337,1.46086 0.0282,2.67828 0.003,5.35622 0.0212,8.03451 -0.88545,0.14534 -1.78858,0.29069 -2.64583,0.42122 z m 2.62822,-23.25476 c 0.003,0 0.007,0 0.0106,0 0,1.19345 0,2.38689 0,3.58069 0,0.28893 0.0246,0.57362 -0.40923,0.58597 -0.39865,0.0116 -0.54327,-0.14605 -0.53269,-0.5334 0.0106,-0.47308 -0.33163,-0.54293 -0.70556,-0.54434 -1.0654,-0.004 -0.98425,0.091 -0.98777,-1.04916 -0.003,-1.86126 -0.0353,-3.72357 0.0177,-5.58306 0.0177,-0.69392 0.1905,-1.39806 0.39864,-2.06446 0.0847,-0.27023 0.43392,-0.59478 0.6985,-0.63253 0.25752,-0.0356 0.72319,0.19967 0.81844,0.43004 0.29988,0.73483 0.58915,1.51165 0.66323,2.29305 0.10935,1.16311 0.0282,2.34386 0.0282,3.5172 z m 3.70062,-17.90312 c 0.0741,-0.51223 0.51154,-0.37218 0.90665,-0.36865 0,0.4138 0,0.80327 0,1.25977 -0.508,-0.14994 -0.99836,-0.28011 -0.90665,-0.89112 z m -1.31937,40.34261 c 0,-0.50518 0.003,-1.18251 0,-1.39101 0,-2.0641 -0.0423,-4.12961 0.0212,-6.19195 0.0212,-0.7045 0.254,-1.42099 0.508,-2.08809 0.0917,-0.24271 0.54327,-0.51823 0.79375,-0.48507 0.29279,0.0384 0.66675,0.34925 0.77611,0.63112 0.18698,0.47625 0.254,1.02094 0.25751,1.53881 0.0282,2.18581 0.0177,4.37127 0.0106,6.55708 0,0.5013 0.0494,0.84491 0.0706,1.01918 -0.5856,0.0967 -1.44285,0.24306 -2.43768,0.40993 z m 0.0177,-24.86837 c 0.0388,-0.77999 0.17288,-1.56598 0.37397,-2.32022 0.0776,-0.29562 0.43037,-0.68721 0.69495,-0.71543 0.2399,-0.0261 0.67381,0.32738 0.76555,0.60008 0.24693,0.73589 0.47625,1.51447 0.49387,2.28176 0.0635,2.38513 0.0246,4.77309 0.0212,7.15998 0,0.66922 -0.0952,0.71931 -0.74787,0.64206 -0.254,-0.0303 -0.54681,0.031 -0.78671,0.1337 -0.5997,0.25365 -0.82902,0.13441 -0.83254,-0.50165 0,-1.27424 0,-2.54847 0,-3.82235 0,-1.15323 -0.0423,-2.30822 0.0177,-3.45793 z m 2.35305,-7.21254 c 0,1.47461 0,1.47461 -1.43582,1.21567 -0.93485,-0.16898 -0.95956,-0.16968 -0.92781,-1.15499 0.0246,-0.70062 0.06,-1.41252 0.21873,-2.09021 0.0706,-0.3108 0.42333,-0.74083 0.68792,-0.77399 0.31043,-0.0392 0.85373,0.21766 0.97015,0.48648 0.31043,0.71719 0.44801,1.50953 0.65616,2.27259 -0.0565,0.0145 -0.1129,0.0293 -0.16933,0.0445 z m 3.429,30.48247 c 0,0.23813 -0.0106,0.42933 -0.0423,0.58279 -0.42688,0.11148 -0.86432,0.2032 -1.28765,0.28081 -0.007,-0.0829 -0.014,-0.16616 -0.014,-0.24906 0,-2.59433 -0.014,-5.18901 0.0212,-7.78263 0.007,-0.48966 0.13759,-1.00401 0.32809,-1.45803 0.19401,-0.45791 0.54326,-0.44062 0.70553,0.036 0.16934,0.48789 0.27165,1.02199 0.27872,1.5367 0.0282,2.35091 0.0106,4.70217 0.0106,7.05344 z m -0.6985,-15.58607 c -0.52565,0.009 -0.65971,-0.19685 -0.65617,-0.68051 0.0212,-2.46804 0,-4.93677 0.0282,-7.40446 0.0106,-0.64135 0.0388,-1.31621 0.63148,-2.0066 0.2046,0.47379 0.41981,0.8121 0.4939,1.17934 0.11641,0.59196 0.18695,1.20262 0.1905,1.80587 0.0246,2.14454 -0.007,4.28943 0.0246,6.43361 0.007,0.56762 -0.21873,0.66428 -0.7126,0.67275 z m 1.0795,-20.69712 c -1.04423,-0.10972 -1.15358,-0.22472 -1.14655,-1.14583 0,-0.56303 0.0317,-1.12924 -0.0106,-1.6891 -0.0423,-0.55562 0.32105,-0.48895 0.65971,-0.52317 0.35629,-0.0367 0.51152,0.0907 0.50446,0.46744 -0.0177,0.96131 -0.007,1.92334 -0.007,2.89066 z m 1.11829,12.57935 c 0.003,-0.32315 0.14113,-0.64418 0.21521,-0.96661 0.0564,-0.002 0.11287,-0.005 0.16933,-0.007 0.0917,0.42015 0.25752,0.8389 0.26459,1.26083 0.0388,1.78046 0.0388,3.56199 0.0177,5.34246 0,0.17251 -0.21518,0.34325 -0.3316,0.5147 -0.127,-0.16615 -0.35983,-0.33161 -0.36335,-0.49918 -0.014,-1.88171 -0.003,-3.76378 0.0282,-5.6455 z m 0.68088,23.52533 c -0.24342,0.0949 -0.48332,0.18451 -0.70909,0.26706 -0.007,-0.0321 -0.0106,-0.0642 -0.0106,-0.0963 0.007,-2.75132 0.0106,-5.50298 0.0423,-8.25465 0.003,-0.31079 0.15875,-0.61948 0.24342,-0.92922 0.0741,0.005 0.14462,0.009 0.2187,0.0145 0.067,0.30163 0.19405,0.6022 0.19757,0.90417 0.0177,2.67053 0.014,5.34176 0.0246,8.01229 0,0.0296 -0.003,0.0554 -0.007,0.0822 z m 0.22576,-35.46333 c -0.51506,-0.0762 -0.72318,-0.2914 -0.69498,-0.74401 0.0246,-0.46285 -0.0212,-0.93204 0.0246,-1.39206 0.0177,-0.15487 0.22225,-0.28963 0.34219,-0.43392 0.10935,0.13229 0.30691,0.25964 0.31398,0.39688 0.0317,0.70273 0.014,1.40828 0.014,2.17311 z m 1.7004,34.59727 c -0.20108,0.11077 -0.41629,0.21766 -0.635,0.32102 -0.22225,-1.80057 -0.0106,-8.10048 0.47271,-8.75665 0.0565,0.49107 0.15171,0.98214 0.15523,1.47356 0.0177,2.28705 0,4.57376 0.0106,6.86047 0.003,0.036 0,0.0684 -0.003,0.1016 z m -0.0106,-15.20332 c -0.003,0.15981 -0.18346,0.31821 -0.27871,0.47696 -0.13052,-0.16863 -0.37394,-0.3362 -0.37394,-0.50659 -0.0177,-2.2486 -0.0106,-4.49792 0.0177,-6.74652 0.003,-0.33338 0.14462,-0.66534 0.2187,-0.99695 0.0565,-0.004 0.10938,-0.007 0.16582,-0.01 0.0847,0.7299 0.22931,1.45909 0.24341,2.1911 0.0388,1.86373 0.0212,3.72816 0.007,5.59188 z m 1.45695,-14.4466 c 0.0282,0 0.0565,0 0.0847,0 0,0.99554 0,1.99108 0,2.98768 -0.0282,0 -0.0564,0 -0.0847,0 0,-0.99589 0,-1.99179 0,-2.98768 z m -0.29985,7.68562 c 0.007,-0.15028 0.06,-0.2988 0.0917,-0.44838 0.06,-0.002 0.12346,-0.004 0.18696,-0.006 0.0565,0.32632 0.16229,0.65264 0.16581,0.97896 0.0212,1.93957 0.0246,3.87914 0.007,5.81765 0,0.18698 -0.18347,0.37219 -0.28575,0.55845 -0.10232,-0.18238 -0.29282,-0.36512 -0.29282,-0.54575 0.0246,-2.11842 0.0776,-4.23686 0.127,-6.35493 z m 0.45157,20.74192 c -0.10232,0.12347 -0.25049,0.27693 -0.46567,0.45967 -0.0635,-2.6984 -0.3175,-5.37845 0.0882,-8.04086 0.0988,-0.003 0.19402,-0.006 0.29282,-0.008 0.0353,0.3108 0.0953,0.62195 0.0953,0.9331 0.0106,2.21861 0.0177,4.43794 -0.0106,6.65656 z M 248.62575,174.194 c 0,0 -0.29279,0.0483 -0.72671,0.63006 -0.43746,0.58137 0.40217,1.66299 0.40217,1.66299 l -1.16065,41.53747 c -2.26131,1.22696 -1.09715,3.55282 -1.09715,3.55282 l -1.16416,0.51647 -0.15521,3.12067 c -0.8255,-0.31609 -1.70391,-0.62935 -2.63525,-0.92851 -0.0177,-0.96979 -0.0212,-1.92193 0.0177,-2.26766 0.0952,-0.80045 -0.0459,-2.87231 -0.0459,-2.87231 l -0.94192,-0.47061 c 0.89607,-4.42595 0.18698,-40.30133 0.18698,-40.30133 0,0 0.61384,-1.12995 0.56796,-1.55328 -0.0494,-0.42404 -0.1905,-1.78964 -0.1905,-1.78964 0,0 1.03716,-1.12995 1.08304,-1.27106 0.0494,-0.14111 -0.65971,-0.89465 -0.65971,-0.89465 l 1.08305,-0.98883 c -0.014,-0.0607 -0.0671,-0.12453 -0.14465,-0.1905 l 5.63033,-1.13277 z m 11.77925,-2.47086 c 0,0 -0.30337,0.0512 -0.762,0.66111 -0.45509,0.60889 0.42333,1.74378 0.42333,1.74378 l -1.21708,43.55782 c -2.37419,1.28693 -1.15359,3.72533 -1.15359,3.72533 l -1.2206,0.54222 -0.20108,4.11833 h -2.39183 c -0.0353,-1.23578 -0.0952,-3.64702 -0.0246,-4.25273 0.0988,-0.82339 -0.0494,-2.95522 -0.0494,-2.95522 l -0.9666,-0.48437 c 0.92075,-4.55401 0.19402,-41.47185 0.19402,-41.47185 0,0 0.62793,-1.1631 0.58208,-1.59914 -0.0494,-0.43639 -0.19402,-1.84115 -0.19402,-1.84115 0,0 1.06537,-1.16275 1.11125,-1.30774 0.0494,-0.1457 -0.67733,-0.92075 -0.67733,-0.92075 l 1.11477,-1.01741 c -0.0564,-0.21449 -0.51859,-0.4625 -1.143,-0.70556 l 6.62165,-1.3335 -0.0459,3.54083"
       style="fill:#f9f9f9;fill-opacity:1;fill-rule:nonzero;stroke:none;stroke-width:0.0352777"
       id="path5065" />
  </g>
</svg>
