<?xml version="1.0" encoding="UTF-8" standalone="no"?>
<svg
   xmlns:dc="http://purl.org/dc/elements/1.1/"
   xmlns:cc="http://creativecommons.org/ns#"
   xmlns:rdf="http://www.w3.org/1999/02/22-rdf-syntax-ns#"
   xmlns:svg="http://www.w3.org/2000/svg"
   xmlns="http://www.w3.org/2000/svg"
   xmlns:sodipodi="http://sodipodi.sourceforge.net/DTD/sodipodi-0.dtd"
   xmlns:inkscape="http://www.inkscape.org/namespaces/inkscape"
   inkscape:version="1.0 (4035a4fb49, 2020-05-01)"
   sodipodi:docname="tokyo.svg"
   viewBox="0 0 1177.36 708.39996"
   height="708.39996"
   width="1177.36"
   xml:space="preserve"
   id="svg10"
   version="1.1"><metadata
     id="metadata16"><rdf:RDF><cc:Work
         rdf:about=""><dc:format>image/svg+xml</dc:format><dc:type
           rdf:resource="http://purl.org/dc/dcmitype/StillImage" /><dc:title></dc:title></cc:Work></rdf:RDF></metadata><defs
     id="defs14" /><sodipodi:namedview
     inkscape:current-layer="g20"
     inkscape:window-maximized="1"
     inkscape:window-y="-8"
     inkscape:window-x="-8"
     inkscape:cy="-360.77688"
     inkscape:cx="-2314.6708"
     inkscape:zoom="0.16208334"
     showgrid="false"
     id="namedview12"
     inkscape:window-height="1027"
     inkscape:window-width="1920"
     inkscape:pageshadow="2"
     inkscape:pageopacity="0"
     guidetolerance="10"
     gridtolerance="10"
     objecttolerance="10"
     borderopacity="1"
     bordercolor="#666666"
     pagecolor="#ffffff" /><g
     transform="matrix(1.3333333,0,0,-1.3333333,-2485.5333,1549.0533)"
     inkscape:label="ink_ext_XXXXXX"
     inkscape:groupmode="layer"
     id="g18"><g
       transform="scale(0.1)"
       id="g20"><path
         id="path42"
         style="fill:#f9f9f9;fill-opacity:1;fill-rule:nonzero;stroke:none"
         d="m 27236.4,7120.39 c -126.7,0 -224.5,0 -249.5,0 0,0 -2.1,0 -6.2,0 -24.9,0 -122.8,0 -249.4,0 -147.4,0 -235.3,47.05 -235.3,47.05 l 6.2,-28.42 c 0,0 15.1,-23.96 21.3,-33.71 6.2,-9.76 17.8,-3.57 17.8,-3.57 l 2.6,-23.09 12.4,-17.73 c 23.1,-5.35 122.6,-8.01 122.6,-8.01 v -9.78 l 5.3,-3.54 v -28.42 c -8.9,0 -14.2,5.33 -14.2,5.33 v -14.2 h -137.6 v -42.61 l 9.7,-9.77 h 140.3 v -388.01 l -12.4,-4.86 v -96.82 h -162.9 v 163.83 h -49.7 v 74.51 h 46.9 v 71.74 h -126.9 v 151.8 h 38.6 v 217.99 l -13.8,16.56 8.3,16.58 v 93.81 l -13.8,8.28 22.1,19.32 v 91.05 l -16.6,11.08 13.8,8.26 v 102.11 l -19.3,8.28 22.1,13.79 v 91.07 l -24.9,11.04 24.9,13.81 v 91.05 l -24.9,13.83 19.3,8.26 v 93.81 l -13.8,13.81 16.6,13.81 v 85.54 l -13.8,2.76 16.6,19.31 v 110.39 h -52.5 v 27.6 h -118.6 v 264.92 l -204.3,300.81 -84.1,-176.63 v -263.53 l -98,97.97 -77.3,-151.78 v -182.15 l -11,-11.03 V 7874.2 l -52.4,-69 v -44.18 h -74.6 v -68.97 l -33.1,-33.12 v -320.12 h 35.9 v -126.95 h -38.6 v -99.36 h 35.8 v -259.41 h 22.1 v -82.78 h -135.2 c 0,0 0,-55.19 0,-74.51 0,-19.32 44.2,0 44.2,0 v -44.16 h -41.4 v -71.74 h 30.3 v -119.67 h -9.2 c -79.4,80 -424.7,450.75 -492.1,915.86 0,0 -30.6,148.77 -30.6,270.82 h 22.9 l 30.5,118.25 -72.4,15.25 c 0,0 -64.9,709.47 -64.9,877.29 l 15.3,-1.9 -3.8,55.29 9.5,15.28 v 41.95 l -42,26.7 v 19.06 l 21,-1.89 3.9,28.59 9.5,13.36 -1.9,57.23 -13.4,7.61 v 40.06 l -32.4,22.89 -21,524.46 -0.6,9.63 v 133.39 l -4.4,-66.71 -4.5,66.71 v -133.39 l -0.6,-9.63 -21,-524.46 -32.5,-22.89 v -40.06 l -13.3,-7.61 -1.9,-57.23 9.5,-13.36 3.8,-28.59 21,1.89 v -19.06 l -41.9,-26.7 v -41.95 l 9.5,-15.28 -3.8,-55.29 15.2,1.9 c 0,-167.82 -64.8,-877.29 -64.8,-877.29 l -72.5,-15.25 30.5,-118.25 h 22.9 c 0,-122.05 -30.5,-270.82 -30.5,-270.82 -67.4,-465.11 -412.7,-835.86 -492.2,-915.86 h -57 l -27.6,2119.4 -23.5,12.89 3,180.37 -88,18.05 3,335.02 -76.2,20.6 5.8,175.28 -76.2,15.43 v 164.92 l -73.2,15.47 v 247.38 l -52.8,10.33 -11.7,363.33 -8.6,2.3 v 3.6 l -6.6,-1.8 -6.6,1.8 v -3.6 l -8.5,-2.3 -11.8,-363.33 -52.7,-10.33 v -247.38 l -73.3,-15.47 v -164.92 l -76.2,-15.43 5.9,-175.28 -76.2,-20.6 2.9,-335.02 -87.9,-18.05 2.9,-180.37 -23.4,-12.89 -27.6,-2119.4 h -170.1 l -147.2,2634.52 c 0,0 52,70.43 76.1,140.88 24.1,70.44 53.8,116.81 53.8,139.04 l -24.1,14.84 c 0,0 11,14.83 12.9,20.39 1.9,5.57 7.4,38.95 1.9,46.35 -5.6,7.42 -135.4,5.55 -135.4,5.55 v 98.28 l -13,14.82 v 66.74 29.67 l 5.6,263.26 h -22.2 v 46.35 h 18.5 v 48.18 l 48.2,18.5 v 22.3 l -22.3,16.7 v 31.5 l 22.3,14.8 v 22.3 l -44.5,16.7 v 31.5 l -38.9,24.1 v 239.1 h -59.3 v 248.5 h 12.9 v 22.2 74.2 h -20.4 v 16.6 l 18.6,18.6 -11.1,163.1 h -16.7 v 35.3 3.7 h 12.9 v 25.9 h -12.9 v 57.5 h 12.9 v 25.9 h -12.9 v 57.5 h 12.9 v 26 h -12.9 v 57.4 h 12.9 v 26 h -12.9 v 57.5 h 12.9 v 25.9 h -12.9 v 68.6 l 25.9,5.6 v 135.3 h -59.3 -14.8 -59.4 v -135.3 l 26,-5.6 v -68.6 h -14.9 v -25.9 h 14.9 v -57.5 h -14.9 v -26 h 14.9 v -57.4 h -14.9 v -26 h 14.9 v -57.5 h -14.9 v -25.9 h 14.9 v -57.5 h -14.9 v -25.9 h 14.9 v -3.7 -35.3 h -16.7 l -11.1,-163.1 18.5,-18.6 v -16.6 h -20.4 v -74.2 -22.2 h 13 v -248.5 h -59.3 v -239.1 l -39,-24.1 v -31.5 l -44.5,-16.7 v -22.3 l 22.3,-14.8 v -31.5 l -22.3,-16.7 v -22.3 l 48.3,-18.5 v -48.18 h 18.5 v -46.35 h -22.3 l 5.6,-263.26 v -29.67 -66.74 l -13,-14.82 v -98.28 c 0,0 -129.8,1.87 -135.3,-5.55 -5.6,-7.4 0,-40.78 1.8,-46.35 1.9,-5.56 13,-20.39 13,-20.39 l -24.1,-14.84 c 0,-22.23 29.7,-68.6 53.8,-139.04 24.1,-70.45 76,-140.88 76,-140.88 l -147.2,-2634.52 h -99.2 v 1479.01 l -40.4,73.49 10.6,333.11 -28.1,21.04 v 438.3 l -136.7,175.31 -35.1,-14.03 -24.6,35.06 -291,-77.13 v -38.57 l -31.5,-14.02 v -441.82 l -35.1,-28.03 v -289.8 l -132.7,-0.41 9.8,311.44 -29.4,22.09 v 386.04 l -143.5,184 -36.8,-14.7 -25.8,36.79 -305.4,-80.95 v -40.49 l -33.2,-14.71 V 8511.5 l -36.8,-29.43 v -426.89 l -25.7,-33.13 V 6859.08 l -22.1,-25.78 11.6,-373.07 H 20852 v 2049.83 l -28.5,-6.33 -12.6,19 -205.7,6.33 -28.5,-31.66 -310.2,25.33 -98.1,-25.33 -53.8,69.65 c 0,0 -75.9,-3.16 -110.8,-9.51 -34.8,-6.31 -18.9,-47.48 -18.9,-47.48 l -44.3,-19.01 -12.6,-2030.82 h -217.1 l 0.3,6.94 -107.2,7.75 v 228.73 l 14.4,6.64 12.1,18.77 18.8,5.53 4.4,21 31,3.32 3.3,14.37 14.3,4.4 1.1,14.39 -16.5,2.19 -13.3,30.95 -103.9,15.49 c 0,0 3.3,22.09 7.8,26.51 4.4,4.43 1.1,22.09 1.1,22.09 l 39.8,8.84 34.2,-4.41 10,6.62 -18.8,6.64 25.4,12.15 37.6,-9.94 8.8,16.58 78.4,20.98 36.5,1.11 6.6,11.06 -17.6,4.43 36.4,12.15 6.7,8.83 14.3,3.32 12.2,17.69 c 0,0 -46.4,-24.33 -194.5,14.34 -148.1,38.69 -201.1,93.94 -201.1,93.94 0,0 -5.5,8.85 -8.9,17.7 -3.3,8.83 0,15.47 -5.5,20.97 -5.5,5.53 0,4.44 4.4,6.65 4.5,2.2 1.1,7.73 -154.7,30.95 -155.8,23.21 -292.8,81.78 -309.4,80.65 -16.6,-1.1 2.2,-9.94 2.2,-9.94 l 14.4,-6.63 c -4.4,-1.11 -6.7,-21.01 -6.7,-21.01 l -7.7,-4.4 v -12.16 l -6.6,-5.53 c -7.8,-69.61 -116,-176.82 -116,-176.82 -161.4,-51.93 -257.5,-37.56 -257.5,-37.56 24.3,-49.72 64,-37.57 64,-37.57 l -9.3,-9.4 8.3,-8.28 h 28.7 l 175.7,-38.67 53,-30.94 v -53.05 l -45.3,-12.16 V 6692.6 l 32.1,-12.15 v -220.22 h -197.2 V 6304.9 h 8669.4 v 155.33 h -123.2 v 96.82 l -12.4,4.86 v 388.01 h 140.2 l 9.8,9.77 v 42.61 h -137.6 v 14.2 c 0,0 -5.3,-5.33 -14.2,-5.33 v 28.42 l 5.3,3.54 v 9.78 c 0,0 99.4,2.66 122.5,8.01 l 12.5,17.73 2.6,23.09 c 0,0 11.6,-6.19 17.8,3.57 6.2,9.75 21.3,33.71 21.3,33.71 l 6.2,28.42 c 0,0 -87.9,-47.05 -235.3,-47.05 z m -223.7,-69.92 c 64.6,-0.68 191.8,2.66 191.8,2.66 v -9.3 l 6.6,-2.01 v -31.96 c -34,0 -41.9,5.3 -41.9,5.3 v -16.62 h -156.5 z m -256.2,-8.65 6.7,2.01 v 9.3 c 0,0 127.2,-3.34 191.8,-2.66 v -51.93 h -156.5 v 16.62 c 0,0 -8,-5.3 -42,-5.3 z m -1866.6,-343.69 c 2.7,-0.57 302.9,36.79 557.5,-237.9 h -1115.1 c 254.6,274.69 554.8,237.33 557.6,237.9 z m 1877.7,-237.9 v 96.37 l -13.3,7.09 v 384.45 h 226.4 6.2 226.4 v -384.45 l -13.3,-7.09 v -96.37 h -432.4" /></g></g></svg>
