<?xml version="1.0" encoding="UTF-8" standalone="no"?>
<svg
   xmlns:dc="http://purl.org/dc/elements/1.1/"
   xmlns:cc="http://creativecommons.org/ns#"
   xmlns:rdf="http://www.w3.org/1999/02/22-rdf-syntax-ns#"
   xmlns:svg="http://www.w3.org/2000/svg"
   xmlns="http://www.w3.org/2000/svg"
   xmlns:sodipodi="http://sodipodi.sourceforge.net/DTD/sodipodi-0.dtd"
   xmlns:inkscape="http://www.inkscape.org/namespaces/inkscape"
   inkscape:version="1.0 (4035a4fb49, 2020-05-01)"
   sodipodi:docname="toronto.svg"
   viewBox="0 0 1489.6133 758.79999"
   height="758.79999"
   width="1489.6133"
   xml:space="preserve"
   id="svg4184"
   version="1.1"><metadata
     id="metadata4190"><rdf:RDF><cc:Work
         rdf:about=""><dc:format>image/svg+xml</dc:format><dc:type
           rdf:resource="http://purl.org/dc/dcmitype/StillImage" /><dc:title></dc:title></cc:Work></rdf:RDF></metadata><defs
     id="defs4188" /><sodipodi:namedview
     inkscape:current-layer="g4194"
     inkscape:window-maximized="1"
     inkscape:window-y="126"
     inkscape:window-x="1912"
     inkscape:cy="24.813649"
     inkscape:cx="31.680299"
     inkscape:zoom="0.16600019"
     showgrid="false"
     id="namedview4186"
     inkscape:window-height="811"
     inkscape:window-width="1536"
     inkscape:pageshadow="2"
     inkscape:pageopacity="0"
     guidetolerance="10"
     gridtolerance="10"
     objecttolerance="10"
     borderopacity="1"
     bordercolor="#666666"
     pagecolor="#ffffff" /><g
     transform="matrix(1.3333333,0,0,-1.3333333,-1782.44,3087.7199)"
     inkscape:label="ink_ext_XXXXXX"
     inkscape:groupmode="layer"
     id="g4192"><g
       transform="scale(0.1)"
       id="g4194"><path
         id="path4196"
         style="fill:#262626;fill-opacity:1;fill-rule:nonzero;stroke:none"
         d="m 11097.3,1352.52 v 64.39 l -25.5,20.98 12.8,481.84 57.2,26.91 -184.5,442.95 -95.4,-365.12 h -187.6 v -77.83 h -372.1 v 643.44 l 38.2,20.97 -229,332.21 h -44.5 l -40.7,417.5 -38.81,-417.5 h -41.35 l -216.23,-329.24 38.15,-11.95 v -547.68 h -524.72 l -44.54,218.48 -41.34,-227.44 h -117.65 l -38.19,383.09 -47.68,-260.39 -38.18,38.9 h -400.69 v 110.72 l -34.96,182.56 -41.35,-179.55 v -143.67 l -31.79,-200.51 -38.19,140.65 -50.88,-275.32 v -489.39 h -74.41 v 438.63 h -70.46 V 3933.2 l -35.23,37.29 v 49.72 h -114.46 l -8.81,439.2 -26.4,12.43 c 0,0 -35.2,236.15 -154.09,269.29 l -17.63,142.11 v 106.49 h -13.2 v -106.49 l -17.62,-142.11 c -118.87,-33.14 -154.1,-269.29 -154.1,-269.29 l -26.41,-12.43 -8.8,-439.2 H 7481.7 v -49.72 l -35.22,-37.29 v -849.33 h -220.12 v 849.33 l -35.21,37.29 v 49.72 h -114.49 l -8.78,439.2 -26.44,12.43 c 0,0 -35.2,236.15 -154.08,269.29 l -17.62,142.11 v 106.49 h -13.2 v -106.49 l -17.63,-142.11 c -118.85,-33.14 -154.09,-269.29 -154.09,-269.29 l -26.41,-12.43 -8.79,-439.2 h -114.49 v -49.72 l -35.22,-37.29 V 1791.15 h -70.44 v -9.2 l -183.77,2.11 -0.03,0.12 -4.67,-0.06 -4.69,0.06 v -0.12 l -343.77,-3.94 -343.79,3.94 v 0.12 l -4.67,-0.06 -4.71,0.06 v -0.12 l -321.48,-3.69 -321.48,3.67 v 0.14 l -4.67,-0.06 -4.69,0.06 -0.01,-0.14 -186.16,-2.11 v 115.65 l -103.54,157.79 v 148.5 l 56.7,34.82 L 4405,2473.07 H 2481.68 v 1073.34 c 0,0 -73.97,106.73 -128.22,153.14 -54.26,46.43 -98.66,269.18 -98.66,269.18 l -162.74,680.7 v 61.86 l -7.37,-30.92 -7.41,30.92 v -61.86 l -162.73,-680.7 c 0,0 -44.39,-222.75 -98.64,-269.18 -54.25,-46.41 -128.22,-153.14 -128.22,-153.14 V 2213.3 l -266.3,-171.85 88.75,-13.93 v -348.07 l -59.18,-74.27 27.15,-25.51 V 1352.5 h -160.27 v 614.2 l -158.57,138.96 v 535.22 c 0,0 0,195.55 0,262.44 0,66.91 -16.42,92.64 -16.42,92.64 l -21.86,-51.49 -87.51,810.41 v 151.96 l -8.2,-75.98 -8.19,75.98 v -151.96 l -87.52,-810.41 -21.863,51.49 c 0,0 -16.406,-25.73 -16.406,-92.64 0,-66.89 0,-262.44 0,-262.44 V 2272.5 L 524.906,2326.93 92.9219,2013.03 H 142.141 V 1462.38 L 92.9219,1441.82 V 1352.5 H 0 v -236.15 h 11191.6 v 236.17 z m -5029.96,195.16 c 0,0 47.57,118.28 173.66,122.59 126.09,-4.31 173.64,-122.59 173.64,-122.59 l 4.71,-81.86 c 0,0 -25.81,-54.57 -37.55,-100.04 -1.27,-4.88 -2.29,-9.3 -3.09,-13.26 h -275.43 c -0.81,3.96 -1.8,8.38 -3.07,13.26 -11.73,45.47 -37.55,100.04 -37.55,100.04 z m -696.93,0 c 0,0 47.54,118.28 173.67,122.59 126.07,-4.31 173.62,-122.59 173.62,-122.59 l 4.71,-81.86 c 0,0 -25.82,-54.57 -37.55,-100.04 -1.26,-4.88 -2.26,-9.3 -3.07,-13.26 h -275.45 c -0.81,3.96 -1.8,8.38 -3.06,13.26 -11.74,45.47 -37.55,100.04 -37.55,100.04 z m -652.33,0 c 0,0 47.56,118.28 173.66,122.59 126.09,-4.31 173.64,-122.59 173.64,-122.59 l 4.68,-81.86 c 0,0 -25.81,-54.57 -37.52,-100.04 -1.28,-4.88 -2.29,-9.3 -3.09,-13.26 H 4754 c -0.79,3.96 -1.8,8.38 -3.06,13.26 -11.74,45.47 -37.56,100.04 -37.56,100.04 l 4.7,81.86" /><path
         id="path4198"
         style="fill:#262626;fill-opacity:1;fill-rule:nonzero;stroke:none"
         d="m 11193,23536.5 8.3,148.7 -95.3,89.7 -11.2,415 -49.1,26.6 v 105.2 l -46.3,23.8 v 40.6 l -43.4,25.3 -637.9,-89.7 v -39.3 l -58.8,-5.6 1.4,-335 -374.33,65.8 -813.07,-78.5 2.8,-53.2 316.81,-25.3 -2.4,-314.1 h -40.96 v 250.6 l -384.02,14.4 -408.73,491.5 -1.05,92.7 19.68,1.7 1.63,39.3 577.33,-75.4 16.37,49.2 -1070.96,157.4 -9.85,-57.4 67.41,-10.5 -64.94,-535.4 -29.81,3 -8.48,0.9 -8.46,-0.9 -29.8,-3 -64.93,535.4 67.39,10.5 -9.84,57.4 -1070.99,-157.4 16.41,-49.2 577.3,75.4 1.66,-39.3 19.67,-1.7 -1.06,-92.7 -408.73,-491.5 -384.01,-14.4 v -250.6 h -37.9 v 702.6 l 19.41,27.3 -63.78,56.1 c 0,0 -8.33,34.5 -15.26,47.5 -6.92,12.9 -23.57,48.9 -23.57,48.9 l -9.71,-17.3 -20.79,-10.1 -126.2,133.8 -11.1,43.2 -137.28,1.4 -74.87,-43.1 -4.16,-31.7 -8.32,-12.9 -126.19,-202.8 h -608.74 v 250.2 l 19.42,28.8 h -19.42 l -126.19,372.5 c 0,0 20.8,2.9 20.8,18.7 0,15.8 -31.9,67.6 -31.9,67.6 h -15.24 l -31.91,187 -24.95,-187 c 0,0 -19.41,-7.2 -20.8,-11.5 -1.39,-4.3 -31.9,-53.2 -29.12,-64.7 2.77,-11.5 18.01,-15.8 18.01,-15.8 l -90.12,-359.6 -20.79,-89.2 -194.14,-2.9 -36.06,54.7 c 0,0 6.93,24.4 6.93,40.3 0,13.3 -9.82,52.1 -12.95,64 v 3.6 c 0,0 -0.15,-0.7 -0.45,-1.8 -0.29,1.1 -0.46,1.8 -0.46,1.8 v -3.6 c -3.11,-11.9 -12.94,-50.7 -12.94,-64 0,-15.9 6.93,-40.3 6.93,-40.3 l -36.06,-54.7 -194.13,2.9 -20.8,89.2 -90.14,359.6 c 0,0 15.26,4.3 18.04,15.8 2.78,11.5 -27.73,60.4 -29.13,64.7 -1.38,4.3 -20.8,11.5 -20.8,11.5 l -24.95,187 -31.9,-187 h -15.26 c 0,0 -31.89,-51.8 -31.89,-67.6 0,-15.8 20.8,-18.7 20.8,-18.7 l -126.18,-372.5 h -19.42 l 19.42,-28.8 v -250.2 h -608.74 l -126.2,202.8 -8.31,12.9 -4.16,31.7 -74.88,43.1 -137.28,-1.4 -11.1,-43.2 -126.18,-133.8 -20.8,10.1 -9.72,17.3 c 0,0 -16.63,-36 -23.56,-48.9 -6.94,-13 -15.25,-47.5 -15.25,-47.5 l -63.81,-56.1 19.42,-27.3 v -702.6 h -55.99 l -9.04,232.2 -24.13,469.3 -20.39,-72.4 -48.84,128.6 -624.4,3.1 -12.99,115 -42.65,335.7 c 0,0 -24.12,-333.8 -24.12,-345 0,-11.1 -9.25,16.7 -9.25,16.7 l -1.87,124.3 7.42,20.4 -61.21,281.9 -63.06,-252.2 3.72,-24.2 7.41,-46.3 -218.84,302.3 v 46.4 h -14.84 v -50.1 l -189.19,-367.2 -25.95,20.4 14.83,38.9 -70.48,278.2 -63.06,-272.6 9.28,-37.1 -1.86,-378.4 -11.13,33.4 -14.84,-135.4 -11.12,48.2 -16.7,-50 -92.72,-1.9 -16.7,79.8 -9.27,-94.6 -40.8,-26 1.85,-68.6 -44.51,-66.8 -27.82,-44.5 -13.57,-241.5 h -132.92 c -1.62,5.9 -2.47,12.2 -5.1,17.7 -2.99,6.2 -2.03,13.2 -4.55,18.7 -2.5,5.5 -4.29,10.6 -5.23,16.4 -0.42,2.6 -2.92,4.8 -3.78,7.4 -0.78,2.3 -1.72,5.7 -0.66,7.3 4.18,6.2 1.46,10.7 -2.77,15.1 -2.31,2.3 -4.19,4.5 -2.55,8.2 0.51,1.1 0.21,3.5 -0.62,4.1 -5.81,4.5 -5.11,11.6 -7.07,17.4 -2.31,6.8 -2.13,14.5 -2.99,21.8 -0.13,1.1 0.3,2.6 -0.25,3.3 -6.98,8.7 -4.54,20.3 -9.42,29.8 -3.14,6.1 -1.22,8.9 5.63,10.3 14.13,2.8 28.33,5.4 42.51,8.1 0,3.3 0,6.7 0,10 -1,1.8 -2.77,3.6 -2.84,5.5 -0.38,8.3 -0.32,16.6 -0.3,25 0,1.6 0.21,3.3 0.77,4.8 2.56,7.1 2.12,8.3 -5.58,9.3 -19.47,2.4 -38.98,4.4 -58.46,6.7 -2.34,0.3 -4.56,1.6 -6.84,2.4 3.27,8.9 -0.1,12.8 -8.68,12.4 -2,-0.1 -4.52,2.2 -6.12,3.9 -9.14,10.2 -17.96,20.6 -27.15,30.7 -9.53,10.6 -19.34,20.9 -28.32,30.5 0.5,3 2.02,6.2 1.05,7.5 -2.11,2.6 -5.31,5.7 -8.37,6 -6.204,0.8 -10.532,3.1 -11.415,9.5 -0.937,6.8 -1.167,13.6 -1.324,20.5 -0.043,1 1.719,2.6 2.985,3.1 5.944,2.4 12.374,3.9 17.984,7 8.71,4.7 9.22,9.9 3.52,18.1 -3.02,4.3 -5.35,9.2 -7.93,13.8 -4.67,8.4 -9.488,16.7 -13.871,25.2 -3.473,6.8 -6.547,13.7 -9.504,20.7 -0.735,1.7 -0.586,4 -0.297,6 2.766,19.4 5.859,38.7 8.469,58.2 3.558,26.6 6.963,53.1 10.083,79.8 2.51,21.5 4.38,43 6.8,64.5 0.9,8.1 2.48,16.1 4.03,24.1 0.22,1.2 1.89,2.8 3.08,3 2.87,0.5 5.99,0.8 8.79,0.1 5.72,-1.2 8.59,1.2 9.35,6.5 0.57,3.7 2.18,4.8 5.64,3.3 0.83,-0.4 1.76,-0.6 2.66,-0.8 11.45,-2 14.18,0.2 14.19,11.7 0.01,3.5 -0.34,7.1 0.26,10.5 0.4,2.3 2.56,4.3 3.19,6.7 0.64,2.3 1.34,5.5 0.25,7.1 -4.66,7 -3.58,14.6 -3.72,22.1 -0.01,0.5 0.1,1.1 0.27,1.6 0.1,0.3 0.45,0.6 1.4,1.6 3.77,-4.1 7.67,-7.8 11.05,-12 3.3,-4.1 6,-4.1 9.41,-0.2 3.66,4.1 7.84,7.8 11.5,12 3.71,4.2 3.24,6.5 -1.73,9 -7.63,3.7 -15.38,7.3 -23.08,10.9 -1.68,0.8 -3.61,1.2 -4.95,2.4 -1.18,1 -1.64,2.9 -2.41,4.3 1.44,0.5 2.94,1.5 4.37,1.5 7.2,-0.5 14.38,-1.1 21.58,-1.7 3.95,-0.4 6.22,0.9 6.35,5.4 0.21,6.9 1.13,13.7 1.48,20.5 0.28,5.2 -1.65,6.6 -6.4,4.4 -8.1,-3.6 -16.03,-7.5 -24.04,-11.4 -1.18,-0.5 -2.3,-1.4 -3.52,-1.6 -1.5,-0.1 -4.08,0 -4.38,0.7 -0.54,1.4 -0.35,3.8 0.57,4.8 5.73,6.5 11.49,13.1 17.76,19 3.85,3.7 4.04,6.5 0.67,10.3 -4.04,4.6 -7.76,9.5 -11.78,14 -1.28,1.5 -3.09,2.5 -6,4.7 -2.66,-7.9 -4.98,-14.8 -7.31,-21.6 -1.19,-3.5 -2.17,-7.1 -3.59,-10.5 -1.88,-4.5 -3.28,-8.8 1.33,-12.9 -6.96,0.5 -7.15,1.7 -7.04,7.7 0.2,10.7 -0.45,21.4 -1.29,32.1 -0.12,1.7 -2.85,4.2 -4.64,4.5 -6.76,0.9 -13.61,1.1 -20.45,1.4 -3.3,0.2 -4.42,-1.9 -3.36,-4.7 4.44,-12 8.91,-23.9 13.75,-35.7 0.83,-2 3.5,-3.3 5.6,-5.1 -3.4,-3.7 -5.72,-0.6 -7.79,1.7 -6.29,6.8 -12.32,13.8 -18.61,20.6 -6.562,7.1 -6.8,7 -13.12,0 -2.215,-2.4 -4.246,-5.1 -6.664,-7.4 -2.418,-2.3 -5.18,-4.1 -7.809,-6.1 0.242,-0.8 0.481,-1.5 0.719,-2.2 3.168,-1.6 6.398,-3 9.516,-4.6 6.738,-3.5 13.445,-7.1 20.158,-10.6 4.79,-2.5 9.56,-4.7 14.15,1.7 -2.76,-8.8 -2.74,-8.5 -10.9,-8.1 -8.701,0.5 -17.424,0.4 -26.123,0.8 -3.481,0.1 -5.332,-1.3 -5.34,-4.8 -0.012,-7.9 -0.031,-15.9 0.152,-23.8 0.067,-3.8 2.434,-4 5.391,-2.9 10.039,3.8 20.09,7.5 30.14,11.3 0.95,0.3 1.96,0.5 2.95,0.8 0.34,-0.5 0.67,-1 1,-1.5 -14.71,-11.1 -29.45,-22.1 -44.332,-33.3 -2.735,2.6 -6.016,4.4 -3.868,8.9 0.418,0.9 -0.574,2.8 -1.414,3.8 -3.359,4.2 -7.003,8.2 -10.386,12.4 -2.188,2.6 -4.18,5 -4.864,9.1 -0.679,4.1 -5.582,7.5 -8.648,11.2 -2.492,2.9 -6.645,5.6 -7.219,8.9 -2.258,12.8 -14.168,19 -18.746,29.7 -3.848,9 -10.305,15.4 -16.265,22.6 -2.04,2.4 -2.524,6.1 -4.286,8.8 -1.871,2.9 -3.922,6.7 -6.777,7.7 -5.25,2 -11.109,2.7 -16.793,3.3 -31.109,3 -62.25,5.8 -93.379,8.7 -1.422,0.2 -2.836,0.6 -4.258,0.9 -0.429,0.6 -0.863,1.2 -1.293,1.7 0.887,0.2 1.821,0.4 2.664,0.7 14.856,5.9 22.399,20.4 34.731,29.4 9.137,6.6 17.625,14.1 26.656,20.8 2.418,1.8 5.899,2.1 8.684,3.5 2.922,1.5 5.949,3.1 5.183,7.4 -0.121,0.7 1.235,1.8 2.071,2.4 18.48,14.8 36.621,30.1 55.812,43.9 4.227,3.1 11.629,3.8 14.363,8.5 5.043,8.7 13.223,13.6 20.215,19.9 12.992,11.5 26.606,22.3 40.016,33.3 0.867,0.7 2.437,1.2 3.473,0.9 6.566,-1.5 11.82,2.3 12.58,9.1 0.2,1.9 1.29,4.3 2.78,5.5 16.58,13.8 33.28,27.5 50.15,41 1.57,1.3 4.59,0.6 6.88,1.1 2.64,0.6 5.62,0.8 7.72,2.3 2.62,1.8 6.44,3.5 4.44,8.3 -0.46,1.2 0.33,3.7 1.39,4.5 14.97,12.3 30.09,24.5 45.14,36.7 4.6,3.7 9.01,7.7 13.77,11.2 1.22,0.9 4.15,1.1 5.11,0.3 5.04,-4.3 8.15,0.6 11.08,2.6 2.21,1.6 4.22,5.8 3.71,8.2 -0.66,3.3 0.78,4.3 2.59,5.8 0,1.9 0,3.7 0,5.6 -2.35,3 -4.3,6.4 -7.2,8.7 -1.52,1.2 -5.49,1.2 -6.96,0.1 -4.35,-3.5 -6.15,-1.1 -8.08,2.3 -1.16,2.1 -2.4,4.1 -3.78,6.5 1.79,1.6 3.35,3.2 5.03,4.6 4.26,3.5 4.49,5.7 0.89,10 -4.76,5.7 -6.92,6.2 -11.38,2.4 -5.15,-4.3 -5.4,-4.2 -9.26,1 -8.78,11.9 -17.7,23.7 -26.42,35.7 -2.96,4 -7.42,8 -1.79,13.7 0.94,0.9 0.2,5.2 -1.15,6.4 -4.01,3.5 -7.96,8.1 -14.46,5.7 -0.48,-0.2 -1.32,-0.5 -1.58,-0.2 -4.97,4.6 -7.62,-0.4 -11.18,-2.5 -4.31,-2.5 -7.22,-4.9 -1.47,-10.3 -10.04,-9.8 -19.9,-19.2 -29.54,-28.8 -8.79,-8.7 -17.29,-17.7 -26.04,-26.5 -0.98,-1 -2.865,-1.8 -4.174,-1.6 -6.929,1 -11.937,-3.2 -11.832,-10.2 0.02,-1.2 -1.023,-2.6 -1.937,-3.6 -6.805,-7.3 -13.692,-14.5 -20.606,-21.6 -6.656,-7 -13.3,-13.9 -20.144,-20.6 -2.887,-2.9 -6.289,-5.1 -9.754,-7.9 -4.055,3.9 -8.266,4.5 -12.629,0.7 -3.25,-2.9 -5.266,-6 -1.906,-10 2.301,-2.7 0.648,-4.3 -1.192,-6 -13.109,-12.2 -26.253,-24.5 -39.363,-36.7 -3.258,-3 -6.473,-6 -9.781,-9 -3.375,-3 -6.203,-6.2 -12.024,-4.6 -4.921,1.3 -9.261,-4.7 -8.89,-9.9 0.117,-1.8 -0.906,-4.2 -2.227,-5.6 -12.109,-12.5 -24.418,-24.8 -36.59,-37.2 -2.98,-3 -5.683,-6.3 -8.589,-9.5 -2.668,-2.8 -4.875,-5.7 -9.622,-6.4 -2.894,-0.4 -8.078,-2.6 -6.722,-8.4 0.25,-1 -0.899,-2.6 -1.832,-3.6 -13.172,-13.2 -26.356,-26.4 -39.688,-39.4 -2.722,-2.7 -4.754,-7.1 -10.433,-4.5 -0.938,0.4 -4.629,-4.3 -6.559,-7 -1.43,-2 -1.484,-5.2 -3.183,-6.8 -12.004,-11.2 -24.165,-22.3 -36.571,-33 -2.867,-2.5 -7.023,-3.4 -10.426,-5.3 -1.918,-1.1 -5.253,-3.3 -5.003,-4.1 1.8,-5.7 -7.758,-11.1 -0.321,-16.5 1.567,-1.1 4.059,-1.6 5.988,-1.4 4.239,0.6 4.2,0.8 7.028,-4.4 -15.121,1.3 -29.985,2.5 -44.84,3.9 -7.371,0.7 -14.695,1.9 -22.066,2.5 -9.114,0.7 -13.372,-4.3 -13.891,-13.2 -0.238,-4.2 -2.734,-8.9 -5.602,-12.1 -4.882,-5.6 -9.129,-11.1 -10.832,-18.5 -0.714,-3.1 -3.132,-5.8 -4.703,-8.7 -3.203,-5.9 -6.097,-12 -9.605,-17.8 -3.989,-6.5 -8.477,-12.8 -13.727,-20.6 -25.109,31.1 -49.344,61.2 -73.777,91.5 3.172,2.9 4.644,6.6 9.848,4 3.46,-1.7 9.898,3.6 10.683,7.8 1.035,5.5 -2.129,12.1 -6.875,15.2 -2.234,1.4 -4.43,3.2 -6.07,5.3 -10.481,13.4 -20.809,26.9 -31.25,40.3 -1.707,2.2 -2.774,3.6 -1.805,7.1 0.711,2.6 -2.48,6.7 -4.707,9.5 -0.891,1.1 -3.851,0.6 -5.859,0.8 -0.43,-0.6 -0.856,-1.2 -1.285,-1.8 -6.723,8.9 -13.321,18 -20.223,26.8 -5.149,6.5 -10.75,12.7 -15.973,19.1 -1.164,1.5 -2.336,3.5 -2.316,5.3 0.109,5.7 -2.395,9.1 -7.918,10.3 -1.594,0.4 -3.395,1.5 -4.352,2.8 -11.269,15.6 -22.39,31.2 -33.613,46.8 -2.168,3 -4.832,5.6 -6.977,8.6 -1.23,1.8 -2.753,4 -2.574,5.9 0.539,5.6 -3.969,7.4 -7.113,10.2 -1.68,1.5 -4.348,2.1 -5.754,3.7 -12.055,14.5 -24.012,29.1 -35.812,43.8 -2.649,3.3 -4.665,7.1 -6.786,10.8 -1.742,3 -4.609,5.8 -1.492,9.9 0.758,1 -0.699,4.7 -2.168,6.1 -1.742,1.6 -5.023,3.3 -6.867,2.7 -2.98,-1.1 -4.574,-0.4 -6.144,1.7 -2.469,3.2 -4.758,6.6 -7.215,9.8 -6.567,8.7 -13.27,17.3 -19.731,26 -5.699,7.7 -11.191,15.6 -16.676,23.4 -0.535,0.8 -0.605,2.1 -0.414,3.1 0.395,2 2.239,5 1.504,5.8 -2.816,3.3 -4.707,8.2 -10.66,7.7 -1.699,-0.1 -4.144,1.3 -5.258,2.8 -11.89,15.6 -23.578,31.3 -35.281,47 -3.641,4.9 -7.203,9.9 -10.664,14.9 -0.777,1.1 -1.77,3.4 -1.324,3.9 5.32,5.3 0.34,9.2 -1.489,13.5 -5.933,0 -11.851,0 -17.789,0 -2.203,-1.3 -4.57,-2.4 -6.578,-4 -4.09,-3.3 -7.441,-6.9 -4.16,-12.8 -1.812,-1.3 -3.453,-2.5 -4.976,-3.8 -3.098,-2.7 -5.59,-3.8 -8.43,0.7 -2.332,3.7 -5.973,4.6 -9.973,1.5 -4.488,-3.6 -5.359,-6.3 -2.011,-10.7 2.46,-3.3 1.617,-5.1 -1.192,-7.3 -12.445,-10.2 -24.7108,-20.5 -37.1483,-30.6 -1.4727,-1.2 -3.8907,-2.4 -5.5235,-2 -5.457,1.2 -12.0429,-1.3 -15.0312,-6.3 -2.793,-4.7 -1.043,-14.4 3.1445,-17.3 0.5977,-0.5 1.332,-1.3 1.8398,-1.2 7.0274,1.5 8.8946,-4.4 12.168,-8.3 15.5235,-18.6 31.0977,-37.1 46.5277,-55.8 1.156,-1.4 2.281,-4.5 1.574,-5.5 -4.367,-6.6 2.43,-8.4 5.058,-11.5 1.2,-1.4 4.711,-0.9 7.192,-1.3 0.195,0.5 0.394,1.1 0.586,1.6 6.472,-7.3 12.84,-14.7 19.41,-21.9 9.07,-9.9 18.266,-19.8 27.5,-29.6 2.453,-2.6 3.77,-4.5 -0.066,-7.5 -4.184,-3.2 -3.5,-6.2 1.054,-9 1.715,-1.1 3.098,-2.8 4.91,-3.5 1.957,-0.8 4.965,-1.9 6.223,-1 3.981,2.8 6.129,0.6 8.399,-2 7.843,-8.8 15.718,-17.7 23.398,-26.7 8.141,-9.5 16.062,-19.2 23.371,-28 -0.605,-3.3 -2.047,-7 -1.23,-7.6 3.433,-2.6 5.14,-8.1 11.089,-7.1 1.532,0.3 3.911,-0.6 4.973,-1.8 15.449,-17.4 30.754,-35 46.066,-52.5 0.692,-0.9 1.583,-1.8 1.661,-2.8 0.777,-8.9 1.91,-10.3 10.191,-12.2 1.113,-0.3 2.168,-1.3 2.961,-2.3 12.066,-14.2 24.137,-28.5 36.047,-42.8 1.074,-1.3 1.609,-3.6 1.441,-5.4 -0.527,-5.3 3.641,-9.8 9.149,-9.8 1.617,0 3.754,-0.6 4.765,-1.7 12.649,-13.7 25.16,-27.6 37.598,-41.5 1.074,-1.2 2.109,-3.4 1.773,-4.8 -1.371,-5.7 2.618,-7.6 6.309,-8.8 5.16,-1.8 16.473,3.5 19.258,8.3 5.582,9.4 5.582,9.4 13.32,14.7 4.438,-6.5 8.809,-13 13.383,-19.4 10.473,-14.5 20.98,-29.1 31.625,-43.5 8.766,-11.9 17.762,-23.6 26.668,-35.4 0.555,-0.8 1.113,-1.5 1.726,-2.2 7.133,-8.1 6.778,-8.7 0.02,-17.3 -14.078,-17.9 -31.934,-31.8 -48.5,-47 -9.926,-9.1 -20.082,-17.9 -30.285,-26.7 -5.598,-4.9 -7.738,-4.9 -10.242,-0.6 -0.668,1.2 -1.196,3.2 -0.621,4 2.16,3.2 1.574,6.4 -1.161,7.7 -2.859,1.4 -6.808,2 -9.832,1.2 -2.187,-0.6 -3.601,-4 -5.421,-6.1 -2.141,-2.5 -4.149,-5.1 -6.594,-7.2 -14.391,-12.1 -28.864,-24.2 -43.36,-36.2 -1.054,-0.9 -2.504,-1.9 -3.742,-1.9 -6.078,0.1 -9.379,-2.6 -10.633,-8.3 -0.429,-2 -1.992,-3.9 -3.519,-5.3 -13.235,-11.8 -26.535,-23.6 -39.945,-35.2 -1.692,-1.5 -4.059,-2.8 -6.207,-3 -6.172,-0.4 -8.579,-2.5 -9.672,-8.7 -0.282,-1.6 -1.461,-3.3 -2.754,-4.4 -18.418,-15.4 -36.891,-30.8 -55.496,-46 -1.543,-1.2 -4.278,-1.7 -6.375,-1.5 -4.985,0.4 -9.243,-3.9 -8.848,-9 0.102,-1.3 -0.758,-3.1 -1.77,-4 -16.757,-14.9 -33.566,-29.6 -50.519,-44.2 -1.074,-1 -4.039,-1.3 -4.941,-0.5 -3.071,2.6 -6.579,2.9 -9.079,0.6 -1.957,-1.8 -3.578,-5.6 -3.109,-8.1 0.785,-4.3 -0.527,-6.6 -3.496,-9.1 -13.508,-10.9 -26.981,-21.8 -40.391,-32.9 -4.558,-3.7 -8.746,-8 -13.437,-11.5 -1.5627,-1.2 -4.8322,-2.1 -6.1643,-1.3 -5.2929,3.3 -8.3437,0 -11.5664,-3.1 -3.3437,-3.2 -3.3633,-6.5 1.1992,-9.5 -4.6523,-3.8 -8.7343,-7.1 -12.7812,-10.5 -15.582,-12.8 -31.0781,-25.7 -46.7695,-38.3 -1.3321,-1.1 -4.2266,-1.7 -5.6719,-1 -6.0781,3 -9.35159,-1.3 -13.1094,-4.4 -2.99609,-2.5 -3.23437,-5.1 -1.28516,-8.8 0.625,-1.2 -2.89453,-4.5 -4.52734,-6.9 0,-1.5 0,-3 0,-4.5 1.03516,-1 2.28906,-1.9 3.06641,-3.2 3.27343,-5.1 6.49609,-5.9 11.62499,-1.7 5.3867,4.5 7.3047,-1.9 11.2461,-4.7 -4.8867,-4.1 -9.4141,-7.8 -13.8281,-11.6 -3.87112,-3.3 -3.57424,-6.2 1.1133,-11.1 2.9336,-3.1 6.0195,-5 9.9453,-1.1 3.1758,3 6.7695,5.7 9.9218,8.8 2.1211,2.1 3.6407,1.9 5.5938,-0.1 13.0781,-13.1 26.1953,-26.1 39.3633,-39.2 2.289,-2.2 1.7344,-4 -0.2774,-6.1 -3.5976,-3.7 -7.0859,-7.5 -10.625,-11.3 -4.1172,-4.4 -0.5976,-7.6 2.0977,-10.4 2.6172,-2.7 5.9726,-4.6 9.4844,-0.8 2.1562,2.2 4.3828,4.5 6.5859,6.7 3.4102,3.5 6.4375,7.3 12.0352,8 2.2929,0.3 5.6603,3.4 5.9843,5.6 1.113,7.4 6.703,11.3 11.231,15.9 14.882,15.2 29.945,30.2 45.007,45.2 2.641,2.6 4.981,5.2 9.571,5.6 2.707,0.3 6.945,4.1 7.211,6.6 0.636,6.1 4.914,8.9 8.488,12.4 14.461,14.3 28.969,28.6 43.672,42.6 2.664,2.6 6.449,3.9 9.531,6.1 2.328,1.6 5.723,3.3 6.316,5.5 2.082,8 7.645,13.2 13.164,18.5 9.668,9.4 19.29,18.9 29.04,28.2 1.363,1.3 3.335,1.9 4.976,2.9 2.754,1.8 7.402,3.3 7.852,5.5 1.589,8.3 8.218,12.1 13.238,17.1 13.777,13.9 27.855,27.5 41.945,41.1 1.281,1.2 3.66,2 5.461,1.9 5.137,-0.4 10.356,5.3 9.672,10.4 -0.191,1.4 0.723,3.5 1.809,4.5 13.343,13.1 26.761,26 40.293,38.9 1.062,1 3.132,1.9 4.437,1.6 4.883,-1.2 9.969,2.9 10.106,8.1 0.078,2 0.949,4.6 2.359,6 14.367,13.8 28.902,27.5 43.437,41.2 0.766,0.7 1.719,1.4 2.707,1.7 7.958,2 9.875,4.6 8.305,12.3 -0.308,1.5 -1.91,3.3 -3.351,3.9 -7.641,3.1 -10.555,10.3 -15.532,16.9 22.746,18 45.149,35.8 68.809,54.5 0.598,-3.2 1.371,-5.5 1.344,-7.8 -0.141,-13.9 -0.641,-27.8 -0.68,-41.7 -0.008,-6 0.824,-12.1 1.285,-18.2 0.078,-0.9 0.555,-1.9 0.297,-2.6 -6.328,-18.1 -5.867,-37.1 -8.562,-55.7 -4.727,-32.5 -9.735,-65.1 -20.547,-96.4 -1.493,-4.4 -1.758,-9.2 -3.645,-13.4 -5.719,-12.5 -11.746,-25 -18.031,-37.3 -7.891,-15.4 -16.09,-30.7 -24.25,-46.1 -2.336,-4.4 -2.274,-8.7 2.09,-11.1 5.39,-3 11.277,-5.5 17.23,-7.1 4.969,-1.2 6.828,-3.6 6.559,-8.4 -0.555,-9.4 -1.106,-18.8 -1.621,-28.3 -1.117,-20.8 -2.27,-41.7 -3.274,-62.6 -0.261,-5.5 -0.261,-11.1 0,-16.6 0.246,-5 -1.941,-6.5 -6.617,-6.4 -9.82,0.3 -19.668,0.8 -29.457,0.3 -23.25,-1.3 -46.512,-2.9 -69.68,-4.9 -16.933,-1.5 -33.789,-4 -50.629,-6.4 -1.781,-0.2 -4.527,-2.6 -4.589,-4.1 -0.071,-1.9 1.781,-5.1 3.433,-5.6 5.867,-1.7 7.949,-5 7.383,-11 -0.48,-5.1 -0.262,-10.3 0.09,-15.5 0.269,-4.2 -1.176,-7 -5.402,-7.5 -4.442,-0.6 -4.407,-3.7 -4.547,-6.9 -0.153,-4 2.734,-4.2 5.511,-4.8 11.758,-2.4 23.528,-4.7 35.239,-7.3 3.332,-0.7 6.464,-2.5 9.968,-3.9 -0.945,-1.9 -2.589,-3.6 -2.218,-4.7 3.5,-10.3 -6.664,-17.5 -5.809,-27.5 0.438,-5.1 -4.152,-10.6 -3.652,-15.7 0.554,-5.7 -0.547,-9.5 -4.012,-13.8 -2.656,-3.3 -4.227,-7.9 -5.234,-12.1 -1.821,-7.7 -2.664,-15.5 -4.278,-23.2 -0.863,-4.2 -2.703,-8.1 -3.66,-12.2 -1.012,-4.4 -1.449,-9 -2.258,-13.5 -0.207,-1.2 -0.527,-2.6 -1.254,-3.5 -5.261,-6.5 -6.07,-14.4 -7.652,-22.2 -1.477,-7.3 -4.852,-14.2 -7.309,-21.3 -0.574,-1.7 -1.195,-3.3 -1.742,-4.9 H 26.2656 v -198.2 H 11269.4 v 198.2 z M 949.879,24226.8 c 14.769,0.8 29.516,2.1 44.281,3 7.17,0.4 8.14,-0.7 7.23,-7.9 -1.3,-10.3 -3.093,-20.5 -4.199,-30.8 -1.359,-12.6 -1.132,-25.6 -3.558,-38 -4.828,-24.8 -6.68,-49.9 -8.906,-74.9 -0.957,-10.9 -3.594,-21.6 -5.282,-32.3 -0.976,-6.2 -1.593,-12.5 -2.429,-18.7 -0.286,-2.2 -0.774,-4.3 -1.161,-6.5 -0.765,-0.1 -1.542,-0.2 -2.32,-0.3 -2.996,12.9 -6.656,25.7 -8.875,38.7 -5.672,33.4 -10.265,66.9 -16.265,100.2 -1.891,10.4 -3.215,20.5 -2.516,31.1 0.656,9.9 -0.926,20 -1.754,29.9 -0.344,4.5 1.027,6.3 5.754,6.5 z m 8285.961,-601.5 10.57,-88.8 h -595.49 l 4.33,113.9 c 0,0 147.6,45.9 305.04,45.9 157.46,0 275.55,-71 275.55,-71 z m -1689.85,191.3 -317.56,-11.9 321.88,387.1 z m 75.44,50.3 1.09,19.7 194.89,18.4 20.05,-19.7 z m 242.61,-7.8 24.26,-23.8 -259.22,-19.8 v 26.3 z m -244.26,55.9 -1.96,186.2 172.07,-169.2 z m 14.77,-219.8 v 68.9 l 419.58,29.2 419.61,-29.2 v -68.9 c 0,0 -48.11,-13.1 -53.58,-34.9 v -123.8 h -732.04 v 123.8 c -5.46,21.8 -53.57,34.9 -53.57,34.9 z m 391.45,175.9 28.13,2.1 28.15,-2.1 -3.04,-25.1 -25.11,2 -4.63,-0.4 -20.46,-1.6 z m 459.76,15.5 1.1,-19.7 -216.04,18.4 20.06,19.7 z m -167.37,45.4 172.06,169.2 -1.96,-186.2 z m 160.81,-90.2 v -26.3 l -259.2,19.8 24.23,23.8 z m 78.78,350 321.88,-387.1 -317.56,11.9 z m 398.75,-390 -68.07,2.6 -330.81,397.8 -0.92,80.4 z m -792.93,687.2 334.54,-52.4 -18.04,-16.4 1.64,-32.8 11.47,-5 -2.88,-274.2 -178.55,-175.5 -213.09,21.3 z m -68.61,-565.5 189.26,-17.9 -20.12,-19.8 -171.93,14.6 z m 142.5,-63.9 -24.24,-23.8 -127.71,9.8 3.05,25 z m -183.56,67.7 34.58,-3.2 -2.8,-23.1 -27.15,2.3 -4.63,0.4 -4.61,-0.4 -27.14,-2.3 -2.8,23.1 z m -31.59,-81.7 -127.72,-9.8 -24.22,23.8 148.89,11 z m -6.65,54.8 -171.94,-14.6 -20.11,19.8 189.25,17.9 z m -71.39,588.6 64.89,-535 -213.09,-21.3 -178.53,175.5 -2.9,274.2 11.47,5 1.66,32.8 -18.06,16.4 z m -393.14,-206.4 -0.93,-80.4 -330.81,-397.8 -68.07,-2.6 z m -678.91,-657.3 c 0,0 118.09,71 275.55,71 157.44,0 305.04,-45.9 305.04,-45.9 l 4.33,-113.9 h -595.49 l 10.57,88.8" /><path
         id="path4200"
         style="fill:#707070;fill-opacity:1;fill-rule:nonzero;stroke:none"
         d="M 476.625,22247.7 H 339.215 L 315.684,22405 H 148.555 l -23.52,-157.3 H 0 l 138.656,866.6 h 199.313 z m -310.742,274.9 h 131.234 l -64.379,438.2 h -2.472 l -64.383,-438.2" /><path
         id="path4202"
         style="fill:#707070;fill-opacity:1;fill-rule:nonzero;stroke:none"
         d="m 827.008,22499.1 h 2.48 l 91.606,615.2 h 189.416 v -866.6 H 981.762 v 621.5 h -2.481 l -91.613,-621.5 H 758.922 l -99.043,612.8 h -2.477 v -612.8 H 538.555 v 866.6 h 189.414 l 99.039,-615.2" /><path
         id="path4204"
         style="fill:#707070;fill-opacity:1;fill-rule:nonzero;stroke:none"
         d="m 1392.79,23124.2 c 132.46,0 200.55,-79.2 200.55,-217.8 v -27.3 h -128.75 v 35.9 c 0,61.9 -24.76,85.4 -68.09,85.4 -43.33,0 -68.09,-23.5 -68.09,-85.4 0,-63.1 27.23,-110.2 116.38,-188.2 113.89,-100.2 149.8,-172 149.8,-271.1 0,-138.6 -69.34,-217.9 -203.04,-217.9 -133.7,0 -203.03,79.3 -203.03,217.9 v 53.3 h 128.76 v -61.9 c 0,-61.9 27.22,-84.2 70.56,-84.2 43.33,0 70.56,22.3 70.56,84.2 0,63.1 -27.23,110.1 -116.37,188.1 -113.89,100.3 -149.8,172.1 -149.8,271.2 0,138.6 68.09,217.8 200.56,217.8" /><path
         id="path4206"
         style="fill:#707070;fill-opacity:1;fill-rule:nonzero;stroke:none"
         d="m 1632.98,23114.3 h 420.92 v -123.8 h -142.36 v -742.8 h -136.19 v 742.8 h -142.37 v 123.8" /><path
         id="path4208"
         style="fill:#707070;fill-opacity:1;fill-rule:nonzero;stroke:none"
         d="m 2249.52,22749.1 h 186.93 v -123.8 h -186.93 v -253.8 h 235.22 v -123.8 h -371.4 v 866.6 h 371.4 v -123.8 h -235.22 v -241.4" /><path
         id="path4210"
         style="fill:#707070;fill-opacity:1;fill-rule:nonzero;stroke:none"
         d="m 2853.68,22247.7 c -7.43,22.3 -12.38,35.9 -12.38,106.5 v 136.2 c 0,80.5 -27.24,110.2 -89.14,110.2 h -47.04 v -352.9 h -136.18 v 866.6 h 205.51 c 141.13,0 201.78,-65.6 201.78,-199.3 v -68.1 c 0,-89.1 -28.46,-146.1 -89.12,-174.5 v -2.5 c 68.09,-28.5 90.37,-92.9 90.37,-183.2 V 22353 c 0,-42.1 1.23,-73.1 14.85,-105.3 z m -148.56,742.8 v -266.1 h 53.23 c 50.76,0 81.71,22.3 81.71,91.6 v 85.4 c 0,61.9 -21.04,89.1 -69.33,89.1 h -65.61" /><path
         id="path4212"
         style="fill:#707070;fill-opacity:1;fill-rule:nonzero;stroke:none"
         d="m 3066.63,23114.3 h 215.42 c 136.18,0 203.02,-75.5 203.02,-214.1 v -438.3 c 0,-138.6 -66.84,-214.2 -203.02,-214.2 h -215.42 z m 136.19,-123.8 v -619 h 76.75 c 43.33,0 69.33,22.3 69.33,84.2 v 450.7 c 0,61.8 -26,84.1 -69.33,84.1 h -76.75" /><path
         id="path4214"
         style="fill:#707070;fill-opacity:1;fill-rule:nonzero;stroke:none"
         d="m 4011.25,22247.7 h -137.42 l -23.53,157.3 h -167.12 l -23.53,-157.3 h -125.03 l 138.66,866.6 h 199.31 z m -310.75,274.9 h 131.24 l -64.38,438.2 h -2.48 l -64.38,-438.2" /><path
         id="path4216"
         style="fill:#707070;fill-opacity:1;fill-rule:nonzero;stroke:none"
         d="m 4361.63,22499.1 h 2.48 l 91.6,615.2 h 189.42 v -866.6 h -128.75 v 621.5 h -2.48 l -91.61,-621.5 h -128.75 l -99.04,612.8 h -2.48 v -612.8 h -118.84 v 866.6 h 189.41 l 99.04,-615.2" /><path
         id="path4218"
         style="fill:#707070;fill-opacity:1;fill-rule:nonzero;stroke:none"
         d="m 0,17028.1 c 0,138.6 73.0313,217.8 206.742,217.8 133.703,0 206.75,-79.2 206.75,-217.8 v -450.7 c 0,-138.6 -73.047,-217.9 -206.75,-217.9 C 73.0313,16359.5 0,16438.8 0,16577.4 Z m 136.176,-459.3 c 0,-61.9 27.234,-85.5 70.566,-85.5 43.332,0 70.567,23.6 70.567,85.5 v 467.9 c 0,61.9 -27.235,85.4 -70.567,85.4 -43.332,0 -70.566,-23.5 -70.566,-85.4 v -467.9" /><path
         id="path4220"
         style="fill:#707070;fill-opacity:1;fill-rule:nonzero;stroke:none"
         d="m 684.633,17245.9 c 132.469,0 200.558,-79.2 200.558,-217.8 v -27.3 h -128.75 v 35.9 c 0,61.9 -24.761,85.4 -68.086,85.4 -43.339,0 -68.089,-23.5 -68.089,-85.4 0,-63.1 27.23,-110.2 116.371,-188.2 113.89,-100.2 149.793,-172 149.793,-271.1 0,-138.6 -69.328,-217.9 -203.032,-217.9 -133.699,0 -203.031,79.3 -203.031,217.9 v 53.3 h 128.754 v -61.9 c 0,-61.9 27.231,-84.2 70.559,-84.2 43.332,0 70.562,22.3 70.562,84.2 0,63.1 -27.23,110.1 -116.371,188.1 -113.891,100.3 -149.793,172.1 -149.793,271.2 0,138.6 68.086,217.8 200.555,217.8" /><path
         id="path4222"
         style="fill:#707070;fill-opacity:1;fill-rule:nonzero;stroke:none"
         d="m 1405.16,16369.4 h -137.41 l -23.53,157.3 h -167.13 l -23.52,-157.3 H 928.535 l 138.655,866.6 h 199.31 z m -310.73,274.9 h 131.23 l -64.38,438.2 h -2.48 l -64.37,-438.2" /><path
         id="path4224"
         style="fill:#707070;fill-opacity:1;fill-rule:nonzero;stroke:none"
         d="m 1646.6,16714.8 -42.09,-79.2 v -266.2 h -136.17 v 866.6 h 136.17 v -375.1 h 2.47 l 175.81,375.1 h 136.17 l -189.41,-386.2 189.41,-480.4 h -139.9 l -132.46,345.4" /><path
         id="path4226"
         style="fill:#707070;fill-opacity:1;fill-rule:nonzero;stroke:none"
         d="m 2421.59,16369.4 h -137.41 l -23.52,157.3 H 2093.53 L 2070,16369.4 h -125.03 l 138.65,866.6 h 199.32 z m -310.73,274.9 h 131.23 l -64.38,438.2 h -2.48 l -64.37,-438.2" /><path
         id="path4228"
         style="fill:#707070;fill-opacity:1;fill-rule:nonzero;stroke:none"
         d="m 288.453,11271.8 h 2.481 l 91.605,615.3 h 189.414 v -866.6 H 443.207 v 621.4 h -2.48 l -91.614,-621.4 H 220.367 l -99.043,612.8 h -2.476 v -612.8 H 0 v 866.6 h 189.414 l 99.039,-615.3" /><path
         id="path4230"
         style="fill:#707070;fill-opacity:1;fill-rule:nonzero;stroke:none"
         d="m 807.203,11521.8 h 186.934 v -123.7 H 807.203 v -253.8 h 235.217 v -123.8 H 671.012 v 866.6 h 371.408 v -123.8 H 807.203 v -241.5" /><path
         id="path4232"
         style="fill:#707070;fill-opacity:1;fill-rule:nonzero;stroke:none"
         d="m 1126.63,11887.1 h 136.17 v -742.8 h 224.08 v -123.8 h -360.25 v 866.6" /><path
         id="path4234"
         style="fill:#707070;fill-opacity:1;fill-rule:nonzero;stroke:none"
         d="m 1953.61,11687.7 v -30.9 c 0,-89.1 -27.23,-144.9 -87.9,-173.3 v -2.5 c 73.04,-28.5 101.52,-92.8 101.52,-184.5 v -70.5 c 0,-133.7 -70.57,-205.5 -206.75,-205.5 H 1546.3 v 866.6 h 205.52 c 141.13,0 201.79,-65.7 201.79,-199.4 z m -271.12,75.6 v -229.1 h 53.23 c 50.76,0 81.71,22.3 81.71,91.7 v 48.2 c 0,61.9 -21.04,89.2 -69.32,89.2 z m 0,-352.9 v -266.1 h 77.99 c 45.81,0 70.56,21 70.56,85.4 v 75.5 c 0,80.5 -25.99,105.2 -87.89,105.2 h -60.66" /><path
         id="path4236"
         style="fill:#707070;fill-opacity:1;fill-rule:nonzero;stroke:none"
         d="m 2037.82,11679.1 c 0,138.6 73.04,217.9 206.75,217.9 133.7,0 206.74,-79.3 206.74,-217.9 v -450.7 c 0,-138.6 -73.04,-217.8 -206.74,-217.8 -133.71,0 -206.75,79.2 -206.75,217.8 z M 2174,11219.8 c 0,-61.9 27.23,-85.4 70.57,-85.4 43.32,0 70.56,23.5 70.56,85.4 v 467.9 c 0,61.9 -27.24,85.5 -70.56,85.5 -43.34,0 -70.57,-23.6 -70.57,-85.5 v -467.9" /><path
         id="path4238"
         style="fill:#707070;fill-opacity:1;fill-rule:nonzero;stroke:none"
         d="m 2669.21,11887.1 v -668.6 c 0,-61.8 27.24,-84.1 70.57,-84.1 43.33,0 70.56,22.3 70.56,84.1 v 668.6 h 128.76 v -659.9 c 0,-138.6 -69.33,-217.9 -203.03,-217.9 -133.71,0 -203.04,79.3 -203.04,217.9 v 659.9 h 136.18" /><path
         id="path4240"
         style="fill:#707070;fill-opacity:1;fill-rule:nonzero;stroke:none"
         d="m 3316.71,11020.5 c -7.43,22.3 -12.37,35.9 -12.37,106.4 v 136.2 c 0,80.5 -27.25,110.2 -89.14,110.2 h -47.04 v -352.8 h -136.19 v 866.6 h 205.51 c 141.13,0 201.79,-65.7 201.79,-199.4 v -68 c 0,-89.2 -28.47,-146.1 -89.13,-174.6 v -2.5 c 68.09,-28.4 90.37,-92.8 90.37,-183.2 v -133.7 c 0,-42.1 1.24,-73.1 14.86,-105.2 z m -148.55,742.8 v -266.2 h 53.22 c 50.76,0 81.71,22.3 81.71,91.6 v 85.4 c 0,61.9 -21.04,89.2 -69.32,89.2 h -65.61" /><path
         id="path4242"
         style="fill:#707070;fill-opacity:1;fill-rule:nonzero;stroke:none"
         d="m 3653.46,11648.1 h -2.48 v -627.6 h -122.56 v 866.6 h 170.84 l 137.42,-518.8 h 2.48 v 518.8 h 121.32 v -866.6 h -139.89 l -167.13,627.6" /><path
         id="path4244"
         style="fill:#707070;fill-opacity:1;fill-rule:nonzero;stroke:none"
         d="m 4194.49,11521.8 h 186.94 v -123.7 h -186.94 v -253.8 h 235.22 v -123.8 H 4058.3 v 866.6 h 371.41 v -123.8 h -235.22 v -241.5" /><path
         id="path4246"
         style="fill:#707070;fill-opacity:1;fill-rule:nonzero;stroke:none"
         d="m 204.27,6354.97 c 132.464,0 200.554,-79.24 200.554,-217.89 v -27.24 H 276.078 v 35.91 c 0,61.9 -24.765,85.41 -68.09,85.41 -43.336,0 -68.09,-23.51 -68.09,-85.41 0,-63.14 27.231,-110.19 116.372,-188.18 113.89,-100.27 149.8,-172.09 149.8,-271.13 0,-138.65 -69.336,-217.87 -203.039,-217.87 C 69.332,5468.57 0,5547.79 0,5686.44 v 53.24 h 128.754 v -61.89 c 0,-61.92 27.234,-84.2 70.559,-84.2 43.339,0 70.566,22.28 70.566,84.2 0,63.12 -27.227,110.17 -116.367,188.16 C 39.6133,5966.24 3.71094,6038.04 3.71094,6137.08 c 0,138.65 68.08986,217.89 200.55906,217.89" /><path
         id="path4248"
         style="fill:#707070;fill-opacity:1;fill-rule:nonzero;stroke:none"
         d="m 602.945,5765.68 -172.086,579.39 h 142.368 l 102.75,-394.94 h 2.476 l 102.762,394.94 H 911.207 L 739.121,5765.68 V 5478.47 H 602.945 v 287.21" /><path
         id="path4250"
         style="fill:#707070;fill-opacity:1;fill-rule:nonzero;stroke:none"
         d="m 965.684,6345.07 h 215.426 c 136.18,0 203.02,-75.53 203.02,-214.18 v -438.26 c 0,-138.65 -66.84,-214.16 -203.02,-214.16 H 965.684 Z m 136.196,-123.81 v -618.98 h 76.75 c 43.32,0 69.32,22.26 69.32,84.16 v 450.64 c 0,61.9 -26,84.18 -69.32,84.18 h -76.75" /><path
         id="path4252"
         style="fill:#707070;fill-opacity:1;fill-rule:nonzero;stroke:none"
         d="m 1594.61,6106.13 h -2.48 v -627.66 h -122.56 v 866.6 h 170.84 l 137.42,-518.73 h 2.48 v 518.73 h 121.32 v -866.6 h -139.9 l -167.12,627.66" /><path
         id="path4254"
         style="fill:#707070;fill-opacity:1;fill-rule:nonzero;stroke:none"
         d="m 2135.64,5979.84 h 186.93 v -123.79 h -186.93 v -253.77 h 235.22 v -123.81 h -371.4 v 866.6 h 371.4 v -123.81 h -235.22 v -241.42" /><path
         id="path4256"
         style="fill:#707070;fill-opacity:1;fill-rule:nonzero;stroke:none"
         d="m 2582.57,5765.68 -172.08,579.39 h 142.37 l 102.75,-394.94 h 2.48 l 102.75,394.94 h 129.98 l -172.07,-579.39 v -287.21 h -136.18 v 287.21" /><path
         id="path4258"
         style="fill:#707070;fill-opacity:1;fill-rule:nonzero;stroke:none"
         d="M 398.637,877.734 V 756.406 L 139.898,134.941 H 398.637 V 11.1328 H 0 V 132.461 L 258.746,753.926 H 12.3789 V 877.734 H 398.637" /><path
         id="path4260"
         style="fill:#707070;fill-opacity:1;fill-rule:nonzero;stroke:none"
         d="M 609.113,877.734 V 209.219 c 0,-61.895 27.239,-84.18 70.567,-84.18 43.332,0 70.562,22.285 70.562,84.18 V 877.734 H 879 V 217.871 C 879,79.2383 809.668,0 675.969,0 542.266,0 472.934,79.2383 472.934,217.871 v 659.863 h 136.179" /><path
         id="path4262"
         style="fill:#707070;fill-opacity:1;fill-rule:nonzero;stroke:none"
         d="m 1256.61,11.1328 c -7.43,22.2852 -12.38,35.8985 -12.38,106.4652 v 136.191 c 0,80.469 -27.24,110.176 -89.14,110.176 h -47.04 V 11.1328 H 971.875 V 877.734 h 205.505 c 141.13,0 201.78,-65.625 201.78,-199.316 v -68.086 c 0,-89.141 -28.46,-146.094 -89.12,-174.551 v -2.5 c 68.09,-28.476 90.37,-92.832 90.37,-183.203 V 116.367 c 0,-42.0897 1.23,-73.0467 14.86,-105.2342 z M 1108.05,753.926 V 487.773 h 53.23 c 50.76,0 81.71,22.286 81.71,91.602 v 85.41 c 0,61.914 -21.04,89.141 -69.33,89.141 h -65.61" /><path
         id="path4264"
         style="fill:#707070;fill-opacity:1;fill-rule:nonzero;stroke:none"
         d="m 1469.57,877.734 h 136.18 V 11.1328 H 1469.57 V 877.734" /><path
         id="path4266"
         style="fill:#707070;fill-opacity:1;fill-rule:nonzero;stroke:none"
         d="M 2099.7,334.258 V 219.121 c 0,-138.6522 -69.32,-217.89053 -203.03,-217.89053 -133.7,0 -203.03,79.23833 -203.03,217.89053 v 450.625 c 0,138.672 69.33,217.891 203.03,217.891 133.71,0 203.03,-79.219 203.03,-217.891 v -84.18 h -128.74 v 92.852 c 0,61.895 -27.25,85.43 -70.57,85.43 -43.34,0 -70.57,-23.535 -70.57,-85.43 V 210.449 c 0,-61.894 27.23,-84.179 70.57,-84.179 43.32,0 70.57,22.285 70.57,84.179 v 123.809 h 128.74" /><path
         id="path4268"
         style="fill:#707070;fill-opacity:1;fill-rule:nonzero;stroke:none"
         d="M 2318.84,11.1328 H 2182.66 V 877.734 h 136.18 V 506.328 h 154.74 v 371.406 h 138.66 V 11.1328 H 2473.58 V 382.52 H 2318.84 V 11.1328" /><path
         id="path4270"
         style="fill:#707070;fill-opacity:1;fill-rule:nonzero;stroke:none"
         d="m 13504.5,11.1328 h -136.2 V 877.734 h 136.2 V 506.328 h 154.8 v 371.406 h 138.6 V 11.1328 h -138.6 V 382.52 h -154.8 V 11.1328" /><path
         id="path4272"
         style="fill:#707070;fill-opacity:1;fill-rule:nonzero;stroke:none"
         d="m 13885.8,669.746 c 0,138.672 73.1,217.891 206.8,217.891 133.7,0 206.7,-79.219 206.7,-217.891 V 219.121 c 0,-138.6522 -73,-217.89053 -206.7,-217.89053 -133.7,0 -206.8,79.23833 -206.8,217.89053 z M 14022,210.449 c 0,-61.894 27.3,-85.41 70.6,-85.41 43.3,0 70.5,23.516 70.5,85.41 v 467.969 c 0,61.895 -27.2,85.43 -70.5,85.43 -43.3,0 -70.6,-23.535 -70.6,-85.43 V 210.449" /><path
         id="path4274"
         style="fill:#707070;fill-opacity:1;fill-rule:nonzero;stroke:none"
         d="m 14511,638.809 h -2.4 V 11.1328 H 14386 V 877.734 h 170.8 l 137.5,-518.73 h 2.5 v 518.73 h 121.3 V 11.1328 h -139.9 L 14511,638.809" /><path
         id="path4276"
         style="fill:#707070;fill-opacity:1;fill-rule:nonzero;stroke:none"
         d="m 15120.2,493.945 h 190.6 V 219.121 c 0,-138.6522 -69.3,-217.89053 -203,-217.89053 -133.7,0 -203.1,79.23833 -203.1,217.89053 v 450.625 c 0,138.672 69.4,217.891 203.1,217.891 133.7,0 203,-79.219 203,-217.891 v -84.18 h -128.7 v 92.852 c 0,61.895 -27.3,85.43 -70.6,85.43 -43.3,0 -70.6,-23.535 -70.6,-85.43 V 210.449 c 0,-61.894 27.3,-84.179 70.6,-84.179 43.3,0 70.6,22.285 70.6,84.179 v 159.707 h -61.9 v 123.789" /><path
         id="path4278"
         style="fill:#707070;fill-opacity:1;fill-rule:nonzero;stroke:none"
         d="m 15768.9,356.543 -42.1,-79.238 V 11.1328 h -136.2 V 877.734 h 136.2 V 502.617 h 2.5 l 175.8,375.117 h 136.2 l -189.5,-386.25 189.5,-480.3512 h -139.9 l -132.5,345.4102" /><path
         id="path4280"
         style="fill:#707070;fill-opacity:1;fill-rule:nonzero;stroke:none"
         d="m 16083.4,669.746 c 0,138.672 73,217.891 206.7,217.891 133.7,0 206.8,-79.219 206.8,-217.891 V 219.121 c 0,-138.6522 -73.1,-217.89053 -206.8,-217.89053 -133.7,0 -206.7,79.23833 -206.7,217.89053 z m 136.2,-459.297 c 0,-61.894 27.2,-85.41 70.5,-85.41 43.4,0 70.6,23.516 70.6,85.41 v 467.969 c 0,61.895 -27.2,85.43 -70.6,85.43 -43.3,0 -70.5,-23.535 -70.5,-85.43 V 210.449" /><path
         id="path4282"
         style="fill:#707070;fill-opacity:1;fill-rule:nonzero;stroke:none"
         d="m 16708.6,638.809 h -2.5 V 11.1328 h -122.6 V 877.734 h 170.9 l 137.4,-518.73 h 2.5 v 518.73 h 121.3 V 11.1328 h -139.9 l -167.1,627.6762" /><path
         id="path4284"
         style="fill:#707070;fill-opacity:1;fill-rule:nonzero;stroke:none"
         d="m 17317.7,493.945 h 190.7 V 219.121 c 0,-138.6522 -69.4,-217.89053 -203.1,-217.89053 -133.7,0 -203,79.23833 -203,217.89053 v 450.625 c 0,138.672 69.3,217.891 203,217.891 133.7,0 203.1,-79.219 203.1,-217.891 v -84.18 h -128.8 v 92.852 c 0,61.895 -27.2,85.43 -70.6,85.43 -43.3,0 -70.5,-23.535 -70.5,-85.43 V 210.449 c 0,-61.894 27.2,-84.179 70.5,-84.179 43.4,0 70.6,22.285 70.6,84.179 v 159.707 h -61.9 v 123.789" /><path
         id="path4304"
         style="fill:#707070;fill-opacity:1;fill-rule:nonzero;stroke:none"
         d="m 13368.3,11887.1 h 421 v -123.8 h -142.4 v -742.8 h -136.2 v 742.8 h -142.4 v 123.8" /><path
         id="path4306"
         style="fill:#707070;fill-opacity:1;fill-rule:nonzero;stroke:none"
         d="m 13837.6,11679.1 c 0,138.6 73,217.9 206.7,217.9 133.7,0 206.7,-79.3 206.7,-217.9 v -450.7 c 0,-138.6 -73,-217.8 -206.7,-217.8 -133.7,0 -206.7,79.2 -206.7,217.8 z m 136.1,-459.3 c 0,-61.9 27.3,-85.4 70.6,-85.4 43.3,0 70.6,23.5 70.6,85.4 v 467.9 c 0,61.9 -27.3,85.5 -70.6,85.5 -43.3,0 -70.6,-23.6 -70.6,-85.5 v -467.9" /><path
         id="path4308"
         style="fill:#707070;fill-opacity:1;fill-rule:nonzero;stroke:none"
         d="m 14517.2,11365.9 -42.1,-79.3 v -266.1 H 14339 v 866.6 h 136.1 v -375.2 h 2.5 l 175.8,375.2 h 136.2 l -189.4,-386.3 189.4,-480.3 h -139.9 l -132.5,345.4" /><path
         id="path4310"
         style="fill:#707070;fill-opacity:1;fill-rule:nonzero;stroke:none"
         d="m 14979,11307.7 -172.1,579.4 h 142.4 l 102.8,-395 h 2.4 l 102.8,395 h 130 l -172.1,-579.4 v -287.2 H 14979 v 287.2" /><path
         id="path4312"
         style="fill:#707070;fill-opacity:1;fill-rule:nonzero;stroke:none"
         d="m 15312.1,11679.1 c 0,138.6 73,217.9 206.7,217.9 133.7,0 206.8,-79.3 206.8,-217.9 v -450.7 c 0,-138.6 -73.1,-217.8 -206.8,-217.8 -133.7,0 -206.7,79.2 -206.7,217.8 z m 136.1,-459.3 c 0,-61.9 27.3,-85.4 70.6,-85.4 43.3,0 70.6,23.5 70.6,85.4 v 467.9 c 0,61.9 -27.3,85.5 -70.6,85.5 -43.3,0 -70.6,-23.6 -70.6,-85.5 v -467.9" /><path
         id="path4314"
         style="fill:#707070;fill-opacity:1;fill-rule:nonzero;stroke:none"
         d="m 13368.3,17236 h 421 v -123.8 h -142.4 v -742.8 h -136.2 v 742.8 h -142.4 v 123.8" /><path
         id="path4316"
         style="fill:#707070;fill-opacity:1;fill-rule:nonzero;stroke:none"
         d="m 13837.6,17028.1 c 0,138.6 73,217.8 206.7,217.8 133.7,0 206.7,-79.2 206.7,-217.8 v -450.7 c 0,-138.6 -73,-217.9 -206.7,-217.9 -133.7,0 -206.7,79.3 -206.7,217.9 z m 136.1,-459.3 c 0,-61.9 27.3,-85.5 70.6,-85.5 43.3,0 70.6,23.6 70.6,85.5 v 467.9 c 0,61.9 -27.3,85.4 -70.6,85.4 -43.3,0 -70.6,-23.5 -70.6,-85.4 v -467.9" /><path
         id="path4318"
         style="fill:#707070;fill-opacity:1;fill-rule:nonzero;stroke:none"
         d="m 14623.7,16369.4 c -7.4,22.3 -12.4,35.9 -12.4,106.5 v 136.2 c 0,80.5 -27.2,110.2 -89.1,110.2 h -47.1 v -352.9 H 14339 v 866.6 h 205.5 c 141.1,0 201.8,-65.6 201.8,-199.3 v -68.1 c 0,-89.1 -28.5,-146 -89.2,-174.5 v -2.5 c 68.1,-28.5 90.4,-92.8 90.4,-183.2 v -133.7 c 0,-42.1 1.2,-73.1 14.9,-105.3 z m -148.6,742.8 v -266.1 h 53.3 c 50.7,0 81.7,22.3 81.7,91.6 v 85.4 c 0,61.9 -21.1,89.1 -69.3,89.1 h -65.7" /><path
         id="path4320"
         style="fill:#707070;fill-opacity:1;fill-rule:nonzero;stroke:none"
         d="m 14825.5,17028.1 c 0,138.6 73.1,217.8 206.8,217.8 133.7,0 206.7,-79.2 206.7,-217.8 v -450.7 c 0,-138.6 -73,-217.9 -206.7,-217.9 -133.7,0 -206.8,79.3 -206.8,217.9 z m 136.2,-459.3 c 0,-61.9 27.2,-85.5 70.6,-85.5 43.3,0 70.5,23.6 70.5,85.5 v 467.9 c 0,61.9 -27.2,85.4 -70.5,85.4 -43.4,0 -70.6,-23.5 -70.6,-85.4 v -467.9" /><path
         id="path4322"
         style="fill:#707070;fill-opacity:1;fill-rule:nonzero;stroke:none"
         d="m 15450.7,16997.1 h -2.5 v -627.7 h -122.5 v 866.6 h 170.8 l 137.4,-518.7 h 2.5 v 518.7 h 121.4 v -866.6 h -139.9 l -167.2,627.7" /><path
         id="path4324"
         style="fill:#707070;fill-opacity:1;fill-rule:nonzero;stroke:none"
         d="m 15816,17236 h 420.9 v -123.8 h -142.4 v -742.8 h -136.2 v 742.8 H 15816 v 123.8" /><path
         id="path4326"
         style="fill:#707070;fill-opacity:1;fill-rule:nonzero;stroke:none"
         d="m 16285.2,17028.1 c 0,138.6 73,217.8 206.7,217.8 133.7,0 206.8,-79.2 206.8,-217.8 v -450.7 c 0,-138.6 -73.1,-217.9 -206.8,-217.9 -133.7,0 -206.7,79.3 -206.7,217.9 z m 136.1,-459.3 c 0,-61.9 27.3,-85.5 70.6,-85.5 43.3,0 70.6,23.6 70.6,85.5 v 467.9 c 0,61.9 -27.3,85.4 -70.6,85.4 -43.3,0 -70.6,-23.5 -70.6,-85.4 v -467.9" /><path
         id="path4346"
         style="fill:#262626;fill-opacity:1;fill-rule:nonzero;stroke:none"
         d="m 24448,23493.6 v 893.4 l -113,6.3 v 360.1 l -172.4,56.8 -475.5,-9.4 5.7,-1307.2 H 23571 V 25186 l -137,10.4 -6.5,163 -463.2,277.2 -130.5,-6.9 c 0,0 -156.6,83.2 -195.7,79.7 -39.1,-3.4 -123.9,-20.8 -123.9,-20.8 v -2195 h -180.9 V 26469 l -144.7,39.7 -940.6,-99.4 v -2915.7 h -109.8 v 3351.8 l -839.8,126.8 -223.6,-105.6 v -3373 h -188.3 v 2983.7 l -200.1,72.5 8.3,583.9 -159.4,51.5 3.6,289.7 -744.7,-26 -116.4,-107 -0.4,-179.5 -115.7,-75.3 -0.6,-563 -93.8,-57.9 v -2972.6 h -239.7 v 427.8 l -61.1,118.1 v 1382 l 66.7,70 -22.3,78.7 -33.3,43.7 -389.2,30.6 v 87.5 h -200.2 l -50.1,-26.2 v -65.6 c 0,0 -272.4,4.3 -928.5,4.3 -656.1,0 -1412.3,140 -1412.3,140 v 78.7 l -222.4,21.9 -100.1,-13.1 v -83.1 c 0,0 -100.1,17.5 -189,26.2 -89,8.8 -700.6,-39.4 -706.2,-78.7 -5.5,-39.4 789.6,-148.7 789.6,-148.7 l -72.3,-43.7 c 0,0 33.4,-463.6 16.7,-564.2 -10,-60.5 -70.4,-604.9 -116.9,-1029 -5.6,0 -11.2,-0.1 -16.8,-0.1 -103.7,0 -159.3,-26.2 -159.3,-26.2 0,0 -126,26.2 -188.9,26.2 -63,0 -114.9,-14.5 -155.7,-34.9 -40.7,-20.4 -118.5,-26.3 -318.6,84.5 -200.1,110.7 -188.9,317.6 -263.1,320.6 -74.1,2.9 -55.5,-125.4 -70.3,-139.9 -14.9,-14.6 -44.5,-78.7 14.8,-218.6 59.2,-139.9 411.2,-341 411.2,-341 v -127.8 h -481.7 v -167.1 h 11141.8 v 167.1 z m -7554.8,965.8 c 5.5,301.7 5.5,1019 5.5,1019 l 461.5,-17.5 -38.9,-21.9 38.9,-774.1 -63.9,-1171.3 h -368.9 c -11.3,202.4 -38.7,725.2 -34.2,965.8 z m -1273.3,1080.2 c 111.2,-8.7 439.3,-21.9 439.3,-21.9 l -61.2,-56.8 c 0,0 44.5,-542.3 33.3,-761 -9.5,-187 -181.5,-980.2 -231.2,-1206.3 h -142.9 c -42.3,344 -37.3,2046 -37.3,2046 z m -1217.8,-1950.9 c 8.3,0.8 31.3,8 88.9,32.7 22.6,9.7 47.9,23.8 74.1,40.6 -7.8,-71.6 -14.1,-129.9 -18.3,-168.4 h -144.7 v 95.1" /><path
         id="path4348"
         style="fill:#262626;fill-opacity:1;fill-rule:nonzero;stroke:none"
         d="m 10933.2,17658.5 v 33 l -167.8,233.2 v 1667.5 l -43.5,19.9 v 560.8 l -49.8,49.6 v 203.5 l -99.4,24.8 55.9,34.7 -329.4,34.8 -198.9,-59.6 87,-29.7 -87,-24.9 6.2,-94.3 h -49.7 V 19627 h -62.16 l 6.26,-1876 -49.77,9.9 v -102.4 h -123.4 l -17.11,2890.8 h -149.08 v 61.4 h -113.95 v 52.6 h -113.98 v 166.5 h -87.65 v 105.3 h -113.99 v -70.2 h -227.94 c 0,0 -119.51,85.3 -333.15,87.6 v 0.1 c -1.49,0 -2.91,-0.1 -4.39,-0.1 -1.47,0 -2.9,0.1 -4.38,0.1 v -0.1 c -213.64,-2.3 -333.15,-87.6 -333.15,-87.6 h -227.94 v 70.2 h -113.99 v -105.3 h -87.67 v -166.5 H 7785.4 v -52.6 h -113.96 v -61.4 h -149.06 l -17.11,-2890.8 h -350.09 c 0,73.7 0,249.8 0,249.8 0,0 48.43,-14.5 121.07,-4.8 72.66,9.7 82.36,33.9 82.36,33.9 0,0 67.79,67.8 38.74,67.8 -29.07,0 -43.6,9.7 -43.6,9.7 l 9.69,38.7 c 0,0 -96.87,4.9 -251.86,38.8 -155,33.9 -242.18,106.5 -242.18,106.5 v 198.6 c 0,0 92.05,4.9 106.58,4.9 14.5,0 82.31,19.3 106.54,29 24.21,9.7 4.84,53.3 4.84,53.3 h -43.59 l 14.55,43.6 c 0,0 -125.94,14.5 -179.22,19.4 -53.28,4.8 -402.03,290.6 -402.03,290.6 0,0 82.36,9.7 96.87,14.5 14.55,4.8 4.87,33.9 4.87,33.9 l 53.26,38.7 -38.74,24.3 c 0,0 -14.52,24.2 -38.74,14.5 -24.21,-9.7 -227.64,43.6 -251.89,48.4 -24.21,4.9 -53.25,198.6 -53.25,198.6 l 29.04,33.9 -9.69,87.2 -188.88,43.6 v 106.6 c 0,0 198.57,19.3 266.38,38.7 67.81,19.4 101.73,96.9 101.73,96.9 0,0 -188.92,43.6 -329.37,96.9 -140.46,53.2 -276.06,247 -295.46,295.4 -19.37,48.4 -29.06,67.8 -29.06,67.8 l -43.59,164.7 c 0,0 -9.69,-63 -9.69,-96.9 0,-33.9 -33.9,-58.1 -33.9,-58.1 l -653.88,72.7 c 0,0 -9.69,67.8 -9.69,82.3 0,14.5 -14.52,96.9 -14.52,96.9 0,0 -9.71,-38.8 -9.71,-67.9 0,-29 -19.36,-62.9 -19.36,-106.5 0,-43.6 -4.84,-106.6 -58.12,-193.8 -53.27,-87.1 -184.07,-266.3 -184.07,-266.3 -87.17,-63 -348.73,-130.8 -348.73,-130.8 l -33.89,-43.6 77.47,-43.6 290.62,-77.5 v -58.1 l -159.83,-43.6 -29.05,67.8 -19.38,-67.8 -19.39,-87.2 c 0,0 -19.36,-19.4 -33.89,-19.4 -14.53,0 -9.71,-72.6 -9.71,-72.6 0,0 -121.07,-184.1 -150.13,-222.8 -29.08,-38.8 -67.82,-19.4 -67.82,-19.4 l -43.57,-24.2 72.64,-53.3 c 0,0 -213.12,-256.7 -290.62,-324.5 -77.49,-67.8 -193.74,-24.2 -193.74,-24.2 0,0 9.69,-19.4 9.69,-33.9 0,-14.6 -67.82,0 -67.82,0 l 72.68,-33.9 -9.72,-48.4 203.44,-9.7 v -208.3 c 0,0 -87.17,-38.8 -213.11,-92.1 -125.93,-53.2 -261.54,-77.4 -261.54,-77.4 l -72.66,-34 38.75,-29 c 0,0 -2.03,-134.2 -2.15,-235.2 h -105.4 l 15.14,1513.3 -161.6,708 -7.69,1000.3 -215.47,38.5 -100.04,-38.5 -138.51,15.4 -115.43,-169.3 -100.02,-46.1 23.07,-961.9 -100.03,-492.5 v -1567.2 h -172.03 l 12.11,3.2 -19.55,2652.3 -939.55,78.3 -274.02,-43.8 28.75,-2690 H 987.422 v 483.7 l -77.262,21.5 v 626.6 1064.3 l -137.324,17.2 -339.043,-115.9 8.59,-656.6 -137.332,-42.9 v -480.7 h 38.605 v -68.7 h -47.199 v -287.5 h -81.523 v -42.9 h -47.227 v -518.1 H 0 V 17431 h 11265.9 v 227.5 z m -2665.62,2917.1 h 797.83 V 19243 h -797.83 z m 0,-1394 h 797.83 v -1523.1 h -797.83 v 1523.1" /><path
         id="path4350"
         style="fill:#f9f9f9;fill-opacity:1;fill-rule:nonzero;stroke:none"
         d="m 24417.9,17679.8 v 1744.1 h -54.2 v 218.4 l -146.3,48 v 61.2 l -43.3,48 v 126.7 l -65.1,17.4 v 35 l -162.5,30.5 -211.4,-48 5.4,-83 -86.7,4.4 -167.9,-34.9 v -2167.8 h -194.5 l -145.4,2559.7 -330.5,60.4 -190.1,-27 -23.9,-39 -240.7,-22.2 -49.5,23.1 -184.3,-30.6 -154.1,-2524.4 h -132.5 l -76.3,2958 -304.7,29 v 71.1 l -233.4,19 v 545 h -95.1 v -537.2 l -68.4,5.5 -216.5,-51.7 v -45.2 l -208.5,-48.5 -58.7,-2945 h -192.5 l -359.6,2905.5 c 0,0 248.2,26.8 259.1,92.2 11,65.3 -49.2,75.6 -49.2,75.6 l 65.6,27.6 -16.4,134.1 -54.6,24.1 -43.7,41.3 c 0,0 27.3,61.9 5.4,68.8 -21.8,6.9 -163.9,37.9 -163.9,37.9 v 27.5 l 16.4,13.7 -10.9,103.2 -38.3,6.9 -16.4,667.4 c 0,0 54.7,6.9 54.7,48.2 0,41.3 -76.5,79.1 -76.5,79.1 l 10.9,433.5 -27.3,27.5 5.5,151.4 -27.4,17.2 11,213.3 -24.1,177.7 v 104.4 l -7.1,-52.2 -7.1,52.2 v -104.4 l -24.1,-177.7 11,-213.3 -27.4,-17.2 5.5,-151.4 -27.3,-27.5 10.9,-433.5 c 0,0 -76.5,-37.8 -76.5,-79.1 0,-41.3 54.6,-48.2 54.6,-48.2 l -16.3,-667.4 -38.3,-6.9 -10.9,-103.2 16.4,-13.7 v -27.5 c 0,0 -142.1,-31 -163.9,-37.9 -21.9,-6.9 5.4,-68.8 5.4,-68.8 l -43.7,-41.3 -54.6,-24.1 -16.4,-134.1 65.6,-27.6 c 0,0 -60.2,-10.3 -49.2,-75.6 10.9,-65.4 259,-92.2 259,-92.2 l -359.5,-2905.5 h -128.8 l -3,611.7 -56.6,3.2 c 0,0 -640.1,576.6 -1475.6,576.6 -835.4,0 -1370.2,-583 -1370.2,-583 h -46.6 l -33.2,-22.3 v -586.2 h -130.3 v 1447.4 h -540.9 v 115.1 l -60.1,65.7 -42.9,-82.1 h -51.5 -25.8 -51.5 l -42.9,82.1 -60.1,-65.7 v -115.1 h -540.9 v -1447.4 h -134.6 v 738.3 l -60,64.6 h -360.1 v 186.7 h -142.5 l -60,57.4 h -330.1 v -64.6 h -180 v -982.4 h -116.2 v -212.9 h 11172.1 v 212.9 h -122.5" /><path
         id="path4352"
         style="fill:#262626;fill-opacity:1;fill-rule:nonzero;stroke:none"
         d="m 11129.8,12267.1 v 153.5 H 10998 v 392.7 l 22,19.2 v 24.7 h -76.9 l -27.4,142.8 h -189.5 l -24.7,145.5 h -98.8 l -11,107.1 -247.1,299.2 h -96.1 v 30.2 l 11,11 v 24.7 l -19.2,5.8 v 2.4 h -8.3 v -2.4 l -19.2,-5.8 v -24.7 l 11,-11 v -30.2 h -96.1 l -247.13,-299.2 -10.96,-107.1 h -98.85 L 9746.05,13000 H 9556.6 l -27.46,-142.8 h -76.88 v -24.7 l 21.97,-19.2 v -392.7 h -131.8 v -153.5 h -125.18 v 469.3 l -104.62,71.9 v 1523.8 h -112.64 v 575 l -169,14.4 v 690 c 0,0 -104.59,79.1 -201.15,21.6 -39.16,-23.4 -71.72,-33.7 -96.56,-37.7 v 1.7 c 0,0 -9.8,-3.7 -28.16,-3.9 -18.37,0.2 -28.17,3.9 -28.17,3.9 v -1.7 c -24.88,4 -57.41,14.3 -96.57,37.7 -96.55,57.5 -201.16,-21.6 -201.16,-21.6 v -690 l -168.99,-14.4 v -575 h -112.66 v -1523.8 l -104.62,-71.9 v -469.3 H 7665.7 v 3933.3 l -80.06,71.5 -369.08,68.5 -341.22,-18.7 v -1169.4 l -348.17,-87.1 v -2798.1 h -214.8 v 4341.6 h -983.46 v -134 l -83.36,-74.5 V 12267.1 H 5131.6 v 217.8 l -96.21,86 V 15106 l -61.84,36.9 V 16346 l -61.85,18.4 v 49.1 l -54.96,98.3 -460.48,-67.6 -103.07,-92 -144.33,-86 v -1454.8 l -127.2,-45.7 -30.82,-2237.8 -82.5,-36.9 v -223.9 H 3780.4 V 14945 l -41.24,43.3 41.26,22.8 v 255.4 h -159.13 l -41.27,665.8 -76.67,-656.7 H 3373.7 v 118.6 l -636.64,-506.2 -123.78,-4.6 V 12267.1 H 2439 l 18.56,5.4 v 2554.3 l -199.75,110.4 h -377.34 l -229.36,-95.7 v -2561.7 l 36.35,-12.7 h -118.78 v 240.9 l -27.28,27.3 v 231.9 l 13.64,31.8 v 36.4 l -31.84,18.2 v 295.6 l -22.73,68.2 31.83,40.9 v 27.3 l -50.02,4.5 v 122.8 l 9.11,40.9 -31.84,4.6 c 0,0 -51.11,153.3 -140.98,175.5 v 1.8 c -1.52,-0.2 -3.02,-0.6 -4.54,-0.9 -1.51,0.3 -3,0.7 -4.54,0.9 v -1.8 c -46.66,-11.5 -82.84,-58.4 -106.88,-100.8 v 193.6 l -45.47,-45.5 c 0,0 13.65,150.1 -104.6,222.8 -118.224,72.8 -140.958,100 -140.958,100 0,0 4.555,72.8 -4.547,91 -9.101,18.2 -31.824,36.4 -31.824,36.4 l -25,187.5 v 17.1 l -1.145,-8.6 -1.136,8.6 v -17.1 l -25.008,-187.5 c 0,0 -22.734,-18.2 -31.836,-36.4 -9.082,-18.2 -4.539,-91 -4.539,-91 0,0 -22.754,-27.2 -140.969,-100 -118.234,-72.7 -104.586,-222.8 -104.586,-222.8 l -45.465,45.5 v -250.1 l 0.239,-6.5 c -13.977,36.1 -61.903,145.3 -136.664,163.8 v 1.8 c -1.543,-0.2 -3.055,-0.6 -4.559,-0.9 -1.5,0.3 -2.996,0.7 -4.547,0.9 v -1.8 c -89.855,-22.2 -140.953,-175.5 -140.953,-175.5 l -31.844,-4.6 9.102,-40.9 v -122.8 l -50.02,-4.5 v -27.3 l 31.836,-40.9 -22.746,-68.2 v -295.6 l -31.836,-18.2 v -36.4 l 13.649,-31.8 v -231.9 L 99.9063,12508 v -240.9 H 0 V 12066 h 11208.4 v 201.1 h -78.6" /><path
         id="path4354"
         style="fill:#262626;fill-opacity:1;fill-rule:nonzero;stroke:none"
         d="m 24458.6,13033.4 c -163.4,0 -289.7,0 -321.9,0 0,0 -2.7,0 -8,0 -32.2,0 -158.4,0 -321.9,0 -190.2,0 -303.6,55.6 -303.6,55.6 l 8,-33.6 c 0,0 19.5,-28.3 27.5,-39.8 8,-11.6 22.9,-4.2 22.9,-4.2 l 3.5,-27.3 16,-21 c 29.8,-6.3 158.1,-9.5 158.1,-9.5 v -11.5 l 6.9,-4.2 v -33.6 c -11.5,0 -18.4,6.3 -18.4,6.3 v -16.8 h -177.5 v -50.4 l 12.6,-11.5 h 181 v -458.7 l -16.1,-5.8 v -114.5 h -210.2 v 193.7 h -64.1 v 88.1 h 60.6 v 84.8 h -163.8 v 179.5 h 49.8 v 257.7 l -17.8,19.6 10.7,19.6 v 110.9 l -17.8,9.8 28.5,22.8 v 107.7 l -21.4,13 17.8,9.8 v 120.7 l -24.9,9.8 28.5,16.3 v 107.7 l -32.1,13 32.1,16.4 v 107.6 l -32.1,16.4 25,9.7 v 110.9 l -17.8,16.4 21.3,16.3 v 101.1 l -17.8,3.3 21.4,22.8 v 130.5 h -67.7 v 32.7 h -153.1 v 313.2 l -263.5,355.6 -108.6,-208.8 v -311.6 l -126.4,115.8 -99.7,-179.4 v -215.4 l -14.3,-13 v -153.3 l -67.6,-81.6 v -52.2 h -96.2 v -81.6 l -42.7,-39.1 v -378.5 h 46.3 v -150.1 h -49.9 v -117.4 h 46.3 v -306.7 h 28.5 v -97.9 h -174.5 c 0,0 0,-65.2 0,-88 0,-22.9 57,0 57,0 v -52.3 h -53.4 v -84.8 h 39.2 v -141.5 h -11.9 c -102.5,94.6 -548,532.9 -635,1082.8 0,0 -39.4,175.9 -39.4,320.2 h 29.5 l 39.4,139.8 -93.5,18 c 0,0 -83.7,838.8 -83.7,1037.2 l 19.7,-2.3 -4.9,65.4 12.3,18.1 v 49.6 l -54.2,31.5 v 22.6 l 27.1,-2.3 4.9,33.8 12.3,15.8 -2.4,67.7 -17.2,9 v 47.3 l -41.9,27.1 -27.1,620 -0.8,11.4 v 157.7 l -5.7,-78.8 -5.8,78.8 v -157.7 l -0.8,-11.4 -27,-620 -41.9,-27.1 v -47.3 l -17.2,-9 -2.5,-67.7 12.3,-15.8 4.9,-33.8 27.1,2.3 v -22.6 l -54.1,-31.5 v -49.6 l 12.3,-18.1 -4.9,-65.4 19.6,2.3 c 0,-198.4 -83.6,-1037.2 -83.6,-1037.2 l -93.5,-18 39.3,-139.8 h 29.6 c 0,-144.3 -39.4,-320.2 -39.4,-320.2 -87,-549.9 -532.5,-988.2 -635.1,-1082.8 h -73.6 l -35.6,2060.8 -30.2,15.2 3.8,213.3 -113.5,21.3 3.7,396.1 -98.3,24.3 7.6,207.2 -98.3,18.3 v 195 l -94.6,18.3 v 292.4 l -68,12.2 -15.2,429.6 -11,2.7 v 4.3 l -8.5,-2.1 -8.5,2.1 v -4.3 l -11.1,-2.7 -15.1,-429.6 -68.1,-12.2 v -292.4 l -94.5,-18.3 v -195 l -98.3,-18.3 7.5,-207.2 -98.3,-24.3 3.8,-396.1 -113.5,-21.3 3.8,-213.3 -30.3,-15.2 -35.5,-2060.8 h -219.5 l -189.9,2045.5 c 0,0 67,83.3 98.1,166.6 31.1,83.3 69.4,138.1 69.4,164.3 l -31.1,17.6 c 0,0 14.3,17.5 16.7,24.1 2.4,6.6 9.6,46 2.4,54.8 -7.1,8.8 -174.6,6.6 -174.6,6.6 v 116.1 l -16.8,17.6 v 78.9 35 l 7.2,311.3 h -28.7 v 54.8 h 24 v 57 l 62.1,21.9 v 26.3 l -28.7,19.7 v 37.3 l 28.7,17.5 v 26.3 l -57.4,19.7 v 37.3 l -50.2,28.5 v 282.7 h -76.5 v 293.7 h 16.7 v 26.3 87.7 h -26.3 v 19.7 l 23.9,21.9 -14.3,192.9 h -21.6 v 41.6 4.4 h 16.7 v 30.7 h -16.7 v 68 h 16.7 v 30.6 h -16.7 v 68 h 16.7 v 30.7 h -16.7 v 67.9 h 16.7 v 30.7 h -16.7 v 68 h 16.7 v 30.6 h -16.7 v 81.1 l 33.5,6.6 v 160 h -76.6 -19.1 -76.6 v -160 l 33.5,-6.6 v -81.1 h -19.1 v -30.6 h 19.1 v -68 h -19.1 v -30.7 h 19.1 v -67.9 h -19.1 v -30.7 h 19.1 v -68 h -19.1 v -30.6 h 19.1 v -68 h -19.1 v -30.7 h 19.1 v -4.4 -41.6 h -21.5 l -14.3,-192.9 23.9,-21.9 v -19.7 h -26.3 v -87.7 -26.3 h 16.7 v -293.7 h -76.6 v -282.7 l -50.2,-28.5 v -37.3 l -57.4,-19.7 v -26.3 l 28.7,-17.5 v -37.3 l -28.7,-19.7 v -26.3 l 62.2,-21.9 v -57 h 23.9 v -54.8 h -28.7 l 7.2,-311.3 v -35 -78.9 l -16.8,-17.6 v -116.1 c 0,0 -167.4,2.2 -174.6,-6.6 -7.2,-8.8 0,-48.2 2.4,-54.8 2.4,-6.6 16.8,-24.1 16.8,-24.1 l -31.1,-17.6 c 0,-26.2 38.2,-81 69.3,-164.3 31.1,-83.3 98.1,-166.6 98.1,-166.6 l -189.8,-2045.5 h -128.1 v 1748.6 l -52.1,86.9 13.6,393.8 -36.2,24.8 v 518.2 l -176.4,207.3 -45.3,-16.6 -31.7,41.5 -375.5,-91.2 v -45.6 l -40.7,-16.6 v -522.3 l -45.2,-33.2 v -342.6 l -171.2,-0.5 12.6,368.2 -38,26.1 v 456.4 l -185.2,217.6 -47.4,-17.4 -33.3,43.5 -394.1,-95.7 v -47.9 l -42.8,-17.4 V 14678 l -47.5,-34.8 v -504.7 l -33.2,-39.1 v -1374.9 l -28.5,-30.5 15,-441.1 h -189.9 v 2423.4 l -36.8,-7.5 -16.3,22.5 -265.5,7.5 -36.7,-37.4 -400.2,29.9 -126.6,-29.9 -69.4,82.3 c 0,0 -98,-3.8 -142.9,-11.2 -44.9,-7.5 -24.5,-56.2 -24.5,-56.2 l -57.2,-22.4 -16.2,-2401 h -280.1 l 0.3,8.2 -138.3,9.2 v 270.4 l 18.5,7.9 15.7,22.2 24.3,6.5 5.7,24.8 39.9,3.9 4.3,17 18.5,5.3 1.4,16.9 -21.3,2.6 -17.2,36.6 -134,18.3 c 0,0 4.3,26.1 10,31.4 5.7,5.2 1.4,26.1 1.4,26.1 l 51.3,10.5 44.2,-5.3 12.9,7.9 -24.3,7.8 32.8,14.4 48.5,-11.8 11.4,19.6 101.3,24.8 47,1.4 8.6,13 -22.8,5.2 47,14.4 8.6,10.5 18.5,3.9 15.7,20.9 c 0,0 -59.9,-28.8 -251,17 -191,45.7 -259.5,111 -259.5,111 0,0 -7.1,10.5 -11.4,20.9 -4.3,10.5 0,18.3 -7.1,24.8 -7.1,6.6 0,5.3 5.7,7.9 5.7,2.6 1.4,9.1 -199.6,36.6 -201.1,27.4 -377.9,96.6 -399.3,95.3 -21.4,-1.3 2.9,-11.7 2.9,-11.7 l 18.5,-7.9 c -5.7,-1.3 -8.6,-24.8 -8.6,-24.8 l -9.9,-5.2 v -14.4 l -8.6,-6.5 c -10,-82.3 -149.7,-209 -149.7,-209 -208.2,-61.4 -332.3,-44.5 -332.3,-44.5 31.4,-58.7 82.8,-44.4 82.8,-44.4 l -12.2,-11.1 10.7,-9.8 h 37.1 l 226.7,-45.7 68.5,-36.6 v -62.7 l -58.5,-14.4 v -134.6 l 41.3,-14.3 v -260.4 h -254.4 v -183.6 h 11186.4 v 183.6 h -159 v 114.5 l -16.1,5.8 v 458.7 h 181.1 l 12.6,11.5 v 50.4 h -177.6 v 16.8 c 0,0 -6.9,-6.3 -18.3,-6.3 v 33.6 l 6.8,4.2 v 11.5 c 0,0 128.3,3.2 158.1,9.5 l 16.1,21 3.4,27.3 c 0,0 14.9,-7.4 22.9,4.2 8,11.5 27.5,39.8 27.5,39.8 l 8,33.6 c 0,0 -113.4,-55.6 -303.6,-55.6 z m -288.7,-82.6 c 83.4,-0.9 247.5,3.1 247.5,3.1 v -11 l 8.6,-2.4 v -37.8 c -43.8,0 -54.1,6.3 -54.1,6.3 v -19.7 h -202 z m -330.5,-10.3 8.6,2.4 v 11 c 0,0 164.1,-4 247.5,-3.1 v -61.5 h -201.9 v 19.7 c 0,0 -10.3,-6.3 -54.2,-6.3 z m -2408.6,-406.3 c 3.6,-0.7 390.9,43.5 719.4,-281.3 h -1438.8 c 328.5,324.8 715.8,280.6 719.4,281.3 z m 2423,-281.3 v 114 l -17.2,8.4 v 454.5 h 292.1 8 292.1 v -454.5 l -17.1,-8.4 v -114 h -557.9" /><path
         id="path4356"
         style="fill:#f9f9f9;fill-opacity:1;fill-rule:nonzero;stroke:none"
         d="m 11152.8,6727.63 v 440.17 l -22.5,27.76 v 37.09 l -36.6,92.56 h -115.6 l -5.7,-27.76 h -90.1 l -33.9,-138.9 v -22.31 c -112.4,61.97 -411.7,217.89 -778.1,337.01 v 3.19 h -9.8 c -258.91,83.44 -550.62,148.1 -833.1,148.1 -4.67,0 -9.33,-0.02 -14.01,-0.06 v 725.41 c 0,0 98.29,-6.79 98.29,40.75 0,0 -15.12,27.16 -105.84,27.16 v 1584.7 c 0,0 85.69,-6.8 110.88,38.5 l 85.68,27.1 47.89,371.3 c 0,0 -63,29.4 -128.52,34 v 174.3 l -20.16,18.1 v 31.7 l 22.67,15.8 v 70.2 c 0,0 -12.6,43 -158.75,61.1 l -22.68,459.2 v 102.3 h -5.05 v -102.3 l -22.68,-459.2 c -146.17,-18.1 -158.76,-61.1 -158.76,-61.1 v -70.2 l 22.68,-15.8 v -31.7 l -20.16,-18.1 v -174.3 c -65.54,-4.6 -128.54,-34 -128.54,-34 l 47.9,-371.3 85.68,-27.1 c 25.2,-45.3 110.88,-38.5 110.88,-38.5 V 8417.8 c -90.73,0 -105.85,-27.16 -105.85,-27.16 0,-47.54 98.31,-40.75 98.31,-40.75 v -730.95 c -459.43,-31.53 -889.95,-189.65 -1148.88,-304.18 l -162.58,149.76 v 139.3 l 165.09,253.46 -317.76,4.24 v 54.84 c -49.62,4.24 -288.92,8.48 -288.92,8.48 l 86.65,198.47 c -144.41,8.38 -326.06,-92.87 -326.06,-92.87 v 156.21 c -74.26,4.18 -210.42,-16.89 -210.42,-16.89 l 144.43,333.53 c -169.29,0 -379.72,-173.08 -379.72,-173.08 l 24.73,232.18 c -808.87,-67.44 -1068.95,-806.48 -1068.95,-806.48 -57.76,16.88 -107.22,0 -107.22,0 -383.84,278.63 -907.99,139.3 -907.99,139.3 l 99.04,-384.26 c -206.4,-0.02 -470.55,-118.2 -470.55,-118.2 -301.22,164.7 -730.47,126.68 -730.47,126.68 l 189.82,-211.16 v -219.59 l -307.73,-33.77 -20.65,-101.36 h -20.66 l 17.93,-225.92 h -111.1 v 2795.68 l -240.77,52.89 -5.4,28.05 -109.53,12.4 v 180.51 c -47.35,24.9 -121.24,37.3 -165.49,42.85 l -69.75,515.79 -42.17,-516.8 c -96.95,-13.13 -143.88,-48.09 -143.88,-48.09 v -152.48 l -82.16,-21.78 -27.2,-24.9 -120.53,-24.88 V 6727.63 h -80.27 v 1458.48 h -82.05 l 73.81,33.18 h -247.52 v 1243.42 h -112.15 v 316.97 h -277.26 l -17.5,293.72 -7.34,-293.72 H 1259.6 l -49.17,-39.34 v -304.66 l -21.92,-47.91 V 6727.63 H 1027.3 v 1876.66 c 0,0 -39.437,22.46 -142.378,24.67 h -28.285 l 7.738,96.44 h 30.895 l -84.954,96.43 h -41.179 v 29.14 l -54.059,71.72 -23.105,-4.44 v 26.88 l -23.219,24.67 h -23.098 v 29.2 l -41.23,13.41 -12.832,107.95 v 64.75 l -3.86,-32.38 -3.863,32.38 v -64.75 L 570.988,9012.41 529.809,8999 v -29.2 h -23.09 l -23.242,-24.67 v -26.88 l -23.075,4.44 -54.074,-71.72 v -29.14 h -41.191 l -84.922,-96.43 h 30.902 l 7.731,-96.44 h -28.305 c -102.871,-2.21 -142.398,-24.67 -142.398,-24.67 V 6727.63 H 0 v -186.72 h 11195.6 v 186.72 z m -304.4,33.4 c -51.3,50.86 -154.6,147.89 -298.7,255.6 h 298.7 z m -84.6,374.61 c 34.8,-18.52 63.3,-34.32 84.6,-46.47 v -13.96 h -84.6 z m -115.6,59.39 c 35.3,-17.56 67.4,-33.96 95.9,-48.9 v -70.92 h -95.9 z m -115.5,55.22 c 33.9,-15.71 65.9,-30.94 95.8,-45.55 v -129.49 h -95.8 z m -115.6,51.27 c 33.3,-14.24 65.3,-28.36 95.8,-42.35 v -183.96 h -44.3 c -16.7,11.72 -33.9,23.42 -51.5,35.19 z m -115.6,47.48 c 32.9,-12.95 64.9,-26.06 95.8,-39.07 v -186.46 c -30.7,20.14 -62.7,40.27 -95.8,60.16 z m 0,-232.99 c 22.7,-13.58 44.7,-27.19 66.3,-40.8 h -66.3 z m -115.5,276.78 c 32.6,-11.82 64.6,-23.85 95.8,-35.98 v -161.47 c -31.1,18.3 -63,36.29 -95.8,53.91 z m 0,-211.06 c 32.7,-17.73 64.7,-35.78 95.8,-54.02 v -52.5 h -95.8 z m -115.7,250.72 c 32.5,-10.58 64.6,-21.52 95.9,-32.67 V 7259.8 c -31.2,16.36 -63.1,32.3 -95.9,47.79 z m 0,-191.66 c 32.7,-15.74 64.7,-31.93 95.9,-48.41 v -117.17 h -95.9 z m 387,-224.16 c 179.7,-121.83 310.3,-235.66 368.5,-289 H 9243.63 v 250.39 l -21.48,38.61 z m -1243.91,431.72 c 9.32,0.14 18.66,0.24 28.07,0.26 v -373.36 h -28.07 z m 741.42,19.83 c 32.33,-9.42 64.29,-19.16 95.79,-29.3 v -122.15 c -31.3,14.38 -63.26,28.38 -95.79,41.72 z m 0,-175.34 c 32.48,-13.69 64.39,-28.02 95.79,-42.75 v -174.88 h -95.79 z m -115.67,206.74 c 32.3,-8.14 64.32,-16.78 95.9,-25.7 v -107.5 c -31.41,12.48 -63.32,24.35 -95.9,35.6 z m 0,-161.68 c 32.44,-11.68 64.41,-23.94 95.9,-36.89 v -225.8 h -95.9 z m -115.55,188.54 c 32.19,-6.82 64.14,-14.18 95.84,-21.96 v -95.78 c -31.48,10.49 -63.41,20.26 -95.84,29.4 z m 0,-150.71 c 32.37,-9.57 64.28,-19.78 95.84,-30.8 v -269.72 h -95.84 z M 9608,7548.45 c 32.11,-5.41 64.11,-11.41 95.79,-17.95 v -86.95 c -31.49,8.53 -63.44,16.34 -95.79,23.34 z m 0,-142.4 c 32.29,-7.29 64.21,-15.59 95.79,-24.57 V 7075.21 H 9608 Z m -115.57,159.14 c 32,-3.91 64.03,-8.42 95.85,-13.5 v -80.68 c -31.64,6.46 -63.55,12.22 -95.85,17.09 z m 0,-136.6 c 32.2,-5.18 64.11,-11.23 95.85,-18.13 v -335.25 h -95.85 z m -115.58,147.69 c 32.01,-2.24 63.93,-5.15 95.86,-8.79 v -76.66 c -31.63,4.44 -63.65,7.95 -95.86,10.69 z m 0,-133.46 c 32.13,-2.75 64.09,-6.52 95.86,-11.17 v -356.44 h -95.86 z m -115.56,138.29 c 31.87,-0.45 63.85,-1.57 95.8,-3.52 V 7503 c -31.7,2.21 -63.61,3.55 -95.8,3.96 z m 0,-132.6 c 32.09,-0.31 63.96,-1.66 95.8,-4.03 v -369.23 h -95.8 z m -25.45,132.85 c 1.87,0 3.75,-0.04 5.62,-0.04 v -74.06 c -0.89,0 -1.87,0.06 -2.76,0.06 -8.47,0 -16.9,-0.06 -25.31,-0.18 v 74.12 c 7.48,0.06 14.95,0.1 22.45,0.1 z m -205.8,-8.77 c 12.37,1.04 24.78,1.95 37.22,2.83 v -75.25 c -12.49,-1.04 -24.92,-2.13 -37.22,-3.38 z m 0,-134.06 c 12.28,1.17 24.7,2.2 37.22,3.18 v -366.46 h -37.22 z m -115.53,121.99 c 31.66,4 63.62,7.5 95.81,10.41 v -76.31 c -32.61,-3.63 -64.59,-8.01 -95.81,-12.95 z m 0,-136.17 c 31.09,4.61 63.06,8.75 95.81,12.13 v -361.23 h -95.81 z m -115.59,119.16 c 31.58,5.29 63.54,10.13 95.85,14.43 v -79.45 c -32.73,-5.55 -64.68,-11.8 -95.85,-18.6 z m 0,-140 c 30.96,6.54 62.87,12.5 95.85,17.73 v -345.99 h -95.85 z m -115.59,118.3 c 31.55,6.52 63.48,12.65 95.88,18.36 v -84.63 c -32.87,-7.56 -64.78,-15.74 -95.88,-24.41 z m 0,-146.33 c 30.79,8.57 62.72,16.48 95.88,23.79 v -324.02 h -95.88 z m -115.62,120.08 c 31.45,7.71 63.42,15.12 95.92,22.09 v -92.19 c -33.06,-9.55 -65.03,-19.73 -95.92,-30.37 z m 0,-155.98 c 30.65,10.67 62.49,20.82 95.92,30.39 v -294.72 h -95.92 z m -115.52,125.3 c 31.27,8.9 63.28,17.53 95.87,25.74 v -102.46 c -33.33,-11.8 -65.27,-24.11 -95.87,-36.7 z m 0,-170.04 c 30.19,12.95 62.14,25.64 95.87,37.77 v -257.36 h -95.87 z m -109.95,136.89 c 29.31,9.41 59.44,18.61 90.24,27.56 v -116.04 c -31.74,-13.47 -61.77,-27.12 -90.24,-40.86 z m 0,-188.75 c 27.99,14.49 58.04,29.04 90.24,43.28 v -211.01 h -90.24 z m -109.92,151.74 c 29.12,10.29 59.24,20.57 90.18,30.64 v -132.63 c -32.35,-15.98 -62.5,-32.02 -90.18,-47.58 z m 0,-214.57 c 26.95,16.95 56.99,34.63 90.18,52.4 v -157.3 h -90.18 z m -109.98,173.69 c 28.81,11.19 58.99,22.56 90.21,33.81 v -153.67 c -33.94,-19.55 -64.07,-38.34 -90.21,-55.37 z m 0,-250.9 c 23.87,18.81 53.93,40.8 90.21,64.55 v -92.24 l -90.21,-0.04 z m -109.94,206 c 28.39,12.09 58.44,24.53 90.17,37.07 v -180.57 c -43.49,-29.39 -73.9,-52.93 -90.17,-66.09 z m 90.17,-221.88 v -11.85 h -14 c 4.34,3.75 8.99,7.69 14,11.85 z m -90.17,-11.66 0.18,-0.19 h -0.18 z m -50.19,63.97 -59.78,-3.42 v 31.52 l 10.18,22.56 -8.29,46.47 -1.89,2.18 v 21.12 c 27.49,12.85 57.62,26.4 90.21,40.58 v -225.17 h -28.27 z m 8.2,-244.92 -4.08,122.18 H 9058.49 L 9037,6978.02 v -250.39 h -583.7 v 162.58 l -482.89,4.24" /><path
         id="path4358"
         style="fill:#262626;fill-opacity:1;fill-rule:nonzero;stroke:none"
         d="m 24700.3,6781.2 h -61.3 v 31.68 l -31.4,23.5 v 125.33 l 15.7,11.74 v 35.25 l -23.5,15.65 v 125.35 l 23.5,19.57 v 105.74 h -424 v 62.68 l -156.7,19.55 39.2,54.86 -82.2,23.5 c 0,0 -17.2,15 -30.9,24.37 -0.5,4.69 -1.1,7.17 -1.8,6.96 -1.5,-0.51 -9,-0.51 -10.4,0 -0.7,0.21 -1.3,-2.27 -1.8,-6.96 -13.7,-9.37 -30.9,-24.37 -30.9,-24.37 l -82.2,-23.5 39.2,-54.86 -114.6,-14.32 v 127.91 l 47,70.49 v 31.35 l -31.3,7.85 v 54.8 c 0,0 3.9,43.09 -4,62.68 -7.8,19.55 -35.2,86.15 -35.2,86.15 l -23.5,-74.43 -129.2,66.56 c 0,0 19.5,82.27 -4,97.95 -23.5,15.65 -46.9,15.65 -54.8,27.38 -7.8,11.78 -31.3,74.44 -31.3,74.44 l -19.6,8.38 v 3.37 l -3.9,-1.67 -3.9,1.67 v -3.37 l -19.6,-8.38 c 0,0 -23.5,-62.66 -31.3,-74.44 -7.9,-11.73 -31.4,-11.73 -54.9,-27.38 -23.5,-15.68 -3.9,-97.95 -3.9,-97.95 l -129.2,-66.56 -23.5,74.43 c 0,0 -27.4,-66.6 -35.3,-86.15 -7.8,-19.59 -3.9,-62.68 -3.9,-62.68 v -6.85 h -343.7 c 0,0 -43.1,-11.74 -50.9,11.74 -7.8,23.51 15.7,74.41 15.7,74.41 0,0 -31.4,7.85 -39.2,39.18 -5.5,21.93 -24.4,323.93 -35.2,503.22 v 131.23 h -7.9 v -131.23 c -10.8,-179.29 -29.7,-481.29 -35.2,-503.22 -7.8,-31.33 -39.2,-39.18 -39.2,-39.18 0,0 23.5,-50.9 15.7,-74.41 -7.9,-23.48 -50.9,-11.74 -50.9,-11.74 h -296.7 v 6.85 c 0,0 3.9,43.09 -3.9,62.68 -7.8,19.55 -35.3,86.15 -35.3,86.15 l -23.5,-74.43 -129.2,66.56 c 0,0 19.6,82.27 -3.9,97.95 -23.5,15.65 -47,15.65 -54.8,27.38 -7.9,11.78 -31.4,74.44 -31.4,74.44 l -19.6,8.38 v 3.37 l -3.9,-1.67 -3.9,1.67 v -3.37 l -19.6,-8.38 c 0,0 -23.5,-62.66 -31.3,-74.44 -7.8,-11.73 -31.3,-11.73 -54.8,-27.38 -23.5,-15.68 -4,-97.95 -4,-97.95 l -129.2,-66.56 -23.5,74.43 c 0,0 -27.4,-66.6 -35.2,-86.15 -7.9,-19.59 -4,-62.68 -4,-62.68 v -54.8 l -31.3,-7.85 v -31.35 l 47,-70.49 v -56.99 l -76,21.76 c 0,0 -17.2,15 -30.9,24.37 -0.5,4.69 -1.1,7.17 -1.8,6.96 -1.4,-0.51 -9,-0.51 -10.4,0 -0.7,0.21 -1.3,-2.27 -1.8,-6.96 -13.7,-9.37 -30.9,-24.37 -30.9,-24.37 l -82.2,-23.5 39.2,-54.86 -156.7,-19.57 v -62.66 h -261.7 v -105.74 l 23.5,-19.57 v -125.35 l -23.5,-15.65 v -35.25 l 15.7,-11.74 v -125.35 l -31.4,-23.48 v -31.68 h -46.5 v 13.09 h -94.1 v 97.32 H 20838 v 40.84 h -97.3 v 135.02 l -37.7,31.41 v 398.81 l 40.8,37.69 v 25.12 h -50.2 v 37.68 l -28.3,3.14 c 0,0 25.2,28.28 3.2,34.55 l -113.1,1990.88 -53.4,55.94 -6.2,6.58 -6.3,-6.58 -53.4,-55.94 -113.1,-1990.88 c -21.9,-6.27 3.2,-34.55 3.2,-34.55 l -28.3,-3.14 v -37.68 h -50.2 v -25.12 l 40.8,-37.69 v -398.81 l -37.7,-31.41 v -135.02 h -97.3 v -40.84 H 20053 v -97.32 h -77.9 v 1166.46 l -79.4,177.48 -101.2,60.86 v 415.86 l -36.1,329.65 -7.3,334.73 65.1,81.13 -57.8,30.45 -115.7,770.89 -93.9,-730.3 -151.8,857.1 50.6,131.8 -57.8,304.3 -36.1,-121.7 -79.5,735.4 v 202.8 h -21.7 v -202.8 l -79.5,-735.4 -36.1,121.7 -57.8,-304.3 50.6,-131.8 -151.8,-857.1 -93.9,730.3 -115.7,-770.89 -57.8,-30.45 65.1,-81.13 -7.3,-334.73 -36.1,-329.65 v -415.86 l -101.2,-60.86 -79.5,-177.48 V 6781.2 h -112.1 v 431.29 c 0,0 25.8,0 9.7,31.08 -16.2,31.01 -45.2,44.82 -45.2,79.27 0,34.52 0,93.11 -9.7,113.83 -9.6,20.67 -6.4,6.88 -9.6,20.67 -3.3,13.79 6.4,27.59 6.4,44.82 0,17.27 -19.4,37.93 -19.4,37.93 l -7.6,258.61 -6.4,6.84 v 3.53 l -1.7,-1.75 -1.6,1.75 v -3.53 l -6.4,-6.84 -7.7,-258.61 c 0,0 -19.3,-20.66 -19.3,-37.93 0,-17.23 9.6,-31.03 6.4,-44.82 -3.2,-13.79 0,0 -9.7,-20.67 -8.6,-18.57 -9.5,-67.56 -9.6,-102.36 l -64.6,60.96 h -890.7 v 998.28 l 41.2,23.26 c 0,0 -82.3,0 -111.4,10.35 -29,10.33 -62.9,46.54 -62.9,46.54 l 12.1,31.04 c 0,0 16.9,36.23 4.9,59.51 -12.1,23.24 -24.3,28.44 -26.7,43.96 -2.4,15.49 -7.2,245.67 -7.2,245.67 0,0 43.5,41.39 38.7,54.33 -4.8,12.92 -43.6,18.07 -50.8,18.07 -7.3,0 -17,75.04 -17,75.04 l -19.3,-46.56 c 0,0 -21.8,12.93 -24.2,28.44 -2.5,15.52 -2.5,64.66 -2.5,64.66 0,0 26.7,10.34 26.7,38.79 0,28.46 -19.4,41.37 -26.7,49.14 -7.2,7.74 -12.1,160.35 -12.1,160.35 0,0 0,18.09 26.7,28.42 26.6,10.37 48.4,20.69 45.9,36.23 -2.4,15.51 -62.9,54.3 -62.9,20.69 0,-23.54 -11.8,-36.92 -18.9,-42.84 -7.2,5.92 -19,19.3 -19,42.84 0,33.61 -60.5,-5.18 -62.9,-20.69 -2.5,-15.54 19.3,-25.86 45.9,-36.23 26.7,-10.33 26.7,-28.42 26.7,-28.42 0,0 -4.9,-152.61 -12.1,-160.35 -7.3,-7.77 -26.7,-20.68 -26.7,-49.14 0,-28.45 26.7,-38.79 26.7,-38.79 0,0 0,-49.14 -2.4,-64.66 -2.5,-15.51 -24.3,-28.44 -24.3,-28.44 l -19.3,46.56 c 0,0 -9.7,-75.04 -17,-75.04 -7.2,0 -45.9,-5.15 -50.8,-18.07 -4.8,-12.94 38.7,-54.33 38.7,-54.33 0,0 -4.8,-230.18 -7.2,-245.67 -2.4,-15.52 -14.5,-20.72 -26.6,-43.96 -12.1,-23.28 4.8,-59.51 4.8,-59.51 l 12.1,-31.04 c 0,0 -33.9,-36.21 -62.9,-46.54 -29.1,-10.35 -111.4,-10.35 -111.4,-10.35 l 41.2,-23.26 v -998.28 h -890.7 l -85,-80.24 c -0.3,2.5 -0.6,5.1 -0.6,7.81 0,34.52 0,93.11 -9.7,113.83 -9.7,20.69 -6.4,6.88 -9.7,20.69 -3.2,13.77 6.5,27.57 6.5,44.8 0,17.27 -19.4,37.93 -19.4,37.93 l -7.6,258.61 -6.4,6.84 v 3.53 l -1.7,-1.75 -1.6,1.75 v -3.53 l -6.4,-6.84 -7.7,-258.61 c 0,0 -19.3,-20.66 -19.3,-37.93 0,-17.23 9.7,-31.03 6.4,-44.8 -3.2,-13.81 0,0 -9.7,-20.69 -9.6,-20.72 -9.6,-79.31 -9.6,-113.83 0,-34.45 -29.1,-48.26 -45.2,-79.29 -16.2,-31.04 9.7,-31.04 9.7,-31.04 V 6781.2 h -96.1 c 0.5,124.36 -0.9,429.01 -0.9,429.01 l -19.7,15.29 26.3,13.13 v 45.87 h -126.8 l 11,-17.46 v -30.6 l -150.8,28.4 2.1,21.85 h -19.6 v 135.51 l 26.2,21.85 -26.2,8.75 -4.4,26.22 10.9,17.5 h -65.6 l 6.6,-17.5 v -19.65 l -19.7,-10.96 h -108.2 l -9.8,10.96 v 32.79 l 9.8,13.11 h -31.7 c 0,0 4.4,17.46 4.4,26.21 0,8.75 -19.7,24.06 -19.7,24.06 l -8.7,28.4 v 28.42 l 13.1,15.29 h -32.8 c 0,0 -28.4,52.46 -118,56.83 l -15.3,28.42 v 18.58 c 0,0 9.8,4.9 10.9,6.56 1.1,1.62 15.9,7.09 15.9,7.09 l -18.1,6.56 -14.2,19.98 v 4.61 h -3.2 v -4.61 l -14.2,-19.98 -18.1,-6.56 c 0,0 14.8,-5.47 15.9,-7.09 1.1,-1.66 10.9,-6.56 10.9,-6.56 v -18.58 l -15.3,-28.42 c -89.6,-4.37 -118,-56.83 -118,-56.83 h -32.8 l 13.1,-15.27 v -28.44 l -8.7,-28.4 c 0,0 -19.7,-15.31 -19.7,-24.04 0,-8.75 4.4,-26.23 4.4,-26.23 h -31.7 l 9.8,-13.11 v -32.79 l -9.8,-10.94 h -108.2 l -19.7,10.94 v 19.67 l 6.6,17.48 h -65.6 l 10.9,-17.48 -4.3,-26.24 -26.3,-8.75 26.3,-21.85 v -135.49 h -19.7 l 2.2,-21.87 -150.8,-28.4 v 30.6 l 10.9,17.48 h -126.8 v -45.89 l 26.3,-13.13 -19.7,-15.29 c 0,0 -1.4,-304.67 -0.8,-429.01 h -75.2 l -2.6,2.6 h -89.8 l -57.7,129.84 h 113.8 v 54.5 l 27.3,14.43 -32.1,51.31 -16,325.37 25.6,3.2 -123.4,193.97 -139.4,54.49 320.5,384.67 -80.1,22.46 -296.5,-375.08 -60.9,22.44 -64.1,-158.69 -1.7,6.41 12.9,43.3 -174.8,272.48 -57.7,-150.69 176.4,-205.15 28.8,14.41 -9.6,-25.62 9.6,-16.06 -41.7,-64.1 -41.6,9.63 -288.6,-355.86 147.5,-128.22 210,416.76 -4.8,27.24 16,12.81 -9.6,-443.98 h 142.7 l -105.8,-123.44 h -105.8 l 4.3,-15.43 h -147.1 v -213.16 h 11184.6 v 213.16" /><path
         id="path4360"
         style="fill:#f9f9f9;fill-opacity:1;fill-rule:nonzero;stroke:none"
         d="m 24338,1219.41 v 1950.71 l -146.9,51.72 c 0,0 84,32.32 84,64.64 0,32.33 0,148.68 0,148.68 0,0 -153.1,18.79 -388.5,19.35 v 0.04 c -1.8,0 -3.5,-0.04 -5.3,-0.04 -1.7,0 -3.4,0.04 -5.2,0.04 v -0.04 c -235.4,-0.56 -388.5,-19.35 -388.5,-19.35 0,0 0,-116.35 0,-148.68 0,-32.32 84,-64.64 84,-64.64 l -147,-51.72 V 1219.41 h -355.9 v 2418.7 l -221.3,107.34 v 40.88 l -238.9,138.01 v 39.18 l 26.5,13.63 -47.2,22.15 v 78.38 c 0,0 56.1,10.21 56.1,40.87 0,30.67 -41.3,30.67 -41.3,30.67 l -38.4,167.05 v 25.49 l -2.9,-12.76 -3,12.76 v -25.49 l -38.4,-167.05 c 0,0 -41.3,0 -41.3,-30.67 0,-30.66 56.1,-40.87 56.1,-40.87 v -78.38 l -47.2,-22.15 26.6,-13.63 v -39.18 l -239,-138.01 v -40.88 l -221.3,-107.34 v -2418.7 h -369.5 l 7.6,1.25 v 2824.26 l -88.8,40.76 v 178.3 l -493.3,300.59 v 178.3 l -88.8,56.04 -39.4,448.32 -49.4,-458.52 -39.4,-40.74 v -198.69 l -345.3,-300.57 v -157.93 l -157.9,-66.23 v -2805.7 l -338.7,0.56 c 0.5,126.82 9.5,2523.54 -44.1,3204.03 -55.1,699.04 -121.3,1353.61 -121.3,1353.61 l -474,19.06 -66.2,-25.43 h -65.3 -0.8 -65.3 l -66.2,25.43 -474,-19.06 c 0,0 -66.2,-654.57 -121.3,-1353.61 -53.7,-680.49 -44.6,-3077.21 -44.1,-3204.03 h -216.7 v 1495.34 l -364.8,246.29 v 1006.91 l -296.4,-144.86 v 1028.63 h -102.6 l -22.8,304.24 -34.2,-282.5 -114,65.19 -22.8,543.3 -34.2,-666.44 -490.2,-108.65 5.3,-3487.45 h -257.2 l 6,2811.29 -421,139.53 -880.2,-99.66 V 1220.21 l 8.5,-0.8 h -366.2 l 115.1,10.71 v 1792.24 l -294.1,67.41 h -57.9 l 24.1,15.31 -4.8,107.24 -781,-12.26 v -98.05 l 33.7,-15.31 -260.3,-36.76 -24.1,-1830.53 h -287.2 v -134.2 h 11081.9 v 134.2 H 24338" /></g></g></svg>
