<?xml version="1.0" encoding="UTF-8" standalone="no"?>
<svg
   xmlns:dc="http://purl.org/dc/elements/1.1/"
   xmlns:cc="http://creativecommons.org/ns#"
   xmlns:rdf="http://www.w3.org/1999/02/22-rdf-syntax-ns#"
   xmlns:svg="http://www.w3.org/2000/svg"
   xmlns="http://www.w3.org/2000/svg"
   xmlns:sodipodi="http://sodipodi.sourceforge.net/DTD/sodipodi-0.dtd"
   xmlns:inkscape="http://www.inkscape.org/namespaces/inkscape"
   version="1.1"
   width="33.00161"
   height="33.002487"
   viewBox="0 0 33.00161 33.002487"
   id="svg6"
   sodipodi:docname="moon-centered-border.svg"
   inkscape:version="1.0.1 (3bc2e813f5, 2020-09-07)">
  <metadata
     id="metadata12">
    <rdf:RDF>
      <cc:Work
         rdf:about="">
        <dc:format>image/svg+xml</dc:format>
        <dc:type
           rdf:resource="http://purl.org/dc/dcmitype/StillImage" />
        <dc:title>moon-centered</dc:title>
      </cc:Work>
    </rdf:RDF>
  </metadata>
  <defs
     id="defs10" />
  <sodipodi:namedview
     pagecolor="#ffffff"
     bordercolor="#666666"
     borderopacity="1"
     objecttolerance="10"
     gridtolerance="10"
     guidetolerance="10"
     inkscape:pageopacity="0"
     inkscape:pageshadow="2"
     inkscape:window-width="1920"
     inkscape:window-height="1027"
     id="namedview8"
     showgrid="false"
     inkscape:zoom="17.552053"
     inkscape:cx="14.07072"
     inkscape:cy="14.268243"
     inkscape:window-x="-8"
     inkscape:window-y="-8"
     inkscape:window-maximized="1"
     inkscape:current-layer="svg6"
     inkscape:document-rotation="0" />
  <title
     id="title2">moon-centered</title>
  <path
     fill="#9955ff"
     d="m 16.9,32.498487 c -4.381,0 -8.499,-1.706 -11.597,-4.803 -3.098,-3.097 -4.803,-7.216 -4.803,-11.597 0,-3.602 1.157,-6.9999999 3.344,-9.8289999 1.048,-1.355 2.302,-2.536 3.73,-3.51 1.438,-0.982 3.021,-1.733 4.701,-2.22699997 0.307,-0.091 0.638,0.011 0.843,0.258 0.205,0.24699997 0.242,0.58999997 0.096,0.87499997 -1.032,2.011 -1.512,3.928 -1.512,6.035 0,7.4989999 6.101,13.5999999 13.6,13.5999999 2.107,0 4.024,-0.48 6.035,-1.512 0.285,-0.146 0.629,-0.109 0.875,0.096 0.246,0.205 0.347,0.536 0.258,0.843 -0.496,1.68 -1.245,3.262 -2.227,4.701 -0.974,1.427 -2.155,2.682 -3.51,3.73 -2.829,2.187 -6.229,3.344 -9.829,3.344 z M 11.012,2.6824871 C 5.614,4.9944871 2.1,10.184487 2.1,16.098487 c 0,8.16 6.64,14.8 14.8,14.8 5.914,0 11.104,-3.515 13.416,-8.912 -1.638,0.613 -3.293,0.912 -5.016,0.912 -4.061,0 -7.877,-1.581 -10.747,-4.451 -2.87,-2.87 -4.453,-6.688 -4.453,-10.7489999 0,-1.723 0.301,-3.378 0.912,-5.016 z"
     id="path4"
     style="stroke:#1d1d1d;stroke-opacity:1;paint-order:stroke fill markers" />
  <path
     style="opacity:1;fill:#1d1d1d;fill-opacity:1;stroke:#3f3f3f;stroke-width:0.0084891;stroke-linecap:round;stroke-linejoin:round;paint-order:stroke fill markers"
     d="M 10.0778,3.6501488 C 8.9166337,4.1790421 7.8991071,4.9938214 6.960714,5.8506493 4.2085473,8.4078463 2.5828156,12.108114 2.5365175,15.862435 c -0.090469,4.029332 1.6375856,8.05615 4.6252568,10.762687 2.2979865,2.167725 5.3562557,3.503888 8.4967677,3.787801 1.62172,0.06198 3.274989,0.05204 4.842109,-0.424007 3.734844,-0.954809 7.01334,-3.554065 8.810266,-6.960979 0.08728,-0.270404 -0.286938,-0.179077 -0.430436,-0.141095 -4.188325,1.040282 -8.795559,0.180067 -12.359168,-2.255139 -1.342899,-0.903089 -2.49869,-2.055194 -3.531779,-3.294267 -2.960909,-3.75148 -4.0460442,-8.898607 -2.796647,-13.5154159 0.03334,-0.08421 -0.01314,-0.186509 -0.115087,-0.1718713 z"
     id="path871" />
</svg>
