<?xml version="1.0" encoding="UTF-8" standalone="no"?>
<svg
   xmlns:dc="http://purl.org/dc/elements/1.1/"
   xmlns:cc="http://creativecommons.org/ns#"
   xmlns:rdf="http://www.w3.org/1999/02/22-rdf-syntax-ns#"
   xmlns:svg="http://www.w3.org/2000/svg"
   xmlns="http://www.w3.org/2000/svg"
   xmlns:sodipodi="http://sodipodi.sourceforge.net/DTD/sodipodi-0.dtd"
   xmlns:inkscape="http://www.inkscape.org/namespaces/inkscape"
   version="1.1"
   width="33.030998"
   height="32.979"
   viewBox="0 0 33.030998 32.979"
   id="svg22"
   sodipodi:docname="sun-centered-border.svg"
   inkscape:version="1.0.1 (3bc2e813f5, 2020-09-07)">
  <metadata
     id="metadata28">
    <rdf:RDF>
      <cc:Work
         rdf:about="">
        <dc:format>image/svg+xml</dc:format>
        <dc:type
           rdf:resource="http://purl.org/dc/dcmitype/StillImage" />
        <dc:title>sun-centered</dc:title>
      </cc:Work>
    </rdf:RDF>
  </metadata>
  <defs
     id="defs26" />
  <sodipodi:namedview
     pagecolor="#ffffff"
     bordercolor="#666666"
     borderopacity="1"
     objecttolerance="10"
     gridtolerance="10"
     guidetolerance="10"
     inkscape:pageopacity="0"
     inkscape:pageshadow="2"
     inkscape:window-width="1920"
     inkscape:window-height="1027"
     id="namedview24"
     showgrid="false"
     inkscape:zoom="8.7760267"
     inkscape:cx="38.305064"
     inkscape:cy="7.350399"
     inkscape:window-x="-8"
     inkscape:window-y="-8"
     inkscape:window-maximized="1"
     inkscape:current-layer="layer2"
     inkscape:document-rotation="0"
     showguides="false" />
  <title
     id="title2">sun-centered</title>
  <g
     inkscape:groupmode="layer"
     id="layer1"
     inkscape:label="Layer 1" />
  <g
     inkscape:groupmode="layer"
     id="layer2"
     inkscape:label="Layer 2">
    <path
       fill="#ffcc00"
       d="m 16.516,24.052 c -4.176,0 -7.575,-3.391 -7.575,-7.562 0,-4.171 3.397,-7.562 7.575,-7.562 4.178,0 7.575,3.391 7.575,7.562 0,4.171 -3.397,7.562 -7.575,7.562 z m 0,-13.441 c -3.247,0 -5.889,2.637 -5.889,5.879 0,3.242 2.642,5.879 5.889,5.879 3.247,0 5.889,-2.637 5.889,-5.879 0,-3.242 -2.642,-5.879 -5.889,-5.879 z"
       id="path4"
       style="stroke:#1d1d1d;stroke-linecap:round;stroke-linejoin:round;stroke-opacity:1;paint-order:stroke fill markers" />
    <path
       fill="#ffcc00"
       d="m 16.516,7.233 c -0.465,0 -0.843,-0.377 -0.843,-0.842 V 1.342 c 0,-0.465 0.378,-0.842 0.843,-0.842 0.465,0 0.843,0.377 0.843,0.842 v 5.049 c 0,0.465 -0.378,0.842 -0.843,0.842 z"
       id="path6"
       style="stroke:#1d1d1d;stroke-linecap:round;stroke-linejoin:round;stroke-opacity:1;paint-order:stroke fill markers" />
    <path
       fill="#ffcc00"
       d="m 16.516,32.479 c -0.465,0 -0.843,-0.377 -0.843,-0.842 v -5.049 c 0,-0.465 0.378,-0.842 0.843,-0.842 0.465,0 0.843,0.377 0.843,0.842 v 5.049 c 0,0.465 -0.378,0.842 -0.843,0.842 z"
       id="path8"
       style="stroke:#1d1d1d;stroke-linecap:round;stroke-linejoin:round;stroke-opacity:1;paint-order:stroke fill markers" />
    <path
       fill="#ffcc00"
       d="M 6.401,17.331 H 1.343 c -0.465,0 -0.843,-0.377 -0.843,-0.842 0,-0.465 0.378,-0.842 0.843,-0.842 h 5.058 c 0.465,0 0.843,0.377 0.843,0.842 0,0.465 -0.378,0.842 -0.843,0.842 z"
       id="path10"
       style="stroke:#1d1d1d;stroke-linecap:round;stroke-linejoin:round;stroke-opacity:1;paint-order:stroke fill markers" />
    <path
       fill="#ffcc00"
       d="M 31.688,17.331 H 26.63 c -0.465,0 -0.843,-0.377 -0.843,-0.842 0,-0.465 0.378,-0.842 0.843,-0.842 h 5.058 c 0.465,0 0.843,0.377 0.843,0.842 0,0.465 -0.378,0.842 -0.843,0.842 z"
       id="path12"
       style="stroke:#1d1d1d;stroke-linecap:round;stroke-linejoin:round;stroke-opacity:1;paint-order:stroke fill markers" />
    <path
       fill="#ffcc00"
       d="M 8.086,8.916 C 7.87,8.916 7.654,8.834 7.489,8.67 L 4.117,5.304 c -0.329,-0.328 -0.329,-0.862 0,-1.19 0.329,-0.328 0.863,-0.328 1.192,0 L 8.681,7.48 C 9.01,7.808 9.01,8.342 8.681,8.67 8.516,8.835 8.3,8.916 8.084,8.916 Z"
       id="path14"
       style="stroke:#1d1d1d;stroke-linecap:round;stroke-linejoin:round;stroke-opacity:1;paint-order:stroke fill markers" />
    <path
       fill="#ffcc00"
       d="m 4.715,29.113 c -0.216,0 -0.432,-0.082 -0.597,-0.246 -0.329,-0.328 -0.329,-0.862 0,-1.19 L 7.49,24.311 c 0.329,-0.328 0.863,-0.328 1.192,0 0.329,0.328 0.329,0.862 0,1.19 L 5.31,28.867 c -0.165,0.165 -0.381,0.246 -0.597,0.246 z"
       id="path16"
       style="stroke:#1d1d1d;stroke-linecap:round;stroke-linejoin:round;stroke-opacity:1;paint-order:stroke fill markers" />
    <path
       fill="#ffcc00"
       d="m 28.317,29.113 c -0.216,0 -0.432,-0.082 -0.597,-0.246 l -3.372,-3.366 c -0.329,-0.328 -0.329,-0.862 0,-1.19 0.329,-0.328 0.863,-0.328 1.192,0 l 3.372,3.366 c 0.329,0.328 0.329,0.862 0,1.19 -0.165,0.165 -0.381,0.246 -0.597,0.246 z"
       id="path18"
       style="stroke:#1d1d1d;stroke-linecap:round;stroke-linejoin:round;stroke-opacity:1;paint-order:stroke fill markers" />
    <path
       fill="#ffcc00"
       d="m 24.945,8.916 c -0.216,0 -0.432,-0.082 -0.597,-0.246 -0.329,-0.328 -0.329,-0.862 0,-1.19 L 27.72,4.114 c 0.329,-0.328 0.863,-0.328 1.192,0 0.329,0.328 0.329,0.862 0,1.19 L 25.54,8.67 c -0.165,0.165 -0.381,0.246 -0.597,0.246 z"
       id="path20"
       style="stroke:#1d1d1d;stroke-linecap:round;stroke-linejoin:round;stroke-opacity:1;paint-order:stroke fill markers" />
    <circle
       style="opacity:1;fill:#1d1d1d;fill-opacity:1;stroke:#1d1d1d;stroke-width:0.0450817;stroke-linecap:round;stroke-linejoin:round;paint-order:stroke fill markers;stroke-opacity:1"
       id="path961"
       cy="16.474634"
       cx="16.502375"
       r="5.8930354" />
  </g>
</svg>
