<?xml version="1.0" encoding="UTF-8" standalone="no"?>
<svg
   xmlns:dc="http://purl.org/dc/elements/1.1/"
   xmlns:cc="http://creativecommons.org/ns#"
   xmlns:rdf="http://www.w3.org/1999/02/22-rdf-syntax-ns#"
   xmlns:svg="http://www.w3.org/2000/svg"
   xmlns="http://www.w3.org/2000/svg"
   xmlns:sodipodi="http://sodipodi.sourceforge.net/DTD/sodipodi-0.dtd"
   xmlns:inkscape="http://www.inkscape.org/namespaces/inkscape"
   width="299.81958mm"
   height="63.609451mm"
   viewBox="0 0 299.81958 63.609451"
   version="1.1"
   id="svg8"
   inkscape:version="1.0.1 (3bc2e813f5, 2020-09-07)"
   sodipodi:docname="relaxing-clock-logo-transparent.svg">
  <defs
     id="defs2">
    <inkscape:path-effect
       effect="spiro"
       id="path-effect909"
       is_visible="true"
       lpeversion="1" />
    <inkscape:path-effect
       effect="spiro"
       id="path-effect905"
       is_visible="true"
       lpeversion="1" />
    <inkscape:path-effect
       effect="spiro"
       id="path-effect901"
       is_visible="true"
       lpeversion="1" />
    <inkscape:path-effect
       effect="spiro"
       id="path-effect895"
       is_visible="true"
       lpeversion="1" />
    <inkscape:path-effect
       effect="spiro"
       id="path-effect881"
       is_visible="true"
       lpeversion="1" />
    <inkscape:path-effect
       effect="spiro"
       id="path-effect30"
       is_visible="true"
       lpeversion="1" />
    <clipPath
       clipPathUnits="userSpaceOnUse"
       id="clipPath1456">
      <rect
         style="fill:#ff0000;fill-opacity:1;fill-rule:nonzero;stroke:none;stroke-width:0.264583"
         id="rect1458"
         width="39.125324"
         height="32.83527"
         x="156.52002"
         y="174.87477" />
    </clipPath>
    <clipPath
       clipPathUnits="userSpaceOnUse"
       id="clipPath1466">
      <path
         id="path1468"
         style="fill:#ff0000;fill-opacity:1;fill-rule:nonzero;stroke:none;stroke-width:0.264583"
         d="m 156.52016,174.87459 v 32.83521 h 39.12526 v -32.83521 z m 13.6002,16.60933 c 0.24307,0.0141 0.48612,0.0687 0.72916,0.0909 0.15281,0.26149 0.36469,0.49696 0.47645,0.77618 0.14542,-0.0359 0.35106,-0.10074 0.74363,-0.25942 0.182,-0.0736 0.32067,-0.31104 0.51521,-0.28474 1.19247,0.16106 1.11184,0.22354 1.34204,0.8878 0.006,0.057 0.015,0.1137 0.0233,0.17054 0.0314,-0.0174 0.0671,-0.0405 0.0966,-0.0558 0.1001,-0.052 0.20762,-0.15783 0.31523,-0.12403 0.3506,0.11021 0.60407,0.19549 0.79736,0.28577 0.11208,-0.12185 0.22826,-0.23845 0.36019,-0.33641 0.18879,-0.14019 0.40794,-0.23378 0.61185,-0.35088 0.35685,0.0434 0.88476,-0.1779 1.07073,0.12971 0.0496,0.0819 0.0821,0.17114 0.10801,0.26251 0.10696,0.0706 0.21595,0.14742 0.32556,0.23513 0.16565,0.14785 0.29446,0.29195 0.39739,0.4377 0.27574,-0.0186 0.63687,-0.0431 0.78032,-0.0527 0.24102,-0.0489 0.65453,-0.12488 1.0666,-0.20877 0.21735,-0.18754 0.43613,-0.37374 0.65215,-0.56276 0.196,-0.0846 0.375,-0.24053 0.58808,-0.25373 1.24982,-0.0772 1.88769,0.0565 1.51515,1.70791 -0.0678,0.30033 -0.44932,0.43499 -0.72553,0.57102 -0.22619,0.1114 -0.68185,0.23009 -1.17099,0.33796 -0.004,0.004 -0.008,0.008 -0.0119,0.0124 0.0346,0.32682 0.0817,0.65359 0.10904,0.9803 0.0758,0.0465 0.0948,0.10797 0.0971,0.25115 0.12904,0.11461 0.26307,0.26135 0.40617,0.4532 0.14461,0.19389 -0.0369,0.48495 -0.0987,0.71882 -0.0266,0.10053 -0.058,0.26065 -0.16174,0.26665 -0.37763,0.0235 -0.75408,-0.0294 -1.13069,-0.0822 0.13621,0.11832 0.25648,0.21701 0.36226,0.29817 0.0631,-0.0322 0.12548,-0.0662 0.19017,-0.0951 0.40102,-0.17917 0.96304,0.97999 -0.19017,0.0951 -0.15318,0.0782 -0.30454,0.16075 -0.45734,0.23978 -0.34256,0.1619 -0.68087,0.33187 -1.02733,0.48524 -0.5631,0.24928 -1.1445,0.45644 -1.71307,0.69298 -0.79212,0.32954 -0.74498,0.35048 -1.67329,0.63562 -0.0663,0.0207 -0.1377,0.0158 -0.2067,0.0238 -0.0548,0.003 -0.11115,-5.3e-4 -0.16485,0.0114 -0.13518,0.0301 -0.26635,0.11678 -0.39997,0.14211 -0.56466,0.40876 -1.13757,0.80554 -1.71979,1.18752 -1.49089,-0.2514 -1.90328,0.12739 -0.9617,-1.91978 0.11857,-0.25781 0.94669,-0.61947 1.34927,-0.74362 0.0663,-0.22079 0.17115,-0.42759 0.27337,-0.58446 0.11132,-0.17084 0.2998,-0.27659 0.44958,-0.41496 0.28047,-0.16394 0.54654,-0.35537 0.84129,-0.49196 0.008,-0.004 0.0329,-0.011 0.0424,-0.015 0.0598,-0.0538 0.11767,-0.10982 0.17725,-0.16381 -0.11267,-0.007 -0.22603,-0.0185 -0.3359,-0.002 -0.12741,0.0197 -0.25361,0.0472 -0.38034,0.0708 -0.49085,0.41765 -0.98441,0.83177 -1.48776,1.233 -0.10508,0.0838 -0.2251,0.14747 -0.33745,0.22117 -0.99573,0.25637 -1.24416,0.53804 -1.51567,-0.478 -1.20482,0.9818 -2.48804,1.84674 -3.7946,2.68769 -0.4903,-0.15302 -1.07484,-0.13226 -1.47123,-0.45889 -0.20761,-0.17107 -0.098,-0.53794 -0.0625,-0.8046 0.0536,-0.40244 0.45012,-0.94214 0.66766,-1.24747 0.10986,-0.15419 0.17476,-0.24348 0.25167,-0.35037 -0.25748,0.20947 -0.51775,0.41531 -0.78445,0.61289 -0.0903,0.0669 -0.205,0.25424 -0.2868,0.17725 -0.47546,-0.44716 -0.7894,-1.03963 -1.18391,-1.5596 0.0996,-0.12548 0.17797,-0.27144 0.29869,-0.37672 0.11738,-0.10237 0.23943,-0.1935 0.3638,-0.27957 0.11359,-0.27332 0.34078,-0.55339 0.6165,-0.83974 0.6667,-0.73273 1.30728,-1.48963 1.99523,-2.20245 1.14138,-1.18262 0.90887,-1.16794 1.75338,-1.57768 0.14943,-0.0725 0.28617,-0.19706 0.45165,-0.21136 0.0811,-0.007 0.16186,-0.007 0.24288,-0.002 z m -0.62477,0.76326 c -0.0154,-0.008 -0.0879,0.12649 -0.0744,0.17776 0.005,0.0174 0.0118,0.0339 0.017,0.0512 0.0321,-0.0704 0.0548,-0.14279 0.0599,-0.216 5.3e-4,-0.008 -2.7e-4,-0.0118 -0.003,-0.0129 z m 6.68642,0.0961 c -0.0783,0.008 -0.19887,0.11286 -0.20412,0.18965 -0.0126,0.19387 -0.0298,0.39928 -0.0357,0.60306 0.0688,-0.0275 0.13918,-0.0515 0.21032,-0.0739 -0.0921,-0.36993 -0.048,-0.58954 0.092,-0.68161 -0.001,-0.003 -0.003,-0.006 -0.004,-0.009 -0.0109,-0.0232 -0.0323,-0.0312 -0.0584,-0.0284 z m 5.06791,0.27388 c -0.005,0.002 -0.008,0.005 -0.009,0.0104 -0.008,0.0372 -0.0165,0.0752 -0.0248,0.11265 0.0458,-0.0169 0.0961,-0.0333 0.13694,-0.0506 0.0345,-0.0146 -0.0705,-0.0835 -0.10335,-0.0724 z m -3.77032,0.52658 c -0.0281,0.005 -0.0751,0.006 -0.11782,0.009 -0.002,0.0541 -0.006,0.10828 -0.0119,0.16278 0.018,0.0206 0.0365,0.0407 0.0548,0.061 0.007,0.004 0.0176,0.009 0.0243,0.0129 0.0547,-0.004 0.081,-0.005 0.13487,-0.009 -0.0472,-0.0562 -0.0946,-0.11967 -0.13694,-0.19482 -0.011,-0.0195 0.0748,-0.0459 0.0527,-0.0419 z m 0.76998,5.03329 c -0.0819,0.051 -0.0746,0.0586 0.0408,0.0522 -0.0144,-0.0154 -0.0268,-0.0357 -0.0408,-0.0522 z m -4.24677,2.18798 c -0.0154,10e-4 -0.0441,0.011 -0.0661,0.016 -0.007,0.004 -0.0146,0.007 -0.0217,0.0114 0.0293,-0.009 0.11855,-0.0304 0.0879,-0.0274 z" />
    </clipPath>
    <clipPath
       clipPathUnits="userSpaceOnUse"
       id="clipPath1476">
      <path
         id="path1478"
         style="fill:#ff0000;fill-opacity:1;fill-rule:nonzero;stroke:none;stroke-width:0.264583"
         d="m 156.52016,174.87459 v 32.83521 h 39.12526 v -32.83521 z m 13.6002,16.60933 c 0.24307,0.0141 0.48612,0.0687 0.72916,0.0909 0.15281,0.26149 0.36469,0.49696 0.47645,0.77618 0.14542,-0.0359 0.35106,-0.10074 0.74363,-0.25942 0.182,-0.0736 0.32067,-0.31104 0.51521,-0.28474 1.19247,0.16106 1.11184,0.22354 1.34204,0.8878 0.006,0.057 0.015,0.1137 0.0233,0.17054 0.0314,-0.0174 0.0671,-0.0405 0.0966,-0.0558 0.1001,-0.052 0.20762,-0.15783 0.31523,-0.12403 0.3506,0.11021 0.60407,0.19549 0.79736,0.28577 0.11208,-0.12185 0.22826,-0.23845 0.36019,-0.33641 0.18879,-0.14019 0.40794,-0.23378 0.61185,-0.35088 0.35685,0.0434 0.88476,-0.1779 1.07073,0.12971 0.0496,0.0819 0.0821,0.17114 0.10801,0.26251 0.10696,0.0706 0.21595,0.14742 0.32556,0.23513 0.16565,0.14785 0.29446,0.29195 0.39739,0.4377 0.27574,-0.0186 0.63687,-0.0431 0.78032,-0.0527 0.24102,-0.0489 0.65453,-0.12488 1.0666,-0.20877 0.21735,-0.18754 0.43613,-0.37374 0.65215,-0.56276 0.196,-0.0846 0.375,-0.24053 0.58808,-0.25373 1.24982,-0.0772 1.88769,0.0565 1.51515,1.70791 -0.0678,0.30033 -0.44932,0.43499 -0.72553,0.57102 -0.22619,0.1114 -0.68185,0.23009 -1.17099,0.33796 -0.004,0.004 -0.008,0.008 -0.0119,0.0124 0.0346,0.32682 0.0817,0.65359 0.10904,0.9803 0.0758,0.0465 0.0948,0.10797 0.0971,0.25115 0.12904,0.11461 0.26307,0.26135 0.40617,0.4532 0.14461,0.19389 -0.0369,0.48495 -0.0987,0.71882 -0.0266,0.10053 -0.058,0.26065 -0.16174,0.26665 -0.37763,0.0235 -0.75408,-0.0294 -1.13069,-0.0822 0.13621,0.11832 0.25648,0.21701 0.36226,0.29817 0.0631,-0.0322 0.12548,-0.0662 0.19017,-0.0951 0.40102,-0.17917 0.96304,0.97999 -0.19017,0.0951 -0.15318,0.0782 -0.30454,0.16075 -0.45734,0.23978 -0.34256,0.1619 -0.68087,0.33187 -1.02733,0.48524 -0.5631,0.24928 -1.1445,0.45644 -1.71307,0.69298 -0.79212,0.32954 -0.74498,0.35048 -1.67329,0.63562 -0.0663,0.0207 -0.1377,0.0158 -0.2067,0.0238 -0.0548,0.003 -0.11115,-5.3e-4 -0.16485,0.0114 -0.13518,0.0301 -0.26635,0.11678 -0.39997,0.14211 -0.56466,0.40876 -1.13757,0.80554 -1.71979,1.18752 -1.49089,-0.2514 -1.90328,0.12739 -0.9617,-1.91978 0.11857,-0.25781 0.94669,-0.61947 1.34927,-0.74362 0.0663,-0.22079 0.17115,-0.42759 0.27337,-0.58446 0.11132,-0.17084 0.2998,-0.27659 0.44958,-0.41496 0.28047,-0.16394 0.54654,-0.35537 0.84129,-0.49196 0.008,-0.004 0.0329,-0.011 0.0424,-0.015 0.0598,-0.0538 0.11767,-0.10982 0.17725,-0.16381 -0.11267,-0.007 -0.22603,-0.0185 -0.3359,-0.002 -0.12741,0.0197 -0.25361,0.0472 -0.38034,0.0708 -0.49085,0.41765 -0.98441,0.83177 -1.48776,1.233 -0.10508,0.0838 -0.2251,0.14747 -0.33745,0.22117 -0.99573,0.25637 -1.24416,0.53804 -1.51567,-0.478 -1.20482,0.9818 -2.48804,1.84674 -3.7946,2.68769 -0.4903,-0.15302 -1.07484,-0.13226 -1.47123,-0.45889 -0.20761,-0.17107 -0.098,-0.53794 -0.0625,-0.8046 0.0536,-0.40244 0.45012,-0.94214 0.66766,-1.24747 0.10986,-0.15419 0.17476,-0.24348 0.25167,-0.35037 -0.25748,0.20947 -0.51775,0.41531 -0.78445,0.61289 -0.0903,0.0669 -0.205,0.25424 -0.2868,0.17725 -0.47546,-0.44716 -0.7894,-1.03963 -1.18391,-1.5596 0.0996,-0.12548 0.17797,-0.27144 0.29869,-0.37672 0.11738,-0.10237 0.23943,-0.1935 0.3638,-0.27957 0.11359,-0.27332 0.34078,-0.55339 0.6165,-0.83974 0.6667,-0.73273 1.30728,-1.48963 1.99523,-2.20245 1.14138,-1.18262 0.90887,-1.16794 1.75338,-1.57768 0.14943,-0.0725 0.28617,-0.19706 0.45165,-0.21136 0.0811,-0.007 0.16186,-0.007 0.24288,-0.002 z m -0.62477,0.76326 c -0.0154,-0.008 -0.0879,0.12649 -0.0744,0.17776 0.005,0.0174 0.0118,0.0339 0.017,0.0512 0.0321,-0.0704 0.0548,-0.14279 0.0599,-0.216 5.3e-4,-0.008 -2.7e-4,-0.0118 -0.003,-0.0129 z m 6.68642,0.0961 c -0.0783,0.008 -0.19887,0.11286 -0.20412,0.18965 -0.0126,0.19387 -0.0298,0.39928 -0.0357,0.60306 0.0688,-0.0275 0.13918,-0.0515 0.21032,-0.0739 -0.0921,-0.36993 -0.048,-0.58954 0.092,-0.68161 -0.001,-0.003 -0.003,-0.006 -0.004,-0.009 -0.0109,-0.0232 -0.0323,-0.0312 -0.0584,-0.0284 z m 5.06791,0.27388 c -0.005,0.002 -0.008,0.005 -0.009,0.0104 -0.008,0.0372 -0.0165,0.0752 -0.0248,0.11265 0.0458,-0.0169 0.0961,-0.0333 0.13694,-0.0506 0.0345,-0.0146 -0.0705,-0.0835 -0.10335,-0.0724 z m -3.77032,0.52658 c -0.0281,0.005 -0.0751,0.006 -0.11782,0.009 -0.002,0.0541 -0.006,0.10828 -0.0119,0.16278 0.018,0.0206 0.0365,0.0407 0.0548,0.061 0.007,0.004 0.0176,0.009 0.0243,0.0129 0.0547,-0.004 0.081,-0.005 0.13487,-0.009 -0.0472,-0.0562 -0.0946,-0.11967 -0.13694,-0.19482 -0.011,-0.0195 0.0748,-0.0459 0.0527,-0.0419 z m 0.76998,5.03329 c -0.0819,0.051 -0.0746,0.0586 0.0408,0.0522 -0.0144,-0.0154 -0.0268,-0.0357 -0.0408,-0.0522 z m -4.24677,2.18798 c -0.0154,10e-4 -0.0441,0.011 -0.0661,0.016 -0.007,0.004 -0.0146,0.007 -0.0217,0.0114 0.0293,-0.009 0.11855,-0.0304 0.0879,-0.0274 z" />
    </clipPath>
    <clipPath
       clipPathUnits="userSpaceOnUse"
       id="clipPath1486">
      <path
         id="path1488"
         style="fill:#ff0000;fill-opacity:1;fill-rule:nonzero;stroke:none;stroke-width:0.264583"
         d="m 156.52016,174.87459 v 32.83521 h 39.12526 v -32.83521 z m 13.6002,16.60933 c 0.24307,0.0141 0.48612,0.0687 0.72916,0.0909 0.15281,0.26149 0.36469,0.49696 0.47645,0.77618 0.14542,-0.0359 0.35106,-0.10074 0.74363,-0.25942 0.182,-0.0736 0.32067,-0.31104 0.51521,-0.28474 1.19247,0.16106 1.11184,0.22354 1.34204,0.8878 0.006,0.057 0.015,0.1137 0.0233,0.17054 0.0314,-0.0174 0.0671,-0.0405 0.0966,-0.0558 0.1001,-0.052 0.20762,-0.15783 0.31523,-0.12403 0.3506,0.11021 0.60407,0.19549 0.79736,0.28577 0.11208,-0.12185 0.22826,-0.23845 0.36019,-0.33641 0.18879,-0.14019 0.40794,-0.23378 0.61185,-0.35088 0.35685,0.0434 0.88476,-0.1779 1.07073,0.12971 0.0496,0.0819 0.0821,0.17114 0.10801,0.26251 0.10696,0.0706 0.21595,0.14742 0.32556,0.23513 0.16565,0.14785 0.29446,0.29195 0.39739,0.4377 0.27574,-0.0186 0.63687,-0.0431 0.78032,-0.0527 0.24102,-0.0489 0.65453,-0.12488 1.0666,-0.20877 0.21735,-0.18754 0.43613,-0.37374 0.65215,-0.56276 0.196,-0.0846 0.375,-0.24053 0.58808,-0.25373 1.24982,-0.0772 1.88769,0.0565 1.51515,1.70791 -0.0678,0.30033 -0.44932,0.43499 -0.72553,0.57102 -0.22619,0.1114 -0.68185,0.23009 -1.17099,0.33796 -0.004,0.004 -0.008,0.008 -0.0119,0.0124 0.0346,0.32682 0.0817,0.65359 0.10904,0.9803 0.0758,0.0465 0.0948,0.10797 0.0971,0.25115 0.12904,0.11461 0.26307,0.26135 0.40617,0.4532 0.14461,0.19389 -0.0369,0.48495 -0.0987,0.71882 -0.0266,0.10053 -0.058,0.26065 -0.16174,0.26665 -0.37763,0.0235 -0.75408,-0.0294 -1.13069,-0.0822 0.13621,0.11832 0.25648,0.21701 0.36226,0.29817 0.0631,-0.0322 0.12548,-0.0662 0.19017,-0.0951 0.40102,-0.17917 0.96304,0.97999 -0.19017,0.0951 -0.15318,0.0782 -0.30454,0.16075 -0.45734,0.23978 -0.34256,0.1619 -0.68087,0.33187 -1.02733,0.48524 -0.5631,0.24928 -1.1445,0.45644 -1.71307,0.69298 -0.79212,0.32954 -0.74498,0.35048 -1.67329,0.63562 -0.0663,0.0207 -0.1377,0.0158 -0.2067,0.0238 -0.0548,0.003 -0.11115,-5.3e-4 -0.16485,0.0114 -0.13518,0.0301 -0.26635,0.11678 -0.39997,0.14211 -0.56466,0.40876 -1.13757,0.80554 -1.71979,1.18752 -1.49089,-0.2514 -1.90328,0.12739 -0.9617,-1.91978 0.11857,-0.25781 0.94669,-0.61947 1.34927,-0.74362 0.0663,-0.22079 0.17115,-0.42759 0.27337,-0.58446 0.11132,-0.17084 0.2998,-0.27659 0.44958,-0.41496 0.28047,-0.16394 0.54654,-0.35537 0.84129,-0.49196 0.008,-0.004 0.0329,-0.011 0.0424,-0.015 0.0598,-0.0538 0.11767,-0.10982 0.17725,-0.16381 -0.11267,-0.007 -0.22603,-0.0185 -0.3359,-0.002 -0.12741,0.0197 -0.25361,0.0472 -0.38034,0.0708 -0.49085,0.41765 -0.98441,0.83177 -1.48776,1.233 -0.10508,0.0838 -0.2251,0.14747 -0.33745,0.22117 -0.99573,0.25637 -1.24416,0.53804 -1.51567,-0.478 -1.20482,0.9818 -2.48804,1.84674 -3.7946,2.68769 -0.4903,-0.15302 -1.07484,-0.13226 -1.47123,-0.45889 -0.20761,-0.17107 -0.098,-0.53794 -0.0625,-0.8046 0.0536,-0.40244 0.45012,-0.94214 0.66766,-1.24747 0.10986,-0.15419 0.17476,-0.24348 0.25167,-0.35037 -0.25748,0.20947 -0.51775,0.41531 -0.78445,0.61289 -0.0903,0.0669 -0.205,0.25424 -0.2868,0.17725 -0.47546,-0.44716 -0.7894,-1.03963 -1.18391,-1.5596 0.0996,-0.12548 0.17797,-0.27144 0.29869,-0.37672 0.11738,-0.10237 0.23943,-0.1935 0.3638,-0.27957 0.11359,-0.27332 0.34078,-0.55339 0.6165,-0.83974 0.6667,-0.73273 1.30728,-1.48963 1.99523,-2.20245 1.14138,-1.18262 0.90887,-1.16794 1.75338,-1.57768 0.14943,-0.0725 0.28617,-0.19706 0.45165,-0.21136 0.0811,-0.007 0.16186,-0.007 0.24288,-0.002 z m -0.62477,0.76326 c -0.0154,-0.008 -0.0879,0.12649 -0.0744,0.17776 0.005,0.0174 0.0118,0.0339 0.017,0.0512 0.0321,-0.0704 0.0548,-0.14279 0.0599,-0.216 5.3e-4,-0.008 -2.7e-4,-0.0118 -0.003,-0.0129 z m 6.68642,0.0961 c -0.0783,0.008 -0.19887,0.11286 -0.20412,0.18965 -0.0126,0.19387 -0.0298,0.39928 -0.0357,0.60306 0.0688,-0.0275 0.13918,-0.0515 0.21032,-0.0739 -0.0921,-0.36993 -0.048,-0.58954 0.092,-0.68161 -0.001,-0.003 -0.003,-0.006 -0.004,-0.009 -0.0109,-0.0232 -0.0323,-0.0312 -0.0584,-0.0284 z m 5.06791,0.27388 c -0.005,0.002 -0.008,0.005 -0.009,0.0104 -0.008,0.0372 -0.0165,0.0752 -0.0248,0.11265 0.0458,-0.0169 0.0961,-0.0333 0.13694,-0.0506 0.0345,-0.0146 -0.0705,-0.0835 -0.10335,-0.0724 z m -3.77032,0.52658 c -0.0281,0.005 -0.0751,0.006 -0.11782,0.009 -0.002,0.0541 -0.006,0.10828 -0.0119,0.16278 0.018,0.0206 0.0365,0.0407 0.0548,0.061 0.007,0.004 0.0176,0.009 0.0243,0.0129 0.0547,-0.004 0.081,-0.005 0.13487,-0.009 -0.0472,-0.0562 -0.0946,-0.11967 -0.13694,-0.19482 -0.011,-0.0195 0.0748,-0.0459 0.0527,-0.0419 z m 0.76998,5.03329 c -0.0819,0.051 -0.0746,0.0586 0.0408,0.0522 -0.0144,-0.0154 -0.0268,-0.0357 -0.0408,-0.0522 z m -4.24677,2.18798 c -0.0154,10e-4 -0.0441,0.011 -0.0661,0.016 -0.007,0.004 -0.0146,0.007 -0.0217,0.0114 0.0293,-0.009 0.11855,-0.0304 0.0879,-0.0274 z" />
    </clipPath>
    <clipPath
       clipPathUnits="userSpaceOnUse"
       id="clipPath1496">
      <path
         id="path1498"
         style="fill:#ff0000;fill-opacity:1;fill-rule:nonzero;stroke:none;stroke-width:0.264583"
         d="m 156.52016,174.87459 v 32.83521 h 39.12526 v -32.83521 z m 13.6002,16.60933 c 0.24307,0.0141 0.48612,0.0687 0.72916,0.0909 0.15281,0.26149 0.36469,0.49696 0.47645,0.77618 0.14542,-0.0359 0.35106,-0.10074 0.74363,-0.25942 0.182,-0.0736 0.32067,-0.31104 0.51521,-0.28474 1.19247,0.16106 1.11184,0.22354 1.34204,0.8878 0.006,0.057 0.015,0.1137 0.0233,0.17054 0.0314,-0.0174 0.0671,-0.0405 0.0966,-0.0558 0.1001,-0.052 0.20762,-0.15783 0.31523,-0.12403 0.3506,0.11021 0.60407,0.19549 0.79736,0.28577 0.11208,-0.12185 0.22826,-0.23845 0.36019,-0.33641 0.18879,-0.14019 0.40794,-0.23378 0.61185,-0.35088 0.35685,0.0434 0.88476,-0.1779 1.07073,0.12971 0.0496,0.0819 0.0821,0.17114 0.10801,0.26251 0.10696,0.0706 0.21595,0.14742 0.32556,0.23513 0.16565,0.14785 0.29446,0.29195 0.39739,0.4377 0.27574,-0.0186 0.63687,-0.0431 0.78032,-0.0527 0.24102,-0.0489 0.65453,-0.12488 1.0666,-0.20877 0.21735,-0.18754 0.43613,-0.37374 0.65215,-0.56276 0.196,-0.0846 0.375,-0.24053 0.58808,-0.25373 1.24982,-0.0772 1.88769,0.0565 1.51515,1.70791 -0.0678,0.30033 -0.44932,0.43499 -0.72553,0.57102 -0.22619,0.1114 -0.68185,0.23009 -1.17099,0.33796 -0.004,0.004 -0.008,0.008 -0.0119,0.0124 0.0346,0.32682 0.0817,0.65359 0.10904,0.9803 0.0758,0.0465 0.0948,0.10797 0.0971,0.25115 0.12904,0.11461 0.26307,0.26135 0.40617,0.4532 0.14461,0.19389 -0.0369,0.48495 -0.0987,0.71882 -0.0266,0.10053 -0.058,0.26065 -0.16174,0.26665 -0.37763,0.0235 -0.75408,-0.0294 -1.13069,-0.0822 0.13621,0.11832 0.25648,0.21701 0.36226,0.29817 0.0631,-0.0322 0.12548,-0.0662 0.19017,-0.0951 0.40102,-0.17917 0.96304,0.97999 -0.19017,0.0951 -0.15318,0.0782 -0.30454,0.16075 -0.45734,0.23978 -0.34256,0.1619 -0.68087,0.33187 -1.02733,0.48524 -0.5631,0.24928 -1.1445,0.45644 -1.71307,0.69298 -0.79212,0.32954 -0.74498,0.35048 -1.67329,0.63562 -0.0663,0.0207 -0.1377,0.0158 -0.2067,0.0238 -0.0548,0.003 -0.11115,-5.3e-4 -0.16485,0.0114 -0.13518,0.0301 -0.26635,0.11678 -0.39997,0.14211 -0.56466,0.40876 -1.13757,0.80554 -1.71979,1.18752 -1.49089,-0.2514 -1.90328,0.12739 -0.9617,-1.91978 0.11857,-0.25781 0.94669,-0.61947 1.34927,-0.74362 0.0663,-0.22079 0.17115,-0.42759 0.27337,-0.58446 0.11132,-0.17084 0.2998,-0.27659 0.44958,-0.41496 0.28047,-0.16394 0.54654,-0.35537 0.84129,-0.49196 0.008,-0.004 0.0329,-0.011 0.0424,-0.015 0.0598,-0.0538 0.11767,-0.10982 0.17725,-0.16381 -0.11267,-0.007 -0.22603,-0.0185 -0.3359,-0.002 -0.12741,0.0197 -0.25361,0.0472 -0.38034,0.0708 -0.49085,0.41765 -0.98441,0.83177 -1.48776,1.233 -0.10508,0.0838 -0.2251,0.14747 -0.33745,0.22117 -0.99573,0.25637 -1.24416,0.53804 -1.51567,-0.478 -1.20482,0.9818 -2.48804,1.84674 -3.7946,2.68769 -0.4903,-0.15302 -1.07484,-0.13226 -1.47123,-0.45889 -0.20761,-0.17107 -0.098,-0.53794 -0.0625,-0.8046 0.0536,-0.40244 0.45012,-0.94214 0.66766,-1.24747 0.10986,-0.15419 0.17476,-0.24348 0.25167,-0.35037 -0.25748,0.20947 -0.51775,0.41531 -0.78445,0.61289 -0.0903,0.0669 -0.205,0.25424 -0.2868,0.17725 -0.47546,-0.44716 -0.7894,-1.03963 -1.18391,-1.5596 0.0996,-0.12548 0.17797,-0.27144 0.29869,-0.37672 0.11738,-0.10237 0.23943,-0.1935 0.3638,-0.27957 0.11359,-0.27332 0.34078,-0.55339 0.6165,-0.83974 0.6667,-0.73273 1.30728,-1.48963 1.99523,-2.20245 1.14138,-1.18262 0.90887,-1.16794 1.75338,-1.57768 0.14943,-0.0725 0.28617,-0.19706 0.45165,-0.21136 0.0811,-0.007 0.16186,-0.007 0.24288,-0.002 z m -0.62477,0.76326 c -0.0154,-0.008 -0.0879,0.12649 -0.0744,0.17776 0.005,0.0174 0.0118,0.0339 0.017,0.0512 0.0321,-0.0704 0.0548,-0.14279 0.0599,-0.216 5.3e-4,-0.008 -2.7e-4,-0.0118 -0.003,-0.0129 z m 6.68642,0.0961 c -0.0783,0.008 -0.19887,0.11286 -0.20412,0.18965 -0.0126,0.19387 -0.0298,0.39928 -0.0357,0.60306 0.0688,-0.0275 0.13918,-0.0515 0.21032,-0.0739 -0.0921,-0.36993 -0.048,-0.58954 0.092,-0.68161 -0.001,-0.003 -0.003,-0.006 -0.004,-0.009 -0.0109,-0.0232 -0.0323,-0.0312 -0.0584,-0.0284 z m 5.06791,0.27388 c -0.005,0.002 -0.008,0.005 -0.009,0.0104 -0.008,0.0372 -0.0165,0.0752 -0.0248,0.11265 0.0458,-0.0169 0.0961,-0.0333 0.13694,-0.0506 0.0345,-0.0146 -0.0705,-0.0835 -0.10335,-0.0724 z m -3.77032,0.52658 c -0.0281,0.005 -0.0751,0.006 -0.11782,0.009 -0.002,0.0541 -0.006,0.10828 -0.0119,0.16278 0.018,0.0206 0.0365,0.0407 0.0548,0.061 0.007,0.004 0.0176,0.009 0.0243,0.0129 0.0547,-0.004 0.081,-0.005 0.13487,-0.009 -0.0472,-0.0562 -0.0946,-0.11967 -0.13694,-0.19482 -0.011,-0.0195 0.0748,-0.0459 0.0527,-0.0419 z m 0.76998,5.03329 c -0.0819,0.051 -0.0746,0.0586 0.0408,0.0522 -0.0144,-0.0154 -0.0268,-0.0357 -0.0408,-0.0522 z m -4.24677,2.18798 c -0.0154,10e-4 -0.0441,0.011 -0.0661,0.016 -0.007,0.004 -0.0146,0.007 -0.0217,0.0114 0.0293,-0.009 0.11855,-0.0304 0.0879,-0.0274 z" />
    </clipPath>
    <clipPath
       clipPathUnits="userSpaceOnUse"
       id="clipPath1532">
      <path
         id="path1534"
         style="fill:#ff0000;fill-opacity:1;fill-rule:nonzero;stroke:none;stroke-width:0.264583"
         d="m 152.74814,194.61578 h 24.64233 v 60.00002 h -24.64233 z" />
    </clipPath>
    <clipPath
       clipPathUnits="userSpaceOnUse"
       id="clipPath1540">
      <path
         id="path1542"
         style="fill:#ff0000;fill-opacity:1;fill-rule:nonzero;stroke:none;stroke-width:0.264583"
         d="m 126.62772,192.71906 h 50.76274 v 51.21289 h -50.76274 z" />
    </clipPath>
    <clipPath
       clipPathUnits="userSpaceOnUse"
       id="clipPath1548">
      <path
         id="path1550"
         style="fill:#ff0000;fill-opacity:1;fill-rule:nonzero;stroke:none;stroke-width:0.264583"
         d="m 167.15546,194.78055 h 25.25699 v 59.99999 h -25.25699 z" />
    </clipPath>
    <clipPath
       clipPathUnits="userSpaceOnUse"
       id="clipPath1556">
      <path
         id="path1558"
         style="fill:#ff0000;fill-opacity:1;fill-rule:nonzero;stroke:none;stroke-width:0.264583"
         d="m 167.15546,192.71906 h 51.21288 v 50.76272 h -51.21288 z" />
    </clipPath>
    <clipPath
       clipPathUnits="userSpaceOnUse"
       id="clipPath1564">
      <path
         id="path1566"
         style="fill:#ff0000;fill-opacity:1;fill-rule:nonzero;stroke:none;stroke-width:0.264583"
         d="m 120.0863,192.71907 h 104.37289 v 42.40462 H 120.0863 Z" />
    </clipPath>
    <clipPath
       clipPathUnits="userSpaceOnUse"
       id="clipPath1564-3">
      <path
         id="path1566-8"
         style="fill:#ff0000;fill-opacity:1;fill-rule:nonzero;stroke:none;stroke-width:0.264583"
         d="m 120.0863,192.71907 h 104.37289 v 42.40462 H 120.0863 Z" />
    </clipPath>
    <clipPath
       clipPathUnits="userSpaceOnUse"
       id="clipPath1717">
      <path
         id="path1719"
         style="fill:#ff0000;fill-opacity:1;fill-rule:nonzero;stroke:none"
         d="M 379.60309,399.87802 H 829.45117 V 962.95309 H 379.60309 Z" />
    </clipPath>
    <clipPath
       clipPathUnits="userSpaceOnUse"
       id="clipPath1725">
      <rect
         style="fill:#ff0000;fill-opacity:1;fill-rule:nonzero;stroke:none;stroke-width:0.264583"
         id="rect1727"
         width="8.0663691"
         height="3.0264497"
         x="181.62561"
         y="216.4539" />
    </clipPath>
    <clipPath
       clipPathUnits="userSpaceOnUse"
       id="clipPath1717-7">
      <path
         id="path1719-8"
         style="fill:#ff0000;fill-opacity:1;fill-rule:nonzero;stroke:none"
         d="M 379.60309,399.87802 H 829.45117 V 962.95309 H 379.60309 Z" />
    </clipPath>
    <clipPath
       clipPathUnits="userSpaceOnUse"
       id="clipPath1947">
      <path
         id="path1945"
         style="fill:#ff0000;fill-opacity:1;fill-rule:nonzero;stroke:none"
         d="M 379.60309,399.87802 H 829.45117 V 962.95309 H 379.60309 Z" />
    </clipPath>
    <clipPath
       clipPathUnits="userSpaceOnUse"
       id="clipPath1951">
      <path
         id="path1949"
         style="fill:#ff0000;fill-opacity:1;fill-rule:nonzero;stroke:none"
         d="M 379.60309,399.87802 H 829.45117 V 962.95309 H 379.60309 Z" />
    </clipPath>
    <clipPath
       clipPathUnits="userSpaceOnUse"
       id="clipPath1955">
      <path
         id="path1953"
         style="fill:#ff0000;fill-opacity:1;fill-rule:nonzero;stroke:none"
         d="M 379.60309,399.87802 H 829.45117 V 962.95309 H 379.60309 Z" />
    </clipPath>
    <clipPath
       clipPathUnits="userSpaceOnUse"
       id="clipPath1564-3-3">
      <path
         id="path1566-8-1"
         style="fill:#ff0000;fill-opacity:1;fill-rule:nonzero;stroke:none;stroke-width:0.264583"
         d="m 120.0863,192.71907 h 104.37289 v 42.40462 H 120.0863 Z" />
    </clipPath>
    <clipPath
       clipPathUnits="userSpaceOnUse"
       id="clipPath1717-74">
      <path
         id="path1719-5"
         style="fill:#ff0000;fill-opacity:1;fill-rule:nonzero;stroke:none"
         d="M 379.60309,399.87802 H 829.45117 V 962.95309 H 379.60309 Z" />
    </clipPath>
    <clipPath
       clipPathUnits="userSpaceOnUse"
       id="clipPath2010">
      <path
         id="path2008"
         style="fill:#ff0000;fill-opacity:1;fill-rule:nonzero;stroke:none"
         d="M 379.60309,399.87802 H 829.45117 V 962.95309 H 379.60309 Z" />
    </clipPath>
    <clipPath
       clipPathUnits="userSpaceOnUse"
       id="clipPath1717-6">
      <path
         id="path1719-4"
         style="fill:#ff0000;fill-opacity:1;fill-rule:nonzero;stroke:none"
         d="M 379.60309,399.87802 H 829.45117 V 962.95309 H 379.60309 Z" />
    </clipPath>
    <clipPath
       clipPathUnits="userSpaceOnUse"
       id="clipPath2042">
      <path
         id="path2040"
         style="fill:#ff0000;fill-opacity:1;fill-rule:nonzero;stroke:none"
         d="M 379.60309,399.87802 H 829.45117 V 962.95309 H 379.60309 Z" />
    </clipPath>
    <clipPath
       clipPathUnits="userSpaceOnUse"
       id="clipPath2046">
      <path
         id="path2044"
         style="fill:#ff0000;fill-opacity:1;fill-rule:nonzero;stroke:none"
         d="M 379.60309,399.87802 H 829.45117 V 962.95309 H 379.60309 Z" />
    </clipPath>
    <clipPath
       clipPathUnits="userSpaceOnUse"
       id="clipPath1717-74-2">
      <path
         id="path1719-5-0"
         style="fill:#ff0000;fill-opacity:1;fill-rule:nonzero;stroke:none"
         d="M 379.60309,399.87802 H 829.45117 V 962.95309 H 379.60309 Z" />
    </clipPath>
    <clipPath
       clipPathUnits="userSpaceOnUse"
       id="clipPath2052">
      <path
         id="path2050"
         style="fill:#ff0000;fill-opacity:1;fill-rule:nonzero;stroke:none"
         d="M 379.60309,399.87802 H 829.45117 V 962.95309 H 379.60309 Z" />
    </clipPath>
    <clipPath
       clipPathUnits="userSpaceOnUse"
       id="clipPath1564-3-37">
      <path
         id="path1566-8-3"
         style="fill:#ff0000;fill-opacity:1;fill-rule:nonzero;stroke:none;stroke-width:0.264583"
         d="m 120.0863,192.71907 h 104.37289 v 42.40462 H 120.0863 Z" />
    </clipPath>
    <clipPath
       clipPathUnits="userSpaceOnUse"
       id="clipPath1717-4">
      <path
         id="path1719-2"
         style="fill:#ff0000;fill-opacity:1;fill-rule:nonzero;stroke:none"
         d="M 379.60309,399.87802 H 829.45117 V 962.95309 H 379.60309 Z" />
    </clipPath>
    <clipPath
       clipPathUnits="userSpaceOnUse"
       id="clipPath2042-1">
      <path
         id="path2040-9"
         style="fill:#ff0000;fill-opacity:1;fill-rule:nonzero;stroke:none"
         d="M 379.60309,399.87802 H 829.45117 V 962.95309 H 379.60309 Z" />
    </clipPath>
    <clipPath
       clipPathUnits="userSpaceOnUse"
       id="clipPath2046-7">
      <path
         id="path2044-8"
         style="fill:#ff0000;fill-opacity:1;fill-rule:nonzero;stroke:none"
         d="M 379.60309,399.87802 H 829.45117 V 962.95309 H 379.60309 Z" />
    </clipPath>
    <clipPath
       clipPathUnits="userSpaceOnUse"
       id="clipPath1717-74-7">
      <path
         id="path1719-5-08"
         style="fill:#ff0000;fill-opacity:1;fill-rule:nonzero;stroke:none"
         d="M 379.60309,399.87802 H 829.45117 V 962.95309 H 379.60309 Z" />
    </clipPath>
    <clipPath
       clipPathUnits="userSpaceOnUse"
       id="clipPath2052-4">
      <path
         id="path2050-2"
         style="fill:#ff0000;fill-opacity:1;fill-rule:nonzero;stroke:none"
         d="M 379.60309,399.87802 H 829.45117 V 962.95309 H 379.60309 Z" />
    </clipPath>
    <clipPath
       clipPathUnits="userSpaceOnUse"
       id="clipPath1564-3-7">
      <path
         id="path1566-8-0"
         style="fill:#ff0000;fill-opacity:1;fill-rule:nonzero;stroke:none;stroke-width:0.264583"
         d="m 120.0863,192.71907 h 104.37289 v 42.40462 H 120.0863 Z" />
    </clipPath>
    <clipPath
       clipPathUnits="userSpaceOnUse"
       id="clipPath1564-3-2">
      <path
         id="path1566-8-7"
         style="fill:#ff0000;fill-opacity:1;fill-rule:nonzero;stroke:none;stroke-width:0.264583"
         d="m 120.0863,192.71907 h 104.37289 v 42.40462 H 120.0863 Z" />
    </clipPath>
  </defs>
  <sodipodi:namedview
     id="base"
     pagecolor="#ffffff"
     bordercolor="#666666"
     borderopacity="1.0"
     inkscape:pageopacity="0"
     inkscape:pageshadow="2"
     inkscape:zoom="4"
     inkscape:cx="1037.3644"
     inkscape:cy="239.75589"
     inkscape:document-units="mm"
     inkscape:current-layer="layer1"
     inkscape:document-rotation="0"
     showgrid="false"
     showguides="false"
     inkscape:guide-bbox="true"
     inkscape:snap-to-guides="true"
     inkscape:snap-bbox="true"
     inkscape:snap-smooth-nodes="true"
     inkscape:snap-midpoints="true"
     inkscape:object-nodes="false"
     inkscape:object-paths="false"
     inkscape:snap-intersection-paths="false"
     inkscape:bbox-nodes="true"
     inkscape:snap-bbox-edge-midpoints="false"
     inkscape:bbox-paths="false"
     inkscape:snap-bbox-midpoints="false"
     inkscape:window-width="1920"
     inkscape:window-height="1027"
     inkscape:window-x="-8"
     inkscape:window-y="-8"
     inkscape:window-maximized="1"
     inkscape:snap-nodes="true"
     inkscape:snap-global="true"
     inkscape:snap-object-midpoints="true"
     inkscape:snap-center="true"
     inkscape:snap-others="false" />
  <metadata
     id="metadata5">
    <rdf:RDF>
      <cc:Work
         rdf:about="">
        <dc:format>image/svg+xml</dc:format>
        <dc:type
           rdf:resource="http://purl.org/dc/dcmitype/StillImage" />
        <dc:title></dc:title>
      </cc:Work>
    </rdf:RDF>
  </metadata>
  <g
     inkscape:label="Livello 1"
     inkscape:groupmode="layer"
     id="layer1"
     style="display:inline"
     transform="translate(-100.09021,-218.19527)">
    <path
       id="path1570"
       clip-path="url(#clipPath1717)"
       style="color:#000000;font-style:normal;font-variant:normal;font-weight:normal;font-stretch:normal;font-size:medium;line-height:normal;font-family:sans-serif;font-variant-ligatures:normal;font-variant-position:normal;font-variant-caps:normal;font-variant-numeric:normal;font-variant-alternates:normal;font-variant-east-asian:normal;font-feature-settings:normal;font-variation-settings:normal;text-indent:0;text-align:start;text-decoration:none;text-decoration-line:none;text-decoration-style:solid;text-decoration-color:#000000;letter-spacing:normal;word-spacing:normal;text-transform:none;writing-mode:lr-tb;direction:ltr;text-orientation:mixed;dominant-baseline:auto;baseline-shift:baseline;text-anchor:start;white-space:normal;shape-padding:0;shape-margin:0;inline-size:0;clip-rule:nonzero;display:inline;overflow:visible;visibility:visible;opacity:1;isolation:auto;mix-blend-mode:normal;color-interpolation:sRGB;color-interpolation-filters:linearRGB;solid-color:#000000;solid-opacity:1;vector-effect:none;fill:#f5f5f5;fill-opacity:1;fill-rule:nonzero;stroke:none;stroke-width:35.9957;stroke-linecap:round;stroke-linejoin:miter;stroke-miterlimit:4;stroke-dasharray:none;stroke-dashoffset:0;stroke-opacity:1;color-rendering:auto;image-rendering:auto;shape-rendering:auto;text-rendering:auto;enable-background:accumulate;stop-color:#000000;stop-opacity:1"
       d="m 600.83008,863.09375 -22.79883,76.12891 c -2.85156,9.52147 2.55495,19.55189 12.07617,22.40429 9.52147,2.85156 19.5519,-2.55495 22.4043,-12.07617 l 24.125,-80.33594 c -12.0792,-0.92213 -24.12081,-2.94316 -35.80664,-6.12109 z"
       transform="matrix(0.26458333,0,0,0.26458333,-19.996095,27.023414)" />
    <path
       id="path1932"
       clip-path="url(#clipPath1717)"
       style="color:#000000;font-style:normal;font-variant:normal;font-weight:normal;font-stretch:normal;font-size:medium;line-height:normal;font-family:sans-serif;font-variant-ligatures:normal;font-variant-position:normal;font-variant-caps:normal;font-variant-numeric:normal;font-variant-alternates:normal;font-variant-east-asian:normal;font-feature-settings:normal;font-variation-settings:normal;text-indent:0;text-align:start;text-decoration:none;text-decoration-line:none;text-decoration-style:solid;text-decoration-color:#000000;letter-spacing:normal;word-spacing:normal;text-transform:none;writing-mode:lr-tb;direction:ltr;text-orientation:mixed;dominant-baseline:auto;baseline-shift:baseline;text-anchor:start;white-space:normal;shape-padding:0;shape-margin:0;inline-size:0;clip-rule:nonzero;display:inline;overflow:visible;visibility:visible;opacity:1;isolation:auto;mix-blend-mode:normal;color-interpolation:sRGB;color-interpolation-filters:linearRGB;solid-color:#000000;solid-opacity:1;vector-effect:none;fill:none;fill-opacity:1;fill-rule:nonzero;stroke:none;stroke-width:35.9957;stroke-linecap:round;stroke-linejoin:miter;stroke-miterlimit:4;stroke-dasharray:none;stroke-dashoffset:0;stroke-opacity:1;color-rendering:auto;image-rendering:auto;shape-rendering:auto;text-rendering:auto;enable-background:accumulate;stop-color:#000000;stop-opacity:1"
       d="m 700.91992,863.08984 c -11.68724,3.24276 -22.09625,5.05708 -34.18945,6.03907 l 25.29297,81.17187 c 2.96105,9.4936 13.05636,14.79044 22.55078,11.83203 9.49673,-2.95771 14.79763,-13.05407 11.83984,-22.55078 z"
       transform="matrix(0.26458333,0,0,0.26458333,-19.996095,27.023414)" />
    <path
       id="path1930"
       clip-path="url(#clipPath1717)"
       style="color:#000000;font-style:normal;font-variant:normal;font-weight:normal;font-stretch:normal;font-size:medium;line-height:normal;font-family:sans-serif;font-variant-ligatures:normal;font-variant-position:normal;font-variant-caps:normal;font-variant-numeric:normal;font-variant-alternates:normal;font-variant-east-asian:normal;font-feature-settings:normal;font-variation-settings:normal;text-indent:0;text-align:start;text-decoration:none;text-decoration-line:none;text-decoration-style:solid;text-decoration-color:#000000;letter-spacing:normal;word-spacing:normal;text-transform:none;writing-mode:lr-tb;direction:ltr;text-orientation:mixed;dominant-baseline:auto;baseline-shift:baseline;text-anchor:start;white-space:normal;shape-padding:0;shape-margin:0;inline-size:0;clip-rule:nonzero;display:inline;overflow:visible;visibility:visible;opacity:1;isolation:auto;mix-blend-mode:normal;color-interpolation:sRGB;color-interpolation-filters:linearRGB;solid-color:#000000;solid-opacity:1;vector-effect:none;fill:#f5f5f5;fill-opacity:1;fill-rule:nonzero;stroke:none;stroke-width:35.9957;stroke-linecap:round;stroke-linejoin:miter;stroke-miterlimit:4;stroke-dasharray:none;stroke-dashoffset:0;stroke-opacity:1;color-rendering:auto;image-rendering:auto;shape-rendering:auto;text-rendering:auto;enable-background:accumulate;stop-color:#000000;stop-opacity:1"
       d="m 539.54492,833.87891 -55.53711,56.14843 c -7.27588,7.35913 -7.20942,19.22284 0.14844,26.5 7.35644,7.27855 19.22013,7.21647 26.5,-0.13867 l 62.52148,-63.21289 c -11.84248,-5.27687 -23.10912,-11.7452 -33.63281,-19.29687 z"
       transform="matrix(0.2643163,0,0,0.26458333,-19.868296,27.023414)" />
    <path
       id="path1570-5"
       clip-path="url(#clipPath1717-74)"
       style="color:#000000;font-style:normal;font-variant:normal;font-weight:normal;font-stretch:normal;font-size:medium;line-height:normal;font-family:sans-serif;font-variant-ligatures:normal;font-variant-position:normal;font-variant-caps:normal;font-variant-numeric:normal;font-variant-alternates:normal;font-variant-east-asian:normal;font-feature-settings:normal;font-variation-settings:normal;text-indent:0;text-align:start;text-decoration:none;text-decoration-line:none;text-decoration-style:solid;text-decoration-color:#000000;letter-spacing:normal;word-spacing:normal;text-transform:none;writing-mode:lr-tb;direction:ltr;text-orientation:mixed;dominant-baseline:auto;baseline-shift:baseline;text-anchor:start;white-space:normal;shape-padding:0;shape-margin:0;inline-size:0;clip-rule:nonzero;display:inline;overflow:visible;visibility:visible;opacity:1;isolation:auto;mix-blend-mode:normal;color-interpolation:sRGB;color-interpolation-filters:linearRGB;solid-color:#000000;solid-opacity:1;vector-effect:none;fill:#f5f5f5;fill-opacity:1;fill-rule:nonzero;stroke:none;stroke-width:35.9957;stroke-linecap:round;stroke-linejoin:miter;stroke-miterlimit:4;stroke-dasharray:none;stroke-dashoffset:0;stroke-opacity:1;color-rendering:auto;image-rendering:auto;shape-rendering:auto;text-rendering:auto;enable-background:accumulate;stop-color:#000000;stop-opacity:1"
       d="m 600.83008,863.09375 -22.79883,76.12891 c -2.85156,9.52147 2.55495,19.55189 12.07617,22.40429 9.52147,2.85156 19.5519,-2.55495 22.4043,-12.07617 l 24.125,-80.33594 c -12.0792,-0.92213 -24.12081,-2.94316 -35.80664,-6.12109 z"
       transform="matrix(-0.26458333,0,0,0.26458333,324.78183,27.070439)" />
    <path
       id="path1930-3"
       clip-path="url(#clipPath1717-74)"
       style="color:#000000;font-style:normal;font-variant:normal;font-weight:normal;font-stretch:normal;font-size:medium;line-height:normal;font-family:sans-serif;font-variant-ligatures:normal;font-variant-position:normal;font-variant-caps:normal;font-variant-numeric:normal;font-variant-alternates:normal;font-variant-east-asian:normal;font-feature-settings:normal;font-variation-settings:normal;text-indent:0;text-align:start;text-decoration:none;text-decoration-line:none;text-decoration-style:solid;text-decoration-color:#000000;letter-spacing:normal;word-spacing:normal;text-transform:none;writing-mode:lr-tb;direction:ltr;text-orientation:mixed;dominant-baseline:auto;baseline-shift:baseline;text-anchor:start;white-space:normal;shape-padding:0;shape-margin:0;inline-size:0;clip-rule:nonzero;display:inline;overflow:visible;visibility:visible;opacity:1;isolation:auto;mix-blend-mode:normal;color-interpolation:sRGB;color-interpolation-filters:linearRGB;solid-color:#000000;solid-opacity:1;vector-effect:none;fill:#f5f5f5;fill-opacity:1;fill-rule:nonzero;stroke:none;stroke-width:35.9957;stroke-linecap:round;stroke-linejoin:miter;stroke-miterlimit:4;stroke-dasharray:none;stroke-dashoffset:0;stroke-opacity:1;color-rendering:auto;image-rendering:auto;shape-rendering:auto;text-rendering:auto;enable-background:accumulate;stop-color:#000000;stop-opacity:1"
       d="m 539.54492,833.87891 -55.53711,56.14843 c -7.27588,7.35913 -7.20942,19.22284 0.14844,26.5 7.35644,7.27855 19.22013,7.21647 26.5,-0.13867 l 62.52148,-63.21289 c -11.84248,-5.27687 -23.10912,-11.7452 -33.63281,-19.29687 z"
       transform="matrix(-0.2643163,0,0,0.26458333,324.65403,27.070439)" />
    <path
       id="path1570-9"
       clip-path="url(#clipPath1717-4)"
       style="color:#000000;font-style:normal;font-variant:normal;font-weight:normal;font-stretch:normal;font-size:medium;line-height:normal;font-family:sans-serif;font-variant-ligatures:normal;font-variant-position:normal;font-variant-caps:normal;font-variant-numeric:normal;font-variant-alternates:normal;font-variant-east-asian:normal;font-feature-settings:normal;font-variation-settings:normal;text-indent:0;text-align:start;text-decoration:none;text-decoration-line:none;text-decoration-style:solid;text-decoration-color:#000000;letter-spacing:normal;word-spacing:normal;text-transform:none;writing-mode:lr-tb;direction:ltr;text-orientation:mixed;dominant-baseline:auto;baseline-shift:baseline;text-anchor:start;white-space:normal;shape-padding:0;shape-margin:0;inline-size:0;clip-rule:nonzero;display:inline;overflow:visible;visibility:visible;opacity:1;isolation:auto;mix-blend-mode:normal;color-interpolation:sRGB;color-interpolation-filters:linearRGB;solid-color:#000000;solid-opacity:1;vector-effect:none;fill:#f5f5f5;fill-opacity:1;fill-rule:nonzero;stroke:none;stroke-width:35.9957;stroke-linecap:round;stroke-linejoin:miter;stroke-miterlimit:4;stroke-dasharray:none;stroke-dashoffset:0;stroke-opacity:1;color-rendering:auto;image-rendering:auto;shape-rendering:auto;text-rendering:auto;enable-background:accumulate;stop-color:#000000;stop-opacity:1"
       d="m 600.83008,863.09375 -22.79883,76.12891 c -2.85156,9.52147 2.55495,19.55189 12.07617,22.40429 9.52147,2.85156 19.5519,-2.55495 22.4043,-12.07617 l 24.125,-80.33594 c -12.0792,-0.92213 -24.12081,-2.94316 -35.80664,-6.12109 z"
       transform="matrix(0.26458333,0,0,0.26458333,175.4506,26.976394)" />
    <path
       id="path1932-4"
       clip-path="url(#clipPath1717-4)"
       style="color:#000000;font-style:normal;font-variant:normal;font-weight:normal;font-stretch:normal;font-size:medium;line-height:normal;font-family:sans-serif;font-variant-ligatures:normal;font-variant-position:normal;font-variant-caps:normal;font-variant-numeric:normal;font-variant-alternates:normal;font-variant-east-asian:normal;font-feature-settings:normal;font-variation-settings:normal;text-indent:0;text-align:start;text-decoration:none;text-decoration-line:none;text-decoration-style:solid;text-decoration-color:#000000;letter-spacing:normal;word-spacing:normal;text-transform:none;writing-mode:lr-tb;direction:ltr;text-orientation:mixed;dominant-baseline:auto;baseline-shift:baseline;text-anchor:start;white-space:normal;shape-padding:0;shape-margin:0;inline-size:0;clip-rule:nonzero;display:inline;overflow:visible;visibility:visible;opacity:1;isolation:auto;mix-blend-mode:normal;color-interpolation:sRGB;color-interpolation-filters:linearRGB;solid-color:#000000;solid-opacity:1;vector-effect:none;fill:none;fill-opacity:1;fill-rule:nonzero;stroke:none;stroke-width:35.9957;stroke-linecap:round;stroke-linejoin:miter;stroke-miterlimit:4;stroke-dasharray:none;stroke-dashoffset:0;stroke-opacity:1;color-rendering:auto;image-rendering:auto;shape-rendering:auto;text-rendering:auto;enable-background:accumulate;stop-color:#000000;stop-opacity:1"
       d="m 700.91992,863.08984 c -11.68724,3.24276 -22.09625,5.05708 -34.18945,6.03907 l 25.29297,81.17187 c 2.96105,9.4936 13.05636,14.79044 22.55078,11.83203 9.49673,-2.95771 14.79763,-13.05407 11.83984,-22.55078 z"
       transform="matrix(0.26458333,0,0,0.26458333,175.4506,26.976394)" />
    <path
       id="path1930-1"
       clip-path="url(#clipPath1717-4)"
       style="color:#000000;font-style:normal;font-variant:normal;font-weight:normal;font-stretch:normal;font-size:medium;line-height:normal;font-family:sans-serif;font-variant-ligatures:normal;font-variant-position:normal;font-variant-caps:normal;font-variant-numeric:normal;font-variant-alternates:normal;font-variant-east-asian:normal;font-feature-settings:normal;font-variation-settings:normal;text-indent:0;text-align:start;text-decoration:none;text-decoration-line:none;text-decoration-style:solid;text-decoration-color:#000000;letter-spacing:normal;word-spacing:normal;text-transform:none;writing-mode:lr-tb;direction:ltr;text-orientation:mixed;dominant-baseline:auto;baseline-shift:baseline;text-anchor:start;white-space:normal;shape-padding:0;shape-margin:0;inline-size:0;clip-rule:nonzero;display:inline;overflow:visible;visibility:visible;opacity:1;isolation:auto;mix-blend-mode:normal;color-interpolation:sRGB;color-interpolation-filters:linearRGB;solid-color:#000000;solid-opacity:1;vector-effect:none;fill:#f5f5f5;fill-opacity:1;fill-rule:nonzero;stroke:none;stroke-width:35.9957;stroke-linecap:round;stroke-linejoin:miter;stroke-miterlimit:4;stroke-dasharray:none;stroke-dashoffset:0;stroke-opacity:1;color-rendering:auto;image-rendering:auto;shape-rendering:auto;text-rendering:auto;enable-background:accumulate;stop-color:#000000;stop-opacity:1"
       d="m 539.54492,833.87891 -55.53711,56.14843 c -7.27588,7.35913 -7.20942,19.22284 0.14844,26.5 7.35644,7.27855 19.22013,7.21647 26.5,-0.13867 l 62.52148,-63.21289 c -11.84248,-5.27687 -23.10912,-11.7452 -33.63281,-19.29687 z"
       transform="matrix(0.2643163,0,0,0.26458333,175.57841,26.976394)" />
    <path
       id="path1570-5-5"
       clip-path="url(#clipPath1717-74-7)"
       style="color:#000000;font-style:normal;font-variant:normal;font-weight:normal;font-stretch:normal;font-size:medium;line-height:normal;font-family:sans-serif;font-variant-ligatures:normal;font-variant-position:normal;font-variant-caps:normal;font-variant-numeric:normal;font-variant-alternates:normal;font-variant-east-asian:normal;font-feature-settings:normal;font-variation-settings:normal;text-indent:0;text-align:start;text-decoration:none;text-decoration-line:none;text-decoration-style:solid;text-decoration-color:#000000;letter-spacing:normal;word-spacing:normal;text-transform:none;writing-mode:lr-tb;direction:ltr;text-orientation:mixed;dominant-baseline:auto;baseline-shift:baseline;text-anchor:start;white-space:normal;shape-padding:0;shape-margin:0;inline-size:0;clip-rule:nonzero;display:inline;overflow:visible;visibility:visible;opacity:1;isolation:auto;mix-blend-mode:normal;color-interpolation:sRGB;color-interpolation-filters:linearRGB;solid-color:#000000;solid-opacity:1;vector-effect:none;fill:#f5f5f5;fill-opacity:1;fill-rule:nonzero;stroke:none;stroke-width:35.9957;stroke-linecap:round;stroke-linejoin:miter;stroke-miterlimit:4;stroke-dasharray:none;stroke-dashoffset:0;stroke-opacity:1;color-rendering:auto;image-rendering:auto;shape-rendering:auto;text-rendering:auto;enable-background:accumulate;stop-color:#000000;stop-opacity:1"
       d="m 600.83008,863.09375 -22.79883,76.12891 c -2.85156,9.52147 2.55495,19.55189 12.07617,22.40429 9.52147,2.85156 19.5519,-2.55495 22.4043,-12.07617 l 24.125,-80.33594 c -12.0792,-0.92213 -24.12081,-2.94316 -35.80664,-6.12109 z"
       transform="matrix(-0.26458333,0,0,0.26458333,520.22855,27.023414)" />
    <path
       id="path1930-3-19"
       clip-path="url(#clipPath1717-74-7)"
       style="color:#000000;font-style:normal;font-variant:normal;font-weight:normal;font-stretch:normal;font-size:medium;line-height:normal;font-family:sans-serif;font-variant-ligatures:normal;font-variant-position:normal;font-variant-caps:normal;font-variant-numeric:normal;font-variant-alternates:normal;font-variant-east-asian:normal;font-feature-settings:normal;font-variation-settings:normal;text-indent:0;text-align:start;text-decoration:none;text-decoration-line:none;text-decoration-style:solid;text-decoration-color:#000000;letter-spacing:normal;word-spacing:normal;text-transform:none;writing-mode:lr-tb;direction:ltr;text-orientation:mixed;dominant-baseline:auto;baseline-shift:baseline;text-anchor:start;white-space:normal;shape-padding:0;shape-margin:0;inline-size:0;clip-rule:nonzero;display:inline;overflow:visible;visibility:visible;opacity:1;isolation:auto;mix-blend-mode:normal;color-interpolation:sRGB;color-interpolation-filters:linearRGB;solid-color:#000000;solid-opacity:1;vector-effect:none;fill:#f5f5f5;fill-opacity:1;fill-rule:nonzero;stroke:none;stroke-width:35.9957;stroke-linecap:round;stroke-linejoin:miter;stroke-miterlimit:4;stroke-dasharray:none;stroke-dashoffset:0;stroke-opacity:1;color-rendering:auto;image-rendering:auto;shape-rendering:auto;text-rendering:auto;enable-background:accumulate;stop-color:#000000;stop-opacity:1"
       d="m 539.54492,833.87891 -55.53711,56.14843 c -7.27588,7.35913 -7.20942,19.22284 0.14844,26.5 7.35644,7.27855 19.22013,7.21647 26.5,-0.13867 l 62.52148,-63.21289 c -11.84248,-5.27687 -23.10912,-11.7452 -33.63281,-19.29687 z"
       transform="matrix(-0.2643163,0,0,0.26458333,520.10072,27.023414)" />
    <path
       style="display:inline;fill:none;stroke:#f5f5f5;stroke-width:10;stroke-linecap:round;stroke-miterlimit:10;stroke-dasharray:none;stroke-opacity:1"
       d="m 125.0863,197.71907 a 50.497097,50.227722 0 0 0 47.14207,32.40457 50.497097,50.227722 0 0 0 47.23082,-32.27646"
       id="path54-4-6"
       clip-path="url(#clipPath1564-3-7)"
       transform="translate(175.4506,25.476204)" />
  </g>
  <g
     inkscape:groupmode="layer"
     id="layer2"
     inkscape:label="Livello 2"
     style="display:inline"
     transform="translate(-100.09021,-218.19527)">
    <path
       style="display:inline;fill:none;stroke:#f5f5f5;stroke-width:10;stroke-linecap:round;stroke-miterlimit:10;stroke-dasharray:none;stroke-opacity:1"
       d="m 125.0863,197.71907 a 50.497097,50.227722 0 0 0 47.14207,32.40457 50.497097,50.227722 0 0 0 47.23082,-32.27646"
       id="path54-4"
       clip-path="url(#clipPath1564-3)"
       transform="translate(-19.996095,25.523222)" />
  </g>
</svg>
