<?xml version="1.0" encoding="UTF-8" standalone="no"?>
<svg
   xmlns:dc="http://purl.org/dc/elements/1.1/"
   xmlns:cc="http://creativecommons.org/ns#"
   xmlns:rdf="http://www.w3.org/1999/02/22-rdf-syntax-ns#"
   xmlns:svg="http://www.w3.org/2000/svg"
   xmlns="http://www.w3.org/2000/svg"
   xmlns:sodipodi="http://sodipodi.sourceforge.net/DTD/sodipodi-0.dtd"
   xmlns:inkscape="http://www.inkscape.org/namespaces/inkscape"
   inkscape:version="1.0 (4035a4fb49, 2020-05-01)"
   sodipodi:docname="nairobi.svg"
   viewBox="0 0 1697.84 703.21332"
   height="703.21332"
   width="1697.84"
   xml:space="preserve"
   id="svg1196"
   version="1.1"><metadata
     id="metadata1202"><rdf:RDF><cc:Work
         rdf:about=""><dc:format>image/svg+xml</dc:format><dc:type
           rdf:resource="http://purl.org/dc/dcmitype/StillImage" /><dc:title></dc:title></cc:Work></rdf:RDF></metadata><defs
     id="defs1200" /><sodipodi:namedview
     inkscape:current-layer="g1206"
     inkscape:window-maximized="1"
     inkscape:window-y="126"
     inkscape:window-x="1912"
     inkscape:cy="277.54624"
     inkscape:cx="2142.0056"
     inkscape:zoom="0.17302382"
     showgrid="false"
     id="namedview1198"
     inkscape:window-height="811"
     inkscape:window-width="1536"
     inkscape:pageshadow="2"
     inkscape:pageopacity="0"
     guidetolerance="10"
     gridtolerance="10"
     objecttolerance="10"
     borderopacity="1"
     bordercolor="#666666"
     pagecolor="#ffffff" /><g
     transform="matrix(1.3333333,0,0,-1.3333333,0,2163.1199)"
     inkscape:label="ink_ext_XXXXXX"
     inkscape:groupmode="layer"
     id="g1204"><g
       transform="scale(0.1)"
       id="g1206"><path
         id="path1208"
         style="fill:#707070;fill-opacity:1;fill-rule:nonzero;stroke:none"
         d="m 0,16497.5 c 15.1289,-1.3 32.7656,-1.3 47.8906,-1.3 44.1133,0 79.3944,16.4 79.3944,84.5 v 672.9 h 138.621 v -662.8 c 0,-176.5 -94.511,-221.8 -199.1091,-221.8 -25.2031,0 -44.1133,0 -66.7969,2.5 v 126" /><path
         id="path1210"
         style="fill:#707070;fill-opacity:1;fill-rule:nonzero;stroke:none"
         d="m 349.082,17041.9 c 0,141.2 74.348,221.8 210.457,221.8 136.106,0 210.449,-80.6 210.449,-221.8 v -458.7 c 0,-141.1 -74.343,-221.8 -210.449,-221.8 -136.109,0 -210.457,80.7 -210.457,221.8 z m 138.621,-467.5 c 0,-63 27.727,-87 71.836,-87 44.106,0 71.828,24 71.828,87 v 476.3 c 0,63.1 -27.722,87 -71.828,87 -44.109,0 -71.836,-23.9 -71.836,-87 v -476.3" /><path
         id="path1212"
         style="fill:#707070;fill-opacity:1;fill-rule:nonzero;stroke:none"
         d="M 998.098,16371.5 H 859.473 v 882.1 h 138.625 v -378 h 157.532 v 378 h 141.14 v -882.1 h -141.14 v 378 H 998.098 v -378" /><path
         id="path1214"
         style="fill:#707070;fill-opacity:1;fill-rule:nonzero;stroke:none"
         d="m 1846.21,16371.5 h -139.88 l -23.95,160 h -170.13 l -23.95,-160 h -127.28 l 141.15,882.1 h 202.9 z m -316.32,279.8 h 133.59 l -65.53,446.1 h -2.53 l -65.53,-446.1" /><path
         id="path1216"
         style="fill:#707070;fill-opacity:1;fill-rule:nonzero;stroke:none"
         d="m 2036.5,17010.4 h -2.52 v -638.9 h -124.76 v 882.1 h 173.92 l 139.88,-528 h 2.52 v 528 h 123.5 v -882.1 h -142.41 l -170.13,638.9" /><path
         id="path1218"
         style="fill:#707070;fill-opacity:1;fill-rule:nonzero;stroke:none"
         d="m 2574.61,17010.4 h -2.52 v -638.9 h -124.77 v 882.1 h 173.92 l 139.89,-528 h 2.51 v 528 h 123.5 v -882.1 h -142.41 l -170.12,638.9" /><path
         id="path1220"
         style="fill:#707070;fill-opacity:1;fill-rule:nonzero;stroke:none"
         d="m 3125.31,16881.9 h 190.3 v -126 h -190.3 v -258.4 h 239.45 v -126 h -378.07 v 882.1 h 378.07 v -126 h -239.45 v -245.7" /><path
         id="path1222"
         style="fill:#707070;fill-opacity:1;fill-rule:nonzero;stroke:none"
         d="m 3636.96,17263.7 c 134.85,0 204.15,-80.6 204.15,-221.8 v -27.7 h -131.06 v 36.5 c 0,63.1 -25.21,87 -69.31,87 -44.11,0 -69.31,-23.9 -69.31,-87 0,-64.2 27.72,-112.1 118.46,-191.5 115.94,-102.1 152.49,-175.2 152.49,-276 0,-141.1 -70.57,-221.8 -206.68,-221.8 -136.11,0 -206.68,80.7 -206.68,221.8 v 54.2 h 131.07 v -63 c 0,-63 27.72,-85.7 71.82,-85.7 44.11,0 71.84,22.7 71.84,85.7 0,64.2 -27.73,112.1 -118.46,191.5 -115.94,102.1 -152.49,175.2 -152.49,276 0,141.2 69.32,221.8 204.16,221.8" /><path
         id="path1224"
         style="fill:#707070;fill-opacity:1;fill-rule:nonzero;stroke:none"
         d="m 4336.38,17050.7 v -31.5 c 0,-90.7 -27.73,-147.4 -89.49,-176.4 v -2.5 c 74.36,-29 103.34,-94.5 103.34,-187.8 v -71.8 c 0,-136.1 -71.83,-209.2 -210.46,-209.2 h -218.01 v 882.1 h 209.2 c 143.66,0 205.42,-66.8 205.42,-202.9 z m -276,76.9 v -233.1 h 54.19 c 51.67,0 83.18,22.7 83.18,93.2 v 49.2 c 0,63 -21.42,90.7 -70.57,90.7 z m 0,-359.1 v -271 h 79.39 c 46.64,0 71.84,21.4 71.84,87 v 76.8 c 0,81.9 -26.47,107.2 -89.47,107.2 h -61.76" /><path
         id="path1226"
         style="fill:#707070;fill-opacity:1;fill-rule:nonzero;stroke:none"
         d="m 4565.72,17253.6 v -680.5 c 0,-63 27.73,-85.7 71.84,-85.7 44.1,0 71.83,22.7 71.83,85.7 v 680.5 h 131.06 v -671.7 c 0,-141.1 -70.57,-221.8 -206.67,-221.8 -136.1,0 -206.68,80.7 -206.68,221.8 v 671.7 h 138.62" /><path
         id="path1228"
         style="fill:#707070;fill-opacity:1;fill-rule:nonzero;stroke:none"
         d="m 5224.81,16371.5 c -7.55,22.7 -12.59,36.5 -12.59,108.4 v 138.6 c 0,81.9 -27.73,112.1 -90.74,112.1 h -47.89 v -359.1 h -138.62 v 882.1 h 209.19 c 143.67,0 205.42,-66.8 205.42,-202.9 v -69.3 c 0,-90.7 -28.98,-148.7 -90.73,-177.7 v -2.5 c 69.31,-29 91.99,-94.5 91.99,-186.5 v -136.1 c 0,-42.8 1.26,-74.4 15.13,-107.1 z m -151.22,756.1 v -270.9 h 54.2 c 51.66,0 83.17,22.7 83.17,93.2 v 87 c 0,63 -21.43,90.7 -70.58,90.7 h -66.79" /><path
         id="path1230"
         style="fill:#707070;fill-opacity:1;fill-rule:nonzero;stroke:none"
         d="m 5649.5,16863 h 194.09 v -279.8 c 0,-141.1 -70.58,-221.8 -206.68,-221.8 -136.11,0 -206.68,80.7 -206.68,221.8 v 458.7 c 0,141.2 70.57,221.8 206.68,221.8 136.1,0 206.68,-80.6 206.68,-221.8 v -85.7 h -131.07 v 94.5 c 0,63.1 -27.72,87 -71.84,87 -44.11,0 -71.83,-23.9 -71.83,-87 v -476.3 c 0,-63 27.72,-85.7 71.83,-85.7 44.12,0 71.84,22.7 71.84,85.7 v 162.5 h -63.02 v 126.1" /><path
         id="path1232"
         style="fill:#707070;fill-opacity:1;fill-rule:nonzero;stroke:none"
         d="m 14344.1,16700.4 v -117.2 c 0,-141.1 -70.6,-221.8 -206.7,-221.8 -136.1,0 -206.7,80.7 -206.7,221.8 v 458.7 c 0,141.2 70.6,221.8 206.7,221.8 136.1,0 206.7,-80.6 206.7,-221.8 v -85.7 H 14213 v 94.5 c 0,63.1 -27.7,87 -71.8,87 -44.1,0 -71.9,-23.9 -71.9,-87 v -476.3 c 0,-63 27.8,-85.7 71.9,-85.7 44.1,0 71.8,22.7 71.8,85.7 v 126 h 131.1" /><path
         id="path1234"
         style="fill:#707070;fill-opacity:1;fill-rule:nonzero;stroke:none"
         d="m 14877.1,16371.5 h -139.9 l -23.9,160 h -170.1 l -24,-160 h -127.3 l 141.2,882.1 h 202.9 z m -316.3,279.8 h 133.6 l -65.6,446.1 h -2.5 l -65.5,-446.1" /><path
         id="path1236"
         style="fill:#707070;fill-opacity:1;fill-rule:nonzero;stroke:none"
         d="m 15127.9,17263.7 c 134.8,0 204.2,-80.6 204.2,-221.8 v -27.7 H 15201 v 36.5 c 0,63.1 -25.2,87 -69.3,87 -44.1,0 -69.3,-23.9 -69.3,-87 0,-64.2 27.7,-112.1 118.4,-191.5 116,-102.1 152.5,-175.2 152.5,-276 0,-141.1 -70.6,-221.8 -206.7,-221.8 -136.1,0 -206.6,80.7 -206.6,221.8 v 54.2 h 131 v -63 c 0,-63 27.8,-85.7 71.9,-85.7 44.1,0 71.8,22.7 71.8,85.7 0,64.2 -27.7,112.1 -118.5,191.5 -115.9,102.1 -152.5,175.2 -152.5,276 0,141.2 69.4,221.8 204.2,221.8" /><path
         id="path1238"
         style="fill:#707070;fill-opacity:1;fill-rule:nonzero;stroke:none"
         d="m 15861.3,16371.5 h -139.8 l -24,160 h -170.1 l -24,-160 h -127.2 l 141.1,882.1 h 202.9 z m -316.3,279.8 h 133.6 l -65.5,446.1 h -2.5 l -65.6,-446.1" /><path
         id="path1240"
         style="fill:#707070;fill-opacity:1;fill-rule:nonzero;stroke:none"
         d="m 16535.6,17050.7 v -31.5 c 0,-90.7 -27.8,-147.4 -89.5,-176.4 v -2.5 c 74.3,-29 103.3,-94.5 103.3,-187.8 v -71.8 c 0,-136.1 -71.8,-209.2 -210.4,-209.2 h -218.1 v 882.1 h 209.2 c 143.7,0 205.5,-66.8 205.5,-202.9 z m -276,76.9 v -233.1 h 54.2 c 51.6,0 83.1,22.7 83.1,93.2 v 49.2 c 0,63 -21.4,90.7 -70.5,90.7 z m 0,-359.1 v -271 h 79.4 c 46.6,0 71.8,21.4 71.8,87 v 76.8 c 0,81.9 -26.5,107.2 -89.5,107.2 h -61.7" /><path
         id="path1242"
         style="fill:#707070;fill-opacity:1;fill-rule:nonzero;stroke:none"
         d="m 16632.6,17253.6 h 138.6 v -756.1 h 228.1 v -126 h -366.7 v 882.1" /><path
         id="path1244"
         style="fill:#707070;fill-opacity:1;fill-rule:nonzero;stroke:none"
         d="m 17508.4,16371.5 h -139.8 l -24,160 h -170.1 l -24,-160 h -127.3 l 141.2,882.1 h 202.9 z m -316.3,279.8 h 133.6 l -65.5,446.1 h -2.6 l -65.5,-446.1" /><path
         id="path1246"
         style="fill:#707070;fill-opacity:1;fill-rule:nonzero;stroke:none"
         d="m 17698.7,17010.4 h -2.5 v -638.9 h -124.8 v 882.1 h 174 l 139.8,-528 h 2.6 v 528 h 123.5 v -882.1 h -142.4 l -170.2,638.9" /><path
         id="path1248"
         style="fill:#707070;fill-opacity:1;fill-rule:nonzero;stroke:none"
         d="m 18512.8,16700.4 v -117.2 c 0,-141.1 -70.6,-221.8 -206.7,-221.8 -136.1,0 -206.6,80.7 -206.6,221.8 v 458.7 c 0,141.2 70.5,221.8 206.6,221.8 136.1,0 206.7,-80.6 206.7,-221.8 v -85.7 h -131 v 94.5 c 0,63.1 -27.8,87 -71.9,87 -44.1,0 -71.8,-23.9 -71.8,-87 v -476.3 c 0,-63 27.7,-85.7 71.8,-85.7 44.1,0 71.9,22.7 71.9,85.7 v 126 h 131" /><path
         id="path1250"
         style="fill:#707070;fill-opacity:1;fill-rule:nonzero;stroke:none"
         d="M 19045.9,16371.5 H 18906 l -23.9,160 h -170.2 l -23.9,-160 h -127.3 l 141.1,882.1 h 202.9 z m -316.3,279.8 h 133.5 l -65.5,446.1 h -2.5 l -65.5,-446.1" /><path
         id="path1252"
         style="fill:#707070;fill-opacity:1;fill-rule:nonzero;stroke:none"
         d="m 127.285,10390.3 h -2.519 V 9751.41 H 0 v 882.19 h 173.914 l 139.887,-528.1 h 2.515 v 528.1 H 439.813 V 9751.41 H 297.41 l -170.125,638.89" /><path
         id="path1254"
         style="fill:#707070;fill-opacity:1;fill-rule:nonzero;stroke:none"
         d="M 987.996,9751.41 H 848.113 l -23.941,160.04 H 654.043 L 630.098,9751.41 H 502.813 l 141.152,882.19 h 202.89 z m -316.308,279.79 h 133.585 l -65.539,446.1 h -2.515 l -65.531,-446.1" /><path
         id="path1256"
         style="fill:#707070;fill-opacity:1;fill-rule:nonzero;stroke:none"
         d="m 1052.27,10633.6 h 138.63 v -882.19 h -138.63 v 882.19" /><path
         id="path1258"
         style="fill:#707070;fill-opacity:1;fill-rule:nonzero;stroke:none"
         d="m 1581.55,9751.41 c -7.56,22.67 -12.6,36.54 -12.6,108.38 v 138.61 c 0,81.9 -27.73,112.2 -90.74,112.2 h -47.89 V 9751.41 H 1291.7 v 882.19 h 209.2 c 143.66,0 205.42,-66.8 205.42,-202.9 v -69.4 c 0,-90.7 -29,-148.7 -90.75,-177.6 v -2.6 c 69.32,-29 92.01,-94.5 92.01,-186.47 v -136.11 c 0,-42.84 1.26,-74.36 15.12,-107.11 z m -151.23,756.09 v -270.9 h 54.19 c 51.67,0 83.17,22.7 83.17,93.2 v 87 c 0,63 -21.41,90.7 -70.56,90.7 h -66.8" /><path
         id="path1260"
         style="fill:#707070;fill-opacity:1;fill-rule:nonzero;stroke:none"
         d="m 1786.96,10421.8 c 0,141.2 74.35,221.8 210.46,221.8 136.1,0 210.45,-80.6 210.45,-221.8 v -458.67 c 0,-141.16 -74.35,-221.8 -210.45,-221.8 -136.11,0 -210.46,80.64 -210.46,221.8 z m 138.63,-467.5 c 0,-63.01 27.72,-86.96 71.83,-86.96 44.1,0 71.83,23.95 71.83,86.96 v 476.4 c 0,63 -27.73,86.9 -71.83,86.9 -44.11,0 -71.83,-23.9 -71.83,-86.9 v -476.4" /><path
         id="path1262"
         style="fill:#707070;fill-opacity:1;fill-rule:nonzero;stroke:none"
         d="m 2711.96,10430.7 v -31.5 c 0,-90.8 -27.72,-147.5 -89.47,-176.5 v -2.5 c 74.35,-29 103.34,-94.5 103.34,-187.8 v -71.79 c 0,-136.12 -71.83,-209.2 -210.46,-209.2 h -218.02 v 882.19 h 209.19 c 143.67,0 205.42,-66.8 205.42,-202.9 z m -275.98,76.8 v -233.1 h 54.19 c 51.67,0 83.17,22.7 83.17,93.3 v 49.1 c 0,63 -21.43,90.7 -70.57,90.7 z m 0,-359.1 v -270.98 h 79.39 c 46.62,0 71.83,21.43 71.83,86.96 v 76.92 c 0,81.9 -26.47,107.1 -89.47,107.1 h -61.75" /><path
         id="path1264"
         style="fill:#707070;fill-opacity:1;fill-rule:nonzero;stroke:none"
         d="m 2809,10633.6 h 138.62 V 9751.41 H 2809 v 882.19" /><path
         id="path1266"
         style="fill:#707070;fill-opacity:1;fill-rule:nonzero;stroke:none"
         d="m 13930.7,10633.6 h 219.3 c 138.6,0 206.7,-76.9 206.7,-218.1 v -446.09 c 0,-141.13 -68.1,-218 -206.7,-218 h -219.3 z m 138.6,-126.1 v -630.08 h 78.2 c 44.1,0 70.5,22.7 70.5,85.71 v 458.67 c 0,63.1 -26.4,85.7 -70.5,85.7 h -78.2" /><path
         id="path1268"
         style="fill:#707070;fill-opacity:1;fill-rule:nonzero;stroke:none"
         d="m 14577.2,10633.6 v -680.55 c 0,-63.03 27.7,-85.71 71.8,-85.71 44.1,0 71.8,22.68 71.8,85.71 v 680.55 h 131.1 v -671.74 c 0,-141.14 -70.6,-221.8 -206.7,-221.8 -136.1,0 -206.6,80.66 -206.6,221.8 v 671.74 h 138.6" /><path
         id="path1270"
         style="fill:#707070;fill-opacity:1;fill-rule:nonzero;stroke:none"
         d="m 15236.3,9751.41 c -7.6,22.67 -12.6,36.54 -12.6,108.38 v 138.61 c 0,81.9 -27.8,112.2 -90.8,112.2 h -47.8 v -359.19 h -138.7 v 882.19 h 209.2 c 143.7,0 205.4,-66.8 205.4,-202.9 v -69.4 c 0,-90.7 -28.9,-148.7 -90.7,-177.6 v -2.6 c 69.3,-29 92,-94.5 92,-186.47 v -136.11 c 0,-42.84 1.3,-74.36 15.1,-107.11 z m -151.2,756.09 v -270.9 h 54.1 c 51.7,0 83.2,22.7 83.2,93.2 v 87 c 0,63 -21.4,90.7 -70.6,90.7 h -66.7" /><path
         id="path1272"
         style="fill:#707070;fill-opacity:1;fill-rule:nonzero;stroke:none"
         d="m 15867.6,10430.7 v -31.5 c 0,-90.8 -27.7,-147.5 -89.4,-176.5 v -2.5 c 74.3,-29 103.3,-94.5 103.3,-187.8 v -71.79 c 0,-136.12 -71.8,-209.2 -210.5,-209.2 h -218 v 882.19 h 209.2 c 143.7,0 205.4,-66.8 205.4,-202.9 z m -275.9,76.8 v -233.1 h 54.1 c 51.7,0 83.2,22.7 83.2,93.3 v 49.1 c 0,63 -21.4,90.7 -70.6,90.7 z m 0,-359.1 v -270.98 h 79.3 c 46.7,0 71.9,21.43 71.9,86.96 v 76.92 c 0,81.9 -26.5,107.1 -89.5,107.1 h -61.7" /><path
         id="path1274"
         style="fill:#707070;fill-opacity:1;fill-rule:nonzero;stroke:none"
         d="m 16413.3,9751.41 h -139.9 l -23.9,160.04 h -170.2 l -23.9,-160.04 h -127.3 l 141.2,882.19 h 202.9 z m -316.3,279.79 h 133.6 l -65.6,446.1 h -2.5 l -65.5,-446.1" /><path
         id="path1276"
         style="fill:#707070;fill-opacity:1;fill-rule:nonzero;stroke:none"
         d="m 16603.6,10390.3 h -2.5 v -638.89 h -124.8 v 882.19 h 173.9 l 139.9,-528.1 h 2.5 v 528.1 h 123.5 v -882.19 h -142.4 l -170.1,638.89" /><path
         id="path1278"
         style="fill:#707070;fill-opacity:1;fill-rule:nonzero;stroke:none"
         d="M 14415.9,5276.6 H 14276 l -23.9,160.04 h -170.2 L 14058,5276.6 h -127.3 l 141.1,882.15 h 202.9 z m -316.3,279.77 h 133.6 l -65.6,446.11 h -2.5 l -65.5,-446.11" /><path
         id="path1280"
         style="fill:#707070;fill-opacity:1;fill-rule:nonzero;stroke:none"
         d="m 14480.2,6158.75 h 138.6 v -756.13 h 228.1 V 5276.6 h -366.7 v 882.15" /><path
         id="path1282"
         style="fill:#707070;fill-opacity:1;fill-rule:nonzero;stroke:none"
         d="m 15046,5786.99 h 190.3 V 5660.96 H 15046 v -258.34 h 239.4 V 5276.6 h -378 v 882.15 h 378 V 6032.73 H 15046 v -245.74" /><path
         id="path1284"
         style="fill:#707070;fill-opacity:1;fill-rule:nonzero;stroke:none"
         d="m 15833.6,6158.75 -144.9,-428.48 155,-453.67 h -146.2 l -112.1,349.08 h -2.6 l -113.4,-349.08 h -129.8 l 155,453.67 -144.9,428.48 h 143.7 l 103.3,-325.14 h 2.5 l 105.9,325.14 h 128.5" /><path
         id="path1286"
         style="fill:#707070;fill-opacity:1;fill-rule:nonzero;stroke:none"
         d="m 16361.7,5276.6 h -139.9 l -24,160.04 h -170.1 l -23.9,-160.04 h -127.3 l 141.1,882.15 h 202.9 z m -316.4,279.77 h 133.6 l -65.5,446.11 h -2.5 l -65.6,-446.11" /><path
         id="path1288"
         style="fill:#707070;fill-opacity:1;fill-rule:nonzero;stroke:none"
         d="m 16551.9,5915.53 h -2.5 V 5276.6 h -124.7 v 882.15 h 173.9 l 139.9,-528.03 h 2.5 v 528.03 h 123.5 V 5276.6 h -142.4 l -170.2,638.93" /><path
         id="path1290"
         style="fill:#707070;fill-opacity:1;fill-rule:nonzero;stroke:none"
         d="m 16964,6158.75 h 219.3 c 138.6,0 206.7,-76.87 206.7,-218.03 v -446.11 c 0,-141.13 -68.1,-218.01 -206.7,-218.01 H 16964 Z m 138.6,-126.02 v -630.11 h 78.2 c 44.1,0 70.6,22.67 70.6,85.7 v 458.71 c 0,63.01 -26.5,85.7 -70.6,85.7 h -78.2" /><path
         id="path1292"
         style="fill:#707070;fill-opacity:1;fill-rule:nonzero;stroke:none"
         d="m 17768,5276.6 c -7.5,22.68 -12.6,36.54 -12.6,108.38 v 138.61 c 0,81.92 -27.7,112.17 -90.7,112.17 h -47.9 V 5276.6 h -138.6 v 882.15 h 209.2 c 143.6,0 205.4,-66.8 205.4,-202.89 v -69.32 c 0,-90.74 -29,-148.71 -90.7,-177.69 v -2.52 c 69.3,-28.99 92,-94.51 92,-186.51 v -136.11 c 0,-42.85 1.2,-74.35 15.1,-107.11 z m -151.2,756.13 v -270.95 h 54.2 c 51.7,0 83.2,22.69 83.2,93.26 v 86.95 c 0,63.01 -21.4,90.74 -70.6,90.74 h -66.8" /><path
         id="path1294"
         style="fill:#707070;fill-opacity:1;fill-rule:nonzero;stroke:none"
         d="m 17984.8,6158.75 h 138.6 V 5276.6 h -138.6 v 882.15" /><path
         id="path1296"
         style="fill:#707070;fill-opacity:1;fill-rule:nonzero;stroke:none"
         d="M 18672.9,5276.6 H 18533 l -24,160.04 h -170.1 L 18315,5276.6 h -127.3 l 141.1,882.15 h 202.9 z m -316.4,279.77 h 133.6 l -65.5,446.11 h -2.5 l -65.6,-446.11" /><path
         id="path1298"
         style="fill:#707070;fill-opacity:1;fill-rule:nonzero;stroke:none"
         d="M 14415.9,91.3281 H 14276 l -23.9,160.0589 h -170.2 L 14058,91.3281 h -127.3 l 141.1,882.1679 h 202.9 z m -316.3,279.7849 h 133.6 l -65.6,446.114 h -2.5 l -65.5,-446.114" /><path
         id="path1300"
         style="fill:#707070;fill-opacity:1;fill-rule:nonzero;stroke:none"
         d="m 14480.2,973.496 h 219.2 c 138.7,0 206.7,-76.875 206.7,-218.027 V 309.355 c 0,-141.152 -68,-218.0269 -206.7,-218.0269 h -219.2 z m 138.6,-126.035 V 217.363 h 78.1 c 44.1,0 70.6,22.676 70.6,85.684 v 458.73 c 0,63.008 -26.5,85.684 -70.6,85.684 h -78.1" /><path
         id="path1302"
         style="fill:#707070;fill-opacity:1;fill-rule:nonzero;stroke:none"
         d="m 14994.3,973.496 h 219.3 c 138.6,0 206.7,-76.875 206.7,-218.027 V 309.355 c 0,-141.152 -68.1,-218.0269 -206.7,-218.0269 h -219.3 z m 138.6,-126.035 V 217.363 h 78.2 c 44.1,0 70.6,22.676 70.6,85.684 v 458.73 c 0,63.008 -26.5,85.684 -70.6,85.684 h -78.2" /><path
         id="path1304"
         style="fill:#707070;fill-opacity:1;fill-rule:nonzero;stroke:none"
         d="m 15508.5,973.496 h 138.6 V 91.3281 h -138.6 V 973.496" /><path
         id="path1306"
         style="fill:#707070;fill-opacity:1;fill-rule:nonzero;stroke:none"
         d="m 15934.4,983.574 c 134.9,0 204.2,-80.664 204.2,-221.797 v -27.734 h -131.1 v 36.562 c 0,63.008 -25.2,86.954 -69.3,86.954 -44.1,0 -69.3,-23.946 -69.3,-86.954 0,-64.277 27.7,-112.167 118.5,-191.562 115.9,-102.07 152.4,-175.176 152.4,-275.996 0,-141.133 -70.5,-221.797 -206.6,-221.797 -136.1,0 -206.7,80.664 -206.7,221.797 v 54.199 h 131.1 v -63.008 c 0,-63.027 27.7,-85.703 71.8,-85.703 44.1,0 71.8,22.676 71.8,85.703 0,64.258 -27.7,112.149 -118.4,191.543 -116,102.09 -152.5,175.176 -152.5,275.996 0,141.133 69.3,221.797 204.1,221.797" /><path
         id="path1308"
         style="fill:#707070;fill-opacity:1;fill-rule:nonzero;stroke:none"
         d="m 16863.2,91.3281 h -139.9 l -23.9,160.0589 h -170.2 L 16505.3,91.3281 H 16378 l 141.2,882.1679 h 202.9 z m -316.3,279.7849 h 133.6 l -65.6,446.114 h -2.5 l -65.5,-446.114" /><path
         id="path1310"
         style="fill:#707070;fill-opacity:1;fill-rule:nonzero;stroke:none"
         d="m 17342.1,770.605 v -31.523 c 0,-90.723 -27.7,-147.441 -89.5,-176.426 v -2.519 c 74.4,-28.985 103.3,-94.512 103.3,-187.774 v -71.836 c 0,-136.093 -71.8,-209.1989 -210.4,-209.1989 h -218 V 973.496 h 209.2 c 143.6,0 205.4,-66.797 205.4,-202.891 z m -276,76.856 V 614.336 h 54.2 c 51.7,0 83.2,22.676 83.2,93.242 v 49.16 c 0,63.008 -21.5,90.723 -70.6,90.723 z m 0,-359.16 V 217.363 h 79.4 c 46.6,0 71.8,21.426 71.8,86.953 v 76.875 c 0,81.914 -26.4,107.11 -89.5,107.11 h -61.7" /><path
         id="path1312"
         style="fill:#707070;fill-opacity:1;fill-rule:nonzero;stroke:none"
         d="m 17887.7,91.3281 h -139.8 l -24,160.0589 h -170.1 l -24,-160.0589 h -127.2 l 141.1,882.1679 h 202.9 z m -316.3,279.7849 h 133.6 l -65.5,446.114 h -2.5 l -65.6,-446.114" /><path
         id="path1314"
         style="fill:#707070;fill-opacity:1;fill-rule:nonzero;stroke:none"
         d="m 18366.6,770.605 v -31.523 c 0,-90.723 -27.7,-147.441 -89.4,-176.426 v -2.519 c 74.3,-28.985 103.3,-94.512 103.3,-187.774 v -71.836 c 0,-136.093 -71.8,-209.1989 -210.5,-209.1989 h -218 V 973.496 h 209.2 c 143.7,0 205.4,-66.797 205.4,-202.891 z m -276,76.856 V 614.336 h 54.2 c 51.7,0 83.2,22.676 83.2,93.242 v 49.16 c 0,63.008 -21.4,90.723 -70.6,90.723 z m 0,-359.16 V 217.363 h 79.4 c 46.7,0 71.9,21.426 71.9,86.953 v 76.875 c 0,81.914 -26.5,107.11 -89.5,107.11 h -61.8" /><path
         id="path1316"
         style="fill:#707070;fill-opacity:1;fill-rule:nonzero;stroke:none"
         d="m 18912.3,91.3281 h -139.9 l -23.9,160.0589 h -170.1 l -24,-160.0589 h -127.3 l 141.2,882.1679 h 202.9 z M 18596,371.113 h 133.6 l -65.6,446.114 h -2.5 L 18596,371.113" /><path
         id="path1318"
         style="fill:#707070;fill-opacity:1;fill-rule:nonzero;stroke:none"
         d="m 127.285,5715.53 h -2.519 V 5076.6 H 0 v 882.15 h 173.914 l 139.887,-528.03 h 2.515 v 528.03 H 439.813 V 5076.6 H 297.41 l -170.125,638.93" /><path
         id="path1320"
         style="fill:#707070;fill-opacity:1;fill-rule:nonzero;stroke:none"
         d="M 539.363,5958.75 H 677.988 V 5076.6 H 539.363 v 882.15" /><path
         id="path1322"
         style="fill:#707070;fill-opacity:1;fill-rule:nonzero;stroke:none"
         d="m 1227.43,5076.6 h -139.88 l -23.95,160.04 H 893.469 L 869.531,5076.6 H 742.246 l 141.145,882.15 H 1086.29 Z M 911.113,5356.37 H 1044.7 l -65.528,446.11 h -2.531 l -65.528,-446.11" /><path
         id="path1324"
         style="fill:#707070;fill-opacity:1;fill-rule:nonzero;stroke:none"
         d="m 1584.07,5332.42 h 2.52 l 93.26,626.33 h 192.81 V 5076.6 H 1741.6 v 632.62 h -2.52 l -93.26,-632.62 h -131.06 l -100.81,623.81 h -2.52 V 5076.6 h -120.99 v 882.15 h 192.81 l 100.82,-626.33" /><path
         id="path1326"
         style="fill:#707070;fill-opacity:1;fill-rule:nonzero;stroke:none"
         d="m 2112.09,5586.99 h 190.29 v -126.03 h -190.29 v -258.34 h 239.45 V 5076.6 h -378.07 v 882.15 h 378.07 v -126.02 h -239.45 v -245.74" /><path
         id="path1328"
         style="fill:#707070;fill-opacity:1;fill-rule:nonzero;stroke:none"
         d="m 2567.03,5368.96 -175.17,589.79 h 144.93 l 104.6,-402.01 h 2.52 l 104.6,402.01 h 132.32 L 2705.65,5368.96 V 5076.6 h -138.62 v 292.36" /><path
         id="path1330"
         style="fill:#707070;fill-opacity:1;fill-rule:nonzero;stroke:none"
         d="M 181.477,362.93 138.621,282.285 V 11.3281 H 0 V 893.496 H 138.621 V 511.641 h 2.524 L 320.098,893.496 H 458.723 L 265.906,500.293 458.723,11.3281 H 316.316 L 181.477,362.93" /><path
         id="path1332"
         style="fill:#707070;fill-opacity:1;fill-rule:nonzero;stroke:none"
         d="M 660.344,11.3281 H 521.719 V 893.496 H 660.344 V 515.43 H 817.871 V 893.496 H 959.016 V 11.3281 H 817.871 V 389.395 H 660.344 V 11.3281" /><path
         id="path1334"
         style="fill:#707070;fill-opacity:1;fill-rule:nonzero;stroke:none"
         d="M 1508.46,11.3281 H 1368.57 L 1344.63,171.387 H 1174.5 L 1150.56,11.3281 h -127.29 l 141.16,882.1679 h 202.88 z M 1192.15,291.113 h 133.58 l -65.53,446.114 h -2.52 l -65.53,-446.114" /><path
         id="path1336"
         style="fill:#707070;fill-opacity:1;fill-rule:nonzero;stroke:none"
         d="m 1862.58,11.3281 c -7.56,22.6953 -12.6,36.5625 -12.6,108.3789 V 258.34 c 0,81.914 -27.72,112.168 -90.73,112.168 h -47.89 V 11.3281 H 1572.73 V 893.496 h 209.2 c 143.67,0 205.41,-66.797 205.41,-202.891 v -69.316 c 0,-90.742 -28.98,-148.711 -90.73,-177.695 v -2.52 c 69.31,-28.984 91.99,-94.511 91.99,-186.523 V 118.457 c 0,-42.8515 1.26,-74.3554 15.13,-107.1289 z M 1711.36,767.461 V 496.523 h 54.19 c 51.67,0 83.17,22.676 83.17,93.262 v 86.953 c 0,63.008 -21.42,90.723 -70.58,90.723 h -66.78" /><path
         id="path1338"
         style="fill:#707070;fill-opacity:1;fill-rule:nonzero;stroke:none"
         d="m 2039,893.496 h 428.48 V 767.461 H 2322.56 V 11.3281 H 2183.93 V 767.461 H 2039 v 126.035" /><path
         id="path1340"
         style="fill:#707070;fill-opacity:1;fill-rule:nonzero;stroke:none"
         d="m 2516.62,681.777 c 0,141.133 74.35,221.797 210.46,221.797 136.1,0 210.45,-80.664 210.45,-221.797 V 223.047 C 2937.53,81.9141 2863.18,1.25 2727.08,1.25 c -136.11,0 -210.46,80.6641 -210.46,221.797 z m 138.63,-467.539 c 0,-63.027 27.72,-86.953 71.83,-86.953 44.1,0 71.83,23.926 71.83,86.953 v 476.367 c 0,63.008 -27.73,86.954 -71.83,86.954 -44.11,0 -71.83,-23.946 -71.83,-86.954 V 214.238" /><path
         id="path1342"
         style="fill:#707070;fill-opacity:1;fill-rule:nonzero;stroke:none"
         d="M 3159.34,893.496 V 212.969 c 0,-63.008 27.72,-85.684 71.82,-85.684 44.11,0 71.84,22.676 71.84,85.684 v 680.527 h 131.06 V 221.797 C 3434.06,80.6445 3363.48,0 3227.38,0 3091.28,0 3020.7,80.6445 3020.7,221.797 v 671.699 h 138.64" /><path
         id="path1344"
         style="fill:#707070;fill-opacity:1;fill-rule:nonzero;stroke:none"
         d="m 3820.95,267.168 h 2.52 l 93.25,626.328 h 192.81 V 11.3281 H 3978.47 V 643.965 h -2.52 L 3882.7,11.3281 H 3751.63 L 3650.81,635.137 h -2.52 V 11.3281 H 3527.31 V 893.496 h 192.82 l 100.82,-626.328" /><path
         id="path1346"
         style="fill:#707070;fill-opacity:1;fill-rule:nonzero;stroke:none"
         d="m 181.477,22629.7 -42.856,-80.7 v -270.9 H 0 v 882.1 h 138.621 v -381.8 h 2.524 l 178.953,381.8 H 458.723 L 265.906,22767 458.723,22278.1 H 316.316 l -134.839,351.6" /><path
         id="path1348"
         style="fill:#707070;fill-opacity:1;fill-rule:nonzero;stroke:none"
         d="M 970.359,22278.1 H 830.477 l -23.946,160 H 636.395 l -23.934,-160 H 485.176 l 141.14,882.1 h 202.903 z m -316.316,279.8 h 133.586 l -65.527,446.1 h -2.532 l -65.527,-446.1" /><path
         id="path1350"
         style="fill:#707070;fill-opacity:1;fill-rule:nonzero;stroke:none"
         d="m 1327,22533.9 h 2.52 l 93.26,626.3 h 192.82 v -882.1 h -131.07 v 632.6 h -2.52 l -93.26,-632.6 h -131.07 l -100.8,623.8 h -2.52 v -623.8 h -120.99 v 882.1 h 192.81 L 1327,22533.9" /><path
         id="path1352"
         style="fill:#707070;fill-opacity:1;fill-rule:nonzero;stroke:none"
         d="m 2127.23,22942.2 v -114.7 c 0,-141.1 -68.06,-218 -206.68,-218 h -65.53 v -331.4 h -138.63 v 882.1 h 204.16 c 138.62,0 206.68,-76.8 206.68,-218 z m -272.21,92 v -298.7 h 65.53 c 44.11,0 68.05,20.2 68.05,83.2 v 132.3 c 0,63 -23.94,83.2 -68.05,83.2 h -65.53" /><path
         id="path1354"
         style="fill:#707070;fill-opacity:1;fill-rule:nonzero;stroke:none"
         d="m 2623.78,22278.1 h -139.89 l -23.94,160 h -170.14 l -23.93,-160 h -127.29 l 141.14,882.1 h 202.91 z m -316.32,279.8 h 133.59 l -65.53,446.1 h -2.53 l -65.53,-446.1" /><path
         id="path1356"
         style="fill:#707070;fill-opacity:1;fill-rule:nonzero;stroke:none"
         d="m 2688.05,23160.2 h 138.62 v -756.1 h 228.1 v -126 h -366.72 v 882.1" /><path
         id="path1358"
         style="fill:#707070;fill-opacity:1;fill-rule:nonzero;stroke:none"
         d="M 3563.89,22278.1 H 3424 l -23.94,160 h -170.13 l -23.95,-160 H 3078.7 l 141.15,882.1 h 202.9 z m -316.31,279.8 h 133.58 l -65.53,446.1 h -2.52 l -65.53,-446.1" /><path
         id="path1360"
         style="fill:#707070;fill-opacity:1;fill-rule:nonzero;stroke:none"
         d="m 14105.9,22570.5 -175.2,589.7 h 144.9 l 104.6,-402 h 2.5 l 104.6,402 h 132.4 l -175.2,-589.7 v -292.4 h -138.6 v 292.4" /><path
         id="path1362"
         style="fill:#707070;fill-opacity:1;fill-rule:nonzero;stroke:none"
         d="m 14862,22278.1 h -139.9 l -23.9,160 H 14528 l -23.9,-160 h -127.3 l 141.2,882.1 h 202.9 z m -316.3,279.8 h 133.6 l -65.5,446.1 h -2.6 l -65.5,-446.1" /><path
         id="path1364"
         style="fill:#707070;fill-opacity:1;fill-rule:nonzero;stroke:none"
         d="m 14913.7,22948.5 c 0,141.2 74.3,221.8 210.4,221.8 136.2,0 210.5,-80.6 210.5,-221.8 v -458.7 c 0,-141.1 -74.3,-221.8 -210.5,-221.8 -136.1,0 -210.4,80.7 -210.4,221.8 z m 138.6,-467.5 c 0,-63 27.7,-87 71.8,-87 44.2,0 71.9,24 71.9,87 v 476.3 c 0,63.1 -27.7,87 -71.9,87 -44.1,0 -71.8,-23.9 -71.8,-87 V 22481" /><path
         id="path1366"
         style="fill:#707070;fill-opacity:1;fill-rule:nonzero;stroke:none"
         d="m 15556.4,23160.2 v -680.5 c 0,-63 27.7,-85.7 71.8,-85.7 44.1,0 71.9,22.7 71.9,85.7 v 680.5 h 131 v -671.7 c 0,-141.1 -70.5,-221.8 -206.6,-221.8 -136.1,0 -206.7,80.7 -206.7,221.8 v 671.7 h 138.6" /><path
         id="path1368"
         style="fill:#707070;fill-opacity:1;fill-rule:nonzero;stroke:none"
         d="m 16051.7,22917 h -2.6 v -638.9 h -124.7 v 882.1 h 173.9 l 139.9,-528 h 2.5 v 528 h 123.5 v -882.1 h -142.4 l -170.1,638.9" /><path
         id="path1370"
         style="fill:#707070;fill-opacity:1;fill-rule:nonzero;stroke:none"
         d="m 16463.7,23160.2 h 219.3 c 138.6,0 206.7,-76.8 206.7,-218 v -446.1 c 0,-141.1 -68.1,-218 -206.7,-218 h -219.3 z m 138.7,-126 v -630.1 h 78.1 c 44.1,0 70.6,22.7 70.6,85.7 v 458.7 c 0,63 -26.5,85.7 -70.6,85.7 h -78.1" /><path
         id="path1372"
         style="fill:#707070;fill-opacity:1;fill-rule:nonzero;stroke:none"
         d="m 17116.5,22788.5 h 190.3 v -126.1 h -190.3 v -258.3 h 239.5 v -126 h -378.1 v 882.1 h 378.1 v -126 h -239.5 v -245.7" /><path
         id="path1374"
         style="fill:#262626;fill-opacity:1;fill-rule:nonzero;stroke:none"
         d="m 12566.6,17717.8 v 28.2 l -38.8,15.4 v 421 l 13.5,8.6 -15.4,10.3 v 37.6 l 65.8,8.6 3.9,15.4 15.5,8.5 -583.8,176.6 -583.8,-176.6 15.5,-8.5 3.9,-15.4 65.8,-8.6 v -37.6 l -15.5,-10.3 13.6,-8.6 v -421 l -38.8,-15.4 v -28.2 h -153.7 v 726 l 57.2,11.6 v 34.7 l -62.9,15.4 v 601.3 l 68.7,27 v 42.4 l -57.2,19.3 v 593.6 h 45.7 v 38.6 l -240.2,61.6 v 208.2 l -371.8,69.4 -131.6,-38.6 v -215.8 l -148.7,-3.9 -125.8,-115.6 -74.4,-23.2 11.4,-50.1 45.8,-15.4 v -547.4 l -51.5,-19.2 11.4,-42.4 28.7,-15.5 22.8,-566.6 -45.7,-30.8 v -27 l 40,-15.4 v -722.2 h -246.5 V 20716 l -350.7,18.7 v 121.7 l -224.48,46.8 -491,-28.1 v -102.9 l -434.91,-65.6 V 17721 l 36.94,-3.2 H 8325.92 V 18895 h -130.63 v 2569.3 l 84.44,10.6 v 351.9 l -84.44,21.3 v 53.3 l 156.8,10.7 v 213.2 l -120.63,21.3 v 64 c 0,0 48.27,24 45.24,61.3 0,0 -57.29,-16 -111.58,-13.3 l -84.44,417.7 -25.12,488.5 -25.13,-488.5 -84.44,-417.7 c -54.29,-2.7 -111.58,13.3 -111.58,13.3 -3.02,-37.3 45.24,-61.3 45.24,-61.3 v -64 l -120.63,-21.3 v -213.2 l 156.81,-10.7 v -53.3 l -84.44,-21.3 v -351.9 l 84.44,-10.6 V 18895 h -139.05 v -1177.2 h -244.17 v 3450.5 h -209.04 v 292.6 H 6583.23 6313.24 5572.9 v -292.6 H 5363.85 V 17717.8 H 5119.2 L 4926.3,20283 c 65.08,32.1 109.63,92.8 109.63,163.3 0,79.5 -56.11,147.2 -135.07,174.5 l -84.85,1128.4 -62.59,-1126.4 c -82.72,-25.6 -142.38,-94.6 -142.38,-176.5 0,-75.4 50.56,-139.9 123.07,-169.8 l -142.2,-2558.7 h -296 V 20405 l -669.97,87.8 -730.87,-21.9 v -2753.1 h -67.26 l -32.67,504.2 h -456.02 v 198.3 l -57.91,614.2 -50.67,-607.8 -10.86,-220.7 h -54.28 v 710.2 h -32.58 v 451.1 h -28.94 v 303.9 h -21.72 l -68.76,895.7 -57.91,-895.7 h -25.33 v -313.5 h -32.58 v -457.5 h -39.81 l -7.23,-332.7 -14.49,51.2 c 0,0 -10.87,99.1 -68.76,102.3 -57.9,3.2 -115.81,-44.7 -115.81,-44.7 l -857.742,-355.1 -50.679,399.8 -21.711,-441.4 -119.422,-86.4 v 48 l -25.356,16 v 249.5 l -25.332,12.8 -50.664,748.6 -57.898,-745.4 -18.098,-22.4 v -249.5 h -21.719 v -67.2 h -54.296 v 102.4 l -47.04,361.5 -39.804,-364.7 v -115.2 h -50.672 v -323.1 l 2.508,-126.7 H 0 V 17541 h 12761.6 v 176.8 h -195" /><path
         id="path1376"
         style="fill:#f9f9f9;fill-opacity:1;fill-rule:nonzero;stroke:none"
         d="m 11926.3,11147.8 c 42.8,10 130.1,17.2 92,37 -42.9,22.3 -88.5,80.7 -87.1,111.8 1.3,31 -20.1,90.6 0,90.6 20.1,0 83.1,3.7 95.2,-9.9 12.1,-13.7 40.2,2.5 37.5,18.6 0,0 96.6,-114.2 126.1,-134.1 29.5,-19.9 84.4,-58.4 127.3,-23.6 43,34.7 24.2,45.9 45.6,57.1 21.5,11.2 49.7,55.9 88.5,75.8 38.9,19.8 91.2,68.3 99.2,85.7 8.1,17.4 26.9,52.1 8.1,43.5 -18.8,-8.8 -131.4,-82 -160.9,-79.6 -29.5,2.5 -55,-14.9 -38.9,11.2 16.1,26.1 47,60.9 34.9,65.9 -12.1,4.9 -87.2,1.2 -99.3,1.2 -12,0 -38.8,62.1 -46.9,95.6 -8,33.5 -28.1,26.1 -24.1,73.3 4,47.2 -16.1,82 -25.5,96.9 -9.4,14.9 -14.7,-12.5 -25.5,-26.1 -10.7,-13.7 -5.3,14.9 -71,63.3 -65.7,48.4 -222.6,49.7 -356.7,31.1 -134.1,-18.6 -173,0 -268.1,12.4 -95.2,12.4 -111.3,-1.2 -206.5,-32.3 -95.2,-31.1 -187.8,-23.6 -226.6,-62.1 -38.9,-38.5 -126.1,-155.2 -127.4,-252.1 -1.4,-96.9 12,-208.6 -4.1,-247.1 -16,-38.6 -24.1,-43.5 -18.7,-65.9 2.5,-10.4 -1.5,-24.7 -5,-38.2 h -89 v 133.1 l -100,34.1 v 1414.6 H 10594 v 287.7 570.7 l -63.2,58.6 v 136.5 h -152.7 v 185.4 l 42.1,48.8 -68.4,9.7 -247.5,287.8 -28.1,277.5 v 190.8 h -19.3 v -190.8 l -28.1,-277.5 -247.51,-287.8 -68.47,-9.7 42.13,-48.8 v -185.4 h -152.71 v -136.5 l -63.19,-58.6 v -570.7 -287.7 H 9433.71 V 11315 l -100.06,-34.1 v -133.1 h -98.21 v 3527 h -85.6 v 97.2 h 203.28 v 137.5 h -64.19 v 161.9 h -427.99 v 170 l -149.79,56.6 h -224.72 -85.58 -224.7 l -149.8,-56.6 v -170 h -428.01 v -161.9 h -64.19 V 14772 h 203.3 v -97.2 h -85.57 v -3527 h -201.67 v 3925.6 h -373.04 v 1150 h -77.93 v -397.1 h -55.67 v -278.5 h -83.5 V 15321 l -50.12,-46.5 v -175.3 h -629.12 v -36.1 h -205.97 v -3908.7 l -185.21,-6.6 v 36.9 h 1.97 c 26.26,0 47.53,19.8 47.53,44.2 0,24.4 -21.27,44.2 -47.53,44.2 h -1.97 v 60.8 h 1.97 c 26.26,0 47.53,19.8 47.53,44.2 0,24.4 -21.27,44.1 -47.53,44.1 h -1.97 v 60.8 h 1.97 c 26.26,0 47.53,19.8 47.53,44.2 0,24.4 -21.27,44.2 -47.53,44.2 h -1.97 v 60.7 h 1.97 c 26.26,0 47.53,19.9 47.53,44.2 0,24.5 -21.27,44.2 -47.53,44.2 h -1.97 v 60.8 h 1.97 c 26.26,0 47.53,19.8 47.53,44.2 0,24.4 -21.27,44.2 -47.53,44.2 h -1.97 v 60.7 h 1.97 c 26.26,0 47.53,19.8 47.53,44.2 0,24.4 -21.27,44.2 -47.53,44.2 h -1.97 v 60.8 h 1.97 c 26.26,0 47.53,19.8 47.53,44.2 0,24.4 -21.27,44.1 -47.53,44.1 h -1.97 v 60.8 h 1.97 c 26.26,0 47.53,19.8 47.53,44.2 0,24.4 -21.27,44.2 -47.53,44.2 h -1.97 v 60.7 h 1.97 c 26.26,0 47.53,19.8 47.53,44.2 0,24.4 -21.27,44.2 -47.53,44.2 h -1.97 v 60.8 h 1.97 c 26.26,0 47.53,19.8 47.53,44.2 0,24.4 -21.27,44.2 -47.53,44.2 h -1.97 v 60.7 h 1.97 c 26.26,0 47.53,19.8 47.53,44.2 0,24.4 -21.27,44.2 -47.53,44.2 h -1.97 v 60.8 h 1.97 c 26.26,0 47.53,19.8 47.53,44.2 0,24.4 -21.27,44.1 -47.53,44.1 h -1.97 v 60.8 h 1.97 c 26.26,0 47.53,19.8 47.53,44.2 0,24.4 -21.27,44.2 -47.53,44.2 h -1.97 v 60.8 h 1.97 c 26.26,0 47.53,19.7 47.53,44.2 0,24.3 -21.27,44.1 -47.53,44.1 h -1.97 v 60.8 h 1.97 c 26.26,0 47.53,19.8 47.53,44.2 0,24.4 -21.27,44.2 -47.53,44.2 h -1.97 v 60.7 h 1.97 c 26.26,0 47.53,19.8 47.53,44.2 0,24.4 -21.27,44.2 -47.53,44.2 h -1.97 v 60.8 h 1.97 c 26.26,0 47.53,19.8 47.53,44.2 0,24.4 -21.27,44.2 -47.53,44.2 h -1.97 v 60.7 h 1.97 c 26.26,0 47.53,19.8 47.53,44.2 0,24.4 -21.27,44.2 -47.53,44.2 h -1.97 v 60.8 h 1.97 c 26.26,0 47.53,19.8 47.53,44.1 0,24.4 -21.27,44.3 -47.53,44.3 h -1.97 v 60.7 h 1.97 c 26.26,0 47.53,19.8 47.53,44.2 0,24.4 -21.27,44.2 -47.53,44.2 h -1.97 v 60.7 h 1.97 c 26.26,0 47.53,19.8 47.53,44.2 0,24.4 -21.27,44.2 -47.53,44.2 h -1.97 v 60.8 h 1.97 c 26.26,0 47.53,19.8 47.53,44.2 0,24.4 -21.27,44.2 -47.53,44.2 h -1.97 v 60.7 h 1.97 c 26.26,0 47.53,19.8 47.53,44.2 0,24.4 -21.27,44.2 -47.53,44.2 h -1.97 v 60.8 h 1.97 c 26.26,0 47.53,19.7 47.53,44.1 0,24.4 -21.27,44.2 -47.53,44.2 h -1.97 v 53.4 c 0,0 0.15,2.7 -0.07,7.4 h 2.04 c 26.26,0 47.53,19.8 47.53,44.2 0,24.4 -21.27,44.2 -47.53,44.2 h -33.37 c -25.07,34.7 -69.98,68.5 -150.72,81 0,0 203.9,171.2 225.67,195.2 0,0 -102.91,40.5 -419.57,110.4 0,0 -123.78,129.3 -303.09,130.4 -1.54,0.1 -3.16,0.1 -4.74,0.1 -1.58,0 -3.13,0 -4.75,-0.1 -179.27,-1.1 -303.02,-130.4 -303.02,-130.4 -316.68,-69.9 -419.59,-110.4 -419.59,-110.4 21.77,-24 225.65,-195.2 225.65,-195.2 -80.74,-12.5 -125.65,-46.3 -150.71,-81 H 4420 c -26.25,0 -47.52,-19.8 -47.52,-44.2 0,-24.4 21.27,-44.2 47.52,-44.2 h 2.06 c -0.2,-4.7 -0.11,-7.4 -0.11,-7.4 v -53.4 H 4420 c -26.25,0 -47.52,-19.8 -47.52,-44.2 0,-24.3 21.27,-44.1 47.52,-44.1 h 1.95 v -60.8 H 4420 c -26.25,0 -47.52,-19.8 -47.52,-44.2 0,-24.4 21.27,-44.2 47.52,-44.2 h 1.95 v -60.7 H 4420 c -26.25,0 -47.52,-19.8 -47.52,-44.2 0,-24.5 21.27,-44.2 47.52,-44.2 h 1.95 v -60.8 H 4420 c -26.25,0 -47.52,-19.8 -47.52,-44.2 0,-24.4 21.27,-44.2 47.52,-44.2 h 1.95 v -60.7 H 4420 c -26.25,0 -47.52,-19.8 -47.52,-44.2 0,-24.4 21.27,-44.2 47.52,-44.2 h 1.95 v -60.7 H 4420 c -26.25,0 -47.52,-19.9 -47.52,-44.3 0,-24.4 21.27,-44.1 47.52,-44.1 h 1.95 v -60.8 H 4420 c -26.25,0 -47.52,-19.8 -47.52,-44.2 0,-24.4 21.27,-44.2 47.52,-44.2 h 1.95 v -60.7 H 4420 c -26.25,0 -47.52,-19.8 -47.52,-44.3 0,-24.3 21.27,-44.1 47.52,-44.1 h 1.95 v -60.8 H 4420 c -26.25,0 -47.52,-19.8 -47.52,-44.2 0,-24.4 21.27,-44.2 47.52,-44.2 h 1.95 v -60.7 H 4420 c -26.25,0 -47.52,-19.8 -47.52,-44.2 0,-24.4 21.27,-44.2 47.52,-44.2 h 1.95 v -60.8 H 4420 c -26.25,0 -47.52,-19.8 -47.52,-44.1 0,-24.5 21.27,-44.2 47.52,-44.2 h 1.95 v -60.8 H 4420 c -26.25,0 -47.52,-19.8 -47.52,-44.2 0,-24.4 21.27,-44.2 47.52,-44.2 h 1.95 v -60.8 H 4420 c -26.25,0 -47.52,-19.7 -47.52,-44.1 0,-24.4 21.27,-44.2 47.52,-44.2 h 1.95 v -60.8 H 4420 c -26.25,0 -47.52,-19.8 -47.52,-44.2 0,-24.4 21.27,-44.2 47.52,-44.2 h 1.95 v -60.7 H 4420 c -26.25,0 -47.52,-19.8 -47.52,-44.2 0,-24.4 21.27,-44.2 47.52,-44.2 h 1.95 v -60.8 H 4420 c -26.25,0 -47.52,-19.8 -47.52,-44.2 0,-24.4 21.27,-44.2 47.52,-44.2 h 1.95 v -60.7 H 4420 c -26.25,0 -47.52,-19.8 -47.52,-44.2 0,-24.4 21.27,-44.2 47.52,-44.2 h 1.95 v -60.8 H 4420 c -26.25,0 -47.52,-19.8 -47.52,-44.1 0,-24.4 21.27,-44.2 47.52,-44.2 h 1.95 v -60.8 H 4420 c -26.25,0 -47.52,-19.8 -47.52,-44.2 0,-24.4 21.27,-44.2 47.52,-44.2 h 1.95 v -60.7 H 4420 c -26.25,0 -47.52,-19.8 -47.52,-44.2 0,-24.4 21.27,-44.2 47.52,-44.2 h 1.95 v -60.8 H 4420 c -26.25,0 -47.52,-19.7 -47.52,-44.2 0,-24.3 21.27,-44.2 47.52,-44.2 h 1.95 v -60.7 H 4420 c -26.25,0 -47.52,-19.8 -47.52,-44.2 0,-24.4 21.27,-44.2 47.52,-44.2 h 1.95 v -60.8 H 4420 c -26.25,0 -47.52,-19.7 -47.52,-44.2 0,-24.4 21.27,-44.1 47.52,-44.1 h 1.95 v -60.8 H 4420 c -26.25,0 -47.52,-19.8 -47.52,-44.2 0,-24.4 21.27,-44.2 47.52,-44.2 h 1.95 v -36.9 h -131.83 l -66.82,800.9 84.55,10.7 -11.52,89 -80.7,35.6 v 583.7 l 26.91,32 -26.91,71.2 c 0,0 3.84,89 42.27,117.4 38.43,28.5 61.46,67.7 61.46,67.7 v 64.1 l -103.73,53.3 -38.43,7.1 v 92.6 l 65.34,28.5 -76.86,56.9 c 0,0 11.52,81.9 -49.97,110.3 -61.48,28.5 -76.84,46.3 -76.84,46.3 l -23.07,106.8 v 71.2 h -15.36 v -71.2 l -23.04,-106.8 c 0,0 -15.4,-17.8 -76.87,-46.3 -61.49,-28.4 -49.98,-110.3 -49.98,-110.3 l -76.82,-56.9 65.31,-28.5 v -92.6 l -38.41,-7.1 -103.77,-53.3 v -64.1 c 0,0 23.05,-39.2 61.48,-67.7 38.45,-28.4 42.29,-117.4 42.29,-117.4 l -26.9,-71.2 26.9,-32 v -573 c -2.95,2.3 -5.91,4.5 -9.06,6.7 -113.1,78.6 -144.21,112.6 -158.35,144 -11.11,24.8 -25.76,116.1 -31.46,153.8 v 16.5 c 0,0 -0.44,-3.1 -1.23,-8.4 -0.8,5.3 -1.24,8.4 -1.24,8.4 v -16.5 c -5.7,-37.7 -20.37,-129 -31.46,-153.8 -12.62,-28 -38.79,-58.1 -124.57,-120.1 v 41.7 h -35.87 v 121 l 38.43,42.7 h -43.55 c 0,0 -5.12,64.1 -33.31,71.2 0,0 -22.15,26.2 -30.72,78.6 v 21.1 c -0.35,-4.3 -2.26,-4.3 -2.58,0 v -21.1 c -8.58,-52.4 -30.71,-78.6 -30.71,-78.6 -28.2,-7.1 -33.34,-71.2 -33.34,-71.2 h -43.54 l 38.41,-42.7 v -121 h -35.84 v -19 h -73.23 c 0,56.5 -13,156.7 -97.16,215.2 -122.03,84.8 -155.61,121.5 -170.86,155.4 -11.99,26.7 -27.81,125.2 -33.94,165.9 v 17.7 c 0,0 -0.49,-3.3 -1.34,-9 -0.82,5.7 -1.31,9 -1.31,9 v -17.7 c -6.17,-40.7 -21.98,-139.2 -33.97,-165.9 -15.23,-33.9 -48.81,-70.6 -170.82,-155.4 -84.18,-58.5 -97.21,-158.7 -97.17,-215.2 h -56.71 v 19 h -35.86 v 121 l 38.41,42.7 h -43.54 c 0,0 -5.12,64.1 -33.29,71.2 0,0 -22.17,26.2 -30.76,78.6 v 21.1 c -0.33,-4.3 -2.23,-4.3 -2.55,0 v -21.1 c -8.57,-52.4 -30.76,-78.6 -30.76,-78.6 -28.2,-7.1 -33.29,-71.2 -33.29,-71.2 h -43.56 l 38.45,-42.7 v -121 h -35.86 v -38.5 c -51.34,39.7 -69.54,62.3 -79.08,83.6 -10.09,22.4 -23.32,105.1 -28.52,139.3 v 14.9 c 0,0 -0.41,-2.8 -1.11,-7.5 -0.74,4.7 -1.12,7.5 -1.12,7.5 v -14.9 c -5.17,-34.2 -18.45,-116.9 -28.51,-139.3 -12.81,-28.5 -40.98,-59.3 -143.48,-130.5 -20.59,-14.3 -36.09,-31.7 -47.77,-50.2 l -2.2,17 -80.68,35.6 v 583.7 l 26.91,32 -26.91,71.2 c 0,0 3.85,89 42.29,117.5 38.39,28.4 61.46,67.6 61.46,67.6 v 64.1 l -103.75,53.3 -38.41,7.1 v 92.6 l 65.32,28.5 -76.85,56.9 c 0,0 11.53,81.9 -49.93,110.3 -61.52,28.5 -76.88,46.3 -76.88,46.3 l -23.05,106.8 v 71.2 h -15.4 v -71.2 l -23.03,-106.8 c 0,0 -15.36,-17.8 -76.86,-46.3 -61.46,-28.4 -49.96,-110.3 -49.96,-110.3 l -76.82,-56.9 65.32,-28.5 v -92.6 l -38.45,-7.1 -103.75,-53.3 v -64.1 c 0,0 23.05,-39.2 61.46,-67.6 38.45,-28.5 42.29,-117.5 42.29,-117.5 l -26.87,-71.2 26.87,-32 V 12084 l -80.7,-35.6 -11.54,-89 84.56,-10.7 -66.82,-800.9 h -80.86 c -0.14,1 -0.28,1.9 -0.4,2.9 -2.33,19.5 22.5,-9.6 6.4,71.8 -7.61,38.3 -9.12,93 -11.92,149.2 -0.37,7.9 -0.81,16 -1.25,23.9 9.37,-7.9 16.7,-7.7 19.33,7.5 10.1,58.4 14.19,167.6 11.14,193 -3.04,25.4 8.96,121.5 -11.16,165 -20.15,43.4 -61.99,161.7 -66.21,196.9 -4.21,35.1 -17.28,144.5 -147.26,214.3 -130.055,69.7 -295.243,94.3 -350.751,148 -55.507,53.6 -56.902,83.2 -103.269,131.8 -46.387,48.6 -127.559,263.8 -147.238,285.5 -19.676,21.7 -84.762,119.9 -84.762,119.9 0,0 7.555,26.4 -1.379,47.3 -8.801,20.6 -13.289,5 -38.574,59.6 0.156,17.6 -0.703,40.3 -5.657,51.5 -8.777,19.9 -22.839,57 -25.73,63.7 -2.922,6.6 -17.949,24.8 -20.176,7.8 -2.207,-17.1 -13.027,-34 -2.707,-39.9 10.317,-5.8 17.707,-5.1 17.551,-21.9 0.012,-0.3 0,-0.6 0.02,-0.9 -8.079,7.4 -13.758,6.7 -15.594,-2.7 -2.739,-13.8 3.367,-25.8 -1.203,-34.8 -5.176,0.5 -10.059,2.3 -12.532,6.7 -6.757,12.2 -16.597,32 -26.211,40.9 -9.597,8.9 -28.23,12.9 -16.16,-7.6 12.051,-20.5 5.235,-26.2 15.442,-40 4.324,-5.8 5.047,-12.2 5.75,-18.2 -33.926,-15.9 -87.696,-48.1 -96.145,-65.2 -10.34,-20.8 -68.015,-56.4 -94.5116,-67 -26.4453,-10.6 -24.1484,-48 -12.8867,-52.8 11.25,-4.7 60.6913,-7.6 79.6763,-5.6 18.957,1.9 94.199,15.5 101.933,4.5 7.727,-11.1 124.348,-165.3 137.402,-274.7 13.067,-109.4 100.821,-290.3 110.633,-372.3 9.797,-82.1 -43.867,-79.6 7.641,-171.3 51.492,-91.6 84.707,-173.2 92.879,-259.4 8.144,-86.2 38.054,-265.1 38.445,-358 0.422,-92.9 1.574,-138.2 -7.566,-168.8 -2.598,-8.8 -5.481,-19.6 -8.25,-30.6 H 0 v -198.5 h 12733.8 v 198.5 z m -113.1,50.6 c 19.2,-11.8 43.3,-38.6 66.9,-50.6 h -162.4 c 36.4,26.3 76.8,62.2 95.5,50.6 z m -280.2,119.3 c 64.3,-1.3 227.9,54.6 227.9,54.6 0,0 59,-44.7 1.3,-85.7 -57.6,-41 -91.1,-17.4 -100.5,-48.4 -6,-19.9 -17.6,-62.8 -14.8,-90.4 h -211.3 c 18.1,7.6 25.6,18 12.9,32 -21.5,23.6 -96.6,47.2 -101.9,111.8 -5.4,64.6 122,27.3 186.4,26.1 z m -484.1,24.8 c 45.6,32.3 127.4,53.4 156.9,-19.9 29.5,-73.2 37.5,-99.3 75.1,-127.9 21.4,-16.3 37.6,-35 56.2,-46.9 h -329.5 c -5.3,53.5 2.4,167.1 41.3,194.7 z m -9835.25,606.4 c 0,0 49.62,-200.6 50.28,-224.3 0.69,-23.6 -23.23,-55.8 -22.52,-61.6 0.22,-2 -2.01,-20.8 -5.04,-44.7 -27.01,55.6 -54.17,104 -55.16,137.4 -1.36,47.3 32.44,193.2 32.44,193.2 z m -32.95,-707.4 c 10.6,72.3 28.23,210.5 28.23,210.5 0,0 41.4,-167.8 38.33,-213.6 -2.06,-30.4 -8.23,-65.6 -13.45,-90.6 h -58.47 c -0.13,23.9 -0.29,55.1 5.36,93.7 z m -293.989,584.9 c 52.477,7.4 97.957,19.9 97.957,19.9 0,0 58.102,-57.3 91.542,-158.7 33.42,-101.4 66.67,-218.6 57.24,-300.7 -9.43,-81.9 -6.19,-198.2 -18.4,-239.1 H 859.309 c 0.007,3.2 0.125,6.4 0.527,9.4 4.48,34.1 -39.965,191.7 -40.625,251 -0.688,59.2 9.668,97.9 -2.484,146 -12.196,48.2 -29.715,105.8 -38.582,180 -8.86,74.2 -12.122,101.6 -12.122,101.6 0,0 68.176,-16.8 120.688,-9.4 z m -183.383,-610.1 c -3.98,33.2 -3.164,205.4 1.086,241.4 4.258,36 28.176,174.9 28.176,174.9 0,0 3.269,-45.1 20.105,-132.4 16.825,-87.2 44.832,-268.3 45.508,-327.6 0.106,-8.8 -0.273,-17 -0.937,-24.8 h -98.965 c 2.949,22.7 7.375,48.8 5.027,68.5" /><path
         id="path1378"
         style="fill:#262626;fill-opacity:1;fill-rule:nonzero;stroke:none"
         d="m 12813,6547.5 v 39.02 h -55.5 v 28.6 l 25.2,25.23 v 84.1 l -23.6,23.56 v 50.47 l 20.2,20.17 v 84.12 h -746.8 v 666.16 l 137.9,63.92 77.4,164.85 -33.6,33.65 h -175 v 47.09 l 33.6,6.74 67.3,195.11 -23.5,74.03 h -282.6 -37 -282.7 l -23.5,-74.03 67.3,-195.11 33.6,-6.74 v -47.11 h -174.9 l -33.7,-33.63 77.4,-164.85 137.9,-63.92 v -985.77 h -67.2 v -35.66 h -370.8 v 53.85 l -15.1,40.02 v 684.96 c 0,0 120.9,137.87 262,155.66 v 26.7 h -191.4 l -25.2,22.23 h -287.2 -5 -287.2 l -25.2,-22.23 h -191.4 v -26.7 c 141,-17.79 262,-155.66 262,-155.66 v -684.96 l -15.2,-40.02 v -53.85 h -481.1 v 99.8 h -27 l -2.6,593.03 h 25.2 c 0,0 -1.5,124.55 22.3,160.14 23.7,35.57 91.9,28.16 118.6,31.13 l 68.2,65.22 -246.2,0.02 11.9,41.5 h -260.94 l -8.88,32.62 -20.75,-32.62 h -169.04 v 20.76 l 47.44,5.94 32.62,59.3 h -68.19 v 35.58 l 47.44,29.65 80.06,11.86 20.74,47.44 32.63,50.41 h -177.91 l -35.59,-11.86 h -74.13 l -8.89,29.65 29.65,11.86 v 47.44 h -174.96 -77.08 -174.94 v -47.44 l 29.64,-11.86 -8.91,-29.65 h -74.13 l -35.59,11.86 H 8903.2 l 32.62,-50.41 20.75,-47.44 80.06,-11.86 47.44,-29.65 v -35.58 h -68.18 l 32.6,-59.3 47.45,-5.94 v -20.74 h -169.01 l -20.76,32.6 -8.91,-32.6 h -260.93 l 11.87,-41.52 h -246.11 l 68.18,-65.24 c 26.69,-2.97 94.89,4.44 118.61,-31.13 23.73,-35.59 22.23,-160.14 22.23,-160.14 h 25.22 l -2.58,-593.03 h -27.06 v -99.8 h -537.46 v 53.85 l -15.11,40.02 v 684.96 c 0,0 120.9,137.89 261.97,155.66 v 26.7 h -191.45 l -25.19,22.23 h -287.16 -5.03 -287.16 l -25.2,-22.23 h -191.44 v -26.7 c 141.07,-17.77 261.97,-155.66 261.97,-155.66 v -684.96 l -15.11,-40.02 v -53.85 h -204.44 v 884.65 H 7252 v 198.3 l -23.45,164.28 -21.13,11.73 v 903.56 l 53.97,82.13 11.75,79.8 c 0,0 -14.1,37.56 -84.51,39.91 v 328.55 l 7.05,28.16 v 46.94 l 16.42,16.44 v 42.25 l -35.19,23.46 -37.55,187.75 c 0,0 25.81,39.9 7.03,70.41 -15.94,25.9 -45.4,48.42 -53.94,54.61 l -7.06,214.1 -7.05,-214.1 c -8.54,-6.19 -38.01,-28.71 -53.95,-54.61 -18.77,-30.51 7.04,-70.41 7.04,-70.41 l -37.55,-187.75 -35.2,-23.46 v -42.25 l 16.44,-16.44 v -46.94 l 7.03,-28.16 v -328.55 c -70.41,-2.35 -84.51,-39.91 -84.51,-39.91 l 11.75,-79.8 53.97,-82.13 v -903.56 l -21.09,-11.73 -23.48,-164.28 v -198.3 h -51.66 c 0,0 -3.54,45.74 -45.77,77.44 v 52.79 l 10.57,17.6 c 0,0 14.08,147.87 -105.63,193.63 l -14.08,153.93 v 38.51 h -3.52 v -38.51 l -14.09,-153.93 C 6574.91,7727.85 6589,7579.98 6589,7579.98 l 10.57,-17.6 v -52.79 c -42.25,-31.7 -45.77,-77.44 -45.77,-77.44 h -31.68 v 29.31 l -82.15,110.32 H 6386 v 122.03 l 21.12,9.39 v 25.82 l -14.08,9.38 c 0,0 35.2,347.34 -281.62,415.41 l -14.1,37.54 7.06,21.11 -9.4,21.13 -14.08,146.88 v 24.45 h -2.34 v -24.45 l -14.08,-146.88 -9.38,-21.13 7.03,-21.11 -14.09,-37.54 C 5731.22,8085.74 5766.42,7738.4 5766.42,7738.4 l -14.08,-9.38 v -25.82 l 21.12,-9.39 v -122.03 h -53.99 l -82.13,-110.32 v -29.31 h -14.08 c 0,0 -3.51,45.74 -45.76,77.44 v 52.79 l 10.57,17.6 c 0,0 14.08,147.87 -105.62,193.63 l -14.09,153.93 v 38.51 h -3.52 v -38.51 l -14.07,-153.93 c -119.72,-45.78 -105.63,-193.63 -105.63,-193.63 l 10.57,-17.6 v -52.79 c -42.24,-31.7 -45.77,-77.44 -45.77,-77.44 H 4831.17 V 6547.5 h -59.93 v 85.72 l -35.47,12.89 v 54.83 l 25.8,25.8 v 54.8 l -25.8,22.58 v 74.16 l 25.8,19.36 v 67.71 h -341.8 c 0,0 -187.02,29.01 -187.02,277.29 0,248.28 0,835.13 0,835.13 0,0 -9.66,80.61 -93.5,80.61 -66.98,0 -370.76,0 -490.1,0 -30.01,0 -48.37,0 -48.37,0 -119.35,0 -423.12,0 -490.12,0 -83.82,0 -93.51,-80.61 -93.51,-80.61 0,0 0,-586.85 0,-835.13 0,-248.28 -187.01,-277.29 -187.01,-277.29 h -357.92 v -67.71 l 25.81,-19.36 v -74.16 l -25.81,-22.58 v -54.8 l 25.81,-25.8 v -54.83 l -35.48,-12.89 v -85.72 h -49.64 v 412.58 l -17.45,17.42 v 831.68 h -24.9 v 64.75 h -139.43 l 94.61,234.06 -522.92,5 v 104.57 l 89.64,19.94 h -112.28 c 33.34,24.96 55.02,64.67 55.02,109.55 0,75.63 -61.32,136.93 -136.96,136.93 -75.63,0 -136.95,-61.3 -136.95,-136.93 0,-44.88 21.68,-84.59 55.04,-109.55 H 1484.1 l 109.55,-19.94 v -353.6 h -44.81 V 6547.5 h -41.83 l -311.67,150.98 v 88.36 l -68.73,16.34 -3.26,81.84 h -45.82 l -19.65,232.34 c 0,0 -6.54,62.17 -52.35,94.89 v 484.35 l -9.815,-38.18 -12.004,53.46 -6.543,-52.37 -18.547,55.63 -5.445,-50.18 -17.461,63.26 -10.902,-55.62 -16.368,52.36 -3.281,-53.46 -16.355,57.82 -10.911,-52.35 -21.824,52.35 -5.437,-51.27 -20.735,52.36 -6.543,-53.44 -14.179,47.27 v 7.26 l -1.094,-3.63 -1.082,3.63 v -7.26 l -14.191,-47.27 -6.543,53.44 -20.723,-52.36 -5.469,51.27 -21.808,-52.35 -10.918,52.35 -16.356,-57.82 -3.269,53.46 -16.372,-52.36 -10.906,55.62 -17.453,-63.26 -5.445,50.18 -18.559,-55.63 -6.543,52.37 -11.988,-53.46 -9.816,38.18 v -484.35 c -45.821,-32.72 -52.364,-94.89 -52.364,-94.89 L 538.652,6885.02 H 492.82 l -3.269,-81.84 -68.723,-16.34 v -88.36 L 109.148,6547.5 H 0 v -191.76 h 12870.2 v 191.76 z m -2940.16,691.35 29.64,8.9 c 0,0 -8.89,174.96 74.14,186.8 0,0 62.28,5.94 65.18,-198.67 h 20.8 l -1.3,-588.58 h -16.5 v -99.8 h -154.17 v 99.8 h -17.79 z m -207.59,228.32 c 0,0 94.88,-47.44 97.86,-231.29 h 32.63 V 6647.3 h -20.76 v -99.8 h -88.96 v 98.3 h -20.77 z m -243.15,199.82 c 22.55,18.85 71.03,58.11 88.99,62.6 23.71,5.94 77.07,-1.48 77.07,-1.48 V 7490.9 6645.8 h -17.79 v -98.3 h -123.05 v 99.8 h -11.85 -13.37 z M 9178.98,7490.9 v 237.21 c 0,0 53.36,7.42 77.07,1.48 17.95,-4.49 66.42,-43.75 88.97,-62.6 V 6647.3 h -13.34 -11.86 v -99.8 h -123.07 v 98.32 h -17.77 z m -207.57,-255.02 h 32.61 c 2.96,183.85 97.87,231.29 97.87,231.29 v -821.35 h -20.8 v -98.32 h -88.93 v 99.8 h -20.75 z m -265.6,-588.58 -1.29,588.58 h 20.77 c 2.96,204.61 65.24,198.67 65.24,198.67 83.02,-11.84 74.13,-186.8 74.13,-186.8 l 29.64,-8.9 V 6647.3 h -17.78 v -99.8 h -154.18 v 99.8 h -16.53" /><path
         id="path1380"
         style="fill:#262626;fill-opacity:1;fill-rule:nonzero;stroke:none"
         d="m 12857.5,1402.64 v 173.47 l -86.3,-4.12 v 1410.69 l 49.3,20.56 v 254.98 l -222.1,20.57 v 98.71 l -61.7,8.22 -65.8,522.31 -69.9,-489.42 -78.1,-12.34 v 74.04 l -386.6,-106.93 V 1402.64 h -45.3 l -10.7,120.9 v 153.3 c -71.5,4.25 -127.3,8.53 -127.3,8.53 v 123.5 h -52.8 l 18.6,38.3 -211,76.68 c 43.4,229.94 46.5,770.74 -139.7,1273.24 -186.2,502.48 -704.6,651.52 -704.6,651.52 l -96.2,136.27 c -633.25,-992.2 -509.1,-2124.94 -509.1,-2124.94 -164.5,34.08 -453.17,157.58 -453.17,157.58 l 24.85,-217.19 -43.46,-8.51 -18.65,-229.96 -55.86,-12.78 -17.79,-146.44 h -57.77 c -3.6,184.86 -55.48,2686.66 -55.48,2686.66 l 51.38,132.73 v 51.39 c 0,0 -42.82,-4.28 -42.82,12.83 0,17.13 0,141.29 0,141.29 l 51.38,12.85 -51.38,119.9 h -38.52 c 0,0 -4.24,95.34 -81.37,102.11 0,0 -2.81,0.39 -4.29,0.33 -1.46,0.06 -4.28,-0.33 -4.28,-0.33 -77.12,-6.77 -81.31,-102.11 -81.31,-102.11 h -38.57 l -51.4,-119.9 51.4,-12.85 c 0,0 0,-124.16 0,-141.29 0,-17.11 -42.86,-12.83 -42.86,-12.83 v -51.39 l 51.42,-132.73 c 0,0 -51.86,-2501.8 -55.47,-2686.66 h -297.95 l 89,222.52 86.73,86.72 v 504.16 H 7408.05 l -19.28,-64.24 h -64.22 v 70.66 h -436.72 l 89.9,173.4 -102.76,186.27 h -70.66 c 0,0 -38.53,417.46 -468.84,500.96 l -37.47,145.19 -6.95,26.95 -6.97,-26.95 -37.46,-145.19 c -430.3,-83.5 -468.85,-500.96 -468.85,-500.96 h -70.65 l -102.74,-186.27 89.91,-173.42 h -436.75 v -70.64 h -64.23 l -19.27,64.22 h -1563.9 v -504.14 l 86.68,-86.72 89.04,-222.52 h -292.58 c -3.59,184.86 -55.46,2686.66 -55.46,2686.66 l 51.39,132.73 v 51.39 c 0,0 -42.8,-4.28 -42.8,12.83 0,17.13 0,141.29 0,141.29 l 51.34,12.85 -51.34,119.9 h -38.56 c 0,0 -4.24,95.34 -81.35,102.11 0,0 -2.83,0.39 -4.28,0.33 -1.45,0.06 -4.31,-0.33 -4.31,-0.33 -77.15,-6.77 -81.32,-102.11 -81.32,-102.11 h -38.56 l -51.38,-119.9 51.38,-12.85 c 0,0 0,-124.16 0,-141.29 0,-17.11 -42.85,-12.83 -42.85,-12.83 v -51.39 l 51.42,-132.73 c 0,0 -51.87,-2501.8 -55.47,-2686.66 h -138.29 v 129.35 l -40.46,44.14 v 739.16 l 33.1,36.78 v 77.21 h -106.63 v 69.88 l 22.04,62.52 v 128.71 l -25.73,3.67 v 136.08 l 51.48,136.05 v 136.08 l -51.48,33.08 v 264.79 l 36.78,99.27 V 3584 l -55.17,55.16 c 0,0 -3.68,51.48 -55.16,88.26 -51.49,36.78 -33.09,91.94 -3.68,139.75 29.42,47.79 7.36,125.02 -18.39,143.42 -25.73,18.37 -33.08,139.72 -33.08,139.72 0,0 36.77,18.4 36.77,47.83 0,28.17 -3.5,52.91 -44.14,56.57 0,0 -1.82,0.27 -2.76,0.21 -0.94,0.06 -2.76,-0.21 -2.76,-0.21 -40.63,-3.66 -44.12,-28.4 -44.12,-56.57 0,-29.43 36.77,-47.83 36.77,-47.83 0,0 -7.36,-121.35 -33.09,-139.72 -25.75,-18.4 -47.81,-95.63 -18.4,-143.42 29.44,-47.81 47.82,-102.97 -3.67,-139.75 -51.48,-36.78 -55.16,-88.26 -55.16,-88.26 L 2580.73,3584 v -84.59 l 36.79,-99.27 v -264.79 l -51.48,-33.08 v -136.08 l 51.48,-136.05 v -136.08 l -25.74,-3.67 v -128.71 l 22.06,-62.52 v -69.88 H 2507.2 v -77.21 l 33.09,-36.78 V 2216 h -626.08 v 91.93 l 55.17,47.81 v 55.16 h -382.48 -14.69 -382.45 v -55.16 l 55.16,-47.81 V 2216 H 618.828 v 99.29 l 33.106,36.78 v 77.21 H 545.293 v 69.88 l 22.051,62.52 v 128.71 l -25.723,3.67 v 136.08 l 51.465,136.05 v 136.08 l -51.465,33.08 v 264.79 l 36.77,99.27 V 3584 l -55.176,55.16 c 0,0 -3.676,51.48 -55.149,88.26 -51.496,36.76 -33.105,91.94 -3.691,139.75 29.426,47.79 7.352,125.02 -18.391,143.42 -25.718,18.37 -33.086,139.72 -33.086,139.72 0,0 36.782,18.4 36.782,47.83 0,28.17 -3.481,52.91 -44.145,56.57 0,0 -1.812,0.27 -2.742,0.21 -0.938,0.06 -2.754,-0.21 -2.754,-0.21 -40.652,-3.66 -44.141,-28.42 -44.141,-56.57 0,-29.43 36.766,-47.83 36.766,-47.83 0,0 -7.332,-121.35 -33.094,-139.72 -25.73,-18.4 -47.793,-95.63 -18.379,-143.42 29.434,-47.81 47.801,-102.99 -3.671,-139.75 -51.497,-36.78 -55.168,-88.26 -55.168,-88.26 L 227.188,3584 v -84.59 l 36.777,-99.27 v -264.79 l -51.477,-33.08 v -136.1 l 51.477,-136.05 v -136.06 l -25.735,-3.67 v -128.71 l 22.051,-62.52 v -69.88 H 153.645 v -77.21 l 33.082,-36.78 v -739.16 l -40.438,-44.14 V 1402.64 H 0 v -192.27 h 12904.1 v 192.27 h -46.6" /><path
         id="path1382"
         style="fill:#262626;fill-opacity:1;fill-rule:nonzero;stroke:none"
         d="m 12899.5,23625.6 v 80.2 l -107.9,7 v 76.6 l 31.3,66.1 -69.7,323.8 10.5,149.7 27.9,118.4 -174.1,38.3 c 0,0 -3.5,48.7 -73.1,48.7 -69.7,0 -76.6,-52.2 -76.6,-52.2 h -76.6 v 94 l -80.1,3.5 v 111.4 h -142.7 v 45.2 h -55.7 -45.3 -55.7 v -45.2 H 11869 v -111.4 l -80.1,-3.5 v -94 h -76.6 c 0,0 -6.9,52.2 -76.6,52.2 -69.6,0 -73.1,-48.7 -73.1,-48.7 l -174,-38.3 27.8,-118.4 10.5,-149.7 -69.7,-323.8 31.4,-66.1 v -76.6 l -108,-7 v -80.2 h -70 v 1024.2 h -31 v 85.2 h -53.6 v -31.6 h -98.6 v 59.9 h -59.2 v 37.9 h -56.4 -11.3 -56.3 v -37.9 h -59.2 v -59.9 h -98.7 v 31.6 h -53.5 v -85.2 h -31.1 v -1024.2 h -95.9 v 461.9 h -41.8 v 38.3 h -135.5 v 868.4 c 0,0 -125.4,109 -308.7,120.7 v 48.6 h -232.12 v -55.6 h -178.72 v -27.9 h 30.18 v -27.8 h -34.82 v -964.7 h -205.58 v -461.9 h -113.02 v 61.6 h -40.08 v 429.4 c 0,0 17.18,53.3 45.81,56.6 v 126.5 l -34.35,13.3 h -211.83 l -17.16,-26.6 h -277.64 l -28.63,30 h -200.36 v 392.8 l 28.63,46.6 v 89.9 l 28.63,30 -28.63,93.2 -40.08,26.6 v 559.3 l 25.77,36.6 v 66.6 l 28.63,39.9 v 63.3 l -48.67,26.6 v 126.5 l 28.62,20 -45.79,46.6 h -45.8 v 139.8 c 0,0 0,99.9 -80.16,99.9 l -20.99,124.8 -2.37,14.2 -2.38,-14.2 -21,-124.8 c -80.15,0 -80.15,-99.9 -80.15,-99.9 v -139.8 h -45.79 l -45.8,-46.6 28.64,-20 v -126.5 l -48.67,-26.6 v -63.3 l 28.61,-39.9 v -66.6 l 25.78,-36.6 v -559.3 l -40.09,-26.6 -28.62,-93.2 28.62,-30 v -89.9 l 28.63,-46.6 v -209.7 h -139.3 c 0,0 -201.61,719.5 -884.46,725.6 v 0.1 c -1.44,0 -2.85,0 -4.31,-0.1 -1.42,0.1 -2.83,0.1 -4.27,0.1 v -0.1 c -682.87,-6.1 -884.46,-725.6 -884.46,-725.6 h -234.71 v -56.6 h -88.73 v -59.9 l 25.77,-30 v -36.6 h -386.43 l -28.63,-30 h -277.64 l -17.17,26.6 h -211.8 l -34.36,-13.3 v -126.5 c 28.62,-3.3 45.8,-56.6 45.8,-56.6 v -429.4 h -40.08 v -61.6 h -128.92 v 146.1 c 8.3,2.3 14.4,9.9 14.4,19 0,9.1 -6.1,16.6 -14.4,19 v 17.2 c 8.3,2.4 14.4,10 14.4,19 0,9.1 -6.1,16.7 -14.4,19 v 17.3 c 8.3,2.3 14.4,9.9 14.4,19 0,9 -6.1,16.6 -14.4,18.9 v 17.3 c 8.3,2.3 14.4,9.9 14.4,19 0,9 -6.1,16.6 -14.4,18.9 v 17.3 c 8.3,2.3 14.4,9.9 14.4,19 0,9 -6.1,16.6 -14.4,19 v 17.2 c 8.3,2.4 14.4,10 14.4,19 0,9 -6.1,16.7 -14.4,19 v 17.2 c 8.3,2.4 14.4,10 14.4,19 0,9.1 -6.1,16.7 -14.4,19 v 17.3 c 8.3,2.3 14.4,9.9 14.4,19 0,9 -6.1,16.6 -14.4,18.9 v 17.3 c 8.3,2.3 14.4,9.9 14.4,19 0,9 -6.1,16.6 -14.4,18.9 v 17.3 c 8.3,2.3 14.4,9.9 14.4,19 0,9 -6.1,16.6 -14.4,19 v 17.2 c 8.3,2.4 14.4,10 14.4,19 0,9.1 -6.1,16.7 -14.4,19 v 17.2 c 8.3,2.4 14.4,10 14.4,19 0,9.1 -6.1,16.7 -14.4,19 v 17.3 c 8.3,2.3 14.4,9.9 14.4,19 0,9 -6.1,16.6 -14.4,18.9 v 17.3 c 8.3,2.3 14.4,9.9 14.4,19 0,9 -6.1,16.6 -14.4,18.9 v 17.3 c 8.3,2.3 14.4,10 14.4,19 0,9 -6.1,16.7 -14.4,19 v 17.2 c 8.3,2.4 14.4,10 14.4,19 0,9.1 -6.1,16.7 -14.4,19 v 17.3 c 8.3,2.3 14.4,9.9 14.4,18.9 0,9.1 -6.1,16.7 -14.4,19 v 17.3 c 8.3,2.3 14.4,9.9 14.4,19 0,9 -6.1,16.6 -14.4,18.9 v 17.3 c 8.3,2.3 14.4,9.9 14.4,19 0,9 -6.1,16.6 -14.4,19 v 17.2 c 8.3,2.3 14.4,10 14.4,19 0,9 -6.1,16.7 -14.4,19 v 17.2 c 8.3,2.4 14.4,10 14.4,19 0,9.1 -6.1,16.7 -14.4,19 v 17.3 c 8.3,2.3 14.4,9.9 14.4,18.9 0,9.1 -6.1,16.7 -14.4,19 v 17.3 c 8.3,2.3 14.4,9.9 14.4,19 0,9 -6.1,16.6 -14.4,18.9 v 17.3 c 8.3,2.3 14.4,9.9 14.4,19 0,9 -6.1,16.6 -14.4,19 v 17.2 c 8.3,2.4 14.4,10 14.4,19 0,9.1 -6.1,16.7 -14.4,19 v 17.3 c 8.3,2.3 14.4,9.9 14.4,18.9 0,9.1 -6.1,16.7 -14.4,19 v 17.3 c 8.3,2.3 14.4,9.9 14.4,18.9 0,9.1 -6.1,16.7 -14.4,19 v 17.3 c 8.3,2.3 14.4,9.9 14.4,19 0,9 -6.1,16.6 -14.4,18.9 v 17.3 c 8.3,2.3 14.4,9.9 14.4,19 0,9 -6.1,16.6 -14.4,19 v 17.2 c 8.3,2.4 14.4,10 14.4,19 0,9.1 -6.1,16.7 -14.4,19 v 17.3 c 8.3,2.3 14.4,9.9 14.4,18.9 0,9.1 -6.1,16.7 -14.4,19 v 17.3 c 8.3,2.3 14.4,9.9 14.4,19 0,9 -6.1,16.6 -14.4,18.9 v 17.3 c 8.3,2.3 14.4,9.9 14.4,19 0,9 -6.1,16.6 -14.4,18.9 v 26.5 l -205.11,35.5 7.9,39.4 -210.35,50.7 v 0.6 l -1.32,-0.3 -1.33,0.3 -210.33,-51.2 7.87,-39.5 -205.07,-35.5 v -25.9 c -9.71,-1.2 -17.21,-9.5 -17.21,-19.5 0,-10.1 7.5,-18.3 17.21,-19.6 v -16.1 c -9.71,-1.2 -17.21,-9.5 -17.21,-19.5 0,-10.1 7.5,-18.4 17.21,-19.6 v -16.1 c -9.71,-1.3 -17.21,-9.5 -17.21,-19.6 0,-10 7.5,-18.3 17.21,-19.5 v -16.1 c -9.71,-1.3 -17.21,-9.5 -17.21,-19.6 0,-10 7.5,-18.3 17.21,-19.5 v -16.2 c -9.71,-1.2 -17.21,-9.5 -17.21,-19.5 0,-10 7.5,-18.3 17.21,-19.6 v -16.1 c -9.71,-1.2 -17.21,-9.5 -17.21,-19.5 0,-10.1 7.5,-18.3 17.21,-19.6 v -16.1 c -9.71,-1.2 -17.21,-9.5 -17.21,-19.6 0,-10 7.5,-18.3 17.21,-19.5 v -16.1 c -9.71,-1.3 -17.21,-9.5 -17.21,-19.6 0,-10 7.5,-18.3 17.21,-19.5 v -16.1 c -9.71,-1.3 -17.21,-9.6 -17.21,-19.6 0,-10 7.5,-18.3 17.21,-19.6 v -16.1 c -9.71,-1.2 -17.21,-9.5 -17.21,-19.5 0,-10 7.5,-18.3 17.21,-19.6 v -16.1 c -9.71,-1.2 -17.21,-9.5 -17.21,-19.5 0,-10.1 7.5,-18.3 17.21,-19.6 v -16.1 c -9.71,-1.3 -17.21,-9.5 -17.21,-19.6 0,-10 7.5,-18.3 17.21,-19.5 v -16.1 c -9.71,-1.3 -17.21,-9.5 -17.21,-19.6 0,-10 7.5,-18.3 17.21,-19.5 v -16.2 c -9.71,-1.2 -17.21,-9.5 -17.21,-19.5 0,-10 7.5,-18.3 17.21,-19.5 v -16.2 c -9.71,-1.2 -17.21,-9.5 -17.21,-19.5 0,-10 7.5,-18.3 17.21,-19.6 v -16.1 c -9.71,-1.2 -17.21,-9.5 -17.21,-19.5 0,-10.1 7.5,-18.4 17.21,-19.6 v -16.1 c -9.71,-1.3 -17.21,-9.5 -17.21,-19.6 0,-10 7.5,-18.3 17.21,-19.5 v -16.1 c -9.71,-1.3 -17.21,-9.5 -17.21,-19.6 0,-10 7.5,-18.3 17.21,-19.5 v -16.2 c -9.71,-1.2 -17.21,-9.5 -17.21,-19.5 0,-10 7.5,-18.3 17.21,-19.5 v -16.2 c -9.71,-1.2 -17.21,-9.5 -17.21,-19.5 0,-10.1 7.5,-18.3 17.21,-19.6 v -16.1 c -9.71,-1.2 -17.21,-9.5 -17.21,-19.5 0,-10.1 7.5,-18.4 17.21,-19.6 v -16.1 c -9.71,-1.3 -17.21,-9.5 -17.21,-19.6 0,-10 7.5,-18.3 17.21,-19.5 v -16.1 c -9.71,-1.3 -17.21,-9.6 -17.21,-19.6 0,-10 7.5,-18.3 17.21,-19.5 v -16.2 c -9.71,-1.2 -17.21,-9.5 -17.21,-19.5 0,-10 7.5,-18.3 17.21,-19.6 v -16.1 c -9.71,-1.2 -17.21,-9.5 -17.21,-19.5 0,-10.1 7.5,-18.3 17.21,-19.6 v -16.1 c -9.71,-1.2 -17.21,-9.5 -17.21,-19.5 0,-10.1 7.5,-18.4 17.21,-19.6 v -16.1 c -9.71,-1.3 -17.21,-9.5 -17.21,-19.6 0,-10 7.5,-18.3 17.21,-19.5 v -16.1 c -9.71,-1.3 -17.21,-9.6 -17.21,-19.6 0,-10 7.5,-18.3 17.21,-19.5 v -16.2 c -9.71,-1.2 -17.21,-9.5 -17.21,-19.5 0,-10.1 7.5,-18.3 17.21,-19.6 v -16.1 c -9.71,-1.2 -17.21,-9.5 -17.21,-19.5 0,-10.1 7.5,-18.3 17.21,-19.6 v -16.1 c -9.71,-1.3 -17.21,-9.5 -17.21,-19.5 0,-10.1 7.5,-18.4 17.21,-19.6 v -16.1 c -9.71,-1.3 -17.21,-9.5 -17.21,-19.6 0,-10 7.5,-18.3 17.21,-19.5 v -16.1 c -9.71,-1.3 -17.21,-9.6 -17.21,-19.6 0,-10 7.5,-18.3 17.21,-19.5 v -145.6 h -110.52 v 236.2 l -54.04,85.9 v 281.1 l -47.27,62.5 v 355.3 l -40.53,58.6 v 413.9 l -43.9,58.6 v 249.9 144.5 l 23.64,35.2 -30.39,-3.9 h -145.22 -60.79 -145.2 l -30.41,3.9 23.64,-35.2 v -144.5 -249.9 l -43.9,-58.6 v -413.9 l -29.98,-43.3 -277.6,187.8 v 31.2 h 13.5 v 10.5 h -13.51 v 15.6 h -0.83 -7.05 -0.84 v -15.6 h -13.5 v -10.5 h 13.49 v -31.2 l -272.81,-184.6 -27.74,40.1 v 413.9 l -43.91,58.6 v 249.9 144.5 l 23.65,35.2 -30.39,-3.9 h -145.22 -60.78 -145.22 l -30.39,3.9 23.64,-35.2 v -144.5 -249.9 l -43.91,-58.6 v -413.9 l -40.51,-58.6 v -355.3 l -47.27,-62.5 v -281.1 l -54.06,-85.9 v -236.2 h -96.94 c -34.69,102.7 -133.56,400 -174.92,571 -50.61,209.1 -70.85,354.2 -70.85,354.2 0,0 -43.84,60.7 -158.55,57.3 l -10.12,20.3 -134.92,30.3 h -134.94 v 84.4 l 16.88,20.2 v 84.4 c 0,0 -75.4,49 -332.27,50.5 v 0 c -2.03,0 -3.94,0 -5.92,0 -1.99,0 -3.88,0 -5.91,0 v 0 c -256.879,-1.5 -332.258,-50.5 -332.258,-50.5 v -84.4 l 16.863,-20.2 v -84.4 H 590.684 l -134.942,-30.3 -10.105,-20.3 c -114.692,3.4 -158.535,-57.3 -158.535,-57.3 0,0 -20.247,-145.1 -70.852,-354.2 -41.379,-171 -140.2344,-468.3 -174.9219,-571 H 0 v -193.8 h 13009.4 v 193.8 z m -5754.79,1340.2 v -0.3 c 0,0 1.53,0.1 4.27,0.2 2.79,-0.1 4.31,-0.2 4.31,-0.2 v 0.3 c 64.67,1.1 478.49,-10.8 649.75,-479.6 h -417.88 c 0,0 -57.27,166.4 -217.55,166.4 l -17.18,102.7 v 17.2 l -1.45,-8.6 -1.41,8.6 v -17.2 l -17.17,-102.7 c -160.29,0 -217.54,-166.4 -217.54,-166.4 h -417.89 c 171.26,468.8 585.06,480.7 649.74,479.6" /><path
         id="path1384"
         style="fill:#262626;fill-opacity:1;fill-rule:nonzero;stroke:none"
         d="m 26559.7,17702.7 v 95.1 c 0,0 -122.5,227.5 -122.5,291.6 0,64.1 -40.8,1860.2 -40.8,1860.2 0,0 11.7,58.3 52.5,75.8 0,0 5.8,32 5.8,67 0,35 -5.8,122.5 -29.1,125.4 -23.3,2.9 -61.2,17.5 -61.2,17.5 v 29.2 c 0,0 34.9,5.8 20.4,17.4 -14.6,11.7 -49.6,26.3 -49.6,26.3 v 131.2 l 23.3,26.2 -26.2,20.4 c 0,0 -20.4,72.9 -81.6,81.7 l -14.6,92.9 v 55.8 h -8.8 v -55.8 l -14.6,-92.9 c -61.2,-8.8 -81.6,-81.7 -81.6,-81.7 l -26.2,-20.4 23.3,-26.2 v -131.2 c 0,0 -35,-14.6 -49.6,-26.3 -14.5,-11.6 20.4,-17.4 20.4,-17.4 v -29.2 c 0,0 -37.9,-14.6 -61.2,-17.5 -23.3,-2.9 -29.1,-90.4 -29.1,-125.4 0,-35 5.8,-67 5.8,-67 40.8,-17.5 52.5,-75.8 52.5,-75.8 0,0 -40.8,-1796.1 -40.8,-1860.2 0,-64.1 -122.5,-291.6 -122.5,-291.6 v -95.1 h -140.2 v 822.3 h -103.3 v 55.9 H 25557 v 51.6 h -1161.5 v -90.3 h -60.2 v 107.5 h -49.6 -182.7 -49.6 v -107.5 h -60.3 v 90.3 h -128.8 v 1499.8 l 60.9,30.5 -269,142 v 2.6 l -2.5,-1.3 -2.6,1.3 v -2.6 l -269,-142 60.9,-30.5 v -1499.8 h -611.3 v -51.6 h -103.3 v -55.9 h -103.2 v -822.3 h -160.5 v 256.1 h -309.9 v 273.3 h -358.4 v 249.2 h -237 l 42.6,78.9 -275,118.3 V 21027 h -164 v 619.7 h -54.7 c 0,0 0,164 -145.8,164 l -6.1,67 c 17.3,10.7 28.9,29.7 28.9,51.5 0,25.8 -16.1,47.6 -38.7,56.5 l -6.5,71.3 c 19.2,7 33,25.2 33,46.9 0,24.8 -18.1,45.3 -41.7,49.3 l -0.8,8.2 v 117.2 h -10.7 v -117.2 l -0.6,-7.8 c -25.9,-1.9 -46.4,-23.3 -46.4,-49.7 0,-23.3 15.9,-42.7 37.4,-48.3 l -6.3,-69.4 c -23.4,-8.5 -40.2,-30.7 -40.2,-57 0,-22.4 12.2,-41.8 30.3,-52.3 l -6,-66.2 c -145.8,0 -145.8,-164 -145.8,-164 h -54.7 V 21027 h -164.1 v -2016 l -318.9,11 -66.9,48.6 -996.4,-6.1 -157.9,-127.6 -765.6,-36.4 -340.2,-224.8 48.6,-12.2 v -72.9 H 17671 v -243 h -364.5 v -644.9 h -133.4 V 20573 l 33.7,10.9 v 146.4 l -139.5,97.6 -866.3,5.5 v -157.3 l 38.3,-38 v -2935.4 h -172.4 v 196.3 l 17.6,26.4 v 57.3 l -26.4,22 v 766.1 l -17.6,17.6 -13.2,127.7 -44.1,-13.2 v -110.1 h -211.3 v 893.8 h -83.7 v 255.4 l -39.6,26.4 v 154.1 l -39.6,35.2 c 0,0 -11.4,60.9 -48.4,69.4 v 1.1 c -1.5,0 -3,-0.1 -4.4,-0.3 -1.5,0.2 -2.9,0.3 -4.4,0.3 v -1.1 c -37,-8.5 -48.5,-69.4 -48.5,-69.4 l -39.6,-35.2 v -154.1 l -39.6,-26.4 v -255.4 h -83.7 v -255.4 h -590 v 255.4 h -83.6 v 255.4 l -39.7,26.4 v 154.1 l -39.6,35.2 c 0,0 -11.4,60.9 -48.4,69.4 v 1.1 c -1.5,0 -3,-0.1 -4.5,-0.3 -1.4,0.2 -2.8,0.3 -4.3,0.3 v -1.1 c -37,-8.5 -48.5,-69.4 -48.5,-69.4 l -39.6,-35.2 v -154.1 l -39.6,-26.4 v -255.4 h -83.7 v -893.8 h -211.3 v 110.1 l -44.1,13.2 -13.2,-127.7 -17.6,-17.6 v -766.1 l -26.4,-22.1 v -57.2 l 17.6,-26.4 v -196.3 h -93.2 v -195.3 h 12721.8 v 195.3 h -92.8" /><path
         id="path1386"
         style="fill:#262626;fill-opacity:1;fill-rule:nonzero;stroke:none"
         d="m 26702.4,11122.5 v 210.6 h 5.9 c 4.2,0 7.5,3.4 7.5,7.7 v 25.5 c 0,4.2 -3.3,7.6 -7.5,7.6 h -5.9 v 21.1 h 5.9 c 4.2,0 7.5,3.4 7.5,7.6 v 25.5 c 0,4.2 -3.3,7.7 -7.5,7.7 h -5.9 v 21.1 h 5.9 c 4.2,0 7.5,3.4 7.5,7.6 v 25.5 c 0,4.2 -3.3,7.7 -7.5,7.7 h -5.9 v 21 h 5.9 c 4.2,0 7.5,3.4 7.5,7.7 v 25.5 c 0,4.2 -3.3,7.6 -7.5,7.6 h -5.9 v 21.1 h 5.9 c 4.2,0 7.5,3.4 7.5,7.7 v 25.5 c 0,4.2 -3.3,7.6 -7.5,7.6 h -5.9 v 21.1 h 5.9 c 4.2,0 7.5,3.4 7.5,7.6 v 25.5 c 0,4.3 -3.3,7.7 -7.5,7.7 h -5.9 v 21.1 h 5.9 c 4.2,0 7.5,3.4 7.5,7.6 v 25.5 c 0,4.2 -3.3,7.7 -7.5,7.7 h -5.9 v 21 h 5.9 c 4.2,0 7.5,3.4 7.5,7.7 v 25.5 c 0,4.2 -3.3,7.7 -7.5,7.7 h -5.9 v 21 h 5.9 c 4.2,0 7.5,3.4 7.5,7.6 v 25.6 c 0,4.2 -3.3,7.6 -7.5,7.6 h -5.9 v 21.1 h 5.9 c 4.2,0 7.5,3.4 7.5,7.6 v 25.5 c 0,4.3 -3.3,7.7 -7.5,7.7 h -5.9 v 21.1 h 5.9 c 4.2,0 7.5,3.4 7.5,7.6 v 25.5 c 0,4.3 -3.3,7.7 -7.5,7.7 h -5.9 v 21 h 5.9 c 4.2,0 7.5,3.4 7.5,7.7 v 25.5 c 0,4.2 -3.3,7.7 -7.5,7.7 h -5.9 v 21 h 5.9 c 4.2,0 7.5,3.4 7.5,7.6 v 25.6 c 0,4.2 -3.3,7.6 -7.5,7.6 h -5.9 v 21.1 h 5.9 c 4.2,0 7.5,3.4 7.5,7.6 v 25.5 c 0,4.3 -3.3,7.7 -7.5,7.7 h -5.9 v 21.1 h 5.9 c 4.2,0 7.5,3.4 7.5,7.6 v 25.5 c 0,4.3 -3.3,7.7 -7.5,7.7 h -5.9 v 21 h 5.9 c 4.2,0 7.5,3.4 7.5,7.7 v 25.5 c 0,4.2 -3.3,7.7 -7.5,7.7 h -5.9 v 21 h 5.9 c 4.2,0 7.5,3.4 7.5,7.6 v 25.6 c 0,4.2 -3.3,7.6 -7.5,7.6 h -5.9 v 21.1 h 5.9 c 4.2,0 7.5,3.4 7.5,7.6 v 25.5 c 0,4.3 -3.3,7.7 -7.5,7.7 h -5.9 v 21.1 h 5.9 c 4.2,0 7.5,3.4 7.5,7.6 v 25.5 c 0,4.3 -3.3,7.7 -7.5,7.7 h -5.9 v 21 h 5.9 c 4.2,0 7.5,3.4 7.5,7.7 v 25.5 c 0,4.2 -3.3,7.7 -7.5,7.7 h -5.9 v 21 h 5.9 c 4.2,0 7.5,3.4 7.5,7.7 v 25.5 c 0,4.2 -3.3,7.6 -7.5,7.6 h -5.9 v 21.1 h 5.9 c 4.2,0 7.5,3.4 7.5,7.6 v 25.5 c 0,4.3 -3.3,7.7 -7.5,7.7 h -5.9 v 21.1 h 5.9 c 4.2,0 7.5,3.4 7.5,7.6 v 25.5 c 0,4.3 -3.3,7.7 -7.5,7.7 h -5.9 v 21 h 5.9 c 4.2,0 7.5,3.5 7.5,7.7 v 25.5 c 0,4.2 -3.3,7.7 -7.5,7.7 h -5.9 v 21 h 5.9 c 4.2,0 7.5,3.4 7.5,7.7 v 25.5 c 0,4.2 -3.3,7.6 -7.5,7.6 h -5.9 v 21.1 h 5.9 c 4.2,0 7.5,3.4 7.5,7.6 v 25.6 c 0,4.2 -3.3,7.6 -7.5,7.6 h -5.9 v 21.1 h 5.9 c 4.2,0 7.5,3.4 7.5,7.6 v 25.5 c 0,4.3 -3.3,7.7 -7.5,7.7 h -5.9 v 20.4 H 26585 l -229.6,270.5 v 91.8 h -224.5 -15.4 -224.5 v -91.8 l -229.6,-270.5 H 25544 v -20.4 h -7.9 c -4.1,0 -7.4,-3.4 -7.4,-7.7 v -25.5 c 0,-4.2 3.3,-7.6 7.4,-7.6 h 7.9 v -21.1 h -7.9 c -4.1,0 -7.4,-3.4 -7.4,-7.6 v -25.6 c 0,-4.2 3.3,-7.6 7.4,-7.6 h 7.9 v -21.1 h -7.9 c -4.1,0 -7.4,-3.4 -7.4,-7.6 v -25.5 c 0,-4.3 3.3,-7.7 7.4,-7.7 h 7.9 v -21 h -7.9 c -4.1,0 -7.4,-3.5 -7.4,-7.7 v -25.5 c 0,-4.2 3.3,-7.7 7.4,-7.7 h 7.9 v -21 h -7.9 c -4.1,0 -7.4,-3.4 -7.4,-7.7 v -25.5 c 0,-4.2 3.3,-7.6 7.4,-7.6 h 7.9 v -21.1 h -7.9 c -4.1,0 -7.4,-3.4 -7.4,-7.7 v -25.5 c 0,-4.2 3.3,-7.6 7.4,-7.6 h 7.9 v -21.1 h -7.9 c -4.1,0 -7.4,-3.4 -7.4,-7.6 v -25.5 c 0,-4.3 3.3,-7.7 7.4,-7.7 h 7.9 v -21 h -7.9 c -4.1,0 -7.4,-3.5 -7.4,-7.7 v -25.5 c 0,-4.3 3.3,-7.7 7.4,-7.7 h 7.9 v -21 h -7.9 c -4.1,0 -7.4,-3.4 -7.4,-7.7 v -25.5 c 0,-4.2 3.3,-7.6 7.4,-7.6 h 7.9 v -21.1 h -7.9 c -4.1,0 -7.4,-3.4 -7.4,-7.7 v -25.5 c 0,-4.2 3.3,-7.6 7.4,-7.6 h 7.9 v -21.1 h -7.9 c -4.1,0 -7.4,-3.4 -7.4,-7.6 v -25.6 c 0,-4.2 3.3,-7.6 7.4,-7.6 h 7.9 v -21 h -7.9 c -4.1,0 -7.4,-3.5 -7.4,-7.7 v -25.5 c 0,-4.3 3.3,-7.7 7.4,-7.7 h 7.9 v -21 h -7.9 c -4.1,0 -7.4,-3.4 -7.4,-7.7 v -25.5 c 0,-4.2 3.3,-7.6 7.4,-7.6 h 7.9 v -21.1 h -7.9 c -4.1,0 -7.4,-3.4 -7.4,-7.7 v -25.5 c 0,-4.2 3.3,-7.6 7.4,-7.6 h 7.9 v -21.1 h -7.9 c -4.1,0 -7.4,-3.4 -7.4,-7.6 v -25.6 c 0,-4.2 3.3,-7.6 7.4,-7.6 h 7.9 v -21 h -7.9 c -4.1,0 -7.4,-3.5 -7.4,-7.7 v -25.5 c 0,-4.3 3.3,-7.7 7.4,-7.7 h 7.9 v -21 h -7.9 c -4.1,0 -7.4,-3.4 -7.4,-7.7 v -25.5 c 0,-4.2 3.3,-7.6 7.4,-7.6 h 7.9 v -21.1 h -7.9 c -4.1,0 -7.4,-3.4 -7.4,-7.7 v -25.5 c 0,-4.2 3.3,-7.6 7.4,-7.6 h 7.9 v -21.1 h -7.9 c -4.1,0 -7.4,-3.4 -7.4,-7.6 v -25.6 c 0,-4.2 3.3,-7.6 7.4,-7.6 h 7.9 v -21 h -7.9 c -4.1,0 -7.4,-3.5 -7.4,-7.7 v -25.5 c 0,-4.3 3.3,-7.7 7.4,-7.7 h 7.9 v -21 h -7.9 c -4.1,0 -7.4,-3.5 -7.4,-7.7 v -25.5 c 0,-4.2 3.3,-7.6 7.4,-7.6 h 7.9 v -21.1 h -7.9 c -4.1,0 -7.4,-3.4 -7.4,-7.7 v -25.5 c 0,-4.2 3.3,-7.6 7.4,-7.6 h 7.9 v -21.1 h -7.9 c -4.1,0 -7.4,-3.4 -7.4,-7.6 v -25.5 c 0,-4.3 3.3,-7.7 7.4,-7.7 h 7.9 v -21.1 h -7.9 c -4.1,0 -7.4,-3.4 -7.4,-7.6 v -25.5 c 0,-4.3 3.3,-7.7 7.4,-7.7 h 7.9 v -21 h -7.9 c -4.1,0 -7.4,-3.5 -7.4,-7.7 v -25.5 c 0,-4.2 3.3,-7.6 7.4,-7.6 h 7.9 v -21.1 h -7.9 c -4.1,0 -7.4,-3.5 -7.4,-7.7 v -25.5 c 0,-4.2 3.3,-7.6 7.4,-7.6 h 7.9 v -21.1 h -7.9 c -4.1,0 -7.4,-3.4 -7.4,-7.6 v -25.5 c 0,-4.3 3.3,-7.7 7.4,-7.7 h 7.9 v -210.6 h -75.1 c 0,341.1 0,2021.6 0,2021.6 l -78.9,268.1 -42,84.1 v 310.1 l -91.3,55.6 -64.6,261.6 -7,68.3 -33.3,-21 -178.7,119.1 1.7,108.6 -31.5,24.7 v 326.6 l 44.6,15.8 v 160.3 l -42,34.2 v 141.9 l 18.4,28.9 v 57.8 l -28.9,26.3 -7.9,52 v 34.7 l -2.6,-17.3 -2.7,17.3 v -34.7 l -7.9,-52 -28.9,-26.3 v -57.8 l 18.4,-28.9 v -141.9 l -42,-34.2 v -160.3 l 44.7,-15.8 v -407.3 l -99.9,-462.6 h -184 l -120.9,-73.6 v -310.1 l -42,-84.1 -78.9,-268.1 c 0,0 0,-1680.5 0,-2021.6 h -65 v 3346.3 h -34.3 v 44.1 h 41.6 v 56.4 h -294 v 220.5 h -112.8 v 78.4 l -17.1,36.8 v 144.6 l 17.1,31.9 -45.3,45.3 -136,14.1 v 1.8 l -8.6,-0.9 -8.6,0.9 v -1.8 l -136,-14.1 -45.3,-45.3 17.2,-31.9 V 14905 l -17.2,-36.8 v -78.4 h -112.7 v -220.5 h -294.1 v -56.4 h 41.6 v -44.1 h -34.3 v -3346.3 h -111.3 v 110.5 h -59.3 c -185.2,232.4 -1247.3,1490 -2549.9,1510.3 v 0.2 c -5.2,0 -10.5,-0.1 -15.8,-0.1 -5.3,0 -10.6,0.1 -15.9,0.1 v -0.2 C 19082.2,12723 18020.2,11465.4 17834.9,11233 h -36.9 v -110.5 h -93.3 v 105.3 l -126.7,97.7 v 104.5 h -289.6 v 55.8 h 90.5 c 0,0 -108.6,1401.6 -54.3,2364 54.3,962.3 171.9,2161.7 171.9,2161.7 l -461.5,-376.6 v -306.8 l -316.8,-146.5 v -202.2 h -90.5 v 523 l -253.4,-118.5 c 0,0 135.8,-1108.8 144.8,-2022.3 9.1,-913.5 -81.4,-1847.9 -81.4,-1847.9 h 108.6 v -55.8 h -208.2 v -118.5 l -72.4,-76.7 v -140.2 h -143.8 v 1920.7 c -190.2,-7.6 -338.6,22.9 -563,239.7 -193.6,187 -641.8,167.4 -761.4,158.5 v 5 l 45.7,34.3 3.8,64.6 -64.7,26.6 c 0,0 -26.6,15.3 -57,15.3 v 91.3 c 0,0 -66.3,38.2 -208.6,41.5 v 0.3 c -3.3,0 -6.5,0 -9.8,-0.1 -3.3,0.1 -6.5,0.1 -9.8,0.1 v -0.3 c -142.4,-3.3 -208.6,-41.5 -208.6,-41.5 v -91.3 c -30.4,0 -57.1,-15.3 -57.1,-15.3 l -64.6,-26.6 3.8,-64.6 45.6,-34.3 v -64.6 l -118.5,-30.3 v -2229 h -167 v -191.3 h 12842.2 v 191.3 z m -4434.2,565.2 c 151.7,-130.9 308.6,-281.5 469.1,-454.7 h -381 v 58.6 l 46.9,11.7 v 41.1 h -170 c 0,0 0,196 35,343.3 z m -1883.4,870.4 v -0.6 c 0,0 5.4,0.4 15.9,0.5 10.5,-0.1 15.8,-0.5 15.8,-0.5 v 0.6 c 148.3,-1.1 802.5,-46.1 1654.1,-708.3 -380,38.7 -1153.6,93.7 -1554.5,80.6 h -59.3 -40.4 -59.3 c -433,14.1 -1300.7,-51.1 -1637.7,-89.5 857.1,670.7 1516.5,716.1 1665.4,717.2 z m -1793.6,-821 c 48.8,-148.1 48.8,-392.7 48.8,-392.7 h -170 v -41.1 l 46.9,-11.7 v -58.6 h -452.8 c 181,195.4 357.5,362 527.1,504.1" /><path
         id="path1388"
         style="fill:#262626;fill-opacity:1;fill-rule:nonzero;stroke:none"
         d="m 26677.2,6658.87 v 10 l 19.1,19.1 -19.1,22.28 v 347.07 l 51,25.45 v 22.31 h -66.9 v 44.57 h -181.5 v 187.85 l 9.6,19.1 -6.4,15.92 v 35.04 l 105.1,63.67 v 25.47 h -98.7 l -9.6,54.14 c 0,0 -12.7,15.92 -57.3,15.92 -44.6,0 -50.9,-31.84 -50.9,-31.84 h -254.8 l 3.2,44.55 h -89.1 v 162.41 l 63.7,54.12 v 25.46 h -76.5 l -9.5,44.58 h -127.4 c 0,0 -12.7,22.3 -76.4,22.3 -63.7,0 -82.8,-31.86 -82.8,-31.86 h -95.5 c 0,0 -52.9,23.46 -105.1,25.3 v 0.17 c -1,0 -2.1,-0.06 -3.1,-0.07 -1.1,0.01 -2.2,0.07 -3.2,0.07 v -0.17 c -52.2,-1.84 -105.1,-25.3 -105.1,-25.3 h -95.5 c 0,0 -19.1,31.86 -82.8,31.86 -63.7,0 -76.4,-22.3 -76.4,-22.3 h -127.4 l -9.5,-44.58 h -76.5 V 7796 l 63.7,-54.12 v -162.41 h -89.1 l 3.2,-44.55 h -254.8 c 0,0 -6.3,31.84 -50.9,31.84 -44.6,0 -57.3,-15.92 -57.3,-15.92 l -9.6,-54.14 h -98.7 v -25.47 l 105.1,-63.67 v -35.04 l -6.4,-15.92 9.6,-19.1 v -187.85 h -181.5 v -44.57 h -66.9 v -22.31 l 51,-25.45 v -347.07 l -19.1,-22.28 19.1,-19.1 v -10 h -75.5 v 9.04 l -12.5,17.46 v 206.97 32.45 l -12.5,14.96 v 329.16 l 34.9,19.94 -32.4,42.4 v 254.36 l 15,12.46 v 149.63 l 29.9,7.48 -219.4,164.59 -16.9,172.73 v 31.76 h -3.1 v -31.76 l -16.8,-172.73 -219.5,-164.59 29.9,-7.48 v -107.23 h -107 v -54.86 l -30,-18.29 25,-26.6 v -206.15 h -154.6 l -30,11.64 -28.2,-14.96 h -118.1 v 21.6 l 18.3,3.34 11.6,33.24 -69.8,29.93 -11.6,139.64 -5,-139.64 -63.2,-33.25 8.4,-36.58 19.9,-3.32 v -19.94 h -101.4 l -31.6,4.98 -38.2,41.54 -26.6,-28.24 h -73.2 l -71.5,54.86 -14.8,156.1 -0.9,9.24 -0.9,-9.24 -14.9,-156.1 -71.5,-54.86 h -73.1 l -26.6,28.24 -38.2,-41.54 -31.6,-4.98 h -101.4 v 19.94 l 19.9,3.32 8.3,36.58 -63.1,33.25 -5,139.64 -11.7,-139.64 -69.8,-29.93 11.6,-33.24 18.3,-3.34 v -21.6 h -118 l -28.3,14.96 -29.9,-11.64 h -154.6 v 206.15 l 24.9,26.6 -29.9,18.29 v 54.86 h -130 c -0.5,25.64 3.3,68.57 3.3,68.57 l 11.2,12.48 -10,9.96 v 301.74 l 15,28.67 v 152.13 l -16.2,9.96 -15,-4.98 -37.4,13.71 v 29.93 l 38.6,97.26 v 84.79 l 11.3,13.71 -10,12.46 v 87.28 l -21.2,7.49 -11.2,-27.43 h -23.7 v -27.44 h -17.5 v 28.69 h -24.9 v -29.94 h -23.7 v 33.67 h -3.8 -22.4 -3.7 v -33.67 h -23.7 v 29.94 h -25 v -28.69 h -17.4 v 27.44 h -23.7 l -11.2,27.43 -21.2,-7.49 v -87.28 l -10,-12.46 11.2,-13.71 v -84.79 l 38.7,-97.26 v -29.93 l -37.4,-13.71 -15,4.98 -16.2,-9.96 v -152.13 l 15,-28.67 v -301.74 l -10,-9.96 11.2,-12.48 c 0,0 7.5,-86.03 0,-87.28 -7.5,-1.23 -42.4,-26.17 -42.4,-26.17 l -24.9,-19.96 v -115.96 l 29.9,-68.58 V 6933.5 l -7.5,-9.98 7.5,-11.22 v -233.16 l -13.7,-9.57 v -10.7 h -42.1 v 13.45 l -35.6,54.97 c 0,0 6.5,41.99 -32.3,54.92 l -38.7,1770.95 16.1,29.09 v 135.72 c 0,0 9.7,32.32 16.2,45.25 6.4,12.91 32.3,48.48 48.5,74.32 16.1,25.86 9.7,48.5 -13,54.94 -22.6,6.47 -64.6,29.08 -87.2,6.47 -22.7,-22.62 -77.6,3.24 -93.8,6.46 -14.4,2.89 -13.4,13.54 -33.9,18.07 0,0 -2.7,0.97 -4,0.76 -1.3,0.21 -4.1,-0.76 -4.1,-0.76 -20.4,-4.53 -19.4,-15.18 -33.9,-18.07 -16.2,-3.22 -71.1,-29.08 -93.7,-6.46 -22.6,22.61 -64.6,0 -87.3,-6.47 -22.6,-6.44 -29.1,-29.08 -12.9,-54.94 16.2,-25.84 42,-61.41 48.5,-74.32 6.4,-12.93 16.1,-45.25 16.1,-45.25 v -135.72 l 16.2,-29.09 -38.8,-1770.95 c -38.8,-12.93 -32.3,-54.92 -32.3,-54.92 l -35.6,-54.97 v -13.45 h -23.3 v 660.04 h -38.6 v 57.95 l 19.3,33.8 v 120.75 l -38.7,-53.13 H 20936 l 4.9,106.25 -43.5,-19.32 -19.3,53.13 -19.3,9.67 -4.9,111.09 -77.3,43.46 v 318.77 c 0,0 -23.9,157.83 -195.5,202.19 v 0.66 c -0.5,-0.1 -0.8,-0.23 -1.3,-0.33 -0.4,0.1 -0.8,0.23 -1.2,0.33 v -0.66 C 20407,8259.16 20383,8101.33 20383,8101.33 v -269.26 h -154.5 v 188.36 h -36.3 v -71.41 H 20057 v 85.9 h -43.5 v -85.9 h -114.7 -7.2 -47.1 v 85.9 h -43.5 v -85.9 l -32.7,-0.17 v 223.14 l 44.7,59.69 v 114.37 l -79.5,34.83 v 223.81 l 24.8,34.82 v 124.32 l -39.8,39.78 v 228.79 l -9.9,74.61 -69.6,64.67 c 0,0 14.9,59.67 14.9,74.59 0,14.92 -39.8,49.73 -39.8,49.73 l -12.7,85.74 -3.6,24.28 -3.6,-24.28 -12.7,-85.74 c 0,0 -39.8,-34.81 -39.8,-49.73 0,-14.92 14.9,-74.59 14.9,-74.59 l -69.6,-64.67 -9.9,-74.61 v -228.79 l -39.8,-39.78 v -124.32 l 24.8,-34.82 v -223.81 l -79.6,-34.83 v -114.37 l 44.8,-59.69 v -293.44 l -12.7,-15.84 v 238.62 c 0,0 -23.9,157.83 -195.6,202.19 v 0.66 c -0.4,-0.1 -0.8,-0.23 -1.2,-0.33 -0.4,0.1 -0.8,0.23 -1.2,0.33 v -0.66 C 19045,8259.16 19021,8101.33 19021,8101.33 v -318.77 l -77.3,-43.46 -4.8,-111.09 -19.3,-9.67 -19.3,-53.13 -43.5,19.32 4.8,-106.25 h -130.4 l -38.6,53.13 v -120.75 l 19.3,-33.8 v -57.95 h -38.6 v -660.04 h -72.5 v 74.72 l -50.7,45.69 v 761.38 l 15.2,66 v 187.81 l -25.4,32.99 v 109.14 c 0,0 -25.4,55.84 -55.8,27.91 0,0 -20.3,17.78 -40.6,20.29 -20.3,2.54 -38.1,-25.37 -38.1,-25.37 0,0 -5.1,30.45 -35.5,31.72 -30.5,1.29 -30.5,-34.26 -30.5,-34.26 0,0 -19,17.78 -45.7,10.16 -26.6,-7.62 -22.8,-25.37 -22.8,-25.37 0,0 -5.1,1.27 -29.2,0 -24.1,-1.27 -20.3,-46.95 -19,-68.54 1.1,-18.86 -0.7,-30.93 -1.2,-33.65 -1.1,0.1 -2.1,0.22 -3.3,0.26 v 0.07 c -0.3,0 -0.6,-0.02 -0.9,-0.03 -0.4,0.01 -0.6,0.03 -1,0.03 v -0.07 c -23.8,-0.9 -25.7,-17.99 -25.7,-17.99 v -49.75 l -41.9,0.61 v 49.14 c 0,0 -1.8,17.09 -25.7,17.99 v 0.07 c -0.3,0 -0.6,-0.02 -0.9,-0.03 -0.3,0.01 -0.6,0.03 -1,0.03 v -0.07 c -23.8,-0.9 -25.7,-17.99 -25.7,-17.99 v -48.34 l -35.2,0.53 v 47.81 c 0,0 -1.8,17.09 -25.7,17.99 v 0.07 c -0.3,0 -0.6,-0.02 -0.9,-0.03 -0.3,0.01 -0.6,0.03 -1,0.03 v -0.07 c -23.8,-0.9 -25.6,-17.99 -25.6,-17.99 v -47.03 l -38.1,0.54 v 46.49 c 0,0 -1.9,17.09 -25.7,17.99 v 0.07 c -0.4,0 -0.6,-0.02 -1,-0.03 -0.3,0.01 -0.6,0.03 -0.9,0.03 v -0.07 c -23.9,-0.9 -25.7,-17.99 -25.7,-17.99 v -45.69 l -38.1,0.57 v 45.12 c 0,0 -1.9,17.09 -25.7,17.99 v 0.07 c -0.3,0 -0.6,-0.02 -0.9,-0.03 -0.4,0.01 -0.7,0.03 -1,0.03 v -0.07 c -23.8,-0.9 -25.7,-17.99 -25.7,-17.99 v -23.81 h -38.1 v 23.81 c 0,0 -1.8,16.27 -24.1,17.87 -1.2,4.32 -6.1,15.57 -25.3,16.29 v 0.1 c -0.4,0 -0.7,-0.04 -1,-0.04 -0.3,0 -0.6,0.04 -1,0.04 v -0.1 c -23.8,-0.9 -25.7,-17.99 -25.7,-17.99 v -24.24 l -14.2,5.51 v 2.56 c 0,0 -1.9,17.09 -25.7,17.99 v 0.07 c -0.4,0 -0.7,-0.02 -1,-0.03 -0.3,0.01 -0.6,0.03 -0.9,0.03 v -0.07 c -4.2,-0.16 -7.6,-0.82 -10.5,-1.78 v 31.37 c 0,0 -1.9,17.09 -25.7,18 v 0.08 c -0.3,0 -0.6,-0.04 -0.9,-0.04 -0.4,0 -0.7,0.04 -1,0.04 v -0.08 c -23.8,-0.91 -25.7,-18 -25.7,-18 v -23.79 h -10.1 v 136.17 l 0.6,-0.08 v 78.05 c -25.7,0 -25.7,-33.3 -25.7,-33.3 v -28.89 h -13.3 v 46.02 c 0,0 -1.9,17.09 -25.7,17.98 v 0.08 c -0.4,0 -0.6,-0.04 -1,-0.04 -0.3,0 -0.6,0.04 -0.9,0.04 v -0.08 c -23.9,-0.89 -25.7,-17.98 -25.7,-17.98 v -46.02 h -16.2 v 45.68 c 0,0 -1.9,17.11 -25.7,18.01 v 0.1 c -0.3,0 -0.6,-0.06 -1,-0.06 -0.3,0 -0.6,0.06 -0.9,0.06 v -0.1 c -23.8,-0.9 -25.7,-18.01 -25.7,-18.01 v -45.68 h -17.5 v 41.88 c 0,0 -1.8,17.1 -25.7,18 v 0.08 c -0.3,0 -0.6,-0.04 -0.9,-0.04 -0.3,0 -0.6,0.04 -1,0.04 v -0.08 c -23.8,-0.9 -25.7,-18 -25.7,-18 v -41.88 h -15.5 v 45.68 c 0,0 -1.9,17.11 -25.7,18.01 v 0.1 c -0.3,0 -0.6,-0.06 -0.9,-0.06 -0.4,0 -0.7,0.06 -1,0.06 v -0.1 c -23.8,-0.9 -25.7,-18.01 -25.7,-18.01 v -45.68 h -16.2 v 46.02 c 0,0 -1.8,17.09 -25.7,17.98 v 0.08 c -0.3,0 -0.6,-0.04 -0.9,-0.04 -0.4,0 -0.6,0.04 -1,0.04 v -0.08 c -23.8,-0.89 -25.7,-17.98 -25.7,-17.98 v -46.02 h -13.3 v 28.89 c 0,0 0,33.3 -25.7,33.3 v -78.05 l 0.6,0.08 v -136.17 h -10.1 v 23.79 c 0,0 -1.9,17.09 -25.7,18 v 0.08 c -0.3,0 -0.6,-0.04 -1,-0.04 -0.3,0 -0.6,0.04 -0.9,0.04 v -0.08 c -23.8,-0.91 -25.7,-18 -25.7,-18 v -31.35 c -2.9,0.94 -6.4,1.6 -10.5,1.76 v 0.07 c -0.3,0 -0.6,-0.02 -0.9,-0.03 -0.4,0.01 -0.6,0.03 -1,0.03 v -0.07 c -23.8,-0.9 -25.7,-17.99 -25.7,-17.99 v -2.56 l -14.3,-5.51 v 24.24 c 0,0 -1.8,17.09 -25.7,17.99 v 0.1 c -0.3,0 -0.6,-0.04 -0.9,-0.04 -0.3,0 -0.6,0.04 -1,0.04 v -0.1 c -19.2,-0.72 -24.1,-11.97 -25.3,-16.29 -22.3,-1.6 -24.1,-17.87 -24.1,-17.87 v -23.81 h -38.1 v 23.81 c 0,0 -1.9,17.09 -25.7,17.99 v 0.07 c -0.4,0 -0.6,-0.02 -1,-0.03 -0.3,0.01 -0.6,0.03 -0.9,0.03 v -0.07 c -23.9,-0.9 -25.7,-17.99 -25.7,-17.99 v -45.12 l -38.1,-0.57 v 45.69 c 0,0 -1.9,17.09 -25.7,17.99 v 0.07 c -0.3,0 -0.6,-0.02 -0.9,-0.03 -0.4,0.01 -0.7,0.03 -1,0.03 v -0.07 c -23.8,-0.9 -25.7,-17.99 -25.7,-17.99 v -46.49 l -38.1,-0.54 v 47.03 c 0,0 -1.8,17.09 -25.6,17.99 v 0.07 c -0.4,0 -0.7,-0.02 -1,-0.03 -0.3,0.01 -0.6,0.03 -1,0.03 v -0.07 c -23.8,-0.9 -25.7,-17.99 -25.7,-17.99 v -47.81 l -35.2,-0.53 v 48.34 c 0,0 -1.8,17.09 -25.7,17.99 v 0.07 c -0.3,0 -0.6,-0.02 -0.9,-0.03 -0.3,0.01 -0.6,0.03 -1,0.03 v -0.07 c -23.8,-0.9 -25.7,-17.99 -25.7,-17.99 v -49.14 l -41.9,-0.61 v 49.75 c 0,0 -1.8,17.09 -25.6,17.99 v 0.07 c -0.4,0 -0.7,-0.02 -1,-0.03 -0.3,0.01 -0.6,0.03 -0.9,0.03 v -0.07 c -1.2,-0.04 -2.3,-0.16 -3.3,-0.26 -0.5,2.72 -2.3,14.79 -1.2,33.65 1.3,21.59 5.1,67.25 -19,68.52 -24.1,1.29 -29.2,0 -29.2,0 0,0 3.8,17.77 -22.8,25.39 -26.7,7.62 -45.7,-10.16 -45.7,-10.16 0,0 0,35.55 -30.5,34.26 -30.4,-1.27 -35.5,-31.72 -35.5,-31.72 0,0 -17.8,27.91 -38.1,25.37 -20.3,-2.51 -40.6,-20.29 -40.6,-20.29 -30.4,27.93 -55.8,-27.91 -55.8,-27.91 v -109.14 l -25.4,-32.99 v -187.81 l 15.2,-66 v -761.38 l -50.7,-45.69 v -74.72 h -95.7 c -460,515.54 -1774.8,667.3 -1929.9,667.3 -158.6,0 -141.6,-84.94 -141.6,-84.94 v -582.36 h -79.2 v -190.78 h 12804.7 v 190.78 h -58.2" /><path
         id="path1390"
         style="fill:#262626;fill-opacity:1;fill-rule:nonzero;stroke:none"
         d="m 26630.7,1452.58 v 1689.84 c 0,0 -83.5,103.54 -297.2,103.54 -213.8,0 -263.9,-63.46 -263.9,-63.46 h -524.4 v -193.71 h -50.1 v -270.53 h 53.5 V 1452.58 h -181 v 132.93 l 55.6,34.72 v 534.71 c -13.9,125 -583.3,104.16 -583.3,104.16 l -187.5,-41.66 v -76.39 h -69.5 c 0,0 -34.7,83.34 -493,83.34 -458.3,0 -659.7,-243.04 -659.7,-243.04 l -173.6,-34.73 v 1715.26 l -298.7,458.32 c -416.6,-76.39 -493,-319.44 -493,-319.44 0,0 0,-1990.53 0,-2348.18 h -118 v 695.27 h -48.6 v 201.04 l -30.2,30.23 c 0,0 0,84.08 -10.5,113.01 -10.6,28.91 -57.9,15.76 -57.9,23.65 0,7.87 0,34.16 -15.7,44.67 -15.8,10.51 -44.7,10.51 -76.3,23.65 -31.5,13.17 -333.7,320.65 -333.7,320.65 l 36.8,-2.64 -28.9,128.77 c 0,0 28.9,-15.76 28.9,7.89 0,23.65 -57.8,141.91 -57.8,141.91 0,0 47.3,-57.81 39.4,-26.27 -7.9,31.53 -21,233.89 -21,233.89 0,0 18.3,-63.09 15.7,-13.12 -2.6,49.92 -42,189.21 -42,189.21 0,0 23.6,-13.14 26.3,-5.27 2.6,7.89 -21.1,149.81 -21.1,149.81 l 15.8,-10.51 c 0,0 0,34.16 -2.6,52.56 -2.7,18.4 -18.4,91.99 -21.1,123.51 -2.6,31.55 -21,68.32 -21,68.32 l -7.9,76.23 34.2,65.71 c -42.1,39.43 -165.6,49.94 -165.6,49.94 l -21,110.37 -36.8,-105.12 c -57.8,-5.25 -155,-63.08 -155,-63.08 0,0 5.2,-57.82 15.7,-73.58 10.5,-15.78 10.5,-68.32 10.5,-68.32 0,0 -5.2,-31.54 -26.2,-47.3 -21.1,-15.78 0,-57.84 0,-57.84 l -10.5,-89.35 -47.4,-63.07 10.5,-52.56 c 0,0 -52.5,-57.83 -84,-78.84 -31.6,-21.04 47.3,-36.8 47.3,-36.8 l -89.4,-84.1 47.3,-21.04 c 0,0 -99.9,-94.61 -110.4,-120.88 -10.5,-26.29 68.4,-21.03 68.4,-21.03 l -120.9,-105.12 31.5,-73.59 c 0,0 -120.9,-63.07 -525.6,-205 -404.7,-141.9 -509.9,-289.06 -567.7,-452.01 -57.8,-162.95 68.4,-268.07 68.4,-268.07 h -184 v -52.56 l -63.1,-31.54 v -621.68 h -121.8 v 2040.8 h -35.5 v 61.52 h -49.7 v 59.16 h -52 V 3659 c 0,0 -89.9,-7.09 -298.1,11.84 -208.2,18.93 -414,80.43 -414,80.43 V 1452.58 h -124.9 v 1590.25 h -72 v 81.04 h -103.6 v 144.06 h -153 c 0,0 -67.6,54.02 -202.6,54.02 -135.1,0 -256.6,-90.04 -256.6,-90.04 l -81.1,-9 v -153.09 h -117 v -90.02 h -535.7 v 283.62 h -445.7 c 0,0 -36,49.53 -157.6,49.53 -121.6,0 -171.1,-54.02 -171.1,-54.02 0,0 -22.5,18 -153,18 -130.6,0 -193.6,-49.53 -193.6,-49.53 0,0 -31.5,-58.51 4.5,-103.53 36,-45.02 18,-162.07 18,-162.07 -112.6,0 -180.1,-49.53 -180.1,-49.53 V 1629.22 h -99 v -94.53 h 49.5 c 0,0 0,-38.34 0,-82.11 h -111.9 c -60,23.47 -127.5,49.35 -139.7,51.68 -22.8,4.29 -45.5,55.99 -81.3,55.99 -35.8,0 -71.6,34.46 -126.9,30.14 -55.4,-4.3 -100.9,-12.91 -120.4,-8.61 -19.6,4.31 -71.6,21.54 -71.6,21.54 v 103.38 l -244.1,111.99 v 103.4 c 0,0 6.5,12.89 9.8,43.07 3.2,30.13 -29.3,55.97 -22.8,68.9 6.5,12.91 32.5,43.07 19.5,51.7 -13,8.62 -22.8,47.37 -22.8,47.37 v 124.92 l -35.7,986.4 -29.3,27.13 -29.3,-27.13 -35.8,-986.4 v -124.92 c 0,0 -9.8,-38.75 -22.8,-47.37 -13,-8.63 13,-38.79 19.5,-51.7 6.5,-12.93 -26,-38.77 -22.7,-68.9 3.2,-30.18 9.7,-43.07 9.7,-43.07 v -103.4 l -244,-111.99 v -103.38 c 0,0 -52.1,-17.23 -71.6,-21.54 -19.5,-4.3 -65.1,4.31 -120.4,8.61 -55.3,4.32 -91.1,-30.14 -126.9,-30.14 -35.8,0 -58.6,-51.7 -81.4,-55.99 -12.2,-2.33 -79.7,-28.21 -139.6,-51.68 h -120.8 V 1265.66 H 26696 v 186.92 z m -4949.6,1070.19 c 42.1,0 283.9,-80.58 283.9,-80.58 l -10.5,-66.56 -49.1,-14.05 -3.5,-206.72 -119.1,-10.5 c 0,0 0,52.55 -14.1,84.08 -14,31.54 -17.5,56.09 -17.5,56.09 l -112.1,24.49 c 0,0 -3.5,66.61 -3.5,91.12 0,24.51 3.5,122.63 45.5,122.63 z m -770.9,59.59 c 0,0 227.8,17.5 297.9,10.51 70.1,-7.01 154.2,-38.55 168.2,-38.55 14,0 17.5,-294.34 24.5,-339.91 7,-45.54 7,-63.06 7,-63.06 l -641.3,-17.54 c -3.5,14.04 10.6,84.12 -49,126.17 -59.6,42.05 -112.1,59.57 -112.1,59.57 0,0 273.3,217.25 304.8,262.81 z m -746.4,-80.6 c 66.6,87.62 311.9,168.2 311.9,168.2 0,0 -136.7,-322.38 -150.7,-346.91 -14,-24.53 -42,-28.03 -73.6,-38.52 -31.5,-10.55 -38.5,-112.17 -38.5,-112.17 -157.7,129.67 -115.6,241.8 -49.1,329.4 z m -2842.7,257.44 h 454.7 v -828.34 l -454.7,-18.01 c 0,22.5 0,846.35 0,846.35" /><path
         id="path1392"
         style="fill:#262626;fill-opacity:1;fill-rule:nonzero;stroke:none"
         d="m 26505.3,23676 -17.7,67.2 h -54.9 v 645.4 l 36.6,131.9 95.2,83.3 v 118 h -768.8 -36.6 -768.8 v -118 l 95.1,-83.3 36.7,-131.9 v -645.4 h -55 l -17.7,-67.2 h -135.2 c 0,74.1 0,219.3 0,219.3 l 17.1,46.9 v 1066.9 l -42.7,32 -53.3,14.9 v 19.2 l -40.6,18.5 -3.2,1.4 -3.2,-1.4 -40.5,-18.5 v -19.2 l -53.4,-14.9 -42.6,-32 v -15 l -205.9,93.9 v 102.5 l -31,25.6 -3.2,76.8 -20.2,11.7 -42.7,26.7 -6.4,16 -44.8,16.9 -1.6,0.6 -1.6,-0.6 -44.8,-16.9 -6.4,-16 -42.7,-26.7 -20.3,-11.7 -2.6,-61.9 h -478.1 l -2.6,61.9 -20.2,11.7 -42.7,26.7 -6.4,16 -44.8,16.9 -1.6,0.6 -1.6,-0.6 -44.8,-16.9 -6.4,-16 -42.7,-26.7 -20.3,-11.7 -3.2,-76.8 -30.9,-25.6 V 25088 l -205.9,-93.9 v 15 l -42.7,32 -53.3,14.9 v 19.2 l -40.6,18.5 -3.2,1.4 -3.2,-1.4 -40.5,-18.5 v -19.2 l -53.3,-14.9 -42.7,-32 v -1066.9 l 17,-46.9 c 0,0 0,-145.2 0,-219.3 h -167 v 2276.9 h -269 l -15.4,-38.4 -38.5,38.4 h -445.8 -7.7 -445.8 l -38.5,-38.4 -15.3,38.4 h -269.1 V 23676 h -125.1 c -122.2,137.2 -390.5,488 -494.3,1019.9 -136.4,698.8 -147.7,1022.6 -147.7,1022.6 0,0 -147.7,-11.4 -153.4,170.4 l -56.8,-36.9 v -278.4 h -100.8 v 115 c 0,0 -56.9,-8.5 -56.9,-93.7 v -21.3 h -85.2 v 116.5 c 0,0 -56.8,-8.6 -56.8,-93.8 v -22.7 h -92.3 -62.5 -105.1 v 22.7 c 0,85.2 -56.8,93.8 -56.8,93.8 v -116.5 h -85.2 v 21.3 c 0,85.2 -56.8,93.7 -56.8,93.7 v -115 h -88 v 278.4 l -56.9,36.9 c -5.7,-181.8 -153.3,-170.4 -153.3,-170.4 0,0 -11.4,-323.8 -147.7,-1022.6 -103.8,-531.9 -372.2,-882.7 -494.4,-1019.9 H 18459 v 157.3 l 69,4.7 -175.6,831.8 225.8,709.5 h -727.8 l 144.3,159.8 -320,56.4 h -69 -18.8 -69 l -320,-56.4 144.3,-159.8 h -727.9 l 225.9,-709.5 -175.7,-831.8 69,-4.7 V 23676 h -312.7 v 125.8 l 127.6,21.4 -92.8,602.6 92.8,442.6 -108.3,26.6 -19.3,-26.6 h -113.5 v 43.3 h -32.2 v -43.3 h -176.7 v 43.3 h -32.2 v -43.3 h -176.6 v 43.3 h -32.3 v -43.3 h -176.6 v 43.3 h -32.2 v -43.3 h -176.7 v 43.3 h -32.2 v -43.3 h -121.2 -55.5 v 43.3 h -32.2 v -43.3 h -28.3 -148.3 v 43.3 h -32.2 v -43.3 h -176.7 v 43.3 h -32.2 v -43.3 h -176.7 v 43.3 h -32.2 v -43.3 h -176.6 v 43.3 h -32.3 v -43.3 h -176.6 v 43.3 h -32.2 v -43.3 h -86.4 l -19.4,26.6 -108.3,-26.6 92.9,-442.7 -92.9,-602.6 127.7,-21.3 V 23676 h -169.3 v -188.5 h 12650.8 v 188.5 h -76.2" /></g></g></svg>
