<?xml version="1.0" encoding="UTF-8" standalone="no"?>
<svg
   xmlns:dc="http://purl.org/dc/elements/1.1/"
   xmlns:cc="http://creativecommons.org/ns#"
   xmlns:rdf="http://www.w3.org/1999/02/22-rdf-syntax-ns#"
   xmlns:svg="http://www.w3.org/2000/svg"
   xmlns="http://www.w3.org/2000/svg"
   xmlns:sodipodi="http://sodipodi.sourceforge.net/DTD/sodipodi-0.dtd"
   xmlns:inkscape="http://www.inkscape.org/namespaces/inkscape"
   inkscape:version="1.0 (4035a4fb49, 2020-05-01)"
   sodipodi:docname="newyork.svg"
   viewBox="0 0 1155.96 572.71063"
   height="572.71063"
   width="1155.96"
   xml:space="preserve"
   id="svg10"
   version="1.1"><metadata
     id="metadata16"><rdf:RDF><cc:Work
         rdf:about=""><dc:format>image/svg+xml</dc:format><dc:type
           rdf:resource="http://purl.org/dc/dcmitype/StillImage" /><dc:title></dc:title></cc:Work></rdf:RDF></metadata><defs
     id="defs14" /><sodipodi:namedview
     inkscape:current-layer="g20"
     inkscape:window-maximized="1"
     inkscape:window-y="-8"
     inkscape:window-x="-8"
     inkscape:cy="-683.84483"
     inkscape:cx="-1082.8672"
     inkscape:zoom="0.22922045"
     showgrid="false"
     id="namedview12"
     inkscape:window-height="1027"
     inkscape:window-width="1920"
     inkscape:pageshadow="2"
     inkscape:pageopacity="0"
     guidetolerance="10"
     gridtolerance="10"
     objecttolerance="10"
     borderopacity="1"
     bordercolor="#666666"
     pagecolor="#ffffff" /><g
     transform="matrix(1.3333333,0,0,-1.3333333,-2496.2266,703.43198)"
     inkscape:label="ink_ext_XXXXXX"
     inkscape:groupmode="layer"
     id="g18"><g
       transform="scale(0.1)"
       id="g20"><path
         id="path40"
         style="fill:#f9f9f9;fill-opacity:1;fill-rule:nonzero;stroke:none"
         d="m 27120.9,1109.57 6.2,137.21 v 177.38 h -20.8 l 10.4,118.85 -22.9,3.69 v 888.75 l -31.2,7.3 4.2,78.64 16.6,14.63 -31.2,5.5 -2.1,224.93 c 0,0 -6.2,40.23 -24.9,43.88 0,0 -10.4,57.31 -14.6,63.4 0,0 1.4,60.96 -15.2,70.7 0,0 8.3,57.31 -27.8,81.68 0,0 -1.3,59.75 -22.1,76.8 0,0 -11.1,67.07 -26.3,79.26 0,0 -2.9,69.49 -16.7,85.35 0,0 5.5,67.05 -8.3,93.87 l -7.3,177.07 v 59.43 l -1.2,-29.71 -1.2,29.71 v -59.43 l -7.3,-177.07 c -13.8,-26.82 -8.3,-93.87 -8.3,-93.87 -13.9,-15.86 -16.7,-85.35 -16.7,-85.35 -15.2,-12.19 -26.3,-79.26 -26.3,-79.26 -20.8,-17.05 -22.2,-76.8 -22.2,-76.8 -36,-24.37 -27.7,-81.68 -27.7,-81.68 -16.6,-9.74 -15.2,-70.7 -15.2,-70.7 -4.2,-6.09 -14.6,-63.4 -14.6,-63.4 -18.7,-3.65 -24.9,-43.88 -24.9,-43.88 l -2.1,-224.93 -31.2,-5.5 16.6,-14.63 4.2,-78.64 -31.2,-7.3 V 1546.7 l -22.9,-3.69 10.4,-118.85 h -20.8 v -177.38 l 6.1,-137.21 h -177.6 c 64.9,719.88 -67.3,2113.69 -67.3,2113.69 l -160,83.03 -94.9,9.22 -284.4,-78.4 V 1109.57 h -75.2 l 7.8,972.11 5.2,3.48 -3.5,22.55 -6.9,65.08 -11.3,8.69 -7.8,27.76 -10.4,4.33 0.8,27.76 -4.3,11.29 -3.5,-5.2 -6,0.88 -7.9,12.99 -2.6,-15.61 -29.5,-3.47 -0.8,-12.13 -139.7,39.9 -7.9,39.04 c 0,0 -5.2,19.96 -5.2,22.58 0,2.6 -12.1,-20.84 -12.1,-20.84 l -4.3,19.96 -10.5,-9.55 -11.5,42.85 v 397.11 l 6.9,-1.74 -0.9,64.22 c 0,0 -6.9,-10.43 -6.9,-6.95 0,3.48 -2.6,26.91 -2.6,26.91 l -6.1,-12.16 -2.6,12.16 -7.8,-13.88 0.9,-13.89 -13,-2.62 0.8,19.96 -4.3,-6.05 v 163.14 l 8.7,-3.49 v 43.4 h -6.1 v 93.71 l -5.2,11.29 v 50.33 l 7.8,7.79 -7,6.95 -17.3,52.93 -17.3,-52.07 -23.5,9.56 -9.5,7.79 -34.8,102.42 -1.7,61.6 -6.9,-14.74 -9.6,5.19 -2.6,54.67 -7.8,7.83 v 19.08 l -11.8,28.58 v 17.42 l -14.8,-35.59 v -19.1 l -7.8,-7.81 -2.6,-54.65 -9.5,-5.21 -7,14.74 -1.7,-61.58 -34.7,-102.42 -9.6,-7.81 -23.4,-9.54 -17.4,52.07 -17.3,-52.94 -7,-6.96 7.8,-7.79 v -50.33 l -5.2,-11.29 v -93.71 h -6 v -43.38 l 8.7,3.47 V 2837.5 l -4.4,6.05 0.9,-19.94 -13.1,2.6 0.9,13.89 -7.8,13.88 -2.6,-12.14 -6,12.14 c 0,0 -2.7,-23.43 -2.7,-26.89 0,-3.48 -6.9,6.91 -6.9,6.91 l -0.9,-64.2 7,1.76 v -504.18 l -7.8,-1.74 -4.4,23.42 -2.6,-25.15 -16.5,-1.74 -4.3,12.15 -0.9,-33.85 -19.1,-35.57 v 11.29 l -4.6,4.61 -6.3,-6.37 v -88.49 l -11,-11 h 8.1 V 1109.57 h -150.5 v 310.35 l -141.1,2256.97 h -51.3 v 40.59 h -141.2 l -38.5,627.44 -21.3,-630.56 h -154 v -49.95 h -51.3 l -132.6,-2216.36 -7.9,-338.48 h -152.4 v 290.8 h -192.6 l 37.4,37.4 -3,38.89 17.9,14.94 v 136.11 l -47.8,2.99 -10.5,-23.92 -67.3,-2.99 -4.5,82.25 c 0,0 -17.9,77.79 -17.9,82.26 0,4.49 9,31.41 9,31.41 0,0 14.9,35.92 13.4,44.88 -1.5,8.96 -55.3,25.41 -55.3,25.41 l 4.5,89.77 -22.5,13.45 c 0,0 -20.9,32.91 -25.4,44.87 -4.5,11.97 -9,73.3 -9,73.3 0,0 -9,204.9 -7.4,209.39 1.4,4.51 16.4,13.48 16.4,26.92 0,13.47 -15,169.04 -4.5,191.46 10.5,22.44 9,8.97 6,37.38 -3,28.42 3,86.78 7.5,91.25 4.4,4.5 14.9,5.98 14.9,14.94 0,8.99 -10.5,145.1 -10.5,145.1 0,0 -5.9,25.43 -11.9,61.33 -6,35.88 -16.5,210.9 -16.5,210.9 0,0 10.5,0 34.4,17.95 24,17.93 24,29.9 31.5,65.8 7.4,35.9 16.4,88.26 16.4,88.26 l 31.4,56.82 c 0,0 43.4,13.47 55.3,29.92 12,16.44 25.5,23.92 44.9,43.38 19.5,19.43 31.4,44.86 34.4,53.83 3,9 -22.4,46.38 -20.9,52.36 1.5,6 19.4,31.41 23.9,43.38 4.5,11.97 13.5,49.35 13.5,49.35 0,0 -188.5,107.7 -195.9,109.2 -7.5,1.51 -71.9,-98.73 -71.9,-98.73 0,0 -11.9,4.49 -52.3,26.92 -40.4,22.44 -49.3,85.25 -53.8,146.6 -4.5,61.31 -43.4,86.76 -62.9,107.67 -19.4,20.96 -59.8,55.36 -59.8,55.36 0,0 -13.5,19.45 -15,35.89 -1.4,16.43 -13.4,50.84 -1.4,73.28 11.9,22.45 -15,62.84 -18,74.79 -3,11.97 10.5,26.93 15,32.91 4.4,5.98 -9,29.92 -12,44.86 -3,14.96 7.5,29.93 7.5,29.93 l 155.5,23.92 -157,7.46 v 20.96 l 149.5,71.8 -158.5,-43.38 -20.9,25.43 83.7,106.19 -118.2,-83.75 c -16.4,13.46 -56.8,7.48 -56.8,7.48 l -10.4,143.57 -28.5,-142.09 c -10.4,0 -53.8,-11.95 -53.8,-11.95 l -119.7,86.74 92.8,-104.69 -37.4,-23.93 -109.4,-18.02 c -0.4,10.8 0,23.28 1.7,35.95 4.5,32.91 -24,127.15 -28.4,154.07 -4.5,26.93 -22.5,172.01 -22.5,186.97 0,14.94 6,31.41 6,61.31 0,29.92 -37.4,85.25 -37.4,85.25 0,0 -1.5,20.96 3,32.93 4.5,11.95 10.4,40.37 10.4,40.37 37.5,7.48 58.4,19.46 58.4,19.46 v 76.27 c -10.5,7.48 -73.3,14.94 -73.3,14.94 0,0 -1.5,22.46 29.9,35.91 31.5,13.46 34.4,59.83 43.4,119.65 9,59.85 -82.3,127.13 -82.3,127.13 0,0 13.5,-49.33 7.5,-71.79 -6,-22.43 -40.4,-35.88 -62.8,-47.86 -22.4,-11.95 -35.9,-59.82 -41.9,-79.25 -6,-19.46 21,-43.4 21,-43.4 l -1.5,-38.87 c -64.3,4.47 -77.8,-13.46 -77.8,-13.46 l -3,-71.81 c 0,0 32.9,-20.94 38.9,-23.91 6,-3.01 19.4,-53.87 19.4,-53.87 0,0 -8.9,-8.98 -11.9,-20.93 -3,-11.96 25.4,-22.45 17.9,-37.39 -7.5,-14.96 9,-16.44 9,-46.38 0,-29.91 23.9,-86.74 23.9,-113.68 0,-26.91 -3,-107.67 0,-158.53 3,-50.88 32.9,-239.32 32.9,-239.32 0,0 -71.8,-161.52 -80.7,-191.44 -9,-29.9 47.8,-101.72 56.8,-101.72 9,0 3,-50.84 0,-59.81 -3,-8.98 50.8,-68.82 50.8,-68.82 0,0 -2.9,-47.86 -2.9,-74.77 0,-26.91 -21,-32.91 -21,-41.87 0,-8.99 50.9,-68.83 56.8,-83.77 6,-14.96 53.9,-62.84 33,-83.77 -21,-20.94 -74.8,-167.52 -83.8,-224.36 -9,-56.82 83.8,-44.88 83.8,-44.88 0,0 -6,-77.78 -9,-89.75 -3,-11.95 -38.9,-62.79 -38.9,-95.7 0,-32.91 23.9,-62.83 23.9,-62.83 0,0 9,-56.84 9,-89.73 0,-32.91 18,-197.44 18,-197.44 0,0 -15,-44.86 -24,-68.81 -8.9,-23.93 15,-47.85 15,-47.85 l -3,-32.91 c 0,0 -26.9,-83.75 -35.9,-125.65 -9,-41.89 6,-200.43 6,-200.43 0,0 -12,-20.93 -12,-29.88 0,-8.98 12,-38.9 12,-38.9 0,0 -53.9,-137.62 -68.8,-149.59 -15,-11.96 -29.9,-62.82 -29.9,-62.82 l -18,-23.92 v -68.79 l -29.9,-23.95 -23.9,-65.82 8.9,-179.47 -38.9,-3.01 -5.9,26.94 h -29.9 l -44.9,-80.77 18,-128.63 h -178.6 v -290.8 H 22370 v 351.93 h -24.8 v 98.93 h -141.3 v 2017.93 l -109.6,148.42 -38.8,-17.66 v 35.33 l -109.6,180.24 -159,-243.87 v -42.38 l -35.4,21.21 -117.2,-311.49 V 1109.57 h -150.5 v 1148.26 h 11.5 l 2.3,14.2 -13.8,3.56 v 44.47 l 16.1,12.4 -16.1,14.22 v 138.65 l 9.2,8.91 v 15.97 l -9.2,7.09 v 28.48 l 43.6,33.75 c 0,0 -284.4,344.85 -291.3,348.38 -6.9,3.57 -48.1,14.24 -48.1,14.24 h -11.5 -11.5 c 0,0 -41.3,-10.67 -48.2,-14.24 -6.9,-3.53 -291.3,-348.38 -291.3,-348.38 l 43.6,-33.75 v -28.48 l -9.1,-7.09 v -15.97 l 9.1,-8.91 V 2346.7 l -16,-14.24 16,-12.4 v -44.47 l -13.7,-3.56 2.3,-14.2 h 11.4 V 1109.57 h -57.9 v 137.19 h -143.6 v 332.95 h -75.1 v 215.43 h -42.4 v 1002.13 h -22.9 v 205.64 h -29.3 v 156.7 l -55.5,55.49 -50.6,50.58 v 272.58 l 14.7,22.85 -29.4,35.9 -13.1,378.65 h -13 -13.1 l -13,-378.65 -29.4,-35.9 14.7,-22.85 v -272.58 l -50.6,-50.58 -55.5,-55.49 v -156.7 h -29.4 v -205.64 h -22.8 V 1795.14 h -42.5 v -215.43 h -75 v -332.95 h -143.7 v -137.19 h -106.4 v 1283.46 l -600.5,277.83 -142.2,-132.31 V 1288.26 l -93.5,-12.22 -0.2,-166.47 h -226.2 V 980.41 h 8669.7 v 129.16 z m -4020,2990.57 -19.5,13.45 c 0,0 -3,52.35 -10.5,80.77 -3,11.6 -10.3,22.67 -18.2,32.05 l 57.1,-3.64 c 0,0 7.5,-10.47 7.5,-17.95 0,-7.48 9,-35.89 9,-49.37 0,-13.44 -25.4,-55.31 -25.4,-55.31 z m 17.9,180.97 -1.5,-26.93 -68.2,-23.59 c -10.3,11.44 -20.7,19.72 -23,22.11 -2.6,2.57 -5.2,14.1 -6.1,29.66 l 98.8,-1.25" /></g></g></svg>
